<svg version="1.2" xmlns="http://www.w3.org/2000/svg" viewBox="0 0 425 69" width="425" height="69">
	<title>New Project</title>
	<defs>
		<radialGradient id="g1" cx="0" cy="0" r="1" gradientUnits="userSpaceOnUse" gradientTransform="matrix(206.748,0,0,79.091,206.228,2.558)">
			<stop offset="0" stop-color="#bdb1bc"/>
			<stop offset=".996" stop-color="#978dae"/>
		</radialGradient>
		<radialGradient id="g2" cx="0" cy="0" r="1" gradientUnits="userSpaceOnUse" gradientTransform="matrix(206.749,0,0,79.091,206.225,6.1)">
			<stop offset="0" stop-color="#857c85"/>
			<stop offset=".996" stop-color="#806785"/>
		</radialGradient>
	</defs>
	<style>
		.s0 { fill: url(#g1) } 
		.s1 { fill: url(#g2) } 
		.s2 { opacity: .2;mix-blend-mode: soft-light;fill: #c7ccdb } 
		.s3 { opacity: .3;mix-blend-mode: multiply;fill: #b2abc3 } 
		.s4 { opacity: .3;mix-blend-mode: multiply;fill: #7f739b } 
		.s5 { opacity: .5;mix-blend-mode: soft-light;fill: #c7ccdb } 
		.s6 { fill: #c1b5c6 } 
		.s7 { mix-blend-mode: soft-light;fill: #c7ccdb } 
		.s8 { fill: #614963 } 
		.s9 { opacity: .5;mix-blend-mode: multiply;fill: #7f739b } 
		.s10 { fill: #ffffff } 
		.s11 { opacity: .6;mix-blend-mode: multiply;fill: #7f739b } 
		.s12 { opacity: .2;mix-blend-mode: multiply;fill: #9e9baf } 
		.s13 { opacity: .2;mix-blend-mode: multiply;fill: #c39dcd } 
	</style>
	<g id="Layer 1">
		<g id="&lt;Group&gt;">
			<path id="&lt;Path&gt;" fill-rule="evenodd" class="s0" d="m399 63.5q-186.5 2.8-373 0c-7.2-0.1-17.3-5.7-20.8-12.9-5.3-10.4-6.6-22.4-3-33.6 3.5-8.5 12.7-14 21.6-14.6q188.7-2.9 377.4 0c8.9 0.6 18.1 6.1 21.6 14.6 3.6 11.2 2.2 23.2-3 33.6-3.5 7.2-13.7 12.8-20.8 12.9z"/>
			<path id="&lt;Path&gt;" fill-rule="evenodd" class="s1" d="m423.2 45.1q-1.2 4.7-3.4 9.1c-3.5 7.1-13.7 12.8-20.8 12.9q-24.1 0.3-48.3 0.6 0 0 0 0-48.1 0.5-96.1 0.6-7.1 0.1-14.2 0.1-9.3 0-18.6 0-20.8 0-41.5 0-0.8 0-1.5 0-11.9-0.1-23.8-0.1-8.9 0-17.8-0.1-20.9-0.1-41.9-0.3-9.1-0.1-18.3-0.2 0 0 0 0-1 0-2 0 0 0 0 0-17.9-0.2-35.7-0.5 0 0-0.1 0-0.8 0-1.6 0-3.8 0-7.5-0.1h-0.3q0 0-0.1 0-1 0-2.1 0 0 0 0 0-0.8 0-1.6 0c-5.8-0.1-13.5-3.8-18.1-9q0 0 0 0-1.1-1.3-2-2.6-0.4-0.7-0.7-1.3-0.6-1.2-1.1-2.5-0.7-1.4-1.2-2.8 0-0.2-0.1-0.4-1.6-4.4-2.2-9-0.4-2.8-0.4-5.5 0-0.5 0-1c0-4.2 0.7-8.4 2-12.5q0.4-0.9 0.8-1.7c4-7.5 12.5-12.3 20.8-12.9q5.8-0.1 11.7-0.2 64.3-0.9 128.6-1.1 10.6-0.1 21.2-0.1 44.8-0.1 89.6 0.1 0.4 0 0.9 0.1 1.7 0 3.5 0 6.8 0 13.7 0.1 13.2 0 26.3 0.2 0.1-0.1 0.2 0 0 0 0 0 3.5 0 6.9 0 0 0 0 0 6.6 0.1 13.3 0.1 0.6 0 1.3 0 19.4 0.2 38.9 0.5 10.6 0.1 21.3 0.3c4.5 0.3 9.2 2 13.1 4.6 3.7 2.5 6.8 5.9 8.5 10q0.6 1.9 1 3.8c1.5 6.9 1.2 14-0.6 20.8z"/>
			<path id="&lt;Path&gt;" fill-rule="evenodd" class="s2" d="m381.2 64.9c-3.1 0.3-5.8 0.5-8.9 0.4-3.3 0-6.5 0.5-9.9 0.5-2 0-4.4 0.4-6.2-0.9-1.9-1.5 1.1-2.8 2.4-3.5 3.1-1.7 6.8-3 10.3-4 3.9-1.1 7.9-1.3 11.7-2.9 3.6-1.5 7-3.3 10.4-4.9 3.5-1.6 7.8-1.5 11.4-2.7 1.7-0.6 3.5-0.8 5.1-1.5 1.4-0.7 3.5-1.9 4.7-3 0.8-0.7 1.6-1.8 2.1-2.8 0.8-1.7 0.2-3.5 0.4-5.3 0.2-1.9 1.8-4.2 4-3.8 1.6 0.3 2.4 2.8 2.4 4.1 0.1 2.7-0.1 5.4-0.6 8.1-0.5 2.6-0.2 5.4-1.1 7.9-1 2.4-2.2 4.5-3.9 6.4-1.9 2.2-4 4.9-6.6 6.3-1.7 0.8-3.4 2.4-5.4 2.6-2.2 0.2-4.4 0.4-6.6 0.4-6.1 0-12.1-0.1-15.7-1.4z"/>
			<g id="&lt;Group&gt;">
				<path id="&lt;Path&gt;" fill-rule="evenodd" class="s3" d="m44.7 40.6c-0.9 0-1.2-0.2-1.7 0.3-0.3 0.3-0.5 0.6-0.8 0.9-0.3 0.6-0.5 1.1-0.6 1.7-0.2 0.6-0.3 1-0.3 1.5 0 0.5 0.2 0.9 0.4 1.3 0.6 1.2 2 1.4 3.1 1.6 1.2 0.3 2.7-0.1 3.7-0.6 1.2-0.5 2.3-1.5 2.3-2.8 0-0.9-0.5-1.8-0.9-2.5-0.3-0.4-0.5-0.7-0.9-0.9-0.5-0.3-0.9-0.2-1.4-0.3-0.5-0.1-0.9-0.3-1.4-0.4-0.5-0.1-1 0-1.5 0.2z"/>
				<path id="&lt;Path&gt;" fill-rule="evenodd" class="s3" d="m31.2 11.5c-1.3 0.7-3.7 1.9-3.1 3.7 0.2 0.7 0.8 1.7 1.4 2.2 0.3 0.2 0.5 0.6 0.9 0.9 0.6 0.4 1.3 0.5 2.1 0.5q1.3 0 2.6 0c0.8 0 1.5 0.1 2.3 0.3 0.8 0.2 1.9 0.1 2.7 0 0.5 0 0.9-0.2 1.4-0.4 0.2-0.1 0.5-0.2 0.8-0.3 0.3-0.1 0.4-0.2 0.7-0.4 0.4-0.2 0.8-0.3 1.1-0.5 0.3-0.2 0.6-0.3 0.8-0.5 0.6-0.5 0.9-0.9 0.9-1.6-0.1-0.5-0.4-0.8-0.7-1.2-0.3-0.4-0.9-0.8-1.4-1.1-0.5-0.4-1-0.9-1.6-1.1-0.2-0.1-0.6-0.2-0.9-0.3-0.1 0-0.3 0.1-0.4 0-0.2 0-0.4-0.1-0.6-0.2-0.8-0.1-1.6-0.3-2.3-0.5-0.4-0.1-0.7-0.2-1-0.2-0.3-0.1-0.6-0.3-0.9-0.4-1.7-0.3-3.5 0.6-4.8 1.1z"/>
				<path id="&lt;Path&gt;" fill-rule="evenodd" class="s3" d="m23.9 16.2c-0.4 0.2-1 0.5-1.4 0.9-0.1 0.2-0.2 0.4-0.4 0.6-0.2 0.2-0.5 0.4-0.8 0.7-0.1 0.2-0.3 0.4-0.5 0.5-0.2 0.2-0.5 0.2-0.8 0.4-0.2 0.2-0.4 0.4-0.7 0.6-0.4 0.3-0.9 0.8-1.1 1.3-0.1 0.6-0.1 1.8 0.6 2.2 0.8 0.6 2 0.3 2.9 0 0.6-0.1 1.1-0.4 1.7-0.6 0.4-0.1 0.8-0.1 1.2-0.2 0.8-0.3 2-1 2.4-1.8 0.3-0.7-0.2-1.6-0.6-2.3-0.3-0.4-0.6-0.9-1-1.2-0.5-0.5-1.5-0.7-1.5-1.1z"/>
				<path id="&lt;Path&gt;" fill-rule="evenodd" class="s3" d="m389.8 30.3c0.1 0.2 0.5 0.6 0.6 0.9 0 0.1-0.1 0.3 0 0.4 0 0.2 0.1 0.3 0.1 0.5 0 0.1 0 0.3 0 0.5 0 0.2-0.1 0.4-0.1 0.7-0.1 0.4-0.3 0.9-0.5 1.3-0.4 0.6-0.7 1.2-1 1.8-0.3 0.5-0.7 0.7-1.2 0.8-0.1 0-0.3-0.1-0.4 0-0.2 0-0.3 0.1-0.4 0.1-0.4 0.1-0.8 0-1.2 0.1-0.3 0-0.6 0-0.9 0-0.4 0-0.7 0-1.1 0.1-0.4 0.1-0.9 0-1.3 0-0.4 0-0.6-0.1-1-0.1q-0.5 0-1 0c-0.4 0-0.8 0.2-1.2 0.1-0.4 0-0.7 0.1-1.1 0-0.4-0.1-0.7-0.2-1.1-0.4-0.8-0.2-1.4-0.5-1.9-1.2-0.6-1-1-2.5-0.4-3.7 0.2-0.3 0.5-0.7 0.6-1.1 0.1-0.3 0.3-0.7 0.5-1 0.2-0.4 0.3-0.6 0.6-0.9 0.4-0.4 0.8-0.8 1.3-1.1 0.8-0.4 1.5-1 2.5-1 0.4-0.1 0.8 0 1.2 0 0.4 0 0.7 0.1 1 0.1 0.4 0 0.7 0.1 1 0.1 0.2 0 0.4 0 0.6 0 0.2 0 0.3 0.1 0.5 0.1 0.4 0.1 0.7 0.1 1 0.2 0.3 0.2 0.6 0.3 1 0.4 0.7 0.3 1.4 0.3 2.1 0.6 0.2 0.1 0.6 0.4 0.8 0.6 0.2 0.3 0.3 0.8 0.4 1.1z"/>
				<path id="&lt;Path&gt;" fill-rule="evenodd" class="s3" d="m396.9 51.5c-0.6-0.2-1.2-0.4-1.8-0.4-0.3 0-0.5 0.2-0.8 0.3q-0.4 0.1-0.8 0.1c-0.7-0.1-1.3-0.5-1.9-0.8-1-0.4-2.1-0.3-3.2-0.3-1 0-2.1 0.5-3.1 1-0.6 0.3-1.2 0.7-1.6 1.3-0.4 0.7-0.5 1.3-0.5 2.1 0 0.4 0.1 1 0.4 1.3 0.2 0.4 0.6 0.6 0.9 0.8 0.2 0.2 0.5 0.4 0.8 0.6 0.4 0.1 0.7 0.2 1.1 0.4 0.7 0.3 1.3 0.6 2 0.8 0.2 0.1 0.4 0.2 0.6 0.3 0.3 0 0.5 0.1 0.8 0.2 0.5 0.2 1.2 0.4 1.8 0.4 0.4 0 0.8 0.1 1.2 0.1 0.3 0 0.6 0 0.9 0.1 0.6 0.1 1.3 0.1 2 0.1 0.7 0 1.6-0.2 2.2-0.5 0.3-0.1 0.6-0.2 0.9-0.4 0.3-0.2 0.7-0.5 0.9-0.8 0.4-0.3 0.6-1.1 0.7-1.6 0-0.2 0-0.3 0.1-0.4 0-0.3-0.1-0.4-0.1-0.7-0.1-0.3-0.1-0.6-0.3-1q-0.2-0.5-0.5-1c-0.2-0.4-0.5-0.6-0.7-0.9-0.3-0.3-0.4-0.6-0.8-0.8-0.3-0.1-0.7-0.3-1.1-0.4-0.4-0.1-0.8-0.1-0.1 0.1z"/>
				<path id="&lt;Path&gt;" fill-rule="evenodd" class="s4" d="m382.9 54.9q0.4-0.5 0.8-1c0.1-0.2 0.2-0.4 0.4-0.5 0.3-0.3 0.7-0.5 1-0.8 0.2-0.1 0.4-0.2 0.6-0.3 0.3 0 0.5-0.2 0.7-0.2 0.2-0.1 0.4-0.1 0.7-0.2 0.3 0 0.6-0.1 0.8-0.2 0.4 0 0.7 0.1 1 0.1 0.3-0.1 0.5-0.2 0.9-0.2 0.3 0 0.6 0 0.9 0 0.3 0 0.6 0.2 0.9 0.2 1 0 1.9 0.4 2.9 0.8 0.2 0.1 0.5 0.2 0.8 0.3 0.2 0.2 0.6 0.2 0.9 0.3 0.2 0 0.4 0 0.6 0q0.3 0.1 0.5 0.2c0.3 0.1 0.7 0.2 0.9 0.4 0.5 0.2 1.1 0.6 1.4 1 0.2 0.2 0.4 0.5 0.4 0.7 0.1 0.3-0.1 1 0.1 1 0.1-0.4 0.2-0.6 0.2-1 0-0.4 0-0.7-0.1-1.1-0.2-0.6-0.4-1-0.8-1.5-0.5-0.5-1.1-0.7-1.7-1-0.3-0.1-0.7-0.3-1-0.5-0.3-0.1-0.5-0.3-0.8-0.3-0.3-0.1-0.8-0.2-1.1 0-0.2 0-0.3 0.1-0.4 0.2-0.2 0.1-0.3 0.1-0.4 0.2-0.2 0-0.2 0.1-0.4 0.1-0.1 0-0.4-0.2-0.5-0.3q-0.7-0.2-1.4-0.3c-0.2-0.1-0.4-0.2-0.6-0.3-0.2 0-0.3 0-0.5 0-0.4-0.2-0.8-0.4-1.2-0.4-1.1-0.1-2.1 0.2-3.1 0.4-0.6 0.1-1.3 0.3-1.8 0.6-0.4 0.2-0.7 0.7-0.9 1.1-0.2 0.4-0.3 0.9-0.5 1.3-0.2 0.4-0.2 0.8-0.2 1.2z"/>
				<path id="&lt;Path&gt;" fill-rule="evenodd" class="s4" d="m374.5 34c0.1-0.8 0.1-1.5 0.4-2.3 0.1-0.2 0.2-0.5 0.3-0.6 0.1-0.3 0.4-0.5 0.7-0.7 0.7-0.5 1.5-0.6 2.2-1 0.7-0.3 1.4-0.6 2.1-0.7 0.7-0.1 1.4 0 2 0 0.3 0 0.6-0.1 0.8 0.2 0.3 0.2 0.4 0.5 0.6 0.7 0.6 0.4 1.7 0.3 2.3 0 0.5-0.3 1.2-0.5 1.8-0.4 0.2 0 0.3 0.2 0.5 0.3 0.3 0.1 0.5 0.2 0.7 0.3q0.2 0.2 0.5 0.4c0.1 0.1 0.4 0.3 0.5 0.4 0-0.3-0.5-1-0.7-1.2-0.2-0.2-0.3-0.4-0.5-0.6q-0.3-0.3-0.7-0.5c-0.2-0.1-0.4-0.3-0.6-0.3-0.1-0.1-0.2 0-0.3 0-0.2 0-0.3-0.1-0.5-0.2-0.2 0-0.5 0.1-0.7 0-0.4 0-0.7-0.2-1.1-0.3-0.8-0.3-1.8-0.2-2.7-0.4-0.4-0.1-1 0-1.5 0q-0.9 0-1.8 0.2c-0.2 0-0.4 0.1-0.6 0.2-0.3 0.1-0.5 0.3-0.7 0.5-0.2 0.1-0.4 0.1-0.5 0.2-0.3 0.2-0.5 0.4-0.7 0.6-0.6 0.5-1.1 1-1.3 1.8-0.2 0.5-0.7 1-0.7 1.6 0 0.3 0 0.7 0 1 0 0.1 0 0.3 0 0.5 0 0.2 0.1 0.3 0.2 0.3z"/>
				<path id="&lt;Path&gt;" fill-rule="evenodd" class="s4" d="m29.7 17.7c-0.1-0.4-0.2-0.6-0.4-0.9q-0.1-0.2-0.3-0.5c-0.2-0.2-0.6-0.5-0.6-0.8 0-0.3 0.1-0.6 0.3-1q0.6-0.9 1.4-1.6c0.3-0.2 0.7-0.5 1-0.6 0.3-0.2 0.7-0.3 1-0.4 0.2-0.2 0.4-0.3 0.7-0.4 0.3 0 0.5 0 0.8 0 0.4 0 0.8-0.1 1.2 0.1 0.1 0.1 0.1 0.1 0.2 0.3 0.1 0.1 0.2 0.2 0.3 0.2 0.3 0.3 0.5 0.5 0.9 0.5 0.2 0.1 0.4 0.1 0.7 0.1 0.4 0.1 0.8-0.2 1.2-0.2 0.9-0.2 2-0.4 3-0.1 0.3 0.1 0.5 0.2 0.8 0.4 0.2 0.1 0.3 0.2 0.4 0.3 0.2 0.1 0.2 0.2 0.4 0.3 0.2 0.2 0.4 0.3 0.6 0.4q0.2 0.1 0.3 0.2c0.2 0 0.4 0.1 0.6 0.1 0.3 0.2 0.6 0.3 0.8 0.5 0.2 0.2 0.3 0.4 0.4 0.6 0.1 0.1 0.1 0.1 0.2 0.2 0 0.2 0.1 0.3 0.2 0.4 0 0.2-0.1 0.8 0.1 0.9 0-0.2 0-0.7 0-0.9q-0.2-0.6-0.5-1.1c-0.3-0.4-0.5-0.8-0.8-1.1-0.3-0.3-0.7-0.5-1-0.7-0.3-0.2-0.5-0.5-0.8-0.7-0.4-0.2-0.8-0.6-1.1-0.8-0.2-0.1-0.4-0.2-0.5-0.3-0.2 0-0.4 0-0.6 0-0.2-0.1-0.3-0.1-0.5-0.1-0.2 0-0.4 0.1-0.7 0.1-0.4 0-0.6-0.1-0.9-0.4-0.4-0.3-0.8-0.5-1.3-0.7-0.2-0.1-0.3 0-0.5-0.1-0.2 0-0.3-0.1-0.5-0.1-0.5 0-0.9 0.1-1.3 0.2-0.5 0.2-1 0.4-1.4 0.7-0.7 0.3-1.4 0.4-2.1 0.7-0.6 0.3-1.3 0.5-1.8 0.9-0.3 0.3-0.5 0.5-0.8 0.7-0.2 0.2-0.3 0.3-0.4 0.5q-0.1 0.3-0.2 0.6c-0.1 0.2-0.1 0.4-0.1 0.6 0 0-0.1 0-0.1 0.1 0 0.1 0 0.3 0 0.4q0 0.3 0.1 0.5c0.1 0.4 0.5 0.7 0.7 1q0.1 0 0.2 0.1c0.1 0.1 0.2 0.1 0.3 0.2 0.1 0.2 0.2 0.5 0.4 0.7z"/>
				<path id="&lt;Path&gt;" fill-rule="evenodd" class="s4" d="m18.6 23.3c0.1-0.7 0.2-1.3 0.5-1.9 0.2-0.6 0.8-1.2 1.3-1.6 0.4-0.3 0.9-0.5 1.4-0.8 0.3-0.1 0.6-0.1 0.9-0.1 0.3 0 0.6-0.2 0.9-0.2 0.5 0 1-0.2 1.5-0.1 0.5 0 0.9 0.3 1.2 0.5 0.3 0.2 0.4 0.4 0.5 0.7 0.1 0.2 0.1 0.9 0.2 0.9 0.3 0.1 0.2-0.5 0.2-0.7-0.1-0.2-0.2-0.5-0.3-0.7-0.1-0.3-0.2-0.6-0.4-0.8-0.2-0.4-0.6-0.6-0.8-0.9-0.3-0.3-0.6-0.5-0.8-0.8-0.2-0.2-0.7-0.6-0.9-0.6-0.3 0-0.6 0.2-0.9 0.4-0.4 0.4-0.9 0.7-1.3 1.2-0.5 0.5-1.1 1-1.7 1.5-0.2 0.2-0.4 0.5-0.6 0.7-0.2 0.1-0.4 0.2-0.5 0.4-0.3 0.4-0.6 0.9-0.6 1.4-0.1 0.6 0.1 1 0.2 1.5z"/>
				<path id="&lt;Path&gt;" fill-rule="evenodd" class="s5" d="m384 57.7c0.6 0.1 1.3 0.2 1.8 0.7 0.4 0.3 0.6 0.8 1 1 0.5 0.4 1.1 0.7 1.6 0.8q0.5 0.2 0.9 0.3c0.4 0.2 0.8 0.2 1.2 0.2 0.4 0.1 0.8 0.1 1.2 0.2 0.4 0 0.6 0.1 1.1 0 0.7-0.2 1.4-0.3 2.1-0.5 0.7-0.1 1.3-0.3 1.9-0.6 0.4-0.3 1-0.6 1.2-1.1-0.3-0.1-0.3 0.1-0.5 0.1-0.2 0.1-0.4 0.1-0.7 0.2-0.6 0.2-1.5 0.4-2.2 0.4-0.7 0-1.4 0-2 0-0.4 0-0.7-0.1-1-0.2-0.4-0.1-0.8-0.1-1.3-0.1-1.2-0.3-2.4-0.2-3.6-0.7-0.8-0.3-1.7-0.7-2.7-0.7z"/>
				<path id="&lt;Path&gt;" fill-rule="evenodd" class="s5" d="m378.4 37.4q0.9 0 1.8 0c0.5 0 0.8 0.1 1.3 0.2 0.3 0.1 0.7-0.1 1 0 0.1 0.1 0.2 0.1 0.3 0.2 0.1 0 0.3 0 0.4 0.1 0.7 0.2 1.5 0 2.2-0.2 0.5-0.1 1.1-0.2 1.6-0.5 0.2 0 0.9-0.3 1-0.5-0.6-0.3-1.2 0-1.8 0.1-0.5 0-1.1 0.2-1.6 0.3-0.5 0.1-1.1 0-1.6 0-1.3 0-2.7 0-4.6 0.3z"/>
				<path id="&lt;Path&gt;" fill-rule="evenodd" class="s4" d="m41.5 46.1c0.1-0.7 0.1-1.3 0.3-2 0-0.2 0.1-0.3 0.1-0.5 0.1-0.2 0.3-0.4 0.4-0.6 0.4-0.3 0.9-0.5 1.3-0.8 0.4-0.2 0.8-0.5 1.3-0.6 0.4 0 0.8 0.1 1.1 0.1 0.2 0 0.4-0.1 0.5 0.1 0.2 0.2 0.2 0.5 0.4 0.6 0.3 0.3 1 0.2 1.3 0 0.3-0.2 0.7-0.5 1-0.3 0.1 0 0.3 0.1 0.4 0.2 0.1 0.1 0.2 0.1 0.3 0.3q0.2 0.1 0.3 0.3c0.1 0.1 0.3 0.2 0.3 0.4 0-0.4-0.3-0.9-0.4-1.1-0.1-0.1-0.2-0.3-0.3-0.5q-0.2-0.2-0.4-0.4-0.1-0.2-0.3-0.3-0.1 0-0.2 0c-0.1 0-0.2 0-0.3-0.1-0.1 0-0.3 0.1-0.4 0-0.2 0-0.4-0.1-0.6-0.2-0.5-0.3-1.1-0.2-1.6-0.4-0.3-0.1-0.6 0-0.9 0q-0.5 0-1 0.2-0.2 0-0.4 0.1c-0.2 0.1-0.3 0.3-0.4 0.4-0.1 0.1-0.2 0.2-0.3 0.2-0.2 0.2-0.3 0.4-0.4 0.6-0.4 0.4-0.7 0.7-0.8 1.4-0.1 0.4-0.4 0.9-0.4 1.3 0 0.3 0 0.6 0 0.8 0 0.2 0 0.3 0 0.5 0 0.1 0.1 0.2 0.1 0.3z"/>
				<path id="&lt;Path&gt;" fill-rule="evenodd" class="s5" d="m43.8 48.9q0.5 0 1.1 0c0.2 0 0.5 0.1 0.7 0.1 0.2 0.1 0.4 0 0.6 0 0 0 0.1 0.1 0.2 0.2 0 0 0.1 0 0.2 0 0.4 0.2 0.9 0.1 1.3-0.1q0.5-0.1 0.9-0.4c0.2-0.1 0.6-0.3 0.6-0.5-0.3-0.2-0.7 0.1-1 0.1-0.3 0-0.6 0.2-1 0.3-0.3 0.1-0.6 0-0.9 0-0.8 0-1.6 0-2.7 0.3z"/>
				<path id="&lt;Path&gt;" fill-rule="evenodd" class="s5" d="m33.9 20.6c0.6 0 1-0.1 1.4 0.1 0.4 0.1 0.8 0.1 1.1 0.2 0.7 0.2 1.6 0.2 2.3-0.1 0.6-0.2 1.2-0.5 1.7-0.8 0.6-0.3 1.1-0.7 1.6-0.9q0.7-0.2 1.2-0.5c0.2-0.1 0.7-0.3 0.7-0.5-0.3 0-0.4 0.1-0.7 0.1-0.3 0.1-0.7 0.2-1 0.3-0.4 0.2-0.8 0.2-1.1 0.3-0.3 0.1-0.6 0.2-0.9 0.3q-0.2 0-0.5 0.1-0.9 0.2-1.6 0.5c-0.5 0.1-0.9 0.1-1.3 0.2-0.4 0.1-0.8 0.2-1.2 0.3-0.2 0.1-0.4 0.2-0.6 0.2-0.2 0.1-0.4 0.1-1.1 0.2z"/>
				<path id="&lt;Path&gt;" fill-rule="evenodd" class="s5" d="m19.4 23.8c0.5 0.1 1 0.2 1.5 0.2 0.3 0 0.6 0 0.8 0 0.6 0.1 1 0.3 1.6 0.2 0.7-0.2 1.3-0.5 1.9-0.8 0.3-0.2 1-0.7 0.3-0.7-0.3 0-0.4 0.1-0.6 0.2-0.3 0.1-0.6 0.1-0.8 0.2-0.6 0.1-1.2 0.3-1.8 0.4-0.2 0-0.5 0-0.7 0-0.3 0.1-0.6 0.2-0.8 0.3-0.5 0.1-0.9 0.2-1.4 0.2z"/>
			</g>
			<path id="&lt;Path&gt;" fill-rule="evenodd" class="s6" d="m399.3 2.3c-0.4 0.9 2.5 2.3 2.5 3.2 0.7-0.2 1.1 0.3 1.8 0.6 0.7 0.2 1.5 0.5 2.2 0.7 1.2 0.4 2.3 0.8 3.4 1.3 0.5 0.2 0.8 0.6 1.2 0.8 0.7 0.4 1.3 0.7 1.9 1.1 1 0.7 2 1.5 3 2.3 2.1 1.7 3.9 3.5 5.4 5.7 0.8 1.2 1.7 2.2 2.4 3.3 0.3 0.5 0.6 0.9 0.8 1.3 0.2 0.4 0.4 1.2 0.7 1.3-0.1-0.6-0.4-1.3-0.6-1.8-0.2-0.6-0.3-1.2-0.5-1.8-0.3-1.3-1-2.7-1.3-3.9-0.2-0.7-0.3-1.4-0.7-2.1-0.3-0.5-0.6-1.3-0.9-1.8-0.8-1-1.4-2.1-2.2-3.2-0.8-1-2-2-3-2.7-0.6-0.4-1.1-0.8-1.6-1.2-0.6-0.4-1.4-0.6-2-1-1.5-0.7-3-1.3-4.5-1.6-0.7-0.1-1.1-0.3-1.8-0.3-0.4 0-0.8-0.1-1.2-0.1-0.4 0.2-3.7 0.1-5-0.1z"/>
			<path id="&lt;Path&gt;" fill-rule="evenodd" class="s6" d="m0.7 24.9c0.6-1.4 1.5-2.9 1.9-4.2 0.2-0.6 0.4-1 0.8-1.5 0.4-0.6 0.5-1.3 0.9-1.9 0.4-0.6 0.7-1.2 1.2-1.6 0.5-0.5 0.9-0.9 1.4-1.4 0.2-0.3 0.4-0.6 0.6-0.9 0.3-0.3 0.6-0.4 0.9-0.6 1-0.5 1.9-1.2 2.9-1.8 0.8-0.6 1.5-1.4 2.4-1.9 0.7-0.4 1.2-1 1.8-1.4 1.4-0.8 2.9-1.2 4.4-1.7 0.6-0.2 1.1-0.4 1.8-0.5 0.4-0.1 1-0.1 1.4-0.4 0.2-0.1 0.2-0.3 0.4-0.4 0.3-0.2 0.8-0.3 1.1-0.5 0.4-0.2 1.1-0.5 1.2-0.9-0.5-0.4-1.3-0.6-1.9-0.6-0.7 0-1.1-0.3-1.8-0.2-0.8 0.2-1.7 0.5-2.5 0.6-0.8 0.2-1.6 0.3-2.4 0.5-0.7 0.3-1.5 0.5-2.3 0.9-0.9 0.4-1.5 1.1-2.4 1.5-1.4 0.6-2.7 1.4-3.9 2.1-1.3 0.8-2.7 1.7-3.5 3-0.8 1.4-1.7 2.8-2.5 4.2-0.8 1.6-1.2 3.2-1.7 4.9-0.2 0.7-0.1 1.4-0.2 2.2 0 0.4-0.7 2.2 0 2.5z"/>
			<path id="&lt;Path&gt;" fill-rule="evenodd" class="s7" d="m399.9 2.8c0.8 1 1.6 2.7 3 3 0.4 0.1 0.9 0 1.4 0.1 0.3 0 0.8 0.3 1.3 0.3 1.1 0.2 2.1 0.7 3.2 1 1.5 0.4 1.1-0.7 1.1-1.8 0-1.8-1.7-2.6-3.3-2.6-1 0.1-1.6-0.3-2.6-0.3q-1.5 0-3 0z"/>
			<path id="&lt;Path&gt;" fill-rule="evenodd" class="s7" d="m19.9 5.9c-0.9 0.2-1.8 0.4-2.7 0.7-0.9 0.3-1.4 0.8-2.2 1.2-1.1 0.6-1.8 1.4-2.7 2.1-0.8 0.7-1.6 1.4-2.7 1.5-0.9 0-1.6-0.8-1.5-1.5 0.2-0.6 0.4-0.7 0.7-1.1 0.4-0.3 0.4-0.7 0.9-0.9 0.5-0.3 0.7-0.4 1.2-0.8 1.3-1.2 2.9-2.2 4.5-2.9 1.1-0.4 2.6-0.4 3.7-0.1 0.6 0.1 0.8 0.2 0.8 0.8 0.1 0.6-0.1 0.8 0 1z"/>
			<path id="&lt;Path&gt;" fill-rule="evenodd" class="s8" d="m37.6 67.2q-3.9 0-7.8-0.1 0 0-0.1 0-1 0-2.1 0 0 0 0 0-0.8 0-1.6 0c-5.8-0.1-13.5-3.8-18.1-9q0 0 0 0c-1.1-1.2-2-2.6-2.7-3.9q-1.3-2.6-2.3-5.3 0-0.2-0.1-0.4-1.6-4.4-2.2-9-0.4-2.8-0.4-5.5 0-0.5 0-1c0-4.2 0.7-8.4 2-12.5q0.4-0.9 0.8-1.7c-0.3 1.3-0.7 2.7-1.2 4-0.4 1.1-0.7 2.9-0.4 4.1 0.5 2.1 2.2 3.7 1 5.9-1.6 3 0.9 6.9 2.9 9.3 1.6 1.9 3.6 3.1 5.4 4.9 1.9 1.9 3.7 4.1 5.4 6.3 2.1 2.7 4.1 5.3 5.9 8.2 1.2 1.9 2.5 2.9 4.5 4 1.1 0.6 1.7 0.8 3 0.8 0.9 0 1.3 0.2 2.1 0.4 1.2 0.3 2.5 0 3.7 0.1q1.2 0.1 2.3 0.4z"/>
			<path id="&lt;Path&gt;" fill-rule="evenodd" class="s8" d="m221.8 68.4q-20.8 0-41.5 0-0.8 0-1.5 0-11.9-0.1-23.8-0.1-8.9 0-17.8-0.1c0.2-0.1 0.5-0.2 0.8-0.3 0.9-0.2 1.8 0 2.6-0.2 1.4-0.2 2.5-0.9 3.9-0.9q1.7 0 3.5 0h3.4c0.7 0 1.8 0.3 2.5 0 1.1-0.3 1.4-1.8 1.9-2.8 1.1-2.1 2.4-3.1 4.8-3.5 1.8-0.3 4.2-0.3 6.1-0.1 1 0.1 1.7 0.5 2.8 0.5 1.3 0 2.6 0.2 3.9 0.4 3.2 0.4 6.4 0.5 9.5 1.1 2.7 0.4 5.3 1.4 7.9 2.1 1.1 0.3 2.3 0.5 3.4 0.8 0.8 0.3 1.6 0.8 2.4 1.2 2 0.8 3.8 1.3 6.1 1.3 4.6 0 9.4-1.8 13.9-0.9 1.3 0.3 2.5 0.7 3.8 1 0.5 0.1 0.9 0.3 1.4 0.5z"/>
			<path id="&lt;Path&gt;" fill-rule="evenodd" class="s8" d="m423.2 45.1q-1.2 4.7-3.4 9.1c-3.5 7.1-13.7 12.8-20.8 12.9q-24.1 0.3-48.3 0.6c4.1-0.6 8.1-0.9 12.3-0.9q3.1 0 6.3 0c3 0 5.8-0.5 8.8-0.5 2.9 0.1 5.6-0.7 8.5-0.9 4-0.3 8.1-1.4 12.1-2 2.7-0.4 5.4-2.2 7.6-3.9 1.6-1.2 3.7-1.8 5.4-2.8q2.3-1.3 4.5-2.7c2.1-1.3 3.1-2.9 4.3-5 0.4-0.7 0.7-1.3 1-2 0.3-0.8 1.2-1.5 1.2-2.3q0.3 0 0.5 0.4z"/>
			<path id="&lt;Path&gt;" fill-rule="evenodd" class="s9" d="m155.8 64.6c0.9-1.2 1.4-1.7 2.5-2.5 0.4-0.3 0.7-0.7 1.1-0.9 0.5-0.2 0.9-0.2 1.3-0.4 1-0.2 1.8 0 2.8 0.3 0.8 0.3 1.6 0.7 2.4 1 0.9 0.2 1.7 0.4 2.5 0.8 1.8 0.7 3.8 0.9 5.6 1.5 1.2 0.3 2.4 0.6 3.6 0.9 0.7 0.2 1.5 0.5 2.1 1 0.4 0.2 0.7 0.6 1.2 0.7 1 0.4 2.1 0.6 3.2 0.8 0.9 0.2 1.9 0 2.8 0 1.3 0 2.6 0.3 3.9 0.3 0.4 0 0.9-0.1 1.3-0.1 0.5 0.1 0.9 0.3 1.4 0.3 0.6 0 1.2 0 1.7 0q1.2 0 2.3 0c0.6 0 1.3 0.1 1.9 0 0-0.3-0.5-0.7-0.7-0.8-0.7-0.3-1.7-0.6-2.4-0.7-1.1-0.3-2.2-0.6-3.2-1-0.4-0.1-0.9-0.2-1.3-0.4-0.4-0.2-0.8-0.6-1.2-0.7-5.1-1.8-10.7-1.5-15.8-3.1-1.9-0.5-3.8-1.1-5.8-1.4-0.4-0.1-0.8 0-1.2 0-0.4 0-0.7-0.2-1.1-0.3-0.8-0.1-1.9-0.1-2.8 0-0.9 0.2-1.9 0.2-2.8 0.4-0.4 0.1-0.8 0.1-1.2 0.2-0.3 0.1-0.5 0.3-0.8 0.4-0.4 0.1-1-0.1-1.5 0-0.6 0.1-1.7 1.3-1.8 3.7z"/>
			<path id="&lt;Path&gt;" fill-rule="evenodd" class="s9" d="m6.9 56c-0.5-1.1-0.8-2-1.1-3.1-0.1-0.7-0.4-1.7-0.2-2.4 0.4-1 2.1-0.9 3-0.9q1.3 0 2.6 0c0.4 0 1.7 0.2 1.9 0 0.9-0.7-1.7-2.1-2-2.3-0.6-0.4-1.1-0.9-1.7-1.3-0.5-0.4-1-0.9-1.6-1.3-0.5-0.4-1-1.1-1.7-1.4-0.7-0.4-1.5-0.5-2-1.3-0.3-0.5-0.5-1-0.8-1.6-0.1-0.3-0.5-1.4-0.8-1.4-0.9-0.2-0.8 3.7-0.8 4.2 0 1.3 0.3 2.4 0.7 3.7 0.4 1.1 0.7 2.3 1.2 3.4 0.2 0.5 0.6 1 0.9 1.5 0.3 0.6 0.6 1.2 0.9 1.7 0.6 1.1 1.4 2.3 1.5 2.5z"/>
			<path id="&lt;Path&gt;" fill-rule="evenodd" class="s8" d="m400.4 62.6c0.7 0.1 1.6 0.1 2.2 0.3 0.5 0.1 0.8 0.2 1.3 0.2 0.9 0.1 1.8 0 2.7 0 0.8 0 1.6-0.2 2.5-0.2 0.6 0 1.2-0.4 1.9-0.2-0.1 0.3-0.6 0.5-0.9 0.7-0.8 0.4-1.4 0.9-2.3 1.2-0.7 0.3-1.3 0.7-2 1q-0.7 0.4-1.4 0.7c-0.4 0.2-0.8 0.2-1.2 0.3-0.2 0.1-0.3 0.2-0.6 0.2-0.2 0.1-0.4 0-0.7 0.1-0.1 0-0.3 0.1-0.5 0.2-0.2 0-0.5 0-0.7 0-0.6 0-0.9-0.3-1.4-0.3-0.5 0-1 0-1.5 0.1-0.5 0.2-1 0.2-1.6 0.2-1.4 0-2.7 0.2-4.1 0.2-0.4 0-0.9 0.1-1.2 0-0.5 0-0.9-0.2-1.3-0.2-1-0.1-1.9 0-2.9-0.2-0.8-0.2-1.7 0.1-2.5-0.1-0.4 0-1.7-0.2-1.8-0.7 1.7-0.2 3.3-0.5 5-0.8q1.6-0.3 3.3-0.8 1-0.3 2-0.7c0.5-0.1 1-0.1 1.6-0.2 0.3-0.1 0.6-0.4 1-0.5 0.3-0.1 0.8-0.1 1.2-0.2 0.7-0.1 1.4-0.3 2.2-0.3 0.9 0 1.8 0 1.7 0z"/>
			<path id="&lt;Path&gt;" fill-rule="evenodd" class="s7" d="m363.7 67.2c1.4-0.4 2.6-0.8 4-0.7 0.8 0 1.5 0 2.3-0.2 0.6-0.2 1.2-0.2 1.9-0.2 1 0 1.8-0.4 2.8-0.4 0.9 0 1.8 0 2.7-0.2 1.1-0.2 2.2 0 3.3-0.2 2.3-0.3 4.7-0.5 6.9-1.2 1.9-0.5 3.8-1.3 5.7-1.6 1.8-0.4 3.7-0.6 5.5-1.2 1.8-0.6 3.6-1 5.3-1.6q1.3-0.4 2.5-0.9c0.4-0.2 0.9-0.5 1.3-0.5-0.6 0.6-1.2 1.1-2 1.6-0.7 0.5-1.2 1.2-1.9 1.7-0.6 0.4-1.3 0.6-1.9 1-0.2 0.1-0.6 0.4-0.8 0.4-0.3 0.1-0.7 0-1 0.1-0.4 0.1-0.4 0.3-0.7 0.4-0.4 0.1-0.8 0-1.2 0.1-1 0.2-2 0.3-2.9 0.6-1.7 0.4-3.5 0.4-5 1.1-1.5 0.6-3 1.2-4.7 1.2-1.1-0.1-2.4-0.2-3.5 0-1.2 0.2-2.3 0.3-3.5 0.3q-3.7 0-7.4 0c-2.3 0-4.4 0.4-7.7 0.4z"/>
			<path id="&lt;Path&gt;" fill-rule="evenodd" class="s4" d="m35.5 6.7c-0.3 0.1-0.9-0.1-1.3 0-0.5 0.1-1 0.4-1.6 0.6-4 1.4-7.9 2.9-11.9 4.5-2 0.8-4.1 1.5-6.1 2.2-1 0.4-2.8 1.2-3.4 2-1.5 1.8-0.6 3.3-0.4 5.3 0.4 2.9-1.3 5.5-2.4 8-1 2.5-1.7 5.6 0 7.9 0.4 0.6 1.2 1.1 1.6 1.6 0.6 0.6 1.2 1.3 1.8 1.9 1.5 1.5 2.6 3.2 4 4.9 0.7 0.9 1.7 1.2 1.9 2.5 0.2 0.9 0.2 1.5 0.4 2.5 0.2 0.8 0 1.6 0.2 2.4 0.5 2 1.6 4.1 2.4 5.9 3.9 1.9 6.2 4.5 8.5 7 0.3 0.3 0.7 0.8 0.9 1.2h-0.3q0 0-0.1 0-1 0-2.1 0 0 0 0 0-0.8 0-1.6 0c-5.8-0.1-13.5-3.8-18.1-9q0 0 0 0-1.1-1.3-2-2.6c-0.5-1.3-1-2.7-1.8-3.8q-0.7-1.4-1.2-2.8 0-0.2-0.1-0.4-1.6-4.4-2.2-9-0.4-2.8-0.4-5.5 0-0.5 0-1c0-4.2 0.7-8.4 2-12.5q0.4-0.9 0.8-1.7c4-7.5 12.5-12.3 20.8-12.9q5.8-0.1 11.7-0.2c0.5 0.3 0.9 0.6 0 1z"/>
			<path id="&lt;Path&gt;" fill-rule="evenodd" class="s4" d="m254.6 68.3q-7.1 0.1-14.2 0.1-9.3 0-18.6 0-20.8 0-41.5 0-0.8 0-1.5 0-11.9-0.1-23.8-0.1-8.9 0-17.8-0.1-20.9-0.1-41.9-0.3-9.1-0.1-18.3-0.2 0 0 0 0-1 0-2 0 0 0 0 0-17.9-0.2-35.7-0.5c2-0.4 3.5-0.9 5.5-0.9 1.7 0 3.4-0.1 5 0.3 4.9 1 10.1-0.1 15 0.5 3.5 0.4 6.6 0 10-0.3 3.8-0.2 7.6-0.5 11.5-0.5 3.5 0 7.1 0.3 10.7-0.1 2.3-0.2 4.5-0.3 6.8-0.4 2.4 0 4.7-0.5 7.1-0.5 3 0 6.2-0.3 9.2 0.2 2.5 0.3 4.9 0.3 7.5 0.3 4.4 0 8.6 0.5 13 1.1 2 0.4 3.9 0.7 5.9 0.1 1.4-0.5 2.4-1.5 3.4-2.6 1-1.2 1.8-2.6 2.6-4 0.7-1.3 1.1-3 2.4-3.9 5.3-3.9 13.6-1.4 19.5-1.5 3.8 0 7.7-0.2 11.5 0.6 2.6 0.5 4 1.1 5.3 3.5 1.4 2.6 2.6 4.4 5.7 5.1 3.6 0.9 7.3 1.4 11 1.2 2.2-0.2 4.4-1 6.6-1.1 2.5-0.1 4.9 0.2 7.3 0.7 7.7 1.4 15.5 0.4 23.3 1.5 3.2 0.4 6.3 0.7 9.3 1.8q0.1 0 0.2 0z"/>
			<path id="&lt;Path&gt;" fill-rule="evenodd" class="s4" d="m423.8 24.3c-0.6-0.6-1.1-1.1-1.7-1.8-0.8-0.9-1.8-1.5-2.6-2.3-0.8-0.8-1.7-1.6-2.7-2.2-0.9-0.6-1.8-1-2.6-1.9-0.5-0.6-1.1-1.1-1.9-1.6-1-0.6-1.3-0.4-2.4-0.2-0.9 0.2-2 0.3-2.8 1-0.6 0.5-0.6 1.6-1 2.3-0.4 0.9-0.5 1.4-1.4 1.8-1 0.4-2 0.6-3 0.8-2.7 0.6-5.5 1.5-7.9-0.5-1.6-1.4-2.1-3.4-2.8-5.3-0.6-1.3-1.3-3.9-2.5-4.7-1.2-0.7-2.4-0.9-3.6-1.3-1.9-0.6-3.6-1.7-5.3-2.6q0.1-0.1 0.3-0.2 10.6 0.1 21.3 0.3c4.5 0.3 9.2 2 13.1 4.6 3.7 2.5 6.8 5.9 8.5 10q0.6 1.9 1 3.8z"/>
			<g id="&lt;Group&gt;" style="opacity: .3;mix-blend-mode: soft-light">
				<path id="&lt;Path&gt;" fill-rule="evenodd" class="s10" d="m230 19.4c-0.8 2-1.8 3.4-1.4 5.4 0.4 2.1 1.3 3.2 2.9 4.5 1.2 0.9 3.6 2.8 5 1.4 1.4-1.3 2.1-4.8 1.5-6.5-1-3.1-3.3-5-6.5-4.8z"/>
				<path id="&lt;Path&gt;" fill-rule="evenodd" class="s10" d="m223.6 15.4c-0.9-1.9-2.2-3.2-0.8-4.9 0.9-1.1 1.3-1.4 2.3-0.3 1.3 1.5 1.5 4-1 4.2z"/>
				<path id="&lt;Path&gt;" fill-rule="evenodd" class="s10" d="m251.3 17.4c0.2 1.8 0 4.1 2.2 4.4 0.7 0.1 1.4 0 1.7-0.8 0.5-1.4-1.7-2.8-3-2.6z"/>
				<path id="&lt;Path&gt;" fill-rule="evenodd" class="s10" d="m260.6 44c1.1-2 1.8-3.9 4.4-3.9 1.2 0 2.4 1 3.1 2.1 0.6 1 0.6 1.7-0.3 2.6-1.1 1.1-2.8 0.7-4.2 0.7z"/>
				<path id="&lt;Path&gt;" fill-rule="evenodd" class="s10" d="m169.5 12.9c0.2 1.7-0.1 3.7 1.4 4.6 1 0.5 2.1 0.5 3.2 0.3 1.8-0.3 2.8-1.1 3.5-2.9 1.3-3.2-4.8-5.5-7.1-3.9z"/>
			</g>
			<path id="&lt;Path&gt;" fill-rule="evenodd" class="s5" d="m190.9 3.9c1.6 0 2.9 0.1 4.5-0.2q2.4-0.5 4.8-1c2.8-0.5 5.8-1.4 8.7-1.3 2.5 0 5 0 7.5-0.4 3-0.4 6.3 0 9.3 0q2 0 4.1 0c0.7 0 1.5-0.1 2.2 0 0.9 0 1.7 0.3 2.6 0.4 1.4 0.1 2.7-0.2 4.1 0.1 1.4 0.4 2.9 0.2 4.4 0.2q4.7 0 9.4 0c3.5 0 7.3-0.4 10.8 0.2 3.1 0.6 6.4 0.5 9.4 1.2 0.4 0.1 0.8 0 1.3 0.1 0.5 0 0.9 0.3 1.5 0.4 0.4 0 0.9-0.1 1.3 0 0.4 0 0.5 0.4 0.9 0.4-1.4-0.1-2.7 0.3-4.3 0.3q-2 0-4.1 0c-1.9 0-3.8 0.4-5.8 0.4q-3.2 0-6.4 0c-1.2 0-2.4 0.1-3.6 0-1-0.1-2-0.4-3-0.4-2.7-0.1-5.4 0-8.1 0-2.4 0-4.8-0.4-7.3-0.4-4.2 0.1-8.3-0.3-12.5-0.7-1.8-0.1-3.6 0-5.4 0-1.9 0-3.7-0.1-5.6 0.2-3.2 0.5-6.6 0-9.9 0.2-1.4 0-2.7 0.3-4.1 0.3-1.4 0-2.7 0-6.7 0z"/>
			<path id="&lt;Path&gt;" fill-rule="evenodd" class="s8" d="m157.6 60.9c1.2-7.4-40.4-25-63.1-35.6-22.7-10.6-26.2-20-26.2-20l3.2-3.6h2l-2.7 3.4c0 0 3.3 7.6 33.3 23.8 29.9 16.1 41.3 19.1 49.7 25.4 8.4 6.3 10.9 6.3 10.9 6.3z"/>
			<path id="&lt;Path&gt;" fill-rule="evenodd" class="s8" d="m216.6 66.9c0 0 26.5-43 62.7-62.2l15.3-3.5-11 3.3c0 0-21.6 16.9-31.6 23.4-9.9 6.4-21.4 19-35.4 39z"/>
			<path id="&lt;Path&gt;" fill-rule="evenodd" class="s11" d="m275.5 10.2c0.7-0.7 1.4-1.4 2-2.2 0.3-0.3 0.3-0.7 0.6-1.1 0.1-0.3 0.3-0.5 0.3-0.9 0.1-0.7-0.2-0.6-0.8-0.6-0.5 0.1-1 0.3-1.4 0.6-0.8 0.5-1.7 0.9-2.5 1.6-0.3 0.4-0.7 0.5-1.2 0.8-0.5 0.3-0.9 0.8-1.5 1.1-1.1 0.5-2.1 1.3-3.2 2-0.5 0.3-1 0.7-1.5 1.1-0.2 0.2-0.4 0.3-0.6 0.4-0.3 0.3-0.5 0.6-0.8 0.9-0.4 0.4-0.9 0.7-1.3 1-0.4 0.4-0.8 0.8-1.2 1.2-1 0.9-2.1 1.8-3.2 2.7-0.9 0.7-1.7 1.5-2.6 2.2-0.5 0.4-1 0.9-1.5 1.3-0.2 0.3-0.6 0.6-0.6 1 0.2 1.7 4.4-1.2 4.9-1.4 2.3-1.3 4.3-3 6.6-4.5 2.2-1.4 4.4-3 6.5-4.6 0.8-0.5 1.5-0.9 2.2-1.4q0.4-0.3 0.8-0.5c0.1-0.2 0.3-0.4 0-0.7z"/>
			<path id="&lt;Path&gt;" fill-rule="evenodd" class="s2" d="m255.2 25.8c-2.9 1.6-5.7 3.5-8.5 5.4-1.9 1.3-4.4 3-4.8 5.4-0.4 2.3 1.9 2.3 3.4 2.6 3.3 0.6 6.7 0.1 9.9 0.8 4.2 0.8 8.6 0.6 12.9 0.6 3.4 0 7.4 0.5 10.8-0.1 2.9-0.6 5.9-1.2 8.8-1.8 1.2-0.2 2.2-0.4 3.3-0.9 1.2-0.5 2.4-0.7 3.7-1.3 2-0.9 4.1-1.7 6-2.8 2.6-1.5 5.1-3.6 7.4-5.6 1.6-1.3 3.5-2.3 4.9-3.9 1.1-1.3 2.2-2.4 3.4-3.6 2.8-2.9 6.4-4.8 9.3-7.6 0.4-0.5 0.6-1 1-1.4 0.6-0.6 1.5-0.9 2-1.6 0.4-0.6 0.6-1.3 0.3-2-0.8-1.6-3.9-1.7-5.3-2.1-3.4-0.7-7.1-0.3-10.5-0.3-2.2 0-4.4-0.1-6.6-0.1-3.2 0.2-6.3 0.8-9.5 1.1-2 0.1-4.1 0.6-6.1 1.2-1 0.3-1.9 0.9-2.8 1.2-1.3 0.5-2.6 0.6-3.9 1-4.1 1.3-8.6 3.2-12.3 5.5-2.4 1.7-4.8 3.5-7.3 5-1.6 1-2.8 2.3-4.4 3.3-1.5 1-2.8 1.6-4.4 2.1-0.9 0.2-1.2 0.5-1.8 0.9-1.6 1.2-3.4 2.1 1.1-1z"/>
			<path id="&lt;Path&gt;" fill-rule="evenodd" class="s12" d="m221.7 68.2q-1-1.7-1.6-3.7c0.8-0.5 1.3-1.7 1.8-2.5 0.9-1.1 1.5-2.4 2.5-3.4 2.5-2.6 4.8-5.5 7.5-7.9 1.3-1.2 2.7-2.3 4.1-3.5 1.1-0.9 2-2 3.3-2.6q2-0.9 4.1-1.4c1.6-0.4 3.2-0.4 4.8-0.8 1.5-0.3 2.9-0.3 4.5-0.3 1.5-0.1 2.9-0.5 4.5-0.5 3.8-0.1 7.7 0.3 11.4-0.4 2.2-0.4 4.5-0.6 6.7-0.6 2.9-0.1 5.6-1 8.5-1.4 2-0.3 3.9-0.2 5.9-0.6 1.5-0.3 2.8-0.5 4.2-0.6 5-0.6 10.1-0.9 15.1-0.9 10.3 0 19.8 2.9 29.5 5.9 4.8 1.5 9.8 3.5 13.5 7 2.7 2.6 5.5 5.3 7.9 8.3 1 1.3 3.5 4.6 2.1 6.5-0.2 0.3-1.3 0.9-1.7 1-0.3 0-0.7-0.1-1-0.1-0.8 0.1-1.2 0.4-1.9 0.6-1.4 0.2-3.3 0-4.7 0-2.9-0.1-5.8-0.6-8.8-0.6-2.7 0-5.6 0.3-8.3-0.1-3.3-0.4-6.6 0-9.8-0.5-4.6-0.6-9.8-0.9-14.3-0.2-2.1 0.2-4.3 0.1-6.3 0.5q-4.5 0.7-9.1 0.8c-1.4 0-2.7 0.4-4.1 0.5-1.7 0.1-3.5 0-5.2 0-3.3 0-6.5-0.5-9.7-0.5-6.4 0.1-12.6-0.5-18.9-0.5-5.9 0-11.7 0.2-17.5 0.9-4.6 0.6-9.4 1.1-19 1.6z"/>
			<path id="&lt;Path&gt;" fill-rule="evenodd" class="s2" d="m86.6 5.1c-3.2 0-6.1 0.1-9.1 1.5-0.9 0.4-1.3 0.4-1.3 1.4-0.1 1.2 1.1 1.8 2 2.3 2.2 1.1 4.8 1.3 7 2.3 2.1 0.8 3.7 2.1 5.6 3.1 1.8 1 3.1 2.6 4.9 3.7 2 1.2 3.6 2.8 5.7 3.9 3.3 1.9 6.7 4.2 10.3 5.6 3.3 1.3 6.4 3.2 8.9 5.8 1.4 1.4 2.9 2.2 4.4 3.4 2.1 1.7 4.6 2.5 7 3.7 6.4 3.3 13 5.3 20.1 6.8 6 1.3 12.1 2.2 17.9 4.3 3.7 1.3 7.3 2.5 11.3 2.5 1.5 0 3.1 0.1 4.6 0 2.5-0.3 5-1.3 7.4-2 2-0.6 4.1-0.9 6.2-1.4 2.2-0.7 4.2-1.3 6.4-1.7 4.6-0.8 9.8-2.6 13.5-5.3 3.3-2.3 5.8-5.3 8.8-7.9 3.1-2.5 5.8-5.4 8.9-7.9 2.9-2.5 6.3-4.4 9.5-6.4 1.4-0.8 2.9-1.5 4.3-2.3 1.5-0.9 2.8-2.3 4.3-3.1 2.5-1.4 4.6-2.8 6.8-4.4 1-0.7 3.1-2.5 2.5-3.9-0.7-1.6-3.5-1.7-4.8-1.9-1.1-0.3-2.2-0.1-3.3-0.3-2-0.3-3.3-0.4-5.4-0.1-7 0.9-14.4 1.2-21.4 0.5-5-0.5-9.9-0.5-14.8-1.2-3.6-0.6-7.2-1-10.8-1-4.8 0-9.6 0-14.3 0q-4.2 0-8.4 0c-3 0-5.9-0.4-9-0.6-2-0.1-3.9 0.5-5.9 0.6-2.2 0.1-4.5-0.1-6.7-0.1-6.7 0.3-13.5 1.1-20.3 1.1-5.4-0.1-10.8-0.5-16.3-0.5-4.7 0-9.5 0.3-14.1-0.1-2.1-0.2-4.1-0.4-6.2-0.4-1.7 0-3.5 0.1-5.2-0.1-3.3-0.3-8.2-1.5-11 0.1z"/>
			<path id="&lt;Path&gt;" fill-rule="evenodd" class="s12" d="m147.2 66.7c1.2-0.7 2.7-1.5 3.6-2.5 0.4-0.3 0.8-0.8 1.2-1.2 1.1-1.2 1.6-2.3 2.2-3.7 0.7-2.1 0.5-3.8-0.9-5.5-1.7-2-4.1-2.7-6.6-3.5-1.7-0.5-3.2-1.6-4.9-2.3-2-0.9-4.1-1.5-6.2-2.5-3.1-1.5-6.4-2.6-9.6-4.2-1.6-0.7-3-1.8-4.6-2.4-2.6-1.1-5.3-2.2-8-3-6.5-1.9-13.6-2.4-20.3-1.3-3.6 0.7-7.1 1.5-10.6 2.6-4.3 1.4-7.6 3.9-11.2 6.4-2.6 1.7-4.9 3.6-7.5 5.1-3.2 1.9-6.4 3.3-9.9 4.7q-5.6 2.2-11.4 3.4c-4.4 0.9-8.5 2.6-12.7 4-2.2 0.7-5.2 2.8-1.9 4.1 1.8 0.7 3.9 0.2 5.9 0.3 0.8 0.1 1.7 0.3 2.5 0.5 1.1 0.3 2.2 0.4 3.4 0.6 4.7 0.9 9.9 0.6 14.6-0.2 2.3-0.4 4.8-0.8 7.1-0.9 1.4 0 2.7 0.1 4.1-0.1 1.2-0.2 2.3-0.3 3.5-0.4 4.7-0.1 9.5 0.8 14.1 1.5 13.2 1.7 26.5 1 39.7 2 2.9 0.3 5.8 0.9 8.7 1 2.2 0.1 4.4 0 6.6 0 2.1 0 3.9-0.4 5.9-0.5 1.1-0.1 2.1-0.1 3.2-0.4 1.1-0.2 2.3-0.8 0-1.6z"/>
			<path id="&lt;Path&gt;" fill-rule="evenodd" class="s13" d="m390.9 5.6c-3.8 0-7 0.3-10.7 0.9-3.2 0.6-6.9 1.7-9 4.4-2.2 3-3.6 7.2-4.7 10.7-1.4 4.5-1.3 9.6-1.3 14.3 0 3 0.7 5.1 3.5 6.7 1.7 1 3.4 1.2 5.3 1.4 2.3 0.4 4.4 1.1 6.6 1.4 6.7 1.1 13.7 2.2 20 4.7 3.4 1.3 7.4 2.3 11.1 2.3 2.1 0 3.4 0.2 5.1-1.2 1.8-1.4 3.2-3.1 4.2-5.2 1.2-2.5 1.7-5.8 2.2-8.6 0.4-2.6 0.2-5.3 0.2-7.9 0-3.9 0-8.7-2.4-11.9-1.6-2-3.7-3.7-6-4.9-2.2-1.2-4.2-2.6-6.4-3.7-2.5-1.2-5.1-2-7.7-2.9-5.1-1.9-9.8-0.6-10-0.5z"/>
			<path id="&lt;Path&gt;" fill-rule="evenodd" class="s2" d="m91.5 24.3c2.4 0.7 3.3 1 4.9 2.5 1.2 1 2.3 2 2.5 3.6 0.3 2.8-2.8 2.6-4.7 2.8-2 0.3-4 0.9-6 1.3-2.5 0.6-5 0.9-7.4 1.6-2.8 0.9-5.5 1-8.4 1-3.2 0.1-6.9-0.2-9.4-2.5-3.6-3.3-6.4-9.9-3.1-14.1 1.8-2.4 5.4-4.1 8.4-4.1 1.8-0.1 4.1-0.3 6 0.1 2.7 0.6 5.1 1.8 7.3 3.3 3 1.8 6.3 2.6 9.9 4.5z"/>
			<path id="&lt;Path&gt;" fill-rule="evenodd" class="s5" d="m102.9 29.7c0.8 2.7 0.7 4 3.3 4.5 1.2 0.2 2.4 0.5 3.7 0.8 2.4 0.6 4.7 1.3 7 2.2 2 0.8 3.9 2 5.9 2.9q1.5 0.6 3 1.2c0.5 0.2 2.1 1.2 2.2 0.4-0.9 0-1.7-1.2-2.4-1.7-1.1-0.8-2.3-1.4-3.5-2-1.1-0.6-2.3-0.9-3.5-1.5-1.2-0.5-2.2-1.4-3.5-2-2.3-0.9-4.6-2-6.8-2.9-0.9-0.4-1.6-1-2.5-1.4-0.9-0.4-1.9-0.5-2.9-0.5z"/>
			<path id="&lt;Path&gt;" fill-rule="evenodd" class="s5" d="m235.5 42.8c1.8-1.3 3.1-2.5 5.2-3.2 1.2-0.5 1.9-0.8 2.7-1.8 0.9-1.2 1.8-2.6 2.8-3.7 0.5-0.5 0.8-1.2 1.3-1.7 0.3-0.3 0.8-0.5 0.5-1-0.8 0.3-1.3 0.8-2 1.4-1.3 1-2.8 1.8-3.9 2.9-1.8 1.7-4 3.3-6.6 7.1z"/>
			<path id="&lt;Path&gt;" fill-rule="evenodd" class="s5" d="m317.9 37.1c-1.2-1.1-2.4-2.2-3.8-3-0.9-0.5-1.6-0.8-1.8-1.9-0.5-2 0.1-4.5 0.7-6.4 0.2-0.8 0.4-1.5 0.7-2.2 0.1-0.4 0.2-0.8 0.4-1-0.4-0.1-0.6 0.3-0.9 0.5-0.7 0.6-1.5 1.2-2.2 1.8-1.1 0.8-2.1 1.4-3 2.4-1.2 1.2-2.6 1.7-3.9 2.7-2.1 1.5-4.1 3.2-6.2 4.8-0.4 0.3-0.8 0.4-1.2 0.6-0.5 0.2-0.8 0.6-1.3 0.9-0.5 0.2-1 0.4-1.2 1 0.5 0.4 1.6 0.6 2.2 0.6 0.6 0 1.2-0.1 1.8-0.2 0.6-0.1 1.1 0 1.6-0.1 1.5-0.3 2.9-0.4 4.4-0.6 0.7-0.1 1.4-0.1 2.1-0.2 0.4 0 0.8-0.2 1.2-0.2 2.2 0 4.3 0.5 6.4 0.5 1.5 0.1 2.8 0.5 4 0z"/>
			<path id="&lt;Path&gt;" fill-rule="evenodd" class="s6" d="m283.6 4.5c0 0 49.9 0.8 72.6 2.8 22.8 2 45-1.4 45-1.4 0 0-88.7-3.6-117.6-1.4z"/>
			<path id="&lt;Path&gt;" fill-rule="evenodd" class="s12" d="m193.7 4c-1.9 0.2-2.6 0.2-4 1.1-0.9 0.4-1.7 0.8-2.5 1.4-2.1 1.6-4 3.4-6.1 4.9-2.9 2-6.5 3-9.9 3.7-3.2 0.6-6.4 0.9-9.7 1.4-3 0.5-6 1.3-9.1 1.7-2.5 0.4-5 0.6-7.5 0.8-1.9 0.2-3.8 0.6-5.8 0.5-2.5-0.1-5-1.1-7.3-2-2.5-1-5-1.3-7.3-2.9-0.5-0.3-0.9-0.9-1.4-1.3-0.4-0.3-0.7-0.5-1-0.9 0.3 0.1 0.8-0.2 1.2-0.3 1-0.3 2.1-0.4 3.1-0.6 3.1-0.8 6.4-1.3 9.5-1.7 2.5-0.3 4.9-0.9 7.4-1.2q3.6-0.5 7.1-0.8c5.2-0.6 10.6-1.5 15.8-1.6 1.5-0.1 3-0.3 4.5-0.4 1.3-0.1 2.5 0.1 3.8-0.2 2.5-0.4 5-0.6 7.4-1.1 3.2-0.7 7.3-1.6 11.8-0.5z"/>
			<path id="&lt;Path&gt;" fill-rule="evenodd" class="s2" d="m372.4 8.4c-1.1-0.5-2-1.1-3.2-1.1-0.4 0-0.6 0.2-1 0.3-0.8 0.2-1.8-0.1-2.6 0.1-0.4 0.1-0.5 0.3-1 0.3-0.3 0.1-0.7 0-1.1 0-1.1 0-2.1 0.1-3.1-0.2-1.6-0.3-3.3-0.1-4.9-0.1-2.8 0-5.5-0.3-8.3 0.7-2.7 0.9-5.1 1.7-7.4 3.6-2 1.7-3.7 4.2-4.4 6.8-0.8 2.6-1.2 5.4-1.2 8.1 0.1 3.4 1.5 6.1 3.8 8.5 1 1.1 2 2.2 3.3 2.9 1.2 0.6 2.1 1.5 3.2 2.3 1.6 1.2 3.7 1.9 5.7 2.2 2.3 0.3 4.1 0.4 6.4-0.1 2-0.4 3.3-1.4 4.7-2.9 2.5-2.6 3.3-6.1 3.3-9.6 0-1 0.3-2 0.6-3 0.4-1.2 0.5-2.5 1.1-3.6 0.9-1.7 1.7-3.5 2.4-5.4 0.7-1.9 1.1-4 1.6-5.9 0.3-1 1.5-3.9 2.1-3.9z"/>
		</g>
	</g>
</svg>