<svg version="1.2" xmlns="http://www.w3.org/2000/svg" viewBox="0 0 311 225" width="311" height="225">
	<title>New Project</title>
	<defs>
		<radialGradient id="g1" cx="0" cy="0" r="1" gradientUnits="userSpaceOnUse" gradientTransform="matrix(244.422,0,0,218.9,150.652,5.973)">
			<stop offset="0" stop-color="#bdb1bc"/>
			<stop offset=".996" stop-color="#978dae"/>
		</radialGradient>
		<radialGradient id="g2" cx="0" cy="0" r="1" gradientUnits="userSpaceOnUse" gradientTransform="matrix(244.42,0,0,218.898,150.653,9.056)">
			<stop offset="0" stop-color="#857c85"/>
			<stop offset=".996" stop-color="#806785"/>
		</radialGradient>
	</defs>
	<style>
		.s0 { fill: url(#g1) } 
		.s1 { fill: url(#g2) } 
		.s2 { opacity: .2;mix-blend-mode: multiply;fill: #9e9baf } 
		.s3 { fill: #614963 } 
		.s4 { mix-blend-mode: soft-light;fill: #c7ccdb } 
		.s5 { opacity: .5;mix-blend-mode: soft-light;fill: #c7ccdb } 
		.s6 { opacity: .3;mix-blend-mode: multiply;fill: #7f739b } 
		.s7 { opacity: .6;mix-blend-mode: multiply;fill: #7f739b } 
		.s8 { fill: #c1b5c6 } 
		.s9 { opacity: .5;mix-blend-mode: multiply;fill: #7f739b } 
		.s10 { fill: #ffffff } 
		.s11 { opacity: .3;mix-blend-mode: multiply;fill: #b2abc3 } 
		.s12 { opacity: .2;mix-blend-mode: soft-light;fill: #c7ccdb } 
		.s13 { opacity: .2;mix-blend-mode: multiply;fill: #c39dcd } 
		.s14 { fill: #9b88a3 } 
	</style>
	<g id="Layer 1">
		<g id="&lt;Group&gt;">
			<path id="&lt;Path&gt;" fill-rule="evenodd" class="s0" d="m310.5 82.9q0 0 0 0 0 5.5-0.1 11v0.1q-0.3 13-1.1 25.9-0.1 0.8-0.1 1.6-1.1 16.8-3.1 33.5-1 7.7-2 15.4-1 6.8-2.1 13.5-1.2 7.4-2.5 14.8-0.4 1.8-1.1 3.5-1 2.5-2.5 4.7c-3.9 5.8-10.3 9.9-17.4 10.7q-45.6 3.2-91.3 4 0 0 0 0-12 0.2-24.1 0.3-14.9 0.1-29.9-0.1-50.6-0.7-101.3-4.2c-3.3-0.4-6.4-1.5-9.3-3.1-4.8-2.9-8.7-7.4-10.7-12.7q-0.6-1.5-0.9-3.1-0.3-1.5-0.6-3-0.8-4.7-1.6-9.3-0.4-2.8-0.8-5.6-0.7-4.3-1.3-8.5-0.8-5.5-1.5-10.9-1.5-11.8-2.6-23.6-0.7-7.1-1.2-14.1c0.8-1.4 1.7-2.7 3.1-3.5q0.6-0.4 1.3-0.7c1.4-0.7 3-1.3 4.6-0.9 0.4 0.1 0.5 0.4 0.9 0.5 0.6 0.1 1.2-0.1 1.8 0 0.6 0.2 1 0.4 1.6 0.5h1q0.3 0 0.6 0 0 0 0.1 0c4.2 0 8.4 0.1 12.6 0.3 0.8-0.1 1.6-0.3 2.5-0.3 1.3-0.2 2.7 0 4 0 1 0 2 0.1 2.9-0.1 0.4-0.1 0.8-0.3 1.3-0.4 0.6-0.1 1.1 0.1 1.6-0.4q-1-0.3-1.9-0.6c-2.8-0.9-5.4-2.1-8.2-3-2.5-0.7-5-0.4-7.5-0.4-2.1 0-4.1 0.5-6.2 0.4-1.6 0-3 0.1-4.6 0.4-1.9 0.4-4 0.6-5.9 0.7-0.9 0-2.1 0.1-2.9-0.2-0.6-0.1-1.7-0.9-2-1.4-0.3-0.5-0.2-1.1-0.5-1.6-0.2-0.3-0.5-0.9-0.9-1.4q-0.7-14.2-0.7-28.4c-0.1-19 0.7-38.1 2.5-57.2 1.6-10.8 10.7-19.4 21.4-20.6q131.3-10 262.7 0c10.7 1.2 19.8 9.8 21.4 20.6q0 0.6 0.1 1.2 0.1 1.2 0.2 2.5c1.5 17.8 2.2 35.5 2.2 53.2z"/>
			<path id="&lt;Path&gt;" fill-rule="evenodd" class="s1" d="m310.5 81.9q0 0.5 0 1 0 0 0 0 0 5.5-0.1 11.1v0.1q-0.2 12.9-1 25.8 0 0.8-0.1 1.6-0.1 3.2-0.4 6.5-0.9 13.4-2.5 26.8-0.7 7-1.7 13.9-0.1 0.8-0.2 1.7 0 0.2-0.1 0.4-0.1 0.9-0.2 1.8-0.8 5.7-1.7 11.4-1.4 8.9-3 17.7-0.1 0.3-0.1 0.5-0.6 2.4-1.7 4.7c-3.6 7.4-10.9 12.8-19.2 13.7q-19.6 1.4-39.1 2.4 0 0 0 0-20.6 1-41.2 1.5-2.6 0-5.1 0.1-16 0.3-31.9 0.4-11.4 0-22.9-0.1-15.4-0.1-30.8-0.5-37.8-1.1-75.6-3.8c-4.6-0.5-8.8-2.4-12.4-5.2-2.5-2-4.6-4.6-6.2-7.5q-1.5-2.7-2.2-5.7-0.1-0.2-0.1-0.5-0.6-3-1.1-6-0.8-4.6-1.5-9.2-0.4-2.3-0.8-4.6-0.1-0.5-0.1-1 0-0.1 0-0.2-0.7-4.2-1.3-8.3-0.5-4-1-8.1-0.2-1.1-0.3-2.3-0.1-0.3-0.1-0.5-1.5-11.8-2.5-23.6-0.6-6.6-1-13.1 0-0.4 0-0.8 0-0.2 0.1-0.3c0.8-1.4 1.7-2.7 3.1-3.5q0.6-0.4 1.3-0.7c1.4-0.7 3-1.3 4.6-0.9 0.4 0.1 0.5 0.4 0.9 0.5 0.6 0.1 1.2-0.1 1.8 0 0.6 0.2 1 0.4 1.6 0.5h1q0.3 0 0.6 0 0 0 0.1 0c4.2 0 8.4 0.1 12.6 0.3 0.8-0.1 1.6-0.3 2.5-0.3 1.3-0.2 2.7 0 4 0 1 0 2 0.1 2.9-0.1 0.4-0.1 0.8-0.3 1.3-0.4 0.6-0.1 1.1 0.1 1.6-0.4q-1-0.3-1.9-0.6c-2.8-0.9-5.4-2.1-8.2-3-2.5-0.7-5-0.4-7.5-0.4-2.1 0-4.1 0.5-6.2 0.4-1.6 0-3 0.1-4.6 0.4-1.9 0.4-4 0.6-5.9 0.7-0.9 0-2.1 0.1-2.9-0.2-0.6-0.1-1.7-0.9-2-1.4-0.3-0.5-0.2-1.1-0.5-1.6-0.2-0.3-0.5-0.9-0.9-1.4q-0.1-0.1-0.1-0.2-0.7-14.1-0.6-28.2 0-5.7 0.1-11.3 0-0.5 0-1v-1.3q0.1-1.1 0.1-2.2 0-1.7 0.1-3.5 0-1.5 0.1-3.1 0-0.4 0-0.9 0.2-3.2 0.3-6.4 0.2-2.9 0.4-5.9 0-0.9 0.1-1.9 0-0.5 0-1 0.6-7.8 1.3-15.7c1.6-10.7 10.7-19.3 21.4-20.5q35.4-2.7 70.8-4 14.9-0.5 29.8-0.7 1.1-0.1 2.2-0.1 0.3 0 0.7 0 7.3-0.1 14.5-0.2 2.1 0 4.1 0 14.1-0.1 28.1 0.1 1.6 0 3.2 0 16 0.2 32.1 0.7 0 0 0 0 4 0.1 8.1 0.3 0 0 0 0 34.5 1.2 69.1 3.9c4.7 0.5 9.1 2.5 12.7 5.4q0.2 0.2 0.5 0.5c1.9 1.7 3.6 3.6 4.9 5.8q0.8 1.3 1.4 2.6 0.5 1 0.9 2.1 0.4 1.2 0.6 2.4 0.1 0.1 0.1 0.3 0.1 0.7 0.3 1.4 0 0.4 0 0.7 0.5 5.1 0.9 10.2 0.4 5.4 0.7 10.8 0.1 1.5 0.1 3.1 0.2 3 0.3 6 0 0.2 0 0.5 0.1 1.3 0.1 2.6 0.1 2.3 0.2 4.6 0 2 0.1 4.1 0 2.5 0 5 0.1 1.2 0.1 2.4v0.8q0 1.1 0 2.1z"/>
			<path id="&lt;Path&gt;" fill-rule="evenodd" class="s2" d="m304.7 168.7q-0.1 0.8-0.2 1.7 0 0.2-0.1 0.4-0.1 0.9-0.2 1.8-0.8 5.7-1.7 11.4-1.4 8.9-3 17.7-0.1 0.3-0.1 0.5-0.6 2.4-1.7 4.7c-3.6 7.4-10.9 12.8-19.2 13.7q-40.2 2.9-80.3 3.9-18.5 0.4-37 0.5-11.4 0-22.9-0.1-53.2-0.5-106.4-4.3c-4.6-0.5-8.8-2.4-12.4-5.2-4.1-3.3-7.1-8-8.4-13.2q-0.1-0.2-0.1-0.5-0.6-3-1.1-6-0.8-4.6-1.5-9.2-0.4-2.3-0.8-4.6-0.1-0.5-0.1-1 0-0.1 0-0.2-0.7-4.2-1.3-8.3-0.5-4-1-8.1-0.1-0.2-0.1-0.4c5.7-2.1 11.6-3.6 17.6-5.2 8.2-2.1 16.6-2.8 25-3.1 1.8 0 3.5-0.7 5.3-0.8 2.3-0.1 4.5 0.2 6.7 0.1 1.8-0.1 3.5-0.8 5.3-0.8 2-0.1 3.9 0 5.9 0 4 0 7.9 0.1 11.8-0.5 2.7-0.5 5.6-0.9 8.3-1 2.4-0.1 4.7-0.7 7.1-0.7 6.3-0.2 12.5 0.1 18.7 0 1.8 0 3.2 0.3 4.9 0.6 1.5 0.2 2.9-0.1 4.4 0.1 1.6 0.2 3.3 0.8 4.9 1.2 1.6 0.3 3.2 0.1 4.8 0.5 2 0.4 4.1 0.4 6.1 1.3 2.3 1 4.8 2 7.1 3.1 2.8 1.3 5.6 3 8.4 4.5 2 1.1 3.8 1.8 5.9 2.8 7.2 3.1 14.6 5.4 22.2 7.2 1.8 0.4 3.4 0.8 5.1 1.3 1.9 0.4 3.9 0.3 6 0.3q2.9 0 5.9 0c2.5 0 4.8-0.7 7.4-0.7 2.8 0 5.4-0.7 8.1-0.8 2.9-0.1 5.8 0 8.7 0 3.3 0.1 6.4-0.7 9.8-0.7 1.7 0 3-0.2 4.6-0.6 1.9-0.3 3.9-0.1 5.7-0.1 5 0 9.7-1.3 14.6-1.5 2.7-0.2 5.3 0.2 7.9-0.1 1.7-0.1 3.2-0.6 4.9-0.7 1.7-0.1 3.5 0.2 5.2 0 8.3-1.1 17-2.4 25.3-0.9z"/>
			<path id="&lt;Path&gt;" fill-rule="evenodd" class="s3" d="m294.6 30.3q0.2 0 0.4 0-0.2 0.1-0.4 0z"/>
			<path id="&lt;Path&gt;" fill-rule="evenodd" class="s3" d="m310 60.3q0.1 1.3 0.1 2.6-0.2-0.3-0.2-0.6c-0.2-0.5 0-0.9-0.1-1.4-0.1-0.5-0.5-0.9-0.6-1.5-0.1-0.5 0.2-1 0.1-1.5-0.1-0.4-0.5-0.7-0.6-1.2-0.2-1 0.2-2.1-0.1-3.1 0-0.3-0.3-0.6-0.3-1.1-0.1-0.4 0-1 0-1.5 0-1.1-0.5-1.6-0.5-2.7-0.1-1.9 0.4-4.3 0-6.2-0.1-0.4-0.5-0.5-0.6-0.9-0.1-0.5 0.2-1.2 0.1-1.7-0.2-1.1-0.4-2.2-0.6-3.1-0.1-0.4-0.4-0.6-0.4-1.1-0.1-0.6 0-0.9-0.1-1.4-0.1-0.4-0.4-0.6-0.4-1.1-0.1-0.6 0.1-1.1 0-1.7-0.6-2-3.2-1.3-4.9-1.3-1 0-2 0-3 0-1 0.1-1.9 0.4-2.9 0.5 0.3-0.1 0.7-0.4 1-0.5 0.8-0.2 1.6-0.4 2.4-0.7 1.3-0.5 2.7-0.9 3.9-1.5 1-0.4 1.5-0.9 2-1.7 0.5-0.8 0.3-1.8 1.1-2.3q-0.5-1.9-1.6-3.6c1 1.2 1.7 2.3 2.2 3.4 0.3 0.6 0.6 1.1 1 1.5q0.4 1.2 0.6 2.4 0.1 0.1 0.1 0.3 0.1 0.7 0.3 1.4 0 0.4 0 0.7 0.5 5.1 0.9 10.2 0.4 5.4 0.7 10.8 0.1 1.5 0.1 3.1 0.2 3 0.3 6 0 0.2 0 0.5z"/>
			<path id="&lt;Path&gt;" fill-rule="evenodd" class="s3" d="m310.7 64.7q0-0.3 0-0.6 0.1 0.2 0 0.6z"/>
			<path id="&lt;Path&gt;" fill-rule="evenodd" class="s3" d="m310.2 89.5c-3.5 0.5-6.9 0.6-10.3 1-1.1 0.1-1.9 0.4-3 0.5-0.6 0-2.8 0.4-2.9 0.9 0.8 0.1 1.4 0.4 2.1 0.6 0.6 0.1 1.2-0.2 1.7-0.1 0.6 0.1 1 0.4 1.6 0.6 1.8 0.4 3.6 0.6 5.4 1.1 0.8 0.2 1.7 0.2 2.5 0.4 0.6 0.2 2.3 1 2.9 0.4 0.6-0.7 0-4.5 0-5.4z"/>
			<path id="&lt;Path&gt;" fill-rule="evenodd" class="s3" d="m308.8 126c-1.8-1-3.5-1.8-5-3-0.8-0.6-1.8-1.4-2.9-1.6 0.3-1.2 5.4-1.8 6.6-1.3 1.6 0.7 0.8 5.4 0.8 6.9z"/>
			<path id="&lt;Path&gt;" fill-rule="evenodd" class="s3" d="m14.7 119.6h1c-0.3 0-0.6 0-0.9 0q-0.1 0-0.1 0z"/>
			<path id="&lt;Path&gt;" fill-rule="evenodd" class="s3" d="m29 119.9c-0.7 0.1-1.5 0.2-2.3 0.2q-3.1 0-6.2 0c-1.5 0-2.7-0.4-4.1-0.5 4.2 0 8.4 0.1 12.6 0.3z"/>
			<path id="&lt;Path&gt;" fill-rule="evenodd" class="s3" d="m3 115.5c0 0 1.8 2.5 4.5 3.3 0 0 3.7 0.5 7.3 0.8 3.7 0.3 11 0.4 15.1 0.2 4.1-0.3 9.5 0.1 9.5 0.1 0 0 4-0.9 5.7-0.9 1.7 0 7.8 0.3 7.8 0.3 0 0-13.2-1.4-14.7-2-1.4-0.6-6.7-3.3-11.7-3.7-5-0.4-15.5 1.4-18.8 1.7-3.2 0.3-4.7 0.2-4.7 0.2z"/>
			<path id="&lt;Path&gt;" fill-rule="evenodd" class="s4" d="m1.3 124.5c2.5 0.4 5 1.3 7.6 1.3 2-0.1 4-0.6 6-1 0.7-0.1 1.4-0.2 2.1-0.3 0.9-0.2 1.8-0.6 2.8-0.8 1.2-0.2 2.5-0.3 3.7-0.6 1.1-0.3 2.2-0.7 3.2-0.9 3.4-0.9 6.8-1.1 10.3-1.1 1.1 0 2.1 0 3.2 0 0.9-0.1 1.8-0.3 2.7-0.5 1.4-0.3 2.8-0.2 4.2-0.3 1.8 0 3.7-0.4 5.5-0.2 2.1 0.4 4.4 0.3 6.5 0.2 0.6 0 1.1-0.1 1.6-0.2 0.6-0.1 1.2 0 1.8-0.1 0.8-0.1 1.8-0.4 2.6-0.1-0.1 0.4-1.3 0.2-1.6 0.1-1.9-0.3-3.9-0.2-5.8-0.2-1.3 0-2.6-0.2-3.9-0.2-1.9 0-3.7 0-5.6 0-1.2 0-2.6-0.1-3.7-0.4-1.2-0.4-2.2-0.4-3.3-0.4-1.1 0.1-2.2 0.3-3.3 0.5-0.3 0.1-0.7 0.3-1 0.3-0.5 0.1-0.9 0-1.4 0-2.8 0.4-5.5 0.1-8.3 0.2-1.6 0.1-3.2 0.4-4.7 0.6-1.5 0.2-2.9 0.2-4.3 0.2-0.8 0-1.6-0.3-2.4-0.3-0.7 0-1.4 0.1-2.1 0-0.8-0.1-1.6-0.3-2.3-0.5-0.6-0.2-1.3-0.3-1.9-0.5-0.5-0.1-0.9-0.2-1.6-0.2-0.6 0-1.4-0.1-2 0.1-0.7 0.2-1.3 0.7-1.9 1.1-0.8 0.6-1.5 1.2-2.1 1.9-0.2 0.4-1 1.4-0.6 2.3z"/>
			<path id="&lt;Path&gt;" fill-rule="evenodd" class="s5" d="m293.8 92c-1.7-0.2-3.4 0-5.1 0-0.7 0-1.5-0.1-2.2 0-0.6 0-1.2 0.3-1.8 0.4-2.1 0.1-4.2-0.1-6.3-0.1 3.4 0 6.6 0.5 9.9 1.2 3 0.5 5.9 1.9 8.9 2.2 0.9 0.1 2 0.2 3 0.4 0.8 0.2 1.5 0.2 2.3 0.3 0.6 0.1 1.1 0.3 1.7 0.4 0.6 0.1 0.6 0.1 1.1 0.5 0.8 0.8 1.3 1.8 2 2.6 0.5 0.6 1.1 1.1 1.7 1.6 0.3 0.3 0.7 0.7 1 0.8 0.3-0.9-0.1-1.3-0.3-2-0.1-0.7 0-1.8 0-2.6 0-1.4-0.1-2.8-1.8-2.8-1.1 0-2.2 0.2-3.3 0.1-1.1-0.2-2.2-0.7-3.4-0.8-1.3-0.1-2.7-0.3-4-0.6-0.9-0.3-2.4-1-3.4-1.6z"/>
			<path id="&lt;Path&gt;" fill-rule="evenodd" class="s6" d="m17.8 114.2c-3-0.5-7.9-0.3-9.9-3-2.1-2.8-4.3-5.2-5.4-8.6-0.6-1.9-0.8-3.6-1.2-5.4-0.4-1.7 0-3.3-0.3-4.9-0.1-0.5-0.4-0.7-0.5-1.3-0.1-0.5 0-1.2 0-1.7 0-0.6 0-1.1-0.1-1.7-0.1-0.4-0.5-0.7-0.4-1.4 0 5 0 10 0 15 0 2.2-0.4 4.9 0 7.1 0.2 0.9 0.5 1.4 0.5 2.4 0 1 0.1 1.4 0.4 2.1 0.5 1.1 0.5 2.6 1.7 3.2 0.5 0.3 1.8 0.6 2.4 0.7 0.6 0.1 1.6 0 2.2-0.1 1.7-0.4 3.1-1 4.9-1 0.8 0 1.7 0.1 2.5 0.1 0.6-0.1 1.6-0.7 3.2-1.5z"/>
			<path id="&lt;Path&gt;" fill-rule="evenodd" class="s7" d="m299.1 90.7c2-0.5 4.1-1.2 6.2-1 0.4 0.1 0.8 0.3 1.2 0.3 0.3 0 0.5 0 0.8 0 0.4 0.1 0.7 0.3 1.2 0.2 1 0 2 0 2-1.2 0-1.3 0.5-2.5 0.2-3.8-0.2-0.9-0.2-1.6-0.2-2.4 0-0.9-0.1-1.7-0.2-2.5-0.3-1.4-0.1-3.1-0.1-4.5 0-0.7 0.3-7.9-0.2-8-0.2 0.6 0.1 1.3 0 1.9-0.2 1-0.3 2-0.4 3-0.4 1.8-0.5 3.5-0.8 5.2-0.1 0.5 0 1-0.2 1.5-0.1 0.4-0.4 0.6-0.7 0.9-0.5 0.8-0.8 1.4-0.6 2.4 0.2 0.9 0.6 1.7 0.7 2.6 0.1 0.9 0.2 2.4-0.4 3.1-0.3 0.4-1.1 0.7-1.6 0.9-0.7 0.3-1.4 0.1-2.1 0.3q-1.1 0.2-2.2 0.5c-0.4 0-0.8 0.1-1.1 0.2-0.3 0.1-0.6 0.4-1.5 0.4z"/>
			<path id="&lt;Path&gt;" fill-rule="evenodd" class="s5" d="m304.6 96.8c0.8 0 1.8-0.1 2.6-0.4 0.4-0.2 0.7-0.3 1.2-0.4 0.6-0.1 1-0.3 1.5-0.7-0.2-0.2-0.4-0.2-0.7-0.2-0.4-0.1-0.8-0.3-1.2-0.4-1.2 0-2.3-0.4-3.5-0.5-0.6-0.1-1.3-0.3-2-0.4-0.6-0.1-1.3-0.1-2-0.3-1.1-0.2-2.2-0.3-3.3-0.6-0.8-0.1-1.6-0.4-2.3-0.4q-1.4 0-2.7 0c-0.5 0-1 0.1-1.5 0-0.6 0-1-0.2-1.6-0.2-0.9 0-1.8 0.3-2.6 0.4 0 0.3 0.4 0.3 0.6 0.4 0.5 0.1 0.9 0.2 1.4 0.4 0.6 0.2 1.3 0.2 2 0.4 0.5 0.1 1 0.2 1.5 0.3 0.9 0.2 1.8 0.5 2.8 0.6q1.6 0.3 3.2 0.7c1.5 0.3 2.9 0.5 4.3 0.9 1.2 0.2 2.2 0.7 2.3 0.4z"/>
			<path id="&lt;Path&gt;" fill-rule="evenodd" class="s3" d="m13.3 207.9q0 0 0 0-1.5-2.7-2.2-5.7-0.1-0.2-0.1-0.5-0.6-3-1.1-6-0.8-4.6-1.5-9.2-0.4-2.3-0.8-4.6-0.1-0.5-0.1-1 0-0.1 0-0.2-0.7-4.2-1.3-8.3-0.5-4-1-8.1-0.2-1.1-0.3-2.3-0.1-0.3-0.1-0.5-1.5-11.8-2.5-23.6-0.6-6.6-1-13.1 0.6-0.4 1.2-0.8c0 1.6-0.3 3.8 0 5.5 0.1 0.6 0.4 0.8 0.5 1.4 0.1 0.5-0.1 1 0 1.5 0.1 0.3 0.4 0.5 0.4 0.8 0.2 0.6 0.3 2.1 0.1 2.7-0.1 0.6-0.7 0.8-0.6 1.5 0.2 0.6 0.9 0.8 1.2 1.3 0.7 1 0.4 3 0.4 4.3v4.2c0 1-0.2 2.1-0.1 3.1 0.2 1.2 0.6 2.1 0.6 3.3-0.1 1.8 0.2 3.3 0.5 5 0.2 1.5-0.3 3.1-0.1 4.6 0.4 2.9 1.6 5.3 1.5 8.2 0 3 1.3 4.9 3.1 7.4 1 1.3 2.3 2.1 1.9 3.9-0.2 0.8-0.5 0.9-0.5 1.9-0.1 0.8 0 1.7 0 2.6 0 3-1.2 6.3-0.4 9.3 0.2 0.8 0.3 1.6 0.5 2.4 0 0.1 0.3 0.3 0.4 0.6 0.1 0.5-0.1 1 0.1 1.5 0.2 0.8 0.4 1.7 0.6 2.4 0.2 0.8 0 1.7 0.2 2.5 0.1 0.2 0.4 0.5 0.4 0.6 0.1 0.5 0 0.9 0.1 1.4z"/>
			<path id="&lt;Path&gt;" fill-rule="evenodd" class="s3" d="m308.9 128q-0.9 13.4-2.5 26.8-0.7 7-1.7 13.9-0.1 0.8-0.2 1.7 0 0.2-0.1 0.4-0.1 0.9-0.2 1.8-0.8 5.7-1.7 11.4-1.4 8.9-3 17.7-0.1 0.3-0.1 0.5-0.6 2.4-1.7 4.7c-3.6 7.4-10.9 12.8-19.2 13.7q-19.6 1.4-39.1 2.4 0.4-0.1 0.8-0.2c3.4-1 7.1-0.6 10.7-0.6 1.6 0 2.9-0.1 4.4-0.4 1.9-0.4 3.8-0.4 5.6-0.7 1.8-0.4 3.7-0.5 5.6-0.8 1.4-0.2 2.9-0.6 4.3-0.6q1.7 0 3.4 0c0.5 0 1.1-0.1 1.5 0 0.4 0.1 0.6 0.6 1 0.6 1-0.1 2.6-2.5 3.4-3.1 0.9-0.5 1.4-1.2 2.1-1.8 0.7-0.5 1.8-0.7 2.4-1.2 0.5-0.4 0.5-0.9 0.9-1.4 0.6-0.8 1.7-1.2 2.4-2 1.5-1.6 2.9-3 4.5-4.4 0.5-0.5 0.9-1.2 1.4-1.6 0.3-0.3 0.7-0.3 1-0.5 0.7-0.5 1-1.2 1.5-1.9 0.8-1.1 1.5-2.1 2.1-3.4 1-2.1 1.5-4.5 1.9-6.8 0.4-2.8 1-5.8 1-8.6 0.1-1 0.4-1.6 0.6-2.5 0.1-0.7-0.2-1.5-0.1-2.2 0.2-1.3 0.6-2.3 0.5-3.6 0-1.9 0.3-3.6 0.6-5.4 0.3-1.3 0.9-2.2 0.9-3.6q0-1.9 0-3.8c0-1.1-0.1-1.5-0.5-2.5-0.1-0.1-0.3-0.9-0.3-1.1-0.2-0.3-0.5-1-0.6-1.4-0.2-2 2.3-3.4 2.9-5.3 0.7-2.3 0.6-5 1-7.4 0.2-1.5 0.6-3 0.9-4.5 0.2-1.4 0.1-2.9 0.1-4.3 0-3.6 0-6.9-0.5-10.5 0.9 0.7 1.6 1.6 2.1 2.5z"/>
			<path id="&lt;Path&gt;" fill-rule="evenodd" class="s3" d="m193.1 224.6q-16 0.3-31.9 0.4-11.4 0-22.9-0.1-15.4-0.1-30.8-0.5c1.8-0.2 3.6-0.3 5.5-0.3 3.3 0 7.2 0.6 10.4-0.1 3.8-0.7 8-1.4 12-1.3 2.3 0 4.5-0.6 6.8-0.5q3.5 0 7 0c10.2 0 20.3-1.4 30.4 0.4 1.5 0.2 3.2 0.5 4.8 0.6 1.4 0.1 2.7 0.4 4 0.5 1 0 1.6 0.3 2.5 0.5 0.7 0.1 1.7-0.4 2.2 0.4z"/>
			<path id="&lt;Path&gt;" fill-rule="evenodd" class="s4" d="m298.3 198.5c-0.9 1.2-1.9 2.3-2.8 3.5-0.7 0.9-1.8 1.4-2.6 2.2-1 1-2.2 1.6-3.4 2.4-1.8 1.3-3.6 2.4-5.4 3.8-2.8 2.1-5 5.2-8.5 6.3-1.4 0.5-3.1 0.8-4.5 1-1.8 0.2-3.6 0.8-5.3 0.8-1.6 0-3.2 0.2-4.8 0.4-2.5 0.4-5.2 0.8-7.8 1.1-3.6 0.3-7.2 0.8-10.8 1.1-1.8 0.1-3.6 0.3-5.4 0.6-1.2 0.2-2.3 0.1-3.5 0.4-0.9 0.2-1.9-0.1-2.8 0.2-0.4 0.1-0.6 0.2-1 0.2-0.5 0.1-1 0-1.5 0.1-0.3 0.1-0.5 0.3-0.9 0.3-0.5 0.1-1 0-1.5 0-0.4 0-0.9 0-1.3 0-0.5 0.2-0.6 0.5-1.2 0.4 2 0 4.4 0.4 6.3-0.1 0.7-0.1 1.1-0.3 1.8-0.3q1.1 0 2.2 0 2 0 4 0 4.6 0 9.2 0c4.8 0 9.4-0.8 14.1-1.1 1.1 0 2-0.4 3-0.4 0.8 0 1.7 0.1 2.6-0.1 1.8-0.3 3.6-0.2 5.5-0.2 1 0 2.1 0 3-0.2 0.9-0.3 1.8-0.2 2.7-0.8 2.1-1.4 3-3.8 4.7-5.6 0.5-0.6 1.3-1.3 2-1.5 1-0.3 2-0.8 3-1.4 1.1-0.7 2.4-1.7 3.2-2.7q0.8-1.1 1.9-1.8c0.6-0.5 1.1-1 1.7-1.6 0.6-0.6 1.1-0.9 1.9-1.4 0.6-0.3 0.9-0.9 1.4-1.6 0.3-0.4 0.4-0.7 0.6-1.2 0.1-0.4 0.3-0.7 0.5-1 0.1-0.5-0.1-1.1-0.3-1.8z"/>
			<path id="&lt;Path&gt;" fill-rule="evenodd" class="s3" d="m12.1 198.5c1 1.5 1.5 2.6 2.7 3.6 0.6 0.5 1.2 1 1.7 1.6 1.2 1.3 2.5 2.3 3.9 3.3 1.3 1 2.3 2.3 3.5 3.4 1.3 1.1 2.6 2.2 3.8 3.4 1.8 1.9 3.9 3.4 6.4 4.7 0.8 0.4 1.5 0.9 2.3 1.3 0.7 0.3 1.7 0.5 2.2 1.1-1-0.1-1.7-0.1-2.6-0.3-0.8-0.2-1.7-0.1-2.6-0.3-0.4-0.1-0.5-0.3-1.1-0.4-0.4-0.1-0.8 0-1.2 0-0.4 0-0.9 0.1-1.2 0-0.6-0.1-0.7-0.3-1.1-0.4-1.7-0.3-3.2-0.2-4.7-0.7-1.2-0.3-2.8-1.5-3.7-2.2-1.1-0.8-2.1-1.9-3-2.9-0.5-0.6-1-1.2-1.5-1.9-0.6-0.8-1.5-1.5-2-2.3-1-1.8-1.7-3.6-2.3-5.6-0.2-0.7-0.5-1.2-0.5-2.1 0.1-0.9 0.7-2 1-3.3z"/>
			<path id="&lt;Path&gt;" fill-rule="evenodd" class="s5" d="m50.1 221.4c-1.7-0.2-3.3-0.3-5-0.7-1-0.2-2.1-0.4-3.1-0.4-1 0-1.8-0.4-2.8-0.3-0.8 0-1.9 0.1-2.6 0-1.4-0.3-2.5-1.1-3.7-1.9-1.9-1.2-4-2.2-5.8-3.7-1.9-1.7-3.6-3.7-5.5-5.6-1.6-1.5-3.5-2.6-5-4.2-0.7-0.7-1.7-1.2-2.3-2-0.3-0.4-0.5-0.7-0.8-1.1-0.3-0.3-0.5-0.6-0.8-0.9-0.2-0.4-0.7-0.4-1-0.7-0.1-0.1-0.3-0.6-0.4-0.8-0.3-0.5-0.7-1-0.8-1.7-0.1-0.5 0-1.3 0-1.8 0-1-0.4-1.8-0.4-2.7 0-0.8 0.4-1.4 0.4-2.2 0.1-0.7 0-1.5 0-2.2 0-0.9 0.4-1.8 0.4-2.7 0-0.7 0-1.5 0-2.2 0-0.6 0-1 0.2-1.5 0.3-0.4 0.5-0.4 0.6-0.9 0.3 0 1.2 0.8 1.3 1.1 0.4 0.8 0 1.8-0.2 2.6-0.2 0.8-0.1 1.6-0.3 2.5-0.1 0.7-0.1 1.2-0.1 1.9 0 0.7 0 1.5 0 2.2-0.1 0.7-0.4 1.2-0.4 1.8-0.1 0.5 0.1 1.1 0 1.5-0.1 0.4-0.4 0.5-0.4 0.9 0 0.8 1 1.5 1.5 1.9 1.1 0.9 1.9 2 3 2.9 0.5 0.5 0.9 0.9 1.4 1.4 0.7 0.7 1.5 1 2.2 1.7 0.8 0.7 1.3 1.8 2.1 2.5 0.4 0.3 0.9 0.3 1.3 0.5 0.4 0.3 0.7 0.8 1.2 1.1 0.5 0.5 1.1 0.9 1.6 1.3 0.6 0.6 1.1 1.3 1.7 1.7 1 0.8 2.4 1.2 3.6 1.6 1.1 0.3 1.3 1.2 1.8 2.2 0.2 0.5 0.3 1 0.5 1.5 0.1 0.3 0.2 0.9 0.3 1.2 0.8 1.7 3 1.6 4.6 1.6q1.5 0 3 0c1.3 0 2.1 0.2 3.3 0.6 2.3 0.7 4.5 1.6 5.4 2z"/>
			<path id="&lt;Path&gt;" fill-rule="evenodd" class="s3" d="m255.5 6.7c-2.2 0.3-4.2 0.4-6.3 0.8-0.9 0.2-1.7 0.1-2.6 0.1-1.3 0.1-2.5 0.5-3.9 0.6-3.1 0-6.2-0.1-9.3-0.1 2.9 0 5.6-0.3 8.4-0.4 1-0.1 1.8-0.5 2.7-0.6 0.6 0 1.1 0.1 1.6-0.1 0.7-0.1 0.8-0.3 1.5-0.4 0.6 0 1.1 0.1 1.7 0 0.3 0 1-0.3 1.3-0.4 0.4-0.2 0.7-0.2 1.1-0.4 0.8-0.4 1.7-0.7 2.6-1.1 1.1-0.4 2.5-0.8 3.7-1 1-0.2 2.2 0 3.3 0-2.5 1.5-6.4 1.6-5.8 3z"/>
			<path id="&lt;Path&gt;" fill-rule="evenodd" class="s8" d="m284.1 5.2c0.6 1.8 0.7 2.8 1.8 3.9 0.4 0.4 1 0.9 1.4 1.3 1.1 1 2.4 1.6 3.7 2.3 1.3 0.7 2.5 1.3 3.8 2 1.4 0.6 3 1.4 4.4 2.1 1.5 0.9 3.4 1.9 4.8 3 0.5 0.5 0.9 1.1 1.3 1.6 0.3 0.5 1 1.9 1.4 2 0.4-0.9-0.1-1.2-0.4-1.9-0.3-0.7-0.3-1.4-0.5-2-0.4-1.2-0.9-2.4-1.6-3.4-0.2-0.3-0.6-0.4-0.8-0.7-0.1-0.2 0-0.5-0.2-0.7-0.2-0.3-0.5-0.5-0.7-0.8-0.2-0.2-0.1-0.5-0.3-0.7-0.2-0.3-0.5-0.5-0.7-0.7-0.2-0.2-0.1-0.6-0.3-0.8-0.3-0.5-0.7-1.2-1.1-1.6-0.8-0.9-2.4-1.5-3.4-2-1.2-0.5-2.4-0.9-3.5-1.4-0.7-0.3-1.2-0.4-1.9-0.6-0.3-0.1-0.4-0.4-0.8-0.5-0.4 0-0.8 0.1-1.2 0-0.8-0.1-1-0.4-2-0.4-0.9 0-1.8 0-3.2 0z"/>
			<path id="&lt;Path&gt;" fill-rule="evenodd" class="s8" d="m2.5 27.4c1-2.2 1.6-3.6 3.2-5.2 1.2-1.2 2-2.7 3.3-3.7 1.2-1 2.4-2.1 3.7-3 0.7-0.5 1.4-1 2.1-1.5 0.7-0.4 1.6-0.7 2.3-1.2 1.4-1.1 2.7-2.5 4.1-3.7 0.6-0.4 1-1 1.5-1.5 0.6-0.5 1.3-0.7 2-1.1 0.4-0.2 2.4-1.5 2.4-1.7-1.5-0.6-2.8 0.2-4.1 0.4-1.5 0.2-2.8 0.2-4.2 0.6-1.5 0.3-2.6 1.4-4 2-2 0.8-3.9 2-5.7 3.3-2.2 1.6-4.4 4.6-5.1 7.2-0.1 0.6-0.4 1.1-0.5 1.6-0.1 0.5 0.1 0.9 0 1.3-0.1 0.3-0.4 0.6-0.4 0.9-0.2 0.7 0.1 1.6-0.1 2.3-0.2 0.8-0.5 1-0.5 3z"/>
			<path id="&lt;Path&gt;" fill-rule="evenodd" class="s5" d="m235.8 8.4c0.3-0.1 2.1-0.5 2.8-0.4 0.2 0.1 0.2 0.3 0.5 0.4 0.6 0.2 1.2 0.1 1.8 0.3 1.2 0.3 2.4 0.8 3.6 0.8 1.3 0 2.2-0.2 3.4-0.5 2-0.3 4-0.6 6-1.1-0.2-0.7-1.9-0.6-2.5-0.6-1.7 0-3.3 0.3-4.9 0.6-0.9 0.2-1.8 0-2.7 0.2-0.6 0.1-1.1 0.3-1.7 0.3-1.9 0-3.7-0.4-6.3 0z"/>
			<path id="&lt;Path&gt;" fill-rule="evenodd" class="s7" d="m19 120.1c2.9-1.7 5.7-3.7 8.6-5.3 0.8-0.4 1.4-0.4 2.3-0.4 0.8 0 1.5 0.4 2.3 0.6q1.4 0.4 2.7 0.9c0.8 0.3 1.6 0.5 2.4 0.9 0.5 0.2 1 0.6 1.6 0.8 0.4 0.1 1.5 0.5 1.5 1-0.3 0-0.5 0.2-0.8 0.3-0.8 0.2-1.8 0.2-2.7 0.4-2.1 0.3-4.2 0.3-6.3 0.3-1.7 0-3.4 0.1-5.2 0-0.7 0-1.4-0.3-2.2-0.3-0.8 0-1.6 0-4.2 0.8z"/>
			<path id="&lt;Path&gt;" fill-rule="evenodd" class="s7" d="m293.8 92c2.2 0.1 3.3 0.3 5.1 1.2 0.3 0.1 0.6 0.1 0.9 0.3 0 0 0.8 0.2 0.8 0.2 0.6 0.2 1.3 0.2 1.9 0.1 1.3-0.1 2.9-1.1 4.1-1.7 1.5-0.6 2.9-1.3 4.1-2.4-2.5 0.2-5 0.1-7.4 0.1-0.6 0-1.3-0.1-1.9 0-0.7 0-1.3 0.2-2 0.3-0.7 0.1-1.4 0.3-2 0.6-0.9 0.3-2.3 0.5-3.6 1.3z"/>
			<path id="&lt;Path&gt;" fill-rule="evenodd" class="s6" d="m1 49.1c0.3-2.4 0.6-4.5 1-6.8 0.2-1 0.4-2.2 0.5-3.2 0.1-0.8-0.2-1.5 0-2.3 0.1-0.7 0.5-1.2 0.5-2 0-0.6-0.1-0.9 0.1-1.4 0.2-0.7 1.3-2.1 1.9-2.6 1-0.9 2.6-1.3 3.8-2 0.8-0.4 1.6-0.9 2.4-1.3 1.7-0.7 3.2-1.4 4.6-2.5 1-0.7 1.6-1.7 2.5-2.6 1.1-1.1 2-1.9 2.6-3.3 0.5-1.2 0-1.3-0.2-2.6-0.2-1.3 0.6-2.1 1.5-3 1.7-1.7 4.7-2.8 6.9-3.5 2.7-0.9 5.5-1.2 8.3-1.7q2.2-0.5 4.3-0.9c0.6-0.1 1.2-0.1 1.8-0.2 0.5-0.1 0.6-0.7 1.2-0.6-2.3 0.1-4.6 0.1-6.9 0.1-0.6 0-1.2-0.1-1.8-0.1-0.5 0.1-0.8 0.4-1.2 0.5-1.1 0.3-2.6 0-3.7 0q-1.7 0-3.5 0c-0.5 0-1.2-0.1-1.7 0-0.6 0.2-0.9 0.4-1.4 0.6-1.3 0.2-2-0.3-3 0.4-1 0.7-2 1.6-2.8 2.5-2 2-4.3 3.8-6.8 5.1-1.3 0.7-2.5 1.5-3.7 2.3-1.3 0.9-2.2 1.8-3.3 2.8-1.5 1.5-2.3 3.9-2.7 5.8-0.4 2.4-1.2 4.3-1.2 6.7 0 1.2 0.3 2.7 0 3.9-0.1 0.8-0.5 1.2-0.5 2 0 0.7 0 1.3 0 2 0 3 0.5 5.8 0.5 7.9z"/>
			<path id="&lt;Path&gt;" fill-rule="evenodd" class="s6" d="m264.2 6.2c1.6 0.8 2.9 1.3 4.5 1.7 0.6 0.2 1.2 0.1 1.8 0.1 0.3 0 0.6 0 0.8 0 0.4 0.1 0.5 0.2 0.8 0.3 2.2 0.5 4.6-0.4 6.8 0.5 0.8 0.3 1.5 0.7 2.2 1.4 0.3 0.4 0.6 0.8 0.9 1.1 0.1 0.2 0.5 0.3 0.7 0.5 0.2 0.3 0.2 0.7 0.5 0.9 0.2 0.3 0.6 0.4 0.8 0.6 0.4 0.4 0.6 0.9 0.9 1.3 0.8 0.9 1.7 1.8 2.7 2.7 0.7 0.7 2.1 1.4 2.3 2.5 0.3 1.3-1.3 2.2-2.3 2.7-1.1 0.5-3.5 0.9-4 2.2-0.3 0.5 0 1.1-0.2 1.6-0.1 0.4-0.6 0.8-0.7 1.3-0.6 2.4 4.3 1.8 5.5 2.7 0.7 0.5 1.2 0.9 1.8 1.5 0.4 0.3 0.9 0.7 1.2 1 1.1 1.2 1.7 2.6 3 3.6 1 0.8 2 1.7 3 2.5 1 0.8 1.7 1.9 2.6 2.7 0.4 0.4 0.8 0.8 1.2 1.2 0.1 0.1 0.4 0.4 0.5 0.5 0.2 0.1 0.6 0.2 0.8 0.3 0.3 0.3 0.6 0.9 0.9 1.4 0.7 1.1 1.2 2.4 1.7 3.6 0.5 1 1 1.9 1.4 3 0.3 0.8 0.5 1.6 0.8 2.5 0.7 1.5 1.1 3 1.5 4.6 0.3 1.1 1 2.1 1.2 3.3 0.8-0.2 0.4-7.9 0.2-8.8-0.3-2.2-0.3-4.3-0.3-6.4q0-1.6 0-3.1c0-1.2-0.3-2.3-0.3-3.4-0.2-1.7 0.2-3.6-0.1-5.3-0.2-1.6-0.3-3.2-0.7-4.8-0.5-2.2-0.9-4.3-1.9-6.3-0.7-1.3-1.4-2.5-2.3-3.5-0.5-0.5-0.7-1.2-1.3-1.7-0.5-0.4-1.3-0.8-1.9-1.1-0.9-0.4-1.9-0.3-2.9-0.6-1.6-0.5-2.7-2-4.1-2.8-2.6-1.5-5.4-2.1-7.6-4.2-0.7-0.6-1.4-1.3-2.3-1.7-1.3-0.6-3.2-0.5-4.7-0.8-1.4-0.4-2.5-0.6-4-0.6-1.5 0-3 0-4.5 0-0.7 0-1.2 0.3-1.9 0.4-0.7 0.1-1.5 0-2.2 0-1.4 0-2.3-0.2-2.8-1.1z"/>
			<path id="&lt;Path&gt;" fill-rule="evenodd" class="s5" d="m10.9 126.7c-1.4 0.6-4.7 1.1-5.2 3-0.3 0.8 0 1.9-0.2 2.8-0.1 0.8-0.6 1.3-0.5 2.4q0 1.5 0 3.1c0 1.1-0.2 2.4-0.1 3.5 0.2 1.3 0.8 2.4 0.8 3.7 0.1 1.3-0.2 2.5 0.2 3.8 0.2 1 0.5 1.5 0.5 2.6 0.1 2.4-0.4 5.2 0 7.5 0.2 1.2 0.7 2 0.8 3.2 0 0.9 0 1.9 0 2.9 0 1-0.2 2 0 3 0.1 1 0.5 1.2 0.8 2.2 0.3 1.4 0.2 4.5-0.3 5.8-1.6-0.4-1.1-3.3-1.2-4.7-0.2-1.2-0.8-2.1-0.8-3.3-0.1-1.1 0-1.9-0.2-3-0.5-2.7-1.1-5.7-1.3-8.4-0.1-1.5-0.6-2.7-0.8-4.2-0.1-1.1 0.2-2.2 0.1-3.3-0.5-4.3-1.5-8.2-1.5-12.6 0-1.9 0.4-4.2-0.2-6.1-0.2-0.9-0.6-1.2-0.5-2.4 0-1.1-0.3-2.5 0.1-3.6 1.1 0.5 2.6 0.9 3.7 1.2 0.8 0.2 1.4 0 2.1 0.2 0.9 0.2 1 1.1 3.7 0.7z"/>
			<path id="&lt;Path&gt;" fill-rule="evenodd" class="s4" d="m291.5 6.4c-0.9-0.4-1.8-1-2.7-1q-0.9 0-1.7 0-0.9 0-1.8 0c-0.2 0-0.4 0-0.7 0.1q0 0.2-0.2 0.2-0.3 0-0.6-0.1c-0.4 0.2 0.3 1.8 0.6 2.2 0.6 0.8 1.3 1.4 2.2 1.8 0.3 0.2 0.8 0.3 1.1 0.6 0.2 0.1 0.4 0.3 0.6 0.4 0.3 0.2 0.7 0.3 1.1 0.6 0.3 0.3 0.5 0.5 0.9 0.7 0 0 0.4 0.4 0.5 0.4 0.6 0.1 1.5-0.6 2-1 0.8-0.5 1.6-0.6 2.3-1.3 0.5-0.4 0.6-0.4 0.4-0.9-0.4-1.1-2-2.1-3-2.4z"/>
			<path id="&lt;Path&gt;" fill-rule="evenodd" class="s4" d="m20.9 8.2q-0.7 0.7-1.3 1.3c-0.3 0.3-0.7 0.6-0.9 0.9-0.5 0.6-1 1.2-1.5 1.7-0.7 0.6-1.5 1.2-2.4 1.3-0.9 0-1.6 0.3-2.5 0.5-0.5 0.1-0.8 0.2-1.3 0.4-0.1 0.1-0.5 0.3-0.7 0.3-0.4 0.1-0.4-0.2-0.3-0.6 0-0.2 0.2-0.5 0.3-0.7 0.3-0.5 0.4-0.9 0.7-1.4 0.4-0.7 1-1.4 1.6-2.1 0.3-0.3 0.5-0.7 0.8-1 0.3-0.3 0.7-0.5 0.9-0.7 0.5-0.5 1.2-0.9 1.7-1.2 0.5-0.2 1-0.5 1.5-0.7 0.4-0.1 0.8-0.2 1.1-0.2 0.4 0 0.8 0.2 1.2 0.4 0.5 0.3 0.9 1.1 1.1 1.8z"/>
			<path id="&lt;Path&gt;" fill-rule="evenodd" class="s5" d="m84.9 4.9c-1.4-0.2-2.2-0.3-3.5 0-1.2 0.2-2.5 0-3.7 0-1.3 0.1-2.6 0.4-4 0.3-0.4-0.1-2.6-0.3-2.1-1.2 0.3-0.6 1.8-0.7 2.4-0.9q2-0.5 4-1.1c0.8-0.2 1.5-0.3 2.3-0.3 0.6 0 0.9-0.2 1.4-0.2 0.5-0.1 1.1 0 1.5 0 1.8 0 3.7-0.3 5.3 0.2 0.9 0.2 2.1 0 3 0 0.6 0 1.3 0 1.9 0 0.9 0 1.8-0.2 2.7-0.2 1.7 0 3.4 0.1 5.1-0.2 1.5-0.3 3.1-0.1 4.6-0.1 0.5 0 2.3-0.1 2.5 0.7 0.1 0.6-1.7 1-2.1 1.1-1.1 0.3-2.5 0.3-3.8 0.4-1.3 0.1-2.7 0.3-4.1 0.3-1.1 0.1-2.2 0.1-3.3 0.2-0.8 0.1-1.6 0-2.4 0.1-1.5 0.3-3.1 0.5-4.7 0.7-1.4 0.1-2.8 0.2-3 0.2z"/>
			<path id="&lt;Path&gt;" fill-rule="evenodd" class="s5" d="m135.6 3.7c1.6-0.5 3.1-1.1 4.7-1.6 2-0.7 4.2-1.1 6.2-1.3 4.5-0.5 8.9-0.6 13.3-0.6 3.4 0 6.6 0.4 9.9 0.8 1.3 0.2 2.7 0.5 4 0.9 0.5 0.2 2 0.3 2.1 1-0.3 0-0.5 0.2-0.8 0.3-0.4 0.1-0.8 0.2-1.1 0.3-2.4 0.1-4.8-0.4-7.2-0.6-3.7-0.2-7.4-0.3-11.1 0-1.2 0.1-2.3 0.5-3.5 0.6-0.9 0-1.8 0.2-2.7 0.2-0.6 0-1.3-0.1-1.9 0-0.8 0.2-1.5 0.2-2.2 0.2-0.9 0-1.6-0.2-2.5-0.2-1.8-0.1-3.6 0-7.2 0z"/>
			<path id="&lt;Path&gt;" fill-rule="evenodd" class="s5" d="m178.8 1.5c-0.5 0-2.1-0.2-2 0.7 0 0.4 0.5 0.6 0.8 0.8 1.4 0.5 3.4 0.6 4.9 0.4 0.5-0.1 2.1-0.1 2.4-0.7 0.2-0.4-0.2-0.8-0.4-1.1-0.8-0.6-2.1-0.8-3-0.9z"/>
			<path id="&lt;Path&gt;" fill-rule="evenodd" class="s3" d="m189.9 223.7c1-1.7 2-2.9 3.3-4.2 0.8-0.9 1.4-1.2 2.5-1 1.7 0.4 3.5 0.9 5.1 1.5q1.4 0.4 2.8 0.7c1.8 0.5 3.7 1.2 5.5 1.6 0 0.2-0.5 0.8-0.7 1-0.3 0.3-0.7 0.5-1.3 0.8-1.7 0.7-3.6 0-5.6-0.1-2.8-0.1-5.8 0-8.7 0-2.1 0-4.1-0.3-2.9-0.3z"/>
			<path id="&lt;Path&gt;" fill-rule="evenodd" class="s3" d="m212.1 224c3.2-1 6.3-1.4 9.6-1.5 0.9 0 1.4 0.2 2.2 0.4 0.5 0.2 1.2 0.5 1.8 0.4-0.8 0-1.7-0.1-2.5 0.1-1.3 0.3-2.7 0.3-4.1 0.3q-1.9 0-3.9 0c-1-0.1-1.7 0.3-2.7 0.3z"/>
			<path id="&lt;Path&gt;" fill-rule="evenodd" class="s3" d="m87.8 224c-1.5-0.7-2.8-1.5-4.4-1.9-1.3-0.4-2.6-0.3-3.9-0.3-1.7 0-3 1-4.6 1.2 0 0.3 2 0.6 2.5 0.7 1.2 0 2.5 0 3.8 0 0.5 0 1.1 0 1.7 0 0.6-0.1 1-0.3 1.6-0.4 0.3-0.1 1.2-0.1 1.5 0 0.4 0.1 0.5 0.5 1.1 0.4z"/>
			<path id="&lt;Path&gt;" fill-rule="evenodd" class="s9" d="m197.1 224.2c0.8-0.3 1.9-0.5 2.1-1.5 0.1-0.8-0.4-1.3-0.9-1.8-0.5-0.5-1.1-0.9-1.6-1.4-0.1-0.2-0.3-0.4-0.5-0.5-0.2-0.1-0.4-0.2-0.5-0.4 1.1 0.1 2.2 0.2 3.3 0.5 1 0.2 2 0.7 3.1 1 0.9 0.3 1.9 0.5 2.8 0.9 0.8 0.4 1.6 0.8 2.4 1.2 0.2 0.1 0.7 0.1 0.9 0.4 0.1 0.4-0.4 0.6-0.7 0.7-0.9 0.5-1.9 0.6-3 0.5-0.5 0-1-0.1-1.5-0.1-0.6 0-1.1 0.1-1.6 0.3-1 0.2-2.2 0-4.3 0.2z"/>
			<path id="&lt;Path&gt;" fill-rule="evenodd" class="s9" d="m16 212.1c0.8 0.9 1.4 1.3 2.2 2.1 0.3 0.3 0.5 0.7 0.8 1.1 0.4 0.4 0.7 0.7 1.1 0.8 0.4 0.2 0.7 0.4 1.1 0.5 1 0.2 2.3-0.1 3.3-0.4 1-0.4 2.4-1.3 3.5-1.1 0.8 0.1 1.5 0.9 2.2 1.2 1.1 0.5 2.2 0.9 3.2 1.5 1 0.6 2 1.2 3 1.7 0.8 0.4 1.5 0.7 2.2 1.3-1-0.1-1.9-0.3-2.9-0.3-1.1 0-2.2 0.1-3.3 0-0.5 0-0.9-0.2-1.3-0.2-0.5-0.1-1 0-1.5-0.1-1-0.2-2.1-0.3-3.2-0.6-0.9-0.2-1.7-0.6-2.6-0.9-0.9-0.3-1.6-0.6-2.4-1.1-0.6-0.4-1.2-0.8-1.7-1.3-0.5-0.3-1.2-1.3-3.7-4.2z"/>
			<path id="&lt;Path&gt;" fill-rule="evenodd" class="s9" d="m278.4 220c0.8-0.9 1.5-1.7 2.1-2.6 0.5-0.7 0.9-1.3 1.6-1.8 1-0.6 1.8-1.1 2.9-1.6 0.7-0.3 1.5-0.7 2.2-0.9 0.4-0.1 0.7 0 1-0.1 0.2 0 0.6-0.3 0.9-0.2 0.4 0.1 0.4 0.5 0.4 0.9 0.1 0.7 0.1 1.7-0.2 2.3-0.2 0.3-0.4 0.5-0.6 0.7-0.3 0.5-0.3 0.5-1 0.7q-1 0.4-2 0.7c-0.6 0.2-1 0.5-1.6 0.7-0.9 0.4-1.7 0.9-2.5 1.1-0.9 0.3-1.9 0.4-2.9 0.6 0 0.1 0 0.1-0.3-0.5z"/>
			<g id="&lt;Group&gt;" style="opacity: .3;mix-blend-mode: soft-light">
				<path id="&lt;Path&gt;" fill-rule="evenodd" class="s10" d="m152.4 82.1c-0.8 2-1.8 3.4-1.4 5.5 0.4 2.1 1.3 3.2 2.9 4.4 1.1 0.9 3.6 2.8 5 1.5 1.4-1.3 2.1-4.8 1.5-6.6-1-3-3.3-4.9-6.5-4.8z"/>
				<path id="&lt;Path&gt;" fill-rule="evenodd" class="s10" d="m146 78.2c-0.9-1.9-2.2-3.3-0.9-5 0.9-1.1 1.4-1.3 2.4-0.2 1.3 1.4 1.5 3.9-1 4.2z"/>
				<path id="&lt;Path&gt;" fill-rule="evenodd" class="s10" d="m173.6 80.1c0.3 1.8 0.1 4.2 2.2 4.4 0.8 0.1 1.4 0.1 1.7-0.7 0.6-1.4-1.7-2.9-2.9-2.7z"/>
				<path id="&lt;Path&gt;" fill-rule="evenodd" class="s10" d="m183 106.8c1.1-2 1.8-3.9 4.3-3.9 1.3 0 2.4 0.9 3.1 2 0.7 1 0.6 1.8-0.2 2.6-1.1 1.1-2.8 0.7-4.2 0.7z"/>
				<path id="&lt;Path&gt;" fill-rule="evenodd" class="s10" d="m132.2 155.1c0.2 1.6-0.1 3.7 1.4 4.5 1 0.5 2.1 0.5 3.2 0.3 1.8-0.3 2.8-1 3.5-2.8 1.3-3.3-4.8-5.5-7.1-4z"/>
			</g>
			<path id="&lt;Path&gt;" fill-rule="evenodd" class="s8" d="m20.3 9.3c1.4 0.2 2.5 0.3 3.7 0.3 0.7 0.1 1.1 0.3 1.7 0.4 0.9 0.2 1.9-0.1 2.8 0 0.6 0 1.1 0.2 1.7 0.3 1.3 0.2 2.7 0 4 0.1 2.1 0 4 0.4 6.1 0.4 2.5-0.1 5-0.2 7.4 0 5.3 0.6 10.6-0.1 15.9 0.4 2.2 0.1 4.4 0.4 6.7 0.3 2.9 0 5.9-0.5 8.8-0.7 2.8-0.1 5.5-0.4 8.2-0.4 1.4 0 2.7 0.1 4.1 0 1.6-0.1 3.2-0.4 4.8-0.4 4.1 0 8.2-0.8 12.3-0.7 1.9 0 3.7-0.4 5.6-0.4 1.7 0 3.4-0.4 5.1-0.4 2.4 0.1 4.9-0.2 7.3-0.6 4.3-0.9 8.9-1 13.3-1.5 5.8-0.6 11.6-1.4 17.4-1.6 2.9 0 5.7-0.4 8.6-0.3q3.9 0 7.8 0c2.4 0 4.8 0.1 7.2 0 2.2-0.1 4.3-0.4 6.6-0.4 3 0 6 0.1 9 0 1.4 0 2.7-0.4 4.1-0.4 1.7 0 3.4 0.4 5.1 0.4 2 0.1 4 0 5.9 0 1.8 0 3.5 0.3 5.3 0.4 1.7 0 3.4-0.2 5.1 0 1.5 0.3 2.9 0.3 4.5 0.3 1.3 0 2.5 0.4 3.8 0.4 1 0.1 2.1 0 3.1 0 1.1 0 2 0.3 3.1 0.4 1.1 0 2.2 0 3.3 0 0.9 0 3.7 0.5 4.3-0.4-0.5 0.1-0.6-0.3-0.9-0.4-0.7-0.2-1.7-0.2-2.4-0.3-2.5-0.5-5-1.2-7.6-1.1-1.8 0-3.5-0.3-5.2-0.4-2.4-0.1-4.9 0-7.2 0-3.5 0-7 0.1-10.4 0-1.5 0-3-0.4-4.4-0.4-1.5 0-3 0-4.5 0-4.5 0-9 0-13.5-0.3-1.9-0.1-3.8-0.1-5.6 0-2.3 0-4.5-0.4-6.7-0.4-4.4-0.2-8.8 0-13.2 0-5.2-0.1-10.3 0.7-15.5 0.7-1.9 0.1-3.7 0-5.6 0-2.2 0-4.4 0.4-6.7 0.4-1.8 0-3.7-0.2-5.5 0.1-1.5 0.2-2.9 0.3-4.4 0.3-3.4-0.1-6.7-0.1-10-0.4-3-0.2-6 0-9 0-1.9 0-3.9-0.1-5.9 0.1-2.3 0.2-4.5 0.1-6.8 0.3-4.6 0.3-9.3 0.7-13.9 0.7q-7.7 0-15.3 0c-9.7 0-19.4-0.1-29.1 0.3-3 0.2-5.9 0.7-8.9 1.2-1.5 0.3-2.8 1.2-5.5 3.7z"/>
			<path id="&lt;Path&gt;" fill-rule="evenodd" class="s3" d="m65.1 119.9c50.3 5.1 150.8-13.9 177.8-26 27.1-12.1 62.4-4.2 62.4-4.2l-9.2 2.8c0 0-12.2-9.3-50.7 1.5-38.5 10.7-104.8 26.2-142 26.8-37.2 0.5-38.3-0.9-38.3-0.9z"/>
			<path id="&lt;Path&gt;" fill-rule="evenodd" class="s3" d="m96.1 1.5c0 0 45.5 2.2 50.4 4.7 4.9 2.5 26 44.5 62.8 65.4 36.8 21 75.6 3 78.3 3.7 2.6 0.7 23.1 9.9 23.1 9.9l-0.4-4.9c0 0-20.4-5.9-23.8-5.7-3.4 0.1-29.4 10.9-70.7-0.5-41.2-11.4-64.3-68.9-64.3-68.9 0 0-14.8-0.8-26.8-1.8-12.1-1.1-28.6-1.9-28.6-1.9z"/>
			<path id="&lt;Path&gt;" fill-rule="evenodd" class="s6" d="m151.2 5c1 1.1 1.7 1.8 2.2 3.2 0.5 1.4 0.9 3 1.5 4.3 0.6 1.6 1.2 3.2 1.9 4.7-1.1 0.6-2.3-1.7-2.7-2.4-0.9-1.3-1.8-2.9-2.9-4-0.7-0.8-1.6-1.3-2.4-2-0.4-0.5-0.7-0.8-1-1.4-0.2-0.3-0.4-1-0.8-1.3 0.1-0.7 1.7-0.9 2.3-1 1-0.2 1.7 0.2 1.9-0.1z"/>
			<g id="&lt;Group&gt;">
				<path id="&lt;Path&gt;" fill-rule="evenodd" class="s11" d="m45.2 81.4c-0.7 0-1-0.2-1.4 0.4-0.2 0.3-0.4 0.5-0.6 0.9-0.3 0.5-0.4 1-0.5 1.7-0.1 0.5-0.2 0.9-0.2 1.5 0 0.5 0.1 0.8 0.3 1.2 0.5 1.2 1.6 1.4 2.5 1.7 1 0.2 2.2-0.1 3-0.7 0.9-0.5 1.8-1.5 1.8-2.8 0-0.9-0.3-1.7-0.7-2.4-0.2-0.4-0.4-0.8-0.7-1-0.4-0.3-0.7-0.2-1.1-0.3-0.4-0.1-0.8-0.2-1.2-0.3q-0.6-0.2-1.2 0.1z"/>
				<path id="&lt;Path&gt;" fill-rule="evenodd" class="s11" d="m34.2 52.4c-1 0.6-2.9 1.8-2.5 3.6 0.2 0.7 0.7 1.7 1.2 2.2 0.2 0.3 0.4 0.7 0.7 0.9 0.5 0.4 1.1 0.5 1.7 0.5q1.1 0 2.1 0c0.7 0 1.3 0.2 1.9 0.3 0.7 0.2 1.5 0.1 2.2 0.1 0.4-0.1 0.7-0.3 1.1-0.5 0.2-0.1 0.4-0.1 0.6-0.2 0.3-0.1 0.4-0.3 0.7-0.5 0.3-0.2 0.5-0.2 0.8-0.5 0.2-0.1 0.5-0.3 0.7-0.5 0.5-0.4 0.7-0.8 0.7-1.5 0-0.6-0.3-0.9-0.5-1.2-0.3-0.5-0.8-0.9-1.2-1.2-0.4-0.3-0.8-0.9-1.3-1.1-0.2-0.1-0.5-0.2-0.7-0.2-0.1-0.1-0.3 0-0.4 0-0.1-0.1-0.3-0.2-0.4-0.2q-1-0.2-1.9-0.6c-0.3-0.1-0.5-0.1-0.8-0.2-0.3-0.1-0.5-0.3-0.8-0.3-1.3-0.3-2.7 0.6-3.9 1.1z"/>
				<path id="&lt;Path&gt;" fill-rule="evenodd" class="s11" d="m28.4 57c-0.3 0.3-0.9 0.6-1.2 1-0.1 0.1-0.1 0.3-0.3 0.5-0.2 0.2-0.4 0.4-0.6 0.7-0.1 0.2-0.3 0.4-0.4 0.5-0.2 0.2-0.5 0.2-0.7 0.4-0.2 0.3-0.3 0.4-0.5 0.6-0.4 0.3-0.8 0.8-0.9 1.3-0.2 0.6-0.1 1.9 0.4 2.3 0.7 0.5 1.7 0.3 2.4 0 0.5-0.2 0.9-0.5 1.4-0.6 0.3-0.1 0.6-0.2 0.9-0.3 0.7-0.3 1.6-1 1.9-1.7 0.4-0.8-0.1-1.7-0.4-2.3-0.2-0.4-0.5-1-0.8-1.3-0.4-0.5-1.2-0.7-1.2-1.1z"/>
				<path id="&lt;Path&gt;" fill-rule="evenodd" class="s11" d="m253.6 162.4c0.2 0.3 0.6 0.9 0.7 1.3 0.1 0.2 0 0.5 0 0.7 0 0.2 0.1 0.4 0.2 0.6 0 0.2 0 0.5 0 0.7 0 0.4-0.1 0.7-0.2 1.1-0.1 0.6-0.3 1.3-0.6 1.9-0.4 0.9-0.7 1.9-1.2 2.8-0.3 0.6-0.8 0.9-1.4 1.1-0.1 0-0.3-0.1-0.5 0-0.2 0-0.3 0.1-0.5 0.2-0.4 0.1-0.9-0.1-1.3 0.1-0.4 0.1-0.8 0.1-1.2 0.1-0.5 0-0.9 0-1.3 0.1-0.5 0.1-1.1 0-1.6 0-0.4 0-0.7-0.1-1.1-0.1-0.4-0.1-0.8 0-1.2 0-0.5 0-1 0.1-1.5 0.1-0.4 0-0.9 0-1.3-0.1-0.5-0.1-0.9-0.2-1.4-0.5-0.9-0.4-1.6-0.7-2.2-1.7-0.8-1.5-1.2-3.9-0.5-5.5 0.2-0.5 0.6-1.1 0.7-1.7 0.2-0.5 0.3-1 0.6-1.5 0.2-0.5 0.4-1 0.8-1.4 0.5-0.6 0.9-1.1 1.5-1.5 0.9-0.7 1.8-1.5 3-1.6 0.4 0 0.9 0 1.4 0 0.5 0 0.8 0.2 1.3 0.2 0.4 0 0.7 0.2 1.2 0.2 0.2 0 0.5-0.1 0.7 0 0.2 0 0.4 0.1 0.6 0.2 0.4 0 0.7 0 1.2 0.2 0.4 0.2 0.7 0.5 1.2 0.6 0.8 0.4 1.7 0.4 2.5 0.9 0.2 0.1 0.7 0.6 0.9 0.9 0.3 0.5 0.5 1.1 0.5 1.6z"/>
				<path id="&lt;Path&gt;" fill-rule="evenodd" class="s11" d="m262.2 193.8c-0.8-0.3-1.5-0.6-2.3-0.6-0.3 0.1-0.5 0.3-0.8 0.4q-0.5 0.2-1.1 0.2c-0.8-0.1-1.5-0.7-2.2-1.1-1.2-0.7-2.5-0.5-3.8-0.6-1.3 0-2.6 0.8-3.7 1.5-0.8 0.6-1.5 1.1-2 2.1-0.5 0.9-0.6 1.9-0.6 3 0.1 0.7 0.1 1.5 0.5 2 0.3 0.5 0.6 0.8 1 1.1 0.4 0.4 0.6 0.6 1 0.9 0.5 0.2 0.9 0.4 1.3 0.6 0.8 0.4 1.6 0.9 2.5 1.2 0.2 0.1 0.4 0.3 0.7 0.4 0.3 0.1 0.6 0.1 0.9 0.3 0.7 0.3 1.4 0.7 2.2 0.7 0.5 0 0.9 0.1 1.4 0.1 0.4 0 0.7 0 1.1 0.1 0.7 0.2 1.6 0.1 2.4 0.1 0.8 0 1.9-0.3 2.6-0.7 0.4-0.2 0.7-0.3 1.1-0.6 0.4-0.3 0.8-0.7 1.1-1.1 0.4-0.5 0.8-1.7 0.8-2.4 0-0.3 0.1-0.4 0.1-0.7 0.1-0.3 0-0.6-0.1-0.9 0-0.5-0.1-1-0.3-1.5-0.2-0.5-0.4-1-0.6-1.6-0.3-0.5-0.6-0.8-0.9-1.3-0.3-0.5-0.5-0.8-0.9-1.1-0.4-0.3-0.9-0.5-1.3-0.7-0.5-0.1-0.9-0.1-0.1 0.2z"/>
				<path id="&lt;Path&gt;" fill-rule="evenodd" class="s6" d="m245.4 198.9q0.5-0.7 0.9-1.5c0.2-0.2 0.3-0.6 0.5-0.8 0.3-0.5 0.8-0.8 1.2-1.1 0.3-0.3 0.5-0.3 0.8-0.5 0.2-0.1 0.5-0.3 0.7-0.3 0.3-0.1 0.6-0.1 0.9-0.2 0.3-0.1 0.7-0.3 1-0.3 0.4-0.1 0.8 0.1 1.1 0 0.4 0 0.7-0.2 1.1-0.2 0.4 0 0.8-0.1 1.1 0 0.4 0 0.7 0.2 1 0.2 1.3 0 2.4 0.6 3.5 1.3 0.4 0.2 0.7 0.3 1 0.5 0.3 0.2 0.7 0.2 1.1 0.3 0.3 0.1 0.5 0 0.8 0.1q0.3 0.1 0.6 0.2c0.4 0.1 0.7 0.4 1.1 0.6 0.5 0.4 1.2 0.9 1.6 1.5 0.2 0.3 0.4 0.8 0.5 1.1 0.1 0.3-0.1 1.4 0.2 1.4 0-0.5 0.1-0.8 0.1-1.4 0-0.6 0-1.1-0.1-1.6-0.2-0.9-0.5-1.6-1-2.3-0.5-0.7-1.3-1.1-2-1.4-0.4-0.3-0.8-0.6-1.2-0.8-0.3-0.2-0.6-0.4-0.9-0.5-0.4-0.1-1-0.2-1.4 0-0.2 0-0.3 0.2-0.5 0.3-0.2 0.2-0.3 0.2-0.5 0.3-0.2 0.1-0.2 0.2-0.4 0.2-0.2 0-0.4-0.3-0.6-0.4q-0.9-0.3-1.7-0.6c-0.2-0.1-0.5-0.2-0.7-0.3-0.2-0.1-0.4 0-0.6-0.1-0.5-0.2-1-0.5-1.5-0.6-1.3-0.1-2.5 0.3-3.7 0.6-0.7 0.2-1.5 0.4-2.2 0.9-0.4 0.3-0.8 1-1 1.6-0.2 0.6-0.4 1.3-0.7 2-0.2 0.6-0.2 1.2-0.1 1.8z"/>
				<path id="&lt;Path&gt;" fill-rule="evenodd" class="s6" d="m235.3 168c0.1-1.3 0.1-2.4 0.5-3.5 0.1-0.4 0.1-0.7 0.3-1 0.2-0.4 0.5-0.7 0.8-1 0.9-0.7 1.8-0.9 2.7-1.4 0.8-0.5 1.6-0.9 2.5-1.1 0.8-0.1 1.6 0 2.4 0 0.3 0 0.7-0.1 1 0.3 0.3 0.3 0.4 0.8 0.7 1.1 0.7 0.6 2.1 0.4 2.8-0.1 0.5-0.4 1.4-0.8 2.1-0.5 0.2 0 0.4 0.3 0.6 0.4 0.3 0.1 0.6 0.3 0.8 0.5 0.2 0.2 0.4 0.4 0.6 0.6 0.2 0.2 0.5 0.4 0.6 0.6 0.1-0.6-0.6-1.5-0.8-1.9-0.2-0.2-0.4-0.6-0.6-0.8-0.3-0.3-0.5-0.5-0.8-0.8-0.2-0.2-0.5-0.4-0.8-0.5-0.1 0-0.2 0-0.4 0-0.2 0-0.3-0.1-0.5-0.1-0.3-0.1-0.6 0-0.8-0.1-0.5-0.1-0.9-0.3-1.3-0.5-1.1-0.5-2.2-0.2-3.3-0.5-0.5-0.2-1.2-0.1-1.8-0.1q-1.1 0-2.1 0.3c-0.3 0.1-0.6 0.2-0.8 0.3-0.3 0.2-0.6 0.5-0.8 0.7-0.2 0.2-0.5 0.2-0.7 0.4-0.3 0.2-0.5 0.6-0.8 0.9-0.7 0.7-1.3 1.4-1.6 2.6-0.2 0.8-0.7 1.5-0.8 2.4 0 0.5 0 1 0 1.5 0 0.2 0 0.5 0 0.7 0 0.3 0.2 0.4 0.3 0.6z"/>
				<path id="&lt;Path&gt;" fill-rule="evenodd" class="s6" d="m33.1 58.5c-0.1-0.3-0.2-0.6-0.3-0.9q-0.2-0.2-0.3-0.4c-0.1-0.3-0.5-0.5-0.5-0.8 0-0.4 0.1-0.7 0.2-1q0.5-1 1.2-1.6c0.2-0.3 0.5-0.5 0.8-0.7 0.3-0.2 0.5-0.3 0.8-0.4 0.2-0.1 0.4-0.3 0.6-0.3 0.2-0.1 0.4-0.1 0.7-0.1 0.3 0 0.6 0 0.9 0.1 0.1 0.1 0.1 0.2 0.2 0.3 0 0.1 0.1 0.2 0.2 0.3 0.2 0.2 0.4 0.4 0.7 0.5 0.2 0 0.4 0.1 0.6 0.1 0.3 0 0.6-0.2 0.9-0.3 0.8-0.2 1.7-0.4 2.5-0.1 0.2 0.2 0.4 0.3 0.7 0.5 0.1 0 0.2 0.1 0.3 0.2 0.1 0.2 0.1 0.3 0.3 0.4 0.1 0.1 0.3 0.3 0.5 0.4q0.1 0 0.3 0.1c0.1 0.1 0.3 0.1 0.4 0.2 0.2 0.1 0.5 0.3 0.7 0.5 0.1 0.1 0.2 0.3 0.3 0.5 0.1 0.1 0.1 0.1 0.1 0.3 0.1 0.1 0.2 0.2 0.2 0.4 0 0.1-0.1 0.8 0.1 0.8 0-0.2 0-0.6 0-0.8q-0.2-0.7-0.4-1.2c-0.2-0.4-0.4-0.8-0.7-1.1-0.2-0.3-0.5-0.5-0.8-0.7-0.2-0.2-0.4-0.5-0.7-0.6-0.3-0.3-0.6-0.6-0.9-0.9-0.1-0.1-0.2-0.2-0.4-0.2-0.1-0.1-0.2-0.1-0.4-0.1-0.1 0-0.2-0.1-0.4-0.1-0.2 0-0.4 0.1-0.6 0.1-0.3 0-0.5-0.1-0.7-0.3-0.3-0.3-0.7-0.6-1.1-0.8-0.1 0-0.2 0-0.4-0.1-0.1 0-0.2 0-0.4 0-0.3 0-0.7 0-1.1 0.2q-0.5 0.3-1.1 0.6c-0.5 0.3-1.1 0.5-1.7 0.8-0.5 0.2-1 0.5-1.4 0.9-0.2 0.2-0.4 0.4-0.7 0.7-0.1 0.1-0.2 0.2-0.3 0.4q-0.1 0.3-0.2 0.6c0 0.2 0 0.4-0.1 0.6 0 0.1 0 0.1 0 0.1q0 0.2 0 0.4 0 0.3 0.1 0.6c0.1 0.3 0.3 0.7 0.6 0.9q0 0.1 0.1 0.1c0 0.1 0.1 0.2 0.2 0.2 0.1 0.2 0.2 0.5 0.4 0.7z"/>
				<path id="&lt;Path&gt;" fill-rule="evenodd" class="s6" d="m24.1 64.1c0.1-0.6 0.1-1.3 0.4-1.9 0.2-0.6 0.6-1.2 1-1.6 0.4-0.3 0.8-0.5 1.2-0.7q0.3-0.2 0.7-0.2c0.2 0 0.5-0.1 0.7-0.1 0.4-0.1 0.9-0.3 1.3-0.2 0.3 0.1 0.6 0.3 0.9 0.6 0.2 0.2 0.3 0.3 0.4 0.6 0.1 0.2 0.1 0.9 0.2 1 0.2 0.1 0.2-0.6 0.1-0.8 0-0.2-0.1-0.4-0.2-0.7-0.1-0.2-0.2-0.5-0.3-0.8-0.2-0.4-0.5-0.5-0.7-0.9-0.2-0.3-0.4-0.5-0.7-0.8-0.1-0.1-0.5-0.6-0.7-0.6-0.2 0-0.5 0.2-0.7 0.4-0.3 0.4-0.7 0.8-1 1.2-0.4 0.6-0.9 1-1.4 1.5-0.2 0.3-0.3 0.5-0.5 0.7-0.2 0.2-0.3 0.3-0.4 0.5-0.3 0.4-0.5 0.8-0.5 1.4-0.1 0.5 0.1 0.9 0.2 1.4z"/>
				<path id="&lt;Path&gt;" fill-rule="evenodd" class="s5" d="m246.6 203c0.7 0.1 1.6 0.4 2.2 1 0.5 0.5 0.8 1.2 1.3 1.6 0.5 0.5 1.2 1 1.9 1.2q0.5 0.2 1.1 0.4c0.5 0.2 0.9 0.2 1.4 0.3 0.5 0.2 0.9 0.1 1.4 0.2 0.5 0 0.8 0.2 1.3 0.1 0.9-0.4 1.7-0.5 2.6-0.7 0.8-0.2 1.5-0.5 2.2-1 0.5-0.4 1.3-0.8 1.4-1.6-0.3-0.2-0.3 0.1-0.5 0.2-0.3 0.1-0.6 0.1-0.8 0.2-0.8 0.4-1.8 0.7-2.7 0.7-0.8-0.1-1.6 0-2.5 0-0.3-0.1-0.7-0.2-1.1-0.3-0.5-0.1-1-0.2-1.5-0.3-1.5-0.3-3-0.2-4.4-0.9-1-0.5-2-1.1-3.3-1.1z"/>
				<path id="&lt;Path&gt;" fill-rule="evenodd" class="s5" d="m240 173q1 0 2.1 0c0.6 0 1 0.1 1.6 0.2 0.4 0.1 0.8-0.1 1.1 0.1 0.1 0 0.2 0.1 0.4 0.2 0.1 0.1 0.4 0 0.5 0.1 0.9 0.3 1.8 0.1 2.6-0.2 0.7-0.2 1.4-0.4 2-0.7 0.2-0.1 1.1-0.5 1.2-0.9-0.7-0.3-1.5 0.2-2.1 0.2-0.7 0-1.4 0.3-2 0.4-0.6 0.2-1.3 0.1-1.9 0.1-1.6 0-3.2 0-5.5 0.5z"/>
				<path id="&lt;Path&gt;" fill-rule="evenodd" class="s6" d="m42.6 86.9c0.1-0.7 0.1-1.3 0.2-2 0.1-0.1 0.1-0.3 0.2-0.5 0-0.2 0.2-0.4 0.3-0.5 0.3-0.4 0.7-0.5 1-0.8 0.4-0.3 0.7-0.5 1.1-0.6 0.3-0.1 0.6 0 0.9 0 0.1 0 0.3-0.1 0.4 0.1 0.1 0.2 0.1 0.5 0.3 0.6 0.2 0.4 0.8 0.3 1 0 0.3-0.2 0.6-0.4 0.9-0.3 0.1 0 0.2 0.2 0.2 0.2 0.2 0.1 0.3 0.2 0.4 0.3q0.1 0.2 0.2 0.3c0.1 0.1 0.2 0.3 0.2 0.4 0-0.3-0.2-0.8-0.3-1-0.1-0.2-0.1-0.4-0.2-0.5q-0.2-0.3-0.3-0.4-0.2-0.2-0.3-0.3-0.1 0-0.2 0c-0.1 0-0.1-0.1-0.2-0.1-0.1-0.1-0.2 0-0.4 0-0.1-0.1-0.3-0.2-0.5-0.3-0.4-0.3-0.8-0.2-1.2-0.3-0.3-0.1-0.5 0-0.8 0q-0.4-0.1-0.8 0.1-0.2 0.1-0.3 0.2c-0.1 0.1-0.2 0.3-0.3 0.4-0.1 0.1-0.2 0.1-0.3 0.2-0.1 0.1-0.2 0.3-0.3 0.5-0.3 0.4-0.5 0.8-0.6 1.4-0.1 0.5-0.3 0.9-0.4 1.4 0 0.2 0 0.5 0 0.8 0 0.1 0 0.3 0 0.4q0.1 0.2 0.1 0.3z"/>
				<path id="&lt;Path&gt;" fill-rule="evenodd" class="s5" d="m44.5 89.7q0.4 0 0.8 0c0.3 0 0.4 0.1 0.7 0.1 0.1 0.1 0.3 0 0.4 0.1 0.1 0 0.1 0.1 0.2 0.1 0 0 0.1 0 0.2 0 0.3 0.2 0.7 0.1 1-0.1q0.4-0.1 0.8-0.4c0.1 0 0.4-0.2 0.4-0.5-0.2-0.1-0.5 0.1-0.8 0.2-0.2 0-0.5 0.1-0.8 0.2-0.2 0.1-0.5 0-0.7 0-0.7 0-1.3 0-2.2 0.3z"/>
				<path id="&lt;Path&gt;" fill-rule="evenodd" class="s5" d="m36.5 61.4c0.4 0 0.7 0 1.1 0.1 0.3 0.1 0.6 0.1 0.9 0.2 0.6 0.2 1.3 0.2 1.9-0.1 0.5-0.2 0.9-0.5 1.4-0.8 0.4-0.2 0.8-0.6 1.3-0.9q0.5-0.2 0.9-0.5c0.1 0 0.5-0.3 0.6-0.4-0.3-0.1-0.4 0-0.6 0.1-0.3 0-0.5 0.2-0.8 0.3-0.3 0.1-0.6 0.1-0.9 0.2-0.3 0.1-0.5 0.2-0.7 0.3q-0.2 0-0.5 0.1-0.6 0.2-1.3 0.5c-0.3 0.2-0.6 0.2-1 0.3-0.3 0-0.6 0.1-0.9 0.2-0.2 0.1-0.4 0.2-0.5 0.2-0.2 0.1-0.4 0.1-0.9 0.2z"/>
				<path id="&lt;Path&gt;" fill-rule="evenodd" class="s5" d="m24.7 64.7c0.5 0.1 0.8 0.1 1.3 0.2 0.2 0 0.4-0.1 0.6-0.1 0.5 0.2 0.8 0.3 1.3 0.2 0.5-0.1 1-0.4 1.5-0.8 0.3-0.1 0.9-0.6 0.2-0.7-0.1 0-0.3 0.1-0.5 0.2-0.2 0.1-0.4 0.1-0.6 0.2-0.5 0.2-1 0.3-1.4 0.4-0.2 0-0.4 0-0.6 0-0.2 0.1-0.5 0.3-0.7 0.3-0.4 0.1-0.7 0.2-1.1 0.3z"/>
			</g>
			<path id="&lt;Path&gt;" fill-rule="evenodd" class="s12" d="m288.5 76.2c-1.1-0.3-2.2-0.9-3.3-0.6q-0.7 0.1-1.5 0.3c-0.7 0.2-1.3 0.7-1.9 1-1 0.4-2.1 0.6-3.2 0.8-4.5 0.9-9.5 1.7-13.7 3.7-3.6 1.8 2.6 3.1 3.9 3.4 1.6 0.5 3.3 0.6 4.9 1 0.9 0.1 1.8 0 2.7 0 0.9 0.1 1.7 0.4 2.6 0.4 3.2 0.2 6.4 0.3 9.5 1.1 1.5 0.3 2.9 1 4.5 1.1 2.1 0.3 4.1 0.6 6.3 0.8 0.8 0 1.6 0.3 2.5 0.3 0.5 0 0.8 0.2 1.2 0.3 0.5 0.1 0.9 0.1 1.3 0.2 0.5 0.1 0.7 0.4 1.4 0.3 2.2-0.6 2.4-3.4 2-5.2-0.3-1-1.1-1.9-2-2.2-0.3-0.1-0.5 0-0.7 0-0.4-0.2-0.6-0.5-0.9-0.7-0.4-0.2-0.8-0.2-1.2-0.3-0.6-0.2-1.2-0.6-1.8-0.8-2.1-0.7-4.2-1.4-6.2-2.3-2.2-0.9-4.5-1.1-6.4-2.6z"/>
			<path id="&lt;Path&gt;" fill-rule="evenodd" class="s12" d="m308.1 79.9c-0.8-0.4-1.8-1.2-2.7-1.6-1.1-0.4-2.4-0.5-3.6-0.7-1.6-0.2-3.2-0.4-4.8-0.7-2.5-0.5-4.2-1.2-6.3-2.5-0.8-0.6-1.5-1.1-2.6-1.1-0.6-0.1-1.2 0-1.8 0-1.1 0-2 0.2-3 0.4-1.7 0.4-3.5 0.6-5.2 0.9-3.5 0.7-7 2-10.6 2.4-3.7 0.3-7.4 0.6-11.2 0.4-0.7-0.1-1.2-0.4-1.9-0.5-0.7 0-1.4 0.1-2.1 0-1.5-0.3-2.9-0.6-4.4-1-2.2-0.5-4.3-0.6-6.4-1.6-2.5-1.2-5.1-2.4-7.3-4.3-2.6-2.3-5-5.6-6-8.9-1-3.4 0.2-6.1 1.6-9.2 2-4.5 4.5-8.7 7.4-12.8 2.8-3.9 5.5-8.2 9.6-10.9 7-4.7 16.4-4.8 24.4-2.6 4.4 1.3 9 2.4 13.3 3.9 1.6 0.6 3.2 0.5 4.7 0.8 2.8 0.7 4.5 2.5 6.3 4.5 2.3 2.3 3.7 5.7 5.2 8.5q1 1.8 2.2 3.4c0.7 1 1.2 2 1.9 2.9 0.6 0.9 1.3 1.7 1.8 2.7 0.6 1.2 1 2.3 1.4 3.5 0.5 1.3 1 2.5 1.3 3.8 0.4 1.6 0.7 3.2 0.7 4.8-0.1 1.8 0 3.4-0.3 5.2-0.3 1.5-0.8 3.2-0.9 4.7-0.1 1.7-0.3 3.4-0.7 5.6z"/>
			<path id="&lt;Path&gt;" fill-rule="evenodd" class="s12" d="m253 91.8c-2.7 1-5.3 1.9-8.1 2.7-4.3 1.3-8.7 2.1-12.9 3.5-8.1 2.6-16.1 5.5-24.3 7.7-1.9 0.5-3.7 1.3-5.6 1.9-2.3 0.7-4.6 1.3-6.9 2.3-4.6 1.9-9.2 4-13.9 6-4.4 1.9-8.8 3.5-13 5.8-0.9 0.5-2 1.1-2.4 2-0.6 1.2 0.1 2.5 0.5 3.6 0.5 1.5 1.2 2.8 2.1 4.1 1.2 1.6 2.2 3.4 3.3 5.1 2.2 3.2 4 6.9 6.7 9.8 1.5 1.6 3 3.4 4.6 4.8 1.6 1.4 3.3 2.6 4.8 4.1 3.5 3.4 6.8 6.9 10.7 9.8 4.1 3 8.6 6.7 13.7 7.7 1.9 0.3 4.4 0.2 6.3 0 2.8-0.2 5.5-0.7 8.3-0.7 2.1 0 4.1 0.2 6.1 0.4 1.6 0.1 3.1 0.5 4.6 0.7 0.9 0.2 1.6-0.3 2.4-0.4 1.6-0.3 3-0.9 4.6-1 3.4-0.4 6.9-0.6 10.4-1 3-0.2 5.9-0.3 8.8-0.7 3.9-0.4 7.9-0.6 11.9-1q4-0.4 8-0.9c2.2-0.3 4.5-0.2 6.8-0.6 0.9-0.2 1.6-0.3 2.6-0.3 0.6 0 1.3 0.1 1.9 0 1.5-0.4 2.6-2.2 3.5-3.4 1.9-2.7 3.2-6.2 4.1-9.3 0.8-2.8 1-5.9 1.4-8.7 0.7-3.6 0.7-7.1 0.8-10.7 0.1-5.6-3.4-10.1-5.4-15.1 0-0.2-0.6-1.1-0.6-1.3 0.2-0.4 0.7-0.4 1.2-0.6 1-0.4 2.8-1.6 3.3-2.7 0.1-0.5-0.1-0.8 0-1.2 0.1-0.6 0.3-1.1 0.3-1.7 0.2-1.2-0.2-2.2-0.3-3.4-0.2-1.6-0.8-3.5-1.8-4.8-3.4-4.1-8.7-6.7-13.6-8.7-3.6-1.5-7.4-2.8-11.3-3.2-3.8-0.4-8-0.7-11.8 0-1 0.2-2.1 0-3.1 0.3-1 0.2-2.1 0.2-3.1 0.2-0.9 0-1.8 0-2.7-0.1-0.8-0.1-2.3-0.8-2.9-1z"/>
			<path id="&lt;Path&gt;" fill-rule="evenodd" class="s2" d="m191.2 175.7c-0.3 2.3-0.4 3.6 0 5.8 0.5 2.3 0.8 4.7 1.1 7.1 0.1 1 0 1.9 0.1 2.9 0 0.8 0.3 1.5 0.3 2.4 0.1 1.8 0.1 3.7-0.2 5.5-0.7 3.2-2.3 6.2-4.9 8.2-1.8 1.4-3.7 2.5-5.6 3.6-1.3 0.8-2.6 1.5-3.8 2.2-1.2 0.7-2.3 1.6-3.5 2.2-4.3 1.9-8.6 3.7-13.2 4.5-3.3 0.6-6.8 0.5-10.2 0.4q-5.5-0.2-11.1-0.5c-3.3-0.2-6.7-0.6-10-0.7-1.6 0-3.2 0.2-4.8 0-1.1-0.1-2.1-0.3-3.2-0.3-2.6-0.1-5.2-0.1-7.9-0.3-3.9-0.3-7.9 0.1-11.8-0.9-3.1-0.7-6.2-1.3-9.1-2.5-2.6-1.1-4.6-2.8-6.9-4.5-2.3-1.7-4.7-3.3-6.6-5.6-1.3-1.4-2.2-2.8-2.9-4.6-0.7-1.7-1.5-3.3-2.3-5-0.7-1.5-1.2-3-2.1-4.3-0.9-1.5-1.8-2.9-2.3-4.5-1.1-3.8-0.9-7.5 0.8-11 1.9-3.8 4.4-7.1 8-9.3 3.8-2.3 7.8-4.2 11.9-6 7.6-3.3 15.6-6.4 23.9-7.7 2.9-0.5 6-0.9 9-0.8 2.9 0.1 5.9 0.8 8.7 1.5 3.7 1 7.3 2.2 10.8 3.6 4.3 1.7 8.2 4.2 12.5 5.7 3.7 1.3 7.3 2.9 10.9 4.1 0.7 0.3 1.2 0.8 1.8 1.1 0.8 0.3 1.6 0.6 2.3 1 2.1 1.1 4.5 1.7 6.7 2.7 0.6 0.4 1.2 0.8 1.9 1.1 1 0.4 2.1 0.4 3.2 0.7 0.6 0.2 1.2 0.5 1.8 0.7 0.6 0.1 1.3 0.1 1.9 0.3 1.2 0.3 2.5 0.5 3.6 0.9 0.6 0.1 1.5 0.3 1.2 0.3z"/>
			<path id="&lt;Path&gt;" fill-rule="evenodd" class="s5" d="m182.4 172.4c2.6 0.8 5 1.2 7.7 1.5 2.6 0.2 4.9 0.6 7.4 0 2-0.5 4.4-0.8 6.1-2.1 0.7-0.5 1.3-1.3 2.2-1.3 0.9 0.1 1.8 0.4 2.7 0.6 1.8 0.3 3.5 0.5 5.3 0.9 3.2 0.8 6.7 1.4 10 1.5 2.7 0.1 5.6 0.1 8.3 0 0.8 0 1.6-0.3 2.4-0.4 0.5 0 0.9-0.4 1.3-0.4-0.6 0.9-2.7 1-3.6 1.2-2.4 0.5-4.9 0.7-7.3 1.2-2.4 0.4-5.1 1.1-7.4 1.8-1.6 0.5-3 1.4-4.7 1.9-1.2 0.3-2.3 1.2-3.4 1.7-1.3 0.6-2.2 0.3-3.6 0-2.3-0.4-4.5-0.9-6.8-1.6-2.1-0.6-3.6-1-5.1 0.6-1.2 1.3-0.8 3-0.8 4.7 0 1.2-0.2 2.6 0 3.8 0.1 1.1 0.4 2.1 0.3 3.3 0 0.9 0 1.7-0.2 2.5-0.3 0.9-0.3 1.1-0.9 1.8 0.1-2.2 0.2-4.5 0.1-6.6-0.2-2.6-1.2-5.2-1.6-7.7-0.1-1.3-0.5-2.7-1.5-3.6-0.9-0.8-1.9-1.2-3-1.6-0.6-0.3-1.1-0.5-1.7-0.8-0.5-0.1-1.6-0.2-2.2-2.9z"/>
			<path id="&lt;Path&gt;" fill-rule="evenodd" class="s13" d="m164.2 41.2c-0.4-1.5-0.6-3.1-1.3-4.4-0.7-1.2-1.9-2.4-2.6-3.5-1.7-2.4-3.5-4.8-5-7.4-1.1-2-1.9-3.8-2.4-5.9-0.3-1.3-0.8-2.3-1.4-3.5-1.1-2.2-2.9-3.5-4.7-5.3-0.9-1-2-1.8-3-2.7-0.8-0.9-2.1-2.3-3.3-2.7-1.3-0.6-3.1 0-4.4 0.4-2.8 1-6 1.4-9 1.9-8.8 1.4-17.6 2-26.6 2-1.9 0-3.9 0.1-5.8 0.1-2.8-0.1-5.5-0.7-8.4-0.6-2.8 0.1-5.7 0.6-8.4 0.9-1.9 0.3-3.7-0.1-5.5 0.2-1.6 0.3-3.7 0.3-5 1.3-1.4 1-2.5 2.9-3.5 4.3-1.6 2-3.4 3.8-5.2 5.7-1.2 1.3-2.4 2.6-3.7 3.9-1.4 1.4-2 3.1-2.8 4.9-0.6 1.6-1.4 3.3-1.7 5.1-0.4 1.9-0.2 3.8-0.2 5.7 0.1 6.8-0.1 13.6 0.6 20.4 0.4 3.6 1.3 6.9 2.5 10.3 0.5 1.2 0.7 2 1.8 2.8 2.4 1.7 5.3 2.9 7.9 4.3 6.2 3.1 12.6 5.9 18.7 9.2 5.2 2.7 10.4 5.6 15.9 7.4 2.3 0.8 4.4 1.8 6.8 2.3 3 0.5 6.9 0.4 9.8 0 8.6-1.2 16.7-5.7 24.3-9.5 8-4 16.3-7.5 24.3-11.4 2.9-1.4 6.4-2.9 7.2-6.3 1.1-4.7 0-8.9-1.3-13.5-1.1-3.8-2.2-7.5-3-11.3-0.3-1.6-1.4-3.1-1.6-5.1z"/>
			<path id="&lt;Path&gt;" fill-rule="evenodd" class="s12" d="m147 7.2c0 1.5-0.2 3.4 0.7 4.7 0.7 0.9 1.6 1.7 2.4 2.7 1.3 1.7 2.2 3.6 3.3 5.4 1.6 2.7 2.5 5.8 4.2 8.5 2 3.1 4.1 6.1 6 9.3 1.4 2.3 1.4 5 3.1 7.1 2.1 2.6 5.6 3.6 8.7 4.7 0.5 0.2 2.8 1.3 3.1 0.7 0.3-0.6-1.5-2.7-1.9-3.2-0.8-0.8-1.3-1.8-2.1-2.5-0.7-0.5-1.3-0.8-1.9-1.5-0.6-0.8-1.1-1.8-1.7-2.6-0.7-0.8-1.4-1.4-2-2.3-1.1-1.5-2.3-2.7-3.2-4.4-1.2-2.3-2.9-4.5-4.4-6.5-1.3-1.6-2.2-3.6-3.5-5.3-0.6-0.9-1.2-1.7-2-2.5-0.7-0.8-0.8-1.7-1.4-2.5-0.5-0.7-1.1-1.2-1.6-1.9-0.5-0.8-1.1-1.4-1.6-2.1-0.7-0.7-1.3-1.5-2.1-2.1-0.6-0.6-2.2-0.7-2.1-3.7z"/>
			<path id="&lt;Path&gt;" fill-rule="evenodd" class="s14" d="m276.3 220.5c-1.7 0-3.5 0.1-5.2-0.2-0.6-0.1-2.4 0.1-2.5-0.8 2.7-0.6 5.9-1.5 8.5-2.8 1.3-0.7 2.9-2.1 4.3-2.5 0.4 0.8-1 2.3-1.3 2.9-0.4 0.8-0.5 2.4-1.6 2.6z"/>
			<path id="&lt;Path&gt;" fill-rule="evenodd" class="s14" d="m253.4 82.1c-0.5 0.2-3.1 0.5-3.3 1.4 0.5 0.2 1 0.1 1.5 0.2 0.9 0.2 1.7 0.3 2.6 0.3 1.9 0 3.7 0.4 5.6 0.4 1 0 2.1 0.1 3-0.1 0.6-0.1 1.3-0.4 1.9-0.7 1.4-0.7 2.8-0.9 4.2-1.5 2.3-0.8 5-1.1 6.8-2.8 0.5-0.6 1-1.1 1.7-1.4 0.9-0.4 1.6-1 2.5-1.3-0.7-0.1-1.7 0.2-2.3 0.4-0.6 0.2-1.1 0.6-1.7 0.8-0.7 0.2-1.5 0.4-2.2 0.6-2.5 0.6-5 1.2-7.5 1.5-1.3 0.2-2.4 0.1-3.7 0.4-1.1 0.3-2.2 0.2-3.3 0.3-1 0.2-1.9 0.5-2.9 0.7-1.2 0.2-2.5 0.1-2.9 0.8z"/>
			<path id="&lt;Path&gt;" fill-rule="evenodd" class="s14" d="m190.1 108.4c1.3-0.2 2.4-0.4 3.7-0.4 0.6 0 1.2 0.1 1.8 0 0.8-0.3 1.5-0.5 2.4-0.3 0.8 0.2 1.5 0.5 2.3 0.3 0.6-0.1 1-0.4 1.7-0.5 1.4-0.3 2.8-0.8 4.2-1.2 2-0.6 4.1-1.2 6.1-1.7-0.2-0.9-3.1 0.3-3.7 0.4-2.4 0.4-4.9 0.7-7.4 1.2-0.7 0.1-1.5-0.1-2.2 0.1-0.7 0.2-1.1 0.3-1.8 0.3-1.6-0.1-3 0.5-7.1 1.8z"/>
			<path id="&lt;Path&gt;" fill-rule="evenodd" class="s14" d="m79.2 121q-0.1 0.1-0.1 0.3c-0.9 0.3-2 0.1-3 0.4-1.3 0.4-2.7 0.3-3.9 0.6-1 0.2-1.4 0.1-2.3-0.1-0.5-0.2-0.9 0-1.4-0.1-0.8-0.1-1.8-0.6-2.7-0.8 4.5 0 8.9-0.3 13.4-0.3z"/>
			<path id="&lt;Path&gt;" fill-rule="evenodd" class="s13" d="m226.6 58.7c-0.9 1.6-1.9 3.6-3.5 4.7-2.3 1.5-5.4 2.1-8.1 2.2-1.7 0.1-3.5 0.5-5.2 0.2-1.4-0.2-2.8-0.4-4.1-0.8-3.1-1.1-6.1-2.9-8.5-5.2-1.5-1.3-3-2.4-4.4-3.8-1.4-1.5-2.3-3.1-3.3-4.8-0.9-1.5-1.7-3-2.8-4.3-1.3-1.6-2.8-2.9-4.2-4.4-2.8-3.1-4.9-6.7-6.9-10.3-2.2-4.1-4.9-8.1-6.7-12.4-1-2.5-1.9-5.6 1.1-7 1.6-0.7 3.3-1.2 5.1-1.4 3.4-0.5 6.8-0.8 10.3-1.2 2.9-0.3 5.9-0.3 8.9-0.4 3.5-0.1 7-0.2 10.6-0.1 3.1 0 6.3-0.3 9.4-0.3 3.1-0.1 6.1-0.1 9.1-0.3 3.5-0.3 7.1-0.8 10.6-0.4 3.1 0.4 6 1.1 8.8 2.4 1.5 0.7 3.2 1.8 3.9 3.4 0.9 1.8 0.7 3.6 0.1 5.4-0.4 1.7-1.2 3.2-2 4.7-1.1 2.1-2.5 3.8-3.9 5.7-1.5 2.3-3 4.6-4.7 6.7-0.7 1-1.5 1.9-2.2 2.9-0.8 1.3-1.4 2.6-2.2 3.9-1.6 2.7-2.7 5.6-3.8 8.5-0.2 0.5-0.4 1.1-0.5 1.7-0.2 0.8-0.6 1.3-0.9 2.1-0.1 0.3-0.1 0.8-0.3 1.1-0.1 0.3-0.4 0.4 0.3 1.5z"/>
			<path id="&lt;Path&gt;" fill-rule="evenodd" class="s5" d="m176.1 48.5c-0.3-0.5-0.9-2.1-1.6-2.5-0.6-0.4-2-0.5-2.6-0.5-1.6-0.1-3.4 0.1-4.5 1.3-2.2 2.4-1.7 6.5-1.1 9.3 0.6 2.9 2.2 5.3 3 8 0.4 1.3 0.6 2.7 0.8 4.1 0.4 1.6 0.5 2.3 2.1 3.3 2.7 1.6 5.8 2.5 8.9 2.8 2.7 0.3 6.1 1 8.9 0.3 4.6-1.2 4.4-6 2.4-9.4-1-1.7-2.2-3.2-3.4-4.9-0.9-1.2-2-2.2-3.2-3.2-1.5-1.3-2.9-2.7-4.5-3.8-2-1.3-3.6-2.8-5.2-4.8z"/>
			<path id="&lt;Path&gt;" fill-rule="evenodd" class="s12" d="m1.5 59c0 3.7 0.7 7.3 0.4 11.1-0.1 1.6-0.4 3.2-0.4 4.9-0.1 1.7 0.1 3.3 0 4.9-0.1 1.5-0.5 2.8-0.5 4.2-0.1 1.2 0 2.3 0 3.5 0 2.8 0.4 5.7 1 8.4 0.5 2.3 0.6 4.6 1.2 6.8 0.5 1.9 1.6 3.6 2.4 5.3 1.3 2.6 3.3 4.6 6.5 4.6 4.5 0.1 8.9-1.5 13.5-1.5 2.1 0.1 3.9-0.3 5.9-0.5 1.6-0.1 1.5-1 2-2.5 0.6-1.5 0.5-2.9 0.5-4.5 0.1-1.6 0.5-3.2 0.5-4.8 0.1-1.8 0-3.7 0-5.6 0-1.7 0.5-3.3 0.5-5 0.1-2.3 0.1-4.1-0.9-6.2-1.7-3.1-4.1-5.6-6.4-8.3-1.8-2.2-3.1-4.5-4.5-7-1.2-2-2.7-3.8-4-5.8-1.7-2.6-3.7-7.2-6.9-8.4-1.4-0.5-3.4-1.3-4.9-1.1-1.6 0.3-2.9 1.5-5.9 7.5z"/>
			<path id="&lt;Path&gt;" fill-rule="evenodd" class="s5" d="m34.5 93c0.5 3.1 0.5 5 0.1 8-0.2 1.9-0.1 3.8-0.1 5.7 0 1 0 1.9 0.3 2.8 0.2 0.8 0.1 1.7 0.3 2.5 0.3 1.4 1.6 2 2.9 2.2 0.4 0.1 0.9-0.1 1.4 0 0.3 0.1 0.7 0.6 1.1 0.5 0.7 0 0.9-0.9 1-1.5 0-1.9-1.3-4.4-2-6.1-0.5-1-1.2-2-1.7-3.1-0.5-1-0.8-2.2-1.2-3.3-0.9-2.5-0.5-5-0.6-7.7 0-1-0.3-1.8-0.5-2.7-0.1-0.4 0-0.8-0.1-1.1-0.1-0.4-0.5-0.6-0.5-1-0.1-0.1-0.2-0.1-0.4 4.8z"/>
			<path id="&lt;Path&gt;" fill-rule="evenodd" class="s2" d="m256.9 170.9c2.3 0.4 4.7 0.8 6.9 1 2.4 0.2 5 1.8 6.9 3.1 2.6 1.6 4.9 3.2 7 5.3 1.7 1.7 2.2 3.1 2.9 5.4 0.6 1.7 1 3.4 2.3 4.8 0.7 0.8 1.2 0.9 2.1 1.2 1.1 0.4 1.8 1.1 2.8 1.7 1.6 1 3.3 1.8 4.9 2.9 1.3 0.9 2.7 2 4.5 1.8 2.7-0.4 3.6-4.7 4-6.9 0.5-2.4 0.5-4.9 0.9-7.2 0.3-2.2 0.7-4.5 0.7-6.7 0.1-2.6 0.6-6.2-0.4-8.5-0.9-2.3-3.2-1.8-5.4-1.8q-4 0-7.9 0c-2.7 0-5.7-0.4-8.3 0.1-3.3 0.5-6.7 0.5-10 0.9-1.6 0.2-3.2 0.6-4.8 0.8-2.4 0.3-4.4 1.2-9.1 2.1z"/>
			<path id="&lt;Path&gt;" fill-rule="evenodd" class="s12" d="m75.5 123.1c-1.7-0.5-3-1-4.7-1-1-0.1-2.1 0.1-3.2 0-2.9 0-5.9-0.8-8.7-1.5-2-0.5-4.1-1.1-6.1-1.4-3-0.4-6.3-0.2-9.3-0.1-3.8 0.1-7.7 1.3-11.5 1.5-2.7 0.2-5.5 0-8.2 0-1.8 0-3.6-0.1-5.4 0-1.8 0-3.4 0.5-5.1 0.5-2.9 0.1-6.6-0.2-8.9 1.9-2.1 2.1-2.5 5.2-3 7.9-0.4 1.8-0.4 3.3-0.4 5.1-0.1 2.1 0.7 3.6 1.1 5.6 0.9 3.6 2.2 6.9 3 10.5 0.3 1.8 0.4 4.8 1.4 6.4 0.9 1.3 3.2 2.1 4.7 2.4 1.5 0.4 2.6-0.1 4.1-0.5 1.9-0.5 3.9-0.7 5.9-1.3 8.5-2.5 17.4-4.2 26.1-5.8 6.2-1.2 12.3-2.1 18.6-2.5 3.1-0.2 6.7 0.4 9.7-0.8 3.4-1.3 6.6-4 9.7-6.1 5.4-3.7 11.6-6.1 17.9-8 4.7-1.4 9.5-2.8 14.2-4.4 3.6-1.3 6.6-3.1 9.7-5.3 2.8-1.9 4.5-5.3 1.1-7.5-1-0.6-2.2-0.9-3.4-1.1-1.1-0.1-1.9 0.3-2.9 0.6-0.8 0.1-1.8-0.1-2.5-0.1-1.3 0.1-2.6 0.5-4 0.6-3.4 0.1-6.6 0.6-10.1 1-6.3 0.8-12.6 1.9-19 1.9-3.6 0-7.2 0-10.8 1.5z"/>
			<path id="&lt;Path&gt;" fill-rule="evenodd" class="s2" d="m4.1 25.5c-0.8 2.3-1.6 4.1-1.5 6.5 0 1.5-0.3 2.8-0.4 4.3-0.1 1.2 0.1 2.5 0 3.8 0 1-0.3 1.9-0.4 2.9 0 0.9-0.1 1.6-0.2 2.5-0.2 0.9-0.1 1.5 0.4 2.3 0.4 0.7 0.6 0.8 1.5 1.1 1.8 0.6 3.2 0 5-0.1 2.3-0.1 4.4-0.2 6.7-0.8 2.9-0.9 5.5-3 7.6-5.3 3.2-3.4 5.5-7.7 8.6-11.3 3.1-3.7 6.5-7.1 10.4-10.1 2.2-1.8 4.9-4 5.7-6.8 0.7-2.6-1-4.5-3.5-5.1-1-0.3-2.3-0.1-3.4-0.1q-2.2 0-4.3 0c-1.6 0-3-0.4-4.5-0.4-1.9 0-4.1 0.2-5.9-0.2-4.5-1-8.8 3-11.9 5.7-0.4 0.3-0.9 0.5-1.4 0.8-0.3 0.3-0.5 0.7-0.8 1-0.8 0.8-1.7 1.5-2.5 2.4-0.8 1-1.6 2.3-2.3 3.4-1.4 2-2 3.7-2.9 3.5z"/>
			<path id="&lt;Path&gt;" fill-rule="evenodd" class="s2" d="m301.5 31.8q-1 1.3-2.4 2-0.3-0.1-0.6-0.1c-1 0.1-1.9-0.1-2.9-0.3-2.3-0.5-4.4-1-6.6-1.9-4.7-1.9-9.4-3.7-14.3-4.9-1.3-0.3-2.8-1.2-4-1.8-0.5-0.3-1.1-0.6-1.5-1.1-0.9-1.2 0-2.9 0.5-4.2 0.7-1.5 1.7-2.9 2.5-4.4 1.1-1.8 1.9-3.2 3.9-4.2 1.9-1 3.3-1.1 5.4-0.4 1.8 0.6 3.8 1.5 5.4 2.6 3.1 1.8 6.1 3.8 9.5 5.2 2.7 1.1 5.7 3 6.5 6.1 0.7 2.9 1 7.1-1.4 7.4z"/>
			<path id="&lt;Path&gt;" fill-rule="evenodd" class="s2" d="m163.6 122.6c-0.4 3.4-0.6 4.8 0.9 7.9 1.3 2.7 3.3 5.7 5.4 7.8 2.9 2.8 6.4 7.6 11 5.5 5.8-2.5 9.2-7.4 13.7-11.6 2.2-2 3.7-4.4 5.5-6.7 2-2.7 4.1-5.6 5.4-8.7 0.6-1.5 0.9-3 1.1-4.6 0.1-1 0.5-2 0.5-3 0-1.4-1.1-3.2-2.4-3.8-3.7-1.8-8.4 1.4-11.7 2.9-2.9 1.3-6.1 2.3-8.9 3.8-2.1 1.1-4.1 2.3-6.2 3.3-1.1 0.5-2.1 1.1-3.2 1.5-1.2 0.4-2.4 0.5-3.6 1-2.6 1.1-4.8 2.9-7.5 4.7z"/>
		</g>
	</g>
</svg>