<?xml version="1.0" encoding="UTF-8"?>
<svg id="Layer_1" data-name="Layer 1" xmlns="http://www.w3.org/2000/svg" version="1.1" xmlns:xlink="http://www.w3.org/1999/xlink" viewBox="0 0 600 67.4">
  <defs>
    <style>
      .cls-1 {
        fill: #71692b;
      }

      .cls-1, .cls-2, .cls-3, .cls-4, .cls-5, .cls-6, .cls-7, .cls-8, .cls-9, .cls-10, .cls-11, .cls-12, .cls-13, .cls-14, .cls-15, .cls-16, .cls-17, .cls-18, .cls-19, .cls-20, .cls-21, .cls-22, .cls-23 {
        stroke-width: 0px;
      }

      .cls-2 {
        fill: #51574d;
      }

      .cls-3 {
        fill: #778070;
      }

      .cls-4 {
        fill: #2e2e16;
      }

      .cls-5 {
        fill: #3f401b;
        opacity: .7;
      }

      .cls-5, .cls-9, .cls-20 {
        isolation: isolate;
      }

      .cls-6 {
        fill: #866a2d;
      }

      .cls-7 {
        fill: #e9aa64;
      }

      .cls-8 {
        fill: #a69a33;
      }

      .cls-9 {
        fill: #747932;
      }

      .cls-9, .cls-24, .cls-20 {
        opacity: .6;
      }

      .cls-10 {
        fill: #d1d168;
      }

      .cls-11 {
        fill: #72732f;
      }

      .cls-12 {
        fill: #d8cb31;
      }

      .cls-13 {
        fill: none;
      }

      .cls-14 {
        fill: #675d26;
      }

      .cls-15 {
        fill: #83746c;
      }

      .cls-16 {
        fill: #b9742a;
      }

      .cls-17 {
        fill: #98a138;
      }

      .cls-25 {
        clip-path: url(#clippath);
      }

      .cls-18 {
        fill: #4e2b13;
      }

      .cls-19 {
        fill: #bac133;
      }

      .cls-20 {
        fill: #8a732e;
      }

      .cls-21 {
        fill: #b7b033;
      }

      .cls-22 {
        fill: #77441b;
      }

      .cls-23 {
        fill: #7c702d;
      }
    </style>
    <clipPath id="clippath">
      <rect class="cls-13" x=".2" y="-1.8" width="600" height="69.1"/>
    </clipPath>
  </defs>
  <g class="cls-25">
    <g>
      <g>
        <g>
          <path class="cls-11" d="M356.1,28.6c3.5,1.8,5.9,8.6,7.5,12,.6,1.3,1.2,2.8,1,4.2-2.3-.3-4.6-1.1-6.7-2.2-.6-.3-.8,2-.8,2.7,0,2.3,0,4.6,0,7-3.7-.6-7.2-2.6-9.6-5.5-2.4-2.9-3.7-6.7-3.5-10.5-3,.7-6.2,1-9.4.7-.1-.9.5-1.7,1.2-2.3,4.1-3.9,14.5-8.8,20.1-6,0,0,0,0,0,0h0Z"/>
          <path class="cls-5" d="M346.7,45.7c2.5-2.8,4.4-6.2,5.6-8.7.7,1.9,1.7,3.6,2.9,5.2,1.9-2,4.1-3.7,6.2-5.5,0,0,.2-.1.2-.2-1.4-3.2-3.3-6.6-5.6-7.8,0,0,0,0,0,0-5.7-2.8-16,2.2-20.1,6-.6.6-1.3,1.4-1.2,2.3,3.1.2,6.3,0,9.4-.7-.1,3.3.8,6.7,2.7,9.5h0Z"/>
          <path class="cls-4" d="M350.4,33.8c-.1.2-.2.6,0,.8.2.1.5,0,.6,0,.8-.5,1.7-1,2.5-1.5.5,1.9-.1,5.1,0,7.1.4-1.5,2.2-6.8,3-11.2-.1,0-.3-.2-.4-.2,0,0,0,0,0,0-2.7-1.3-6.6-.9-10.3.4,1.8,0,3.7,0,5.5.1.5,0,1,.1,1.1.6,0,.2,0,.4-.1.5-.6,1.2-1.2,2.4-1.8,3.6h0Z"/>
        </g>
        <g>
          <g>
            <path class="cls-3" d="M412,27.6c-.3,0-.5-.2-.8-.2-12.1-3.6-24.5-3.3-35.2,4-10.8,7.3-18.4,20.4-33.5,17.3-5.4-1.1-10.1-4.1-14.2-7.6-4.1-3.6-7.4-8-11.5-11.6-3-2.7-6.9-5-10.7-6.2-4.3-1.5-8.7-2.9-13.2-3.4-1.5-.2-3-.2-4.5-.3-1.2,0-2.6-.3-3.8,0,0,1.5.1,2.9.1,4.4,2.5,0,5.1.3,7.6.7,3.3.5,6.7,1,9.9,2,3.8,1.2,7.3,2.9,10.6,5.2,3.4,2.4,6,5.3,8.7,8.4,3.1,3.3,6.1,6.9,9.9,9.4,7.7,5,18,4.8,26.4,1.2,6.9-3,11.9-8.3,17.7-12.9,3.1-2.5,6.2-5,9.8-6.7,7.6-3.5,15.8-2.3,23.6,0,5.5,1.6,11.2,3.8,17,4,2.7.1,5.3.7,8,.7,2.6,0,5.2-.4,7.8-.3,2.7.1,5.6,1.2,8.3,1.8,3.9,1,6.9,3.8,10.3,5.6,3,1.7,6,3.3,9.2,4.4,10.1,3.7,20.8,6.2,31.6,6,6.7,0,14.6-2.3,20.8-4.8,10.4-4.2,18.1-12.8,27.6-18.6,4.8-3,10-5.2,15.4-6.7,1.7-.5,19-2.7,19-2.7.5-1.4.5-2.9.3-4.4-2.6,0-5.2,0-7.9.2-10.1.9-19.9,4.2-28.6,9.4-5.5,3.2-10.1,7.2-14.6,11.7-3.9,3.8-9.3,6.4-14.3,8.6-10.8,4.6-23.2,4.9-34.6,2.3-5-1.2-9.9-2.8-14.6-4.9-4.9-2.2-9.2-5.4-13.8-8.1-4.2-2.5-9.1-3.6-14-4-5.2-.5-10.2.9-15.3.2-4.9-.7-9.7-2.3-14.5-3.7h0Z"/>
            <path class="cls-2" d="M564.7,23.1c1.3-.4,11.2-1.7,16.2-2.4-2.7-4.4-12.2-1.4-16.5.3-4,1.6-8,3.2-11.9,4.9-3.1,1.4-6.2,2.8-9,4.8-2.3,1.7-4.4,3.6-6.4,5.6-11.4,11.1-28.1,16.5-44,14.8-4.5-.5-8.9-1.5-13.2-2.5-5.7-1.3-11.5-2.7-16.5-5.6-2.5-1.5-5-3.9-5.5-6.5-.7-.5-1.5-.9-2.2-1.3-4.2-2.5-9.1-3.6-14-4-5.2-.5-10.2.9-15.3.2-.1,0-.3,0-.4,0-1.7.5-3.4.8-4.9.7-6.2-.7-12.7-2.8-18.9-4-2.5-.5-5-1-7.5-1-5.4,0-10.7,1.9-15.3,4.8-4.6,2.8-8.6,6.5-12.6,10.2-4,3.7-7.5,6.9-12.8,8-5.6,1.2-11.3,1.7-16.9-.2-1.6-.5-3.1-1.3-4.6-2.2-5-3-9-7.8-12.9-12-1.7-1.9-3.5-4.4-5.6-5.8-1.7-1-5.1-1.9-5.8-3.9-.2-.6-.2-1.2-.1-1.9-.6-.3-1.3-.5-1.9-.7-4.3-1.5-8.7-2.9-13.2-3.4-1.5-.2-3-.2-4.5-.3-1.2,0-2.6-.3-3.8,0,0,1.5.1,2.9.1,4.4,2.5,0,5.1.3,7.6.7,3.3.5,6.7,1,9.9,2,3.8,1.2,7.3,2.9,10.6,5.2,3.4,2.4,6,5.3,8.7,8.4,3.1,3.3,6.1,6.9,9.9,9.4,7.7,5,18,4.8,26.4,1.2,6.9-3,11.9-8.3,17.7-12.9,3.1-2.5,6.2-5,9.8-6.7,7.6-3.5,15.8-2.3,23.6,0,5.5,1.6,11.2,3.8,17,4,2.7.1,5.3.7,8,.7,2.6,0,5.2-.4,7.8-.3,2.7.1,5.6,1.2,8.3,1.8,3.9,1,6.9,3.8,10.3,5.6,3,1.7,6,3.3,9.2,4.4,10.1,3.7,20.8,6.2,31.6,6,6.7,0,14.6-2.3,20.8-4.8,10.4-4.2,18.1-12.8,27.6-18.6,4.8-3,10-5.2,15.4-6.7h0Z"/>
          </g>
          <g>
            <path class="cls-3" d="M391.2,21.1c.5-.2.9-.2,1.4-.2.2,0,.4,0,.5.2.1.1.1.3.1.5-.2,1.8-1.3,3.2-2.7,4.4-.4.4-4.1,2-4.1,1.4-.1-2,2.3-5.5,4.9-6.3h0Z"/>
            <path class="cls-3" d="M340.5,44c.4.2.8.6,1,.9,0,.1.2.3.1.5,0,.2-.2.3-.4.4-1.7,1.1-3.6,1.1-5.5.9-.6,0-4.2-1.8-3.8-2.2,1.7-1.5,6.1-1.8,8.5-.5Z"/>
            <path class="cls-3" d="M413.3,23.6c.5,0,.9.2,1.2.4.1,0,.3.2.3.4,0,.2,0,.3-.1.5-1,1.6-2.7,2.4-4.5,2.9-.5.1-4.4,0-4.1-.5.9-1.9,4.6-4,7.2-3.6Z"/>
            <path class="cls-3" d="M494.2,45.3c.5,0,.9.2,1.2.4.1,0,.3.2.3.4,0,.2,0,.3-.2.5-1,1.6-2.7,2.4-4.5,2.9-.5.2-4.4,0-4.1-.5.9-1.9,4.6-4,7.2-3.7h0Z"/>
            <path class="cls-2" d="M482.7,55.1c0,.5,0,.9,0,1.3,0,.2-.1.3-.3.4-.2,0-.3,0-.5,0-1.8-.6-3-2-3.9-3.5-.3-.5-1.2-4.2-.6-4.1,2.1.4,5,3.4,5.4,6Z"/>
            <path class="cls-2" d="M507.8,54.4c.3.4.5.7.6,1.2,0,.2,0,.3,0,.5,0,.2-.3.2-.4.2-1.8.5-3.6,0-5.2-.9-.5-.2-3.3-2.9-2.7-3.1,2-.8,6.1.2,7.7,2.1h0Z"/>
            <path class="cls-2" d="M555.7,27.4c.3.2.6.4.9.7,0,.1.2.2.1.4,0,.1-.2.2-.3.3-1.3.9-2.8,1.1-4.4.9-.5,0-3.5-1.2-3.1-1.6,1.3-1.2,4.9-1.7,6.8-.7Z"/>
            <path class="cls-2" d="M362.7,51.1c.4.3.7.6.9,1,0,.1.1.3.1.5,0,.2-.2.3-.4.3-1.7.9-3.5.9-5.3.5-.5-.1-3.9-1.9-3.4-2.3,1.7-1.3,5.9-1.4,8,0h0Z"/>
          </g>
        </g>
        <g>
          <path class="cls-15" d="M333.8,27.9c-5.7,3.7-5.3,11.6-5.5,17.5,0,4.6.2,9.3.8,13.8.3,2.1.7,4.3,2,6,1.3,1.6,3.5,2.4,5.6,2s3.8-1.9,4.4-3.9c.6-2,0-4.3-1.6-5.7-.6-.5-1.5-.7-2.3-.6-.4,0-.9.3-1.1.7-.3.5-.1,1.1,0,1.7,1-.2,1.8-.6,2.4.5.9,1.5,0,3.2-1.4,4-2.3,1.4-4.1-.5-4.9-2.6-1.2-3.4-1.1-7.8-1.3-11.4-.2-3.8-.2-7.7.4-11.6.8-4.8,3.2-9.4,8.5-9.8,3.2-.2,6.2,1.5,9,3,10.9,6.2,23.2,15.7,36,17.8,4.6.7,9.4,1,14,.4,10.2-1.2,20.2-4.2,29.8-7.7,5-1.8,9.9-3.8,14.6-6.3,5.5-3,9.9-8.5,15.9-11,6.2-2.6,10.5.5,15.5,3.5,3.6,2.1,7.8,3.1,12,3.7,6.1.8,12.4.9,18.1-1.3,6.6-2.7,8.9-9.2,13.5-14.1,1.8-1.9,4.7-3.6,7.3-3.6,2.9,0,4.9,2.1,8,1.9,5-.2,10.4-2.1,15.3-3.1.5-.1,1-.2,1.5-.1,1.6.3,3.9,1.5,4.9,2.8,1.7,2.3,3.4,4.5,3.4,7.4,0,3.2.3,6.4.2,9.6,0,5.6-.6,11.2-2.5,16.5-.7,2.1-2.3,3.3-4.6,2.3-1.9-.8-2.3-3-1.6-4.8-1.3-.4-2.6.9-2.7,2.2-.3,3.5,4.2,6.6,7.3,5.3,3.5-1.4,5.2-7.1,5.4-10.5.4-5.7.7-11.4.4-17.2-.3-4.8-.6-10.8-5-13.7-3.3-2.2-7.5-2.5-11.2-1.4-5,1.4-8.9,2.7-13.8.8-4-1.6-7.8-2.3-11.7.5-4.3,3.2-5.6,8.5-9.4,12.1-3.2,3-7.4,4.6-11.7,5.2-8.6,1.2-18-1-25.8-4.8-2.5-1.2-4.9-2.6-7.7-3.1-7.3-1.3-9.7,4.1-14.7,7.6-7.3,5.1-15.7,8.4-24,11.5-11.3,4.2-23.2,8.2-35.4,7.3-5.9-.4-11.6-2.3-17-4.7-3.8-1.6-7-3.8-10.5-6-2.1-1.3-4.1-2.6-6.2-3.8-6.4-3.7-15.9-9.7-23.2-5h0Z"/>
          <path class="cls-18" d="M561.1,25.3c-.2-3.9-.5-8.5-2.9-11.7-.7-.1-1.3-.3-2-.6-1.2-.5-2.2-1.5-3.5-1.9-5.7-2-13.1,3.1-19.4,2.5-3.5-.4-7-2.6-10.5-1.7-2.9.7-4.6,2.6-6.3,4.7-4.3,8.2-12.2,14.3-21.5,14.3-5.7,0-11.1-.5-16.4-2.3-3.3-1.1-7-3.2-10.1-4.9-2.7-1.5-5.4-2-7.2-1.5-3.6,1-5.9,3.6-8.7,5.7-2.9,2.2-5.8,4.3-9,6-.4.2-.9.4-1.4.6-3.6,2-7.4,3.8-10.3,5.1-6.5,2.9-20.3,7.2-31.1,8.5-18.8,2.3-31.2-5.7-35-8.4-3.9-2.7-8.2-5-12.2-7.5-4.2-2.6-8-4.9-13.2-4.7-1.4,0-3,.5-4.4,1.1-1.8.7-2.6,2-3.5,3.6-.8,1.4-1.4,2.9-1.8,4.5-1,3.9-1,8.3-.9,11.9.2,5,2,10.6,1.4,15.8,0,.2,0,.4.1.7,0,0,0,.1,0,.2,1.3,1.6,3.5,2.4,5.5,2,2-.4,3.8-1.9,4.4-3.9.5-1.6.1-3.4-.8-4.8.4,1.7.2,3.8-.7,5.2-1.6,2.6-5.2,2.4-6.8,0-.7-1-1-2.6-.9-4.1-.7-3.1-.7-6.7-.8-9.8-.2-3.8-.2-7.7.4-11.6.8-4.8,3.2-9.4,8.5-9.8,3.2-.2,6.2,1.5,9,3,10.9,6.2,23.2,15.7,36,17.8,4.6.7,9.4,1,14,.4,10.2-1.2,20.2-4.2,29.8-7.7,5-1.8,9.9-3.8,14.6-6.3,5.5-3,9.9-8.5,15.9-11,6.2-2.6,10.5.5,15.5,3.5,3.6,2.1,7.8,3.1,12,3.7,6.1.8,12.4.9,18.1-1.3,6.6-2.7,8.9-9.2,13.5-14.1,1.8-1.9,4.7-3.6,7.3-3.6,2.9,0,4.9,2.1,8,1.9,5-.2,10.4-2.1,15.3-3.1.5-.1,1-.2,1.5-.1,1.6.3,3.9,1.5,4.9,2.8.6.9,1.3,1.7,1.8,2.6,2,1.7,2.4,4.8,2.5,7.6.3,6.6.6,15.4-1.1,21.9-1,3.8-4.1,6.9-8.8,4-1.1-.7-1.8-1.7-2.1-2.9,0,0,0,0,0,0-.3,3.5,4.2,6.6,7.3,5.3,3.5-1.4,5.2-7.1,5.4-10.5.4-5.7.7-11.4.4-17.2h0Z"/>
        </g>
        <g>
          <path class="cls-16" d="M352.6,37.7c-1.4.2-2.7,1-4.1.8-1.6-.2-2.8-1.5-4.1-2.3-1.7-1-3.1-.8-5-.9-1.7,0-3.3-1.1-5.1-1.2-1.4,0-2.9.4-4.2.1-.9-.2-1.6-.7-2.4-1.1-2.1-1-4.5-1.3-6.8-1.8-2.4-.5-4.5-1.2-7-1.1-.9,0-1.8.2-2.6,0-2.1-.5-3.2-2.9-5-4.1-2.5-1.5-6-.5-8.5-2-.6-.3-1.1-.8-1.6-1.1-1.3-.6-2.8-.5-4.1-.7-3.8-.6-6.9-2.8-10.4-4.1-.9-.3-1.9-.6-2.8-.9.7-1.1,1.3-2.2,1.8-3.4.2,0,.4.1.5.1,4.5,1.3,8.5,4.2,13.2,4.5,1.1,0,2.3,0,3.4.5.8.4,1.5,1,2.2,1.4,2,1.1,4.4,1,6.5,1.9,3.1,1.3,4.4,4.1,8.1,4.1,1.8,0,3.7-.3,5.3.4,1.1.4,2.1,1.3,3.3,1.5,1,.1,1.9-.1,2.9,0,.7,0,1.4.4,2.1.6,4,1.4,7.9.5,11.9.7,2.9.2,4.9,3.3,7.8,3.6,1,0,2.1-.2,3.1-.3,3.6-.5,6.5,1.9,10,1.9,1.5,0,3-.6,4.5-.8,2.2-.3,4.5,0,6.7.2,2.2.2,4.9-.2,7,.5.9.3,1.9.9,2.8.6.9-.2,1.4-1.1,2.2-1.5,1-.5,2.2,0,3.3-.3.5-.1,1-.4,1.5-.5,1.4-.3,2.2,1,4,.5,1.4-.4,2.6-1.4,4.1-1.6.8,0,1.7,0,2.5.2,3.2.6,6.4.9,9.6.9.9,0,1.8,0,2.6-.4.8-.3,1.4-.8,2.1-1.2,1.9-1.1,3.5-.5,5.5-.8,1.8-.2,3.1-1.3,5.1-.9,1.3.2,2.9.4,3.8-.5.2-.2.4-.5.7-.7.4-.2.8-.3,1.3-.3,1.4,0,2.9.3,4.2.2,1.5-.1,2.8-1.2,4.4-1.4,1.9-.2,3.6.8,5.5.8,1.4,0,2.7-.5,4-.8,1.6-.3,3.2,0,4.8,0,1.9,0,2.9-1,4.6-1.3.9-.2,1.9-.4,2.4-1.1.1-.2.2-.4.4-.6.4-.4.9-.4,1.4-.4s1,.3,1.5.4c1.8.3,4.9-.5,6.7-1,1.1-.3,2-1,3.2-.9.8,0,1.6.4,2.4.2.6-.1,1.1-.5,1.7-.8,1.7-.9,4.7-.9,6.6-.8,2.3.1,4.3-1.3,6.3-2.1,2.1-.8,3.9-.4,6-.7,1.2-.1,2.1-.9,3.3-1,.9,0,1.7.5,2.5.7.9.2,4.5-.7,5.6-1.3,1.2-.6,2.4-1.1,3.7-1.4,2.6-.6,5.4-.8,8.1-.3,1.1.2,2.2.4,3.3.1,1.3-.4,2.3-1.5,3.5-2.1,2.2-.9,4.7.1,7-.2,1.8-.3,3.4-1.4,5.2-1.4,1,0,2,.4,3,.4,2.1,0,4.4-1.7,6.2-.5.6.4,1,1.1,1.7,1.1.4,0,.8-.2,1.1-.4,3-1.7,6.9-.2,10.1,0,2.4.2,4.8.5,7.1,1.3,1,.3,1.9.8,2.7,1.3.3,1.7.6,3.4.9,5.2-.4-.3-.9-.6-1.3-.9-3.8-2.6-9-3.1-13.3-4.1-.3,0-.6-.1-.9,0-.4.1-.7.6-1,.9-.7.6-1.7.7-2.7.5-.9-.2-1.8-.6-2.7-.8-2.5-.4-5.1,1-7.6.7-1-.1-2.1-.5-3.1-.2-.5.2-.9.5-1.3.7-1.6.8-3.5,0-5.2,0-.2,0-.5,0-.7.1-.3.2-.3.6-.5.9-.4.7-1.2.9-1.9,1-3.1.4-6.4-1-9.4,0-1.6.6-3.3,1.8-4.9,1.1-.4-.2-.8-.5-1.3-.6-1.5-.4-2.5,1.6-3.9,2.3-2,1-4.4-.7-6.6-.1-1.5.4-2.7,2-4.2,1.7-2.8-.5-5.3-.5-7.9.7-2.7,1.2-5.3,3-8.3,3.1-2.6,0-5.6-1.2-7.6.5-.3.3-.7.7-1,.9-.5.3-1.2.3-1.8.3l-5-.2c-.8,0-1.6,0-2.3.2-1.2.5-1.9,1.9-3.2,2.4-.7.3-1.4.3-2.1.3-2.7,0-5.4.2-8.1.3-.7,0-1.4,0-2.1.2-.6.2-1.1.4-1.6.7-1.4.7-2.9,1.6-4.5,1.6-1.9,0-3.6-1.5-5.4-1.2-1.4.2-2.5,1.3-3.9,1.7-1.7.4-3.5-.5-5.3-.2-2,.3-3.8,1.1-5.9,1.2-3,.2-7.8-.2-10.4,1.5-.7.5-1.4,1.1-2.2,1.4-1.5.5-3.1-.4-4.6-.6-2.2-.3-4.5.8-6.7.6-1.9-.2-3.6-1.2-5.5-1.3-1.9,0-3.3,1.4-5.4,1.2-1.2,0-2.4-.5-3.6-.2-.6.2-1.1.5-1.8.7-.9.2-1.8,0-2.7,0-1.8-.2-3.6-.2-5.5-.2-1.1,0-2.3,0-3.4,0-2.2,0-4.4,0-6.6.1-2.7,0-5.3-.1-8-.6-1.3-.3-2.5-.7-3.8-.5h0Z"/>
          <path class="cls-22" d="M352.6,37.7c-1.4.2-2.7,1-4.1.8-1.6-.2-2.8-1.5-4.1-2.3-1.7-1-3.1-.8-5-.9-1.7,0-3.3-1.1-5.1-1.2-1.4,0-2.9.4-4.2.1-.9-.2-1.6-.7-2.4-1.1-2.1-1-4.5-1.3-6.8-1.8-2.4-.5-4.5-1.2-7-1.1-.9,0-1.8.2-2.6,0-2.1-.5-3.2-2.9-5-4.1-2.5-1.5-6-.5-8.5-2-.6-.3-1.1-.8-1.6-1.1-1.3-.6-2.8-.5-4.1-.7-3.8-.6-6.9-2.8-10.4-4.1-.9-.3-1.9-.6-2.8-.9.2-.3.4-.6.5-.9,1.9.2,3.9.1,5.6.1,1,0,2.1.2,2.7.9.2.3.4.6.6,1,1,1.6,3.2,2,5.1,1.9,1,0,2-.2,2.9.2,1.2.5,1.8,1.8,2.9,2.5,1.6,1,3.7.5,5.5.7,2.4.1,4.7,1.4,6.1,3.3.6.8,1.4,1.9,2.4,1.7.4,0,.7-.3,1-.4,1.5-.6,3.3.6,4.8.9,1.5.3,3.1.2,4.6.4,1.9.2,3.8,1,5.5,1.9.7.4,1.5.8,2.3.8.9,0,1.6-.4,2.5-.6,1.6-.3,2.2,1.1,3.7,1.3,1.8.3,3.6-.2,5.4.2,2.3.6,4,2.6,6.2,3.6.4.2,1,.3,1.3,0,.1-.2.1-.4.2-.6.7-2,4.3-.5,5.5-.2,2.3.7,4.5,1.5,7,1.5,3.1,0,6.2-1.2,9.3-1.1,2.8.1,5.6,1.4,8.4,1,1.8-.3,3.6-1.3,5.5-.9.5.1,1,.3,1.5.2.5-.1.9-.6,1.3-.9,1.5-1.2,3.7-.9,5.6-.4s3.8,1.4,5.7.9c.9-.2,1.8-.7,2.7-.9,2.2-.5,3.4,1.8,5.6,1.4,1-.2,1.8-.8,2.6-1.4,1.9-1.2,4.1-1.7,6.3-1.5.7,0,1.4.2,2.2.2,1.2,0,2.3-.6,3.4-1.1,1.8-.9,3.7-1.8,5.7-1.7,1.3,0,2.6.5,4,.5,1.6,0,3.1-1,4.6-1.5s3.4-.8,4.6.2c.5.4.8.9,1.3,1.1.5.2,1,.1,1.5,0l3.9-.6c0-.7-.6-1.4-1.2-1.8.2-1.1,1.8-1.4,2.9-1s1.9,1.3,3,1.6c1.1.3,2.6-.2,2.6-1.4,2.2.5,4.5.5,6.7,0-.5-.7-.2-1.9.5-2.5.7-.6,1.7-.8,2.6-.8,1.7-.1,3.4.1,5,.7.6.2,1.2.5,1.8.4,1-.1,1.3-.9,2-1.4.6-.4,1.2-.6,1.9-.7,1.3-.2,2.6,0,3.9,0,3.2-.1,6.2-1.8,9.3-2.9,2.4-.8,5.5-1.4,8-.5.5.2,1,.4,1.5.3,1-.2.6-1.5,2-1.7,1.2-.2,2.5.2,3.7,0,1.7-.2,3.2-1.3,4.7-2,1.5-.8,3.5-1.2,4.9-.3.5.3,1,.9,1.5.8.4,0,.7-.4.9-.6,2.8-2.2,6,.1,9-.4,1.4-.2,1.2-1,1.8-2.1.5-.9.3-.8,1.6-.8,1,0,2,.1,3,.3.4,0,.8.2,1.1.1.3,0,.6,0,.9-.2,2.1-.5,4.2-.5,6.3-.8,1-.1,2.1-.3,3.1-.3,3.1-.2,6.7,1.5,9.3,1.2,2.7-.3,1.2-2.6,2.7-2.3s2.6,1.3,4.1,1.5c1.8.3,3.7-.5,5.5.2,1.2.4,3.5.8,4.2,2,.2.3.3.7.5,1,.3.4.7.6,1.1.8,0,0,.2,0,.2.1.1.6.2,1.3.3,1.9-.4-.3-.9-.6-1.3-.9-3.8-2.6-9-3.1-13.3-4.1-.3,0-.6-.1-.9,0-.4.1-.7.6-1,.9-.7.6-1.7.7-2.7.5-.9-.2-1.8-.6-2.7-.8-2.5-.4-5.1,1-7.6.7-1-.1-2.1-.5-3.1-.2-.5.2-.9.5-1.3.7-1.6.8-3.5,0-5.2,0-.2,0-.5,0-.7.1-.3.2-.3.6-.5.9-.4.7-1.2.9-1.9,1-3.1.4-6.4-1-9.4,0-1.6.6-3.3,1.8-4.9,1.1-.4-.2-.8-.5-1.3-.6-1.5-.4-2.5,1.6-3.9,2.3-2,1-4.4-.7-6.6-.1-1.5.4-2.7,2-4.2,1.7-2.8-.5-5.3-.5-7.9.7-2.7,1.2-5.3,3-8.3,3.1-2.6,0-5.6-1.2-7.6.5-.3.3-.7.7-1,.9-.5.3-1.2.3-1.8.3-1.7,0-3.3-.1-5-.2-.8,0-1.6,0-2.3.2-1.2.5-1.9,1.9-3.2,2.4-.7.3-1.4.3-2.1.3-2.7,0-5.4.2-8.1.3-.7,0-1.4,0-2.1.2-.6.2-1.1.4-1.6.7-1.4.7-2.9,1.6-4.5,1.6-1.9,0-3.6-1.5-5.4-1.2-1.4.2-2.5,1.3-3.9,1.7-1.7.4-3.5-.5-5.3-.2-2,.3-3.8,1.1-5.9,1.2-3,.2-7.8-.2-10.4,1.5-.7.5-1.4,1.1-2.2,1.4-1.5.5-3.1-.4-4.6-.6-2.2-.3-4.5.8-6.7.6-1.9-.2-3.6-1.2-5.5-1.3-1.9,0-3.3,1.4-5.4,1.2-1.2,0-2.4-.5-3.6-.2-.6.2-1.1.5-1.8.7-.9.2-1.8,0-2.7,0-1.8-.2-3.6-.2-5.5-.2-1.1,0-2.3,0-3.4,0-2.2,0-4.4,0-6.6.1-2.7,0-5.3-.1-8-.6-1.3-.3-2.5-.7-3.8-.5h0Z"/>
          <g>
            <path class="cls-7" d="M547.8,11.7c.6.4,1,1.1,1.7,1.1.4,0,.8-.2,1.1-.4,3-1.7,6.9-.2,10.1,0,2.4.2,4.8.5,7.1,1.3,1,.3,1.9.8,2.7,1.3,0,.2,0,.5.1.8-1.4-1.2-3.4-1.9-5.3-2.1-2.3-.3-4.7-.3-7-.9-1.1-.3-2.2-.8-3.4-.8-1.2,0-2.4.6-3.6,1.1-1.2.4-2.6.7-3.6,0-.4-.3-.8-.7-1.3-.8-1.3-.3-2.3,1.3-3.5,1-.5-.1-.9-.5-1.5-.6-.7-.1-1.5-.1-2.1.2-.4.1-.8.4-1.2.5-1.1.4-2.4-.2-3.5.3-.3.1-.7.4-1,.6-1.3.6-2.8-.1-4.2-.3-1.3-.2-2.7.1-3.8.9-1.1.7-2,1.9-3.3,1.8-2.2-.2-4.4-.6-6.6-.9-.6,0-1.3-.1-1.7.3-.1.1-.2.2-.3.3-.5.4-1.5,0-2.1,0-.7,0-1.4.2-1.9.7s-.4.6-.7.8c-.3.2-.8.3-1.2.4-1.4.3-2.6,1.5-4,1.3-.8-.1-1.4-.6-2.1-.9-.7-.3-1.7-.2-2,.4-.2.3-.2.7-.5.9-.3.3-.8.2-1.3,0-2.2-.6-4.5-.4-6.6.2-3,.8-6.1,3.2-9.3,2.5-1.7-.4-2.9-.5-4.5.4-.5.3-1.1.8-1.7.9-.7.2-1.3-.1-1.9.5-.1.1-.2.3-.3.4-1,1.1-4,.3-5.3.3-1.9,0-3.8.1-5.8.3-.3,0-.7.2-.8.5,0,.2.2.4.3.7.1.5-.6.8-1.1.8-1,0-2-.4-3-.5s-2.2.2-2.7,1.1c-.1.2-.2.4-.4.6-.3.3-.7.2-1.1,0s-.7-.4-1-.5c-.4-.2-.9-.2-1.3-.2-1.8,0-3.8,0-5.2,1.1.3.6-.1,1.3-.8,1.5-.6.2-1.3,0-1.9-.3-1.5-.6-4.1-2.8-5.8-1.5-.2.2-.4.4-.7.5-.3.1-.7,0-1,0-.7.2-1,1.1-1.6,1.4-1.1.6-2.2-.9-3.5-1-1.8-.3-3.1,2-4.8,1.9-.8,0-1.4-.5-2.1-.7s-1.7,0-1.9.7c-.2.5,0,1.3-.4,1.5-.4.2-.8-.2-1.1-.4-.7-.5-1.7-.4-2.6-.4-.9,0-1.8.1-2.7.2-.7,0-1.5.2-2,.7-.4.4-.5,1-1,1.4-.4.3-.9.3-1.4.2-1,0-2.2,0-3.2-.2-.8-.1-1.6-.5-2.4-.5-.6,0-1.2.3-1.8.5-2.3.6-3.8-.9-6-1.2-.4,0-.8,0-1.2,0-.4.1-.7.4-.8.8,0,.2,0,.5-.2.6,0,0-.2,0-.3,0-1,0-1.8-.5-2.7-.5-1.1,0-2-.1-3.1-.4-.1,0-.3,0-.4,0-.2.1-.2.4-.1.6s.2.4,0,.6c-.1.3-.6.3-.9.2-.4-.2-.8-.4-1.2-.6-1.7-.6-2.2,1.8-3.8,1.9-.4,0-.9-.1-1.3-.3-1.5-.5-3-.9-4.5-1-1.2-.1-2.3.3-3.5.4-1.4.2-2.7,0-4.1-.3-1.2-.2-2.4-.2-3.6-.2,0,0-.2,0-.2,0-.3.2,0,.7-.2,1-.1.2-.5.2-.7.2-1.9-.3-3.7-.8-5.6-1-.6,0-1.2,0-1.8-.1-1.1-.2-2-.9-3-1.2-.9-.3-1.8-.3-2.6-.1-1.2.3-2.4,1-3.5.5-.6-.3-1.1-.9-1.8-1.1-.6-.2-1.3-.2-1.9-.5-1-.5-1.6-2-2.8-2,.2.3.2.7-.1.9-.3.2-.8,0-.9-.3,0-.2,0-.4-.2-.6-.2-.3-.6-.4-.9-.3s-.6.3-1,.4c-1.2.5-2-.3-3.1-.4-1.3,0-2.6.4-3.9.1-1.6-.3-3-1.5-4.6-1.5-.8,0-1.5.2-2.3.2-1.8,0-2.9-1-4.2-1.9-.3-.2-.6-.4-.9-.3.1,1.1-1.4,0-1.7,0-.8-.3-1.9-.3-2.7-.1-.8.1-1.5.4-2.3.4-.8,0-1.5-.6-1.9-1.3-.2-.3-.3-.6-.5-.9-.3-.3-.7-.4-1.1-.5-1.4-.6-2.5-2-4-2.1-.7,0-1.4.2-2,0-.3-.1-.5-.3-.9-.4-.3-.1-.7,0-.9.2,0,.1,0,.2-.1.4-.1.2-.5.2-.7,0-.4-.4-.3-1-.5-1.4,0-.1-.2-.3-.3-.4-.1-.1-.3-.2-.4-.4-.5-.4-1-.8-1.4-1.2.6.4,1.2.9,1.9,1.2,2,1.1,4.4,1,6.5,1.9,3.1,1.3,4.4,4.1,8.1,4.1,1.8,0,3.7-.3,5.3.4,1.1.4,2.1,1.3,3.3,1.5,1,.1,1.9-.1,2.9,0,.7,0,1.4.4,2.1.6,4,1.4,7.9.5,11.9.7,2.9.2,4.9,3.3,7.8,3.6,1,0,2.1-.2,3.1-.3,3.6-.5,6.5,1.9,10,1.9,1.5,0,3-.6,4.5-.8,2.2-.3,4.5,0,6.7.2,2.2.2,4.9-.2,7,.5.9.3,1.9.9,2.8.6.9-.2,1.4-1.1,2.2-1.5,1-.5,2.2,0,3.3-.3.5-.1,1-.4,1.5-.5,1.4-.3,2.2,1,4,.5,1.4-.4,2.6-1.4,4.1-1.6.8,0,1.7,0,2.5.2,3.2.6,6.4.9,9.6.9.9,0,1.8,0,2.6-.4.8-.3,1.4-.8,2.1-1.2,1.9-1.1,3.5-.5,5.5-.8,1.8-.2,3.1-1.3,5.1-.9,1.3.2,2.9.4,3.8-.5.2-.2.4-.5.7-.7.4-.2.8-.3,1.3-.3,1.4,0,2.9.3,4.2.2,1.5-.1,2.8-1.2,4.4-1.4,1.9-.2,3.6.8,5.5.8,1.4,0,2.7-.5,4-.8,1.6-.3,3.2,0,4.8,0,1.9,0,2.9-1,4.6-1.3.9-.2,1.9-.4,2.4-1.1.1-.2.2-.4.4-.6.4-.4.9-.4,1.4-.4s1,.3,1.5.4c1.8.3,4.9-.5,6.7-1,1.1-.3,2-1,3.2-.9.8,0,1.6.4,2.4.2.6-.1,1.1-.5,1.7-.8,1.7-.9,4.7-.9,6.6-.8,2.3.1,4.3-1.3,6.3-2.1,2.1-.8,3.9-.4,6-.7,1.2-.1,2.1-.9,3.3-1,.9,0,1.7.5,2.5.7.9.2,4.5-.7,5.6-1.3,1.2-.6,2.4-1.1,3.7-1.4,2.6-.6,5.4-.8,8.1-.3,1.1.2,2.2.4,3.3.1,1.3-.4,2.3-1.5,3.5-2.1,2.2-.9,4.7.1,7-.2,1.8-.3,3.4-1.4,5.2-1.4,1,0,2,.4,3,.4,2.1,0,4.4-1.7,6.2-.5h0Z"/>
            <path class="cls-7" d="M291.3,19.5c-.2,0-.4,0-.6-.1-.3-.1-.6-.2-.9-.5-.3-.2-.4-.5-.7-.7-1-.9-2.2-1.4-3.5-1.8-.6-.2-1.2-.2-1.7-.4-.7-.2-1.4-.4-2.1,0-.2.1-.4.2-.7.2-.2,0-.4-.2-.5-.4-.2-.2-.5-.3-.8-.4.2-.4.4-.8.5-1.2.2,0,.4.1.5.1,4.5,1.3,8.5,4.2,13.2,4.5.2,0,.5,0,.7,0,0,.1,0,.2.1.3.1.2.2.4.2.6-.3.1-.5-.3-.7-.5-.2-.2-.5-.4-.8-.3,0,0-.1,0-.2,0,0,0-.1.1-.1.2,0,.2.2.5,0,.7,0,.1-.2.1-.3.1-.6,0-.9-.9-1.4-.9,0,.2-.3.3-.5.3h0Z"/>
          </g>
        </g>
        <g>
          <path class="cls-15" d="M519.4,11.5c-4.3,3.2-5.6,8.5-9.4,12.1-3.2,3-7.4,4.6-11.7,5.2-8.6,1.2-18-1-25.8-4.8-2.5-1.2-4.9-2.6-7.7-3.1-5.4-1-8.1,1.7-11.2,4.6,1.3.2,2.7.2,4,.2.6-.3,1.2-.6,1.8-.9,6.2-2.6,10.5.5,15.5,3.5,3.6,2.1,7.8,3.1,12,3.7,6.1.8,12.4.9,18.1-1.3,6.6-2.7,8.9-9.2,13.5-14.1,1.3-1.4,3.3-2.7,5.3-3.3.6-1.3,1.3-2.5,2.2-3.6-2.3-.2-4.5.2-6.8,1.8h0Z"/>
          <path class="cls-15" d="M395.6,50.1c.6-1,1.3-1.9,1.9-2.8-2.2.2-4.5.2-6.8,0-5.9-.4-11.6-2.3-17-4.7-3.8-1.6-7-3.8-10.5-6-2.1-1.3-4.1-2.6-6.2-3.8-6.4-3.7-15.9-9.7-23.2-5-5.7,3.7-5.3,11.6-5.5,17.5,0,4.6.2,9.3.8,13.8.3,2.1.7,4.3,2,6,1.3,1.6,3.5,2.4,5.6,2s3.8-1.9,4.4-3.9c.6-2,0-4.3-1.6-5.7-.6-.5-1.5-.7-2.3-.6-.4,0-.9.3-1.1.7-.3.5-.1,1.1,0,1.7,1-.2,1.8-.6,2.4.5.9,1.5,0,3.2-1.4,4-2.3,1.4-4.1-.5-4.9-2.6-1.2-3.4-1.1-7.8-1.3-11.4-.2-3.8-.2-7.7.4-11.6.8-4.8,3.2-9.4,8.5-9.8,3.2-.2,6.2,1.5,9,3,10.9,6.2,23.2,15.7,36,17.8,3.5.5,7,.8,10.5.7h0Z"/>
          <path class="cls-15" d="M561.1,25.3c-.3-4.8-.6-10.8-5-13.7-2.2-1.4-4.8-2.1-7.3-2,.2.6.5,1.1.6,1.6,0,.2.1.3.2.5.4,0,.8-.1,1.2,0,1.6.3,3.9,1.5,4.9,2.8,1.7,2.3,3.4,4.5,3.4,7.4,0,3.2.3,6.4.2,9.6,0,5.6-.6,11.2-2.5,16.5-.7,2.1-2.3,3.3-4.6,2.3-1.9-.8-2.3-3-1.6-4.8-1.3-.4-2.6.9-2.7,2.2-.3,3.5,4.2,6.6,7.3,5.3,3.5-1.4,5.2-7.1,5.4-10.5.4-5.7.7-11.4.4-17.2h0Z"/>
          <path class="cls-18" d="M395.6,50.1c.4-.6.8-1.1,1.1-1.7-16.5.8-27.4-6.2-31-8.7-3.9-2.7-8.2-5-12.2-7.5-4.2-2.6-8-4.9-13.2-4.7-1.4,0-3,.5-4.4,1.1-1.8.7-2.6,2-3.5,3.6-.8,1.4-1.4,2.9-1.8,4.5-1,3.9-1,8.3-.9,11.9.2,5,2,10.6,1.4,15.8,0,.2,0,.4.1.7,0,0,0,.1,0,.2,1.3,1.6,3.5,2.4,5.5,2,2-.4,3.8-1.9,4.4-3.9.5-1.6.1-3.4-.8-4.8.4,1.7.2,3.8-.7,5.2-1.6,2.6-5.2,2.4-6.8,0-.7-1-1-2.6-.9-4.1-.7-3.1-.7-6.7-.8-9.8-.2-3.8-.2-7.7.4-11.6.8-4.8,3.2-9.4,8.5-9.8,3.2-.2,6.2,1.5,9,3,10.9,6.2,23.2,15.7,36,17.8,3.5.5,7,.8,10.5.7h0Z"/>
          <path class="cls-18" d="M522.9,11.9c-2.9.7-4.6,2.6-6.3,4.7-4.3,8.2-12.2,14.3-21.5,14.3-5.7,0-11.1-.5-16.4-2.3-3.3-1.1-7-3.2-10.1-4.9-2.7-1.5-5.4-2-7.2-1.5-2.4.6-4.2,2-6,3.5.8,0,1.5,0,2.3,0,.6-.3,1.2-.6,1.8-.9,6.2-2.6,10.5.5,15.5,3.5,3.6,2.1,7.8,3.1,12,3.7,6.1.8,12.4.9,18.1-1.3,6.6-2.7,8.9-9.2,13.5-14.1,1.3-1.4,3.3-2.7,5.3-3.3.3-.5.5-1.1.8-1.6-.6,0-1.2,0-1.9.2h0Z"/>
          <path class="cls-18" d="M561.1,25.3c-.2-3.9-.5-8.5-2.9-11.7-.7-.1-1.3-.3-2-.6-1.2-.5-2.2-1.5-3.5-1.9-1.1-.4-2.3-.5-3.6-.4,0,.2.2.4.2.6,0,.2.1.3.2.5.4,0,.8-.1,1.2,0,1.6.3,3.9,1.5,4.9,2.8.6.9,1.3,1.7,1.8,2.6,2,1.7,2.4,4.8,2.5,7.6.3,6.6.6,15.4-1.1,21.9-1,3.8-4.1,6.9-8.8,4-1.1-.7-1.8-1.7-2.1-2.9,0,0,0,0,0,0-.3,3.5,4.2,6.6,7.3,5.3,3.5-1.4,5.2-7.1,5.4-10.5.4-5.7.7-11.4.4-17.2h0Z"/>
        </g>
        <g>
          <path class="cls-1" d="M530.6,11.3c3.1,2.3,4.2,9.4,5.1,12.9.4,1.4.7,2.9.2,4.3-2.2-.8-4.2-1.9-6-3.3-.5-.4-1.1,1.8-1.2,2.4-.4,2.2-.8,4.5-1.2,6.7-3.5-1.2-6.5-3.8-8.3-7-1.8-3.2-2.3-7.2-1.5-10.8-3.1.2-6.2-.2-9.2-1,0-.9.8-1.5,1.5-2,4.7-3,15.5-5.9,20.5-2.2,0,0,0,0,0,0h0Z"/>
          <path class="cls-5" d="M518.6,26.1c2.9-2.3,5.4-5.2,7-7.4.3,1.9,1,3.8,1.9,5.6,2.2-1.6,4.6-2.8,7-4.2,0,0,.2-.1.3-.2-.8-3.3-2-7-4-8.5,0,0,0,0,0,0-5-3.7-15.8-.8-20.5,2.2-.7.5-1.5,1.1-1.5,2,3,.8,6.1,1.1,9.2,1-.7,3.2-.4,6.6.9,9.6h0Z"/>
          <path class="cls-4" d="M524.2,15.3c-.2.2-.3.5-.1.7.2.2.4.1.7,0,.9-.3,1.8-.7,2.7-1,.2,1.9-1,4.9-1.3,6.9.7-1.4,3.3-6.2,4.9-10.2-.1-.1-.2-.2-.4-.3,0,0,0,0,0,0-2.4-1.8-6.2-2-10-1.4,1.8.4,3.5.7,5.3,1.1.4,0,1,.3.9.7,0,.2-.1.3-.2.5l-2.4,3.1h0Z"/>
        </g>
        <g>
          <path class="cls-8" d="M473.1,21c.5-.2.9-.4,1.4-.7.4-.2.8-.5,1.2-.4.7,0,1,.9,1.4,1.4.7.9,2,2,3.1,1.2.8-.6,2-1.8,3.1-1,1.8,1.1,2.7,3.3,3.6,5.1,1.3,2.5,2.5,5,3.5,7.6-.2-.6-1.6-.5-2.1-.5-1.2,0-2.4,0-3.7,0-.5,0-1.1,0-1.6,0-.3,0-.7,0-.9,0-.2,0-.4.2-.5.4-.3.3-.5.7-.8,1.1-.7,1-1.2,2-1.8,3-.5.8-.9,1.7-1.5,2.4-.5.7-1.4.9-2.1,1.3-.8.4-1.7.8-2.5,1.2-1.1.5-2.2,1.1-3.4,1.7-.2,0-1.7.8-1.6,1-.6-2-1-4-1.2-6.1-.1-1-.2-2-.2-3,0-.5,0-1,0-1.5,0-.5,0-1.1-.1-1.6-.2-.7-.8-1-1.3-1.4-.6-.3-1.3-.7-1.8-1.1-.7-.5-1.3-1.1-1.9-1.7-.5-.5-1.2-1.2-.3-1.7,4-2.3,8-4.6,12.2-6.6h0Z"/>
          <path class="cls-21" d="M476.7,30.6c-.7.9-1.5,1.8-2.3,2.6-.5.4-.9.8-1.3,1.3-.7.9-1.2,2-1.7,3-.5,1.1-1,2.2-1.2,3.4,0-.5,1.8-1.4,2.2-1.8.9-1,2-1.6,3.1-2.3.4-.3.9-.6,1.3-.9,2.3-2,2.8-5.8,3.1-8.7,0-.3,0-.7-.1-.9-1,1.4-1.9,2.9-3,4.3h0Z"/>
          <g class="cls-24">
            <path class="cls-6" d="M476,19.9c.2.1.3.3.5.5-.2-.1-.3-.3-.5-.5Z"/>
            <path class="cls-20" d="M480.2,22.4c.8-.6,2-1.8,3.1-1,1.7,1.1,2.9,3.8,3.8,5.5,1.3,2.3,2.4,4.7,3.3,7.2-.2-.5-1.9-.5-3.7-.5-.7-1.4-1.5-2.7-2.4-3.9-.4.4-.6,1.1-.5,1.6-1.5-3.2-3.2-6.3-5.5-9,.6.3,1.3.5,1.9,0h0Z"/>
          </g>
          <path class="cls-23" d="M480.1,25.8c-.7,1.5-1.7,2.9-2.7,4.2-.8,1-1.5,2-2.4,2.9-.2,0-.3.2-.5.3-.2-1.6-.4-3.2-.6-4.8-.2-1.2-.3-2.5-1-3.5-.7-1.1-1.9-1.7-3.1-2.2,1-.6,2.1-1.1,3.2-1.6.6-.3,1.2-.6,1.9-.9.2-.1.5-.2.8-.2.5,0,.8.6,1.1,1,.7,1.1,2.2,2.4,3.4,1.5.5-.4,1.2-1,1.9-1.2-.2,1.5-1.3,3.3-1.9,4.6h0Z"/>
          <path class="cls-14" d="M478.4,26.7c-.3.4-.7.7-1.1,1,0-1.1.2-2.2.8-3.1.1-.2.3-.5,0-.6,0,0-.2,0-.3,0-.8,0-1.5-.8-1.4-1.6,0-.4.2-.8.3-1.2h0s0,.1.2.2c.7.9,2,2,3.1,1.2.5-.4,1.2-1,2-1.2-.5,1.2-1.2,2.4-1.9,3.4-.5.7-1.1,1.5-1.8,2.1h0Z"/>
          <g>
            <path class="cls-12" d="M469.4,44.7c-.2,0-1.7.8-1.6,1-.6-2-1-4-1.2-6.1-.1-1-.2-2-.2-3,0-.5,0-1,0-1.5v-.7c.7,1.2,1.2,2.7,1.4,4,.2,1.6.1,3.3.8,4.8.5-.2,1-.5,1.6-.8.2-.1.5-.2.7-.3,1-.3,1.8-.1,2.7-.7,1-.7,2.1-1.1,3-1.8,1-.7,1.9-1.6,2.9-2.4-.2.3-.3.6-.5.8-.5.8-.9,1.7-1.5,2.4-.5.7-1.4.9-2.1,1.3-.8.4-1.7.8-2.5,1.2-1.1.5-2.2,1.1-3.4,1.7h0Z"/>
            <path class="cls-12" d="M460.9,27.6c.2-.1.4-.2.6-.4.7,1.8,2,3.3,3.3,4.8-.6-.3-1.2-.6-1.7-1-.7-.5-1.3-1.1-1.9-1.7-.5-.5-1.2-1.2-.3-1.7h0Z"/>
          </g>
        </g>
        <g>
          <path class="cls-17" d="M422.6,38.2c-.5-.2-1.1-.5-1.6-.7-.4-.2-1-.5-1.4-.4-.8,0-1.1,1.1-1.5,1.7-.7,1.1-2.2,2.4-3.5,1.6-1-.7-2.4-1.9-3.7-1-2,1.4-2.8,4-3.8,6.2-1.3,3-2.5,6-3.5,9.1.2-.7,1.8-.7,2.4-.7,1.4-.1,2.8-.2,4.2-.2.6,0,1.2,0,1.9,0,.3,0,.7-.2,1.1-.2.3,0,.5.2.6.4.4.4.7.8,1,1.2.8,1.1,1.6,2.2,2.4,3.3.6.9,1.2,1.8,1.9,2.6.6.7,1.6,1,2.5,1.3,1,.4,2,.8,3,1.2,1.3.6,2.7,1.1,4,1.7.2,0,2,.8,1.9,1.1.5-2.3.8-4.7.9-7.1,0-1.2,0-2.3,0-3.5,0-.6,0-1.2,0-1.8,0-.6-.1-1.3,0-1.9.2-.8.8-1.3,1.4-1.7.7-.5,1.4-.9,2-1.4.8-.6,1.4-1.4,2.1-2.1.5-.6,1.3-1.5.2-2-4.8-2.4-9.6-4.7-14.5-6.8h0Z"/>
          <path class="cls-19" d="M419,49.6c.9,1,1.8,2,2.9,2.8.5.5,1.1.9,1.6,1.4.9,1,1.6,2.2,2.2,3.3.7,1.2,1.4,2.5,1.6,3.9-.1-.5-2.2-1.5-2.6-1.9-1.1-1-2.4-1.7-3.8-2.5-.5-.3-1-.6-1.5-.9-2.8-2.1-3.7-6.5-4.2-9.8,0-.4-.1-.8,0-1.1,1.2,1.6,2.4,3.2,3.7,4.7h0Z"/>
          <g class="cls-24">
            <path class="cls-6" d="M419.1,37.2c-.2.1-.4.3-.5.6.2-.2.4-.4.5-.6Z"/>
            <path class="cls-9" d="M414.5,40.3c-1-.7-2.4-1.9-3.7-1-1.9,1.4-3,4.6-4,6.7-1.3,2.8-2.4,5.7-3.3,8.6.2-.6,2.2-.8,4.3-.8.7-1.6,1.6-3.2,2.5-4.7.5.5.8,1.2.7,1.9,1.5-3.8,3.3-7.5,5.7-10.7-.7.4-1.4.6-2.1.1Z"/>
          </g>
          <path class="cls-23" d="M414.7,44.2c.9,1.7,2.2,3.2,3.4,4.7,1,1.1,1.9,2.2,3,3.2.2,0,.4.2.6.3.1-1.9.2-3.7.3-5.6,0-1.4.2-2.9.9-4.1.8-1.3,2-2,3.4-2.8-1.3-.6-2.5-1.1-3.8-1.7-.7-.3-1.5-.6-2.2-.9-.3-.1-.6-.2-.9-.2-.6.1-.9.7-1.1,1.2-.8,1.3-2.3,2.9-3.8,2-.6-.4-1.5-1-2.3-1.2.3,1.7,1.7,3.7,2.5,5.1h0Z"/>
          <path class="cls-14" d="M416.7,45.2c.4.4.8.7,1.3,1.1,0-1.2-.5-2.5-1.2-3.5-.2-.2-.4-.5-.1-.8.1,0,.2,0,.4-.1.9-.1,1.6-1,1.5-2,0-.5-.3-.9-.4-1.4h0s-.1.1-.2.2c-.7,1.1-2.2,2.4-3.5,1.6-.7-.4-1.5-1.1-2.3-1.2.7,1.4,1.6,2.7,2.5,3.8.7.8,1.4,1.6,2.2,2.3h0Z"/>
          <g>
            <path class="cls-10" d="M428.4,65.3c.2,0,2,.8,1.9,1.1.5-2.3.8-4.7.9-7.1,0-1.2,0-2.3,0-3.5,0-.6,0-1.2,0-1.8,0-.3,0-.6,0-.9-.7,1.5-1.2,3.2-1.3,4.8,0,1.9,0,3.8-.6,5.7-.6-.3-1.2-.5-1.9-.8-.3-.1-.5-.2-.9-.3-1.2-.3-2,0-3.1-.7-1.2-.7-2.5-1.2-3.6-1.8-1.2-.7-2.3-1.8-3.5-2.6.2.3.4.6.6.9.6.9,1.2,1.8,1.9,2.6.6.7,1.6,1,2.5,1.3,1,.4,2,.8,3,1.2,1.3.6,2.7,1.1,4,1.7h0Z"/>
            <path class="cls-10" d="M437.1,44.9c-.3-.1-.5-.2-.8-.4-.6,2.2-2.1,3.9-3.4,5.8.6-.4,1.3-.8,1.9-1.3.8-.6,1.4-1.4,2.1-2.1.5-.6,1.3-1.5.2-2Z"/>
          </g>
        </g>
        <g>
          <path class="cls-17" d="M537.5.5c-.6,0-1.1,0-1.7,0-.4,0-1-.1-1.4,0-.7.3-.7,1.3-.8,2-.3,1.2-1.2,2.8-2.7,2.5-1.1-.3-2.8-.9-3.6.2-1.3,1.9-1.3,4.5-1.5,6.7-.3,3.1-.5,6.1-.4,9.2,0-.7,1.5-1.2,1.9-1.4,1.2-.5,2.5-1,3.8-1.5.5-.2,1.1-.4,1.7-.6.3-.1.6-.4.9-.5.2,0,.5,0,.7.2.4.2.8.5,1.2.8,1.1.7,2.1,1.5,3.1,2.3.8.6,1.6,1.3,2.5,1.8.8.5,1.8.4,2.7.4,1,0,2.1.1,3.1.2,1.4.1,2.8.2,4.1.4.2,0,2,.1,2,.4-.2-2.3-.7-4.5-1.3-6.7-.3-1.1-.6-2.1-1-3.2-.2-.5-.4-1-.6-1.6-.2-.6-.5-1.1-.6-1.7,0-.7.3-1.4.8-1.9.5-.6,1-1.2,1.4-1.9.5-.8.9-1.7,1.2-2.5.3-.7.7-1.7-.4-1.9-5.1-.7-10.1-1.3-15.1-1.7h0Z"/>
          <path class="cls-19" d="M537.8,11.9c1.1.6,2.3,1.2,3.5,1.7.6.2,1.3.5,1.9.8,1.1.6,2.1,1.5,3,2.3,1,.9,2,1.8,2.6,3-.3-.4-2.5-.7-3-.9-1.3-.6-2.7-.8-4.1-1.1-.6-.1-1.1-.2-1.7-.4-3.2-1.1-5.3-4.8-6.8-7.6-.2-.3-.3-.7-.3-1,1.6,1,3.2,2.1,4.8,3.1h0Z"/>
          <g class="cls-24">
            <path class="cls-6" d="M534.1.7c-.2.2-.2.4-.3.7,0-.2.2-.4.3-.7Z"/>
            <path class="cls-9" d="M530.9,4.9c-1.1-.3-2.8-.9-3.6.2-1.3,1.8-1.3,5.1-1.6,7.2-.3,2.9-.4,5.8-.3,8.7,0-.6,1.7-1.3,3.6-2,.1-1.7.5-3.3.8-5,.6.3,1,.8,1.2,1.5.2-3.8.7-7.7,1.8-11.4-.5.6-1.1,1-1.9.8h0Z"/>
          </g>
          <path class="cls-23" d="M532.3,8.3c1.4,1.2,2.9,2.2,4.5,3.1,1.2.7,2.4,1.4,3.7,1.9.2,0,.4,0,.6,0-.5-1.7-.9-3.4-1.4-5.2-.4-1.3-.7-2.7-.4-4,.3-1.4,1.2-2.5,2.2-3.5-1.3-.1-2.6-.2-3.9-.3-.8,0-1.5,0-2.3-.1-.3,0-.6,0-.9.1-.5.3-.5.9-.7,1.5-.3,1.4-1.2,3.4-2.8,3-.7-.2-1.6-.5-2.4-.4.8,1.4,2.7,2.8,3.8,3.8h0Z"/>
          <path class="cls-14" d="M534.4,8.6c.5.2,1,.4,1.5.6-.4-1.1-1.2-2.1-2.1-2.8-.2-.1-.5-.4-.4-.6,0-.1.2-.2.3-.2.8-.4,1.1-1.4.7-2.2-.2-.4-.6-.7-.8-1.1,0,0,0,0,0,0,0,0,0,.2,0,.3-.3,1.2-1.2,2.8-2.7,2.5-.7-.2-1.7-.5-2.5-.4,1.1,1,2.3,1.9,3.4,2.6.9.5,1.7,1,2.7,1.4h0Z"/>
          <g>
            <path class="cls-10" d="M551,23.1c.2,0,2,.1,2,.4-.2-2.3-.7-4.5-1.3-6.7-.3-1.1-.6-2.1-1-3.2-.2-.5-.4-1-.6-1.6,0-.2-.2-.5-.3-.8-.1,1.5-.2,3.2.3,4.7.5,1.7,1.2,3.4,1.2,5.3-.6,0-1.3,0-1.9-.1-.3,0-.6,0-.8,0-1.2.1-1.8.6-3,.4-1.3-.2-2.6-.3-3.8-.5-1.3-.3-2.6-.9-3.9-1.3.3.2.6.4.9.6.8.6,1.6,1.3,2.5,1.8.8.5,1.8.4,2.7.4,1,0,2.1.1,3.1.2,1.4.1,2.8.2,4.1.3Z"/>
            <path class="cls-10" d="M552.6,2.2c-.3,0-.5,0-.8-.1,0,2.1-.7,4.2-1.3,6.2.5-.6.9-1.1,1.3-1.7.5-.8.9-1.7,1.2-2.5.3-.7.7-1.7-.4-1.9Z"/>
          </g>
        </g>
        <g>
          <g>
            <path class="cls-1" d="M612.4,25.6c4.2,0,9.8,5.4,12.9,7.8,1.2,1,2.5,2.1,3,3.5-2.4.8-4.9,1.2-7.4,1.1-.7,0,.2,2.3.5,2.9,1.1,2.2,2.3,4.4,3.4,6.6-3.8,1.2-8.1,1-11.8-.6-3.7-1.6-6.7-4.7-8.4-8.3-2.5,2.2-5.5,3.9-8.5,5.2-.6-.8-.3-1.8,0-2.8,2.1-5.7,9.5-15.3,16.3-15.5h0,0Z"/>
            <path class="cls-5" d="M611.7,46.3c1-3.8,1.2-8.1,1.2-11,1.6,1.5,3.4,2.7,5.3,3.6.8-2.8,2.2-5.5,3.3-8.2,0-.1,0-.2.1-.3-2.9-2.3-6.3-4.7-9.1-4.7h0c-6.7.1-14.2,9.8-16.3,15.4-.3.9-.6,2,0,2.8,3.1-1.3,6-3,8.5-5.2,1.5,3.2,4,6,7.1,7.7h0Z"/>
            <path class="cls-4" d="M609.4,33.3c0,.3,0,.7.4.7.2,0,.4-.2.6-.4.6-.9,1.1-1.8,1.7-2.7,1.4,1.5,2.3,4.9,3.4,6.8-.3-1.7-1.2-7.5-2.5-12.1-.2,0-.3,0-.5,0h0c-3.2,0-6.7,2.4-9.6,5.3,1.8-.9,3.5-1.7,5.3-2.5.4-.2,1-.4,1.3,0,.1.2.1.4.1.6,0,1.4,0,2.8,0,4.3h0Z"/>
          </g>
          <g>
            <g>
              <path class="cls-11" d="M597.1,24.1c2.8,2.7,3.2,9.9,3.7,13.6.2,1.5.4,3-.2,4.4-2.1-1-4.1-2.4-5.8-4-.5-.5-1.3,1.7-1.5,2.3-.7,2.2-1.3,4.5-2,6.7-3.4-1.6-6.2-4.5-7.6-8-1.5-3.5-1.6-7.5-.3-11.1-3.1-.2-6.2-.8-9.2-2,0-.9,1-1.5,1.8-1.9,5-2.5,16.4-4.3,21,0,0,0,0,0,0,0h0Z"/>
              <path class="cls-5" d="M583.3,37.7c3.2-2,6-4.7,7.9-6.8.1,2,.6,4,1.3,5.8,2.4-1.4,5-2.3,7.5-3.5,0,0,.2,0,.3-.1-.5-3.4-1.3-7.3-3.2-9.1,0,0,0,0,0,0-4.6-4.2-16-2.5-21,0-.8.4-1.7,1-1.8,1.9,2.9,1.1,6,1.8,9.2,2-1.1,3.1-1.1,6.6-.1,9.8h0Z"/>
              <path class="cls-4" d="M590.2,27.4c-.2.2-.4.5-.2.7.1.2.4.1.7,0,1-.2,1.9-.5,2.9-.7,0,2-1.6,4.9-2.1,6.8.8-1.3,4-5.9,6.1-9.8-.1-.1-.2-.2-.3-.4,0,0,0,0,0,0-2.2-2.1-6-2.7-10-2.5,1.8.6,3.5,1.1,5.2,1.7.4.1,1,.4.9.9,0,.2-.2.3-.3.5-.9,1-1.8,2-2.7,2.9h0Z"/>
            </g>
            <g>
              <path class="cls-8" d="M581,7.9c-.8-.4-1.8-.3-2.8-.2-5.3.8-9.8,3-14.7,5,1.5,1.7,3.7,2.5,5.3,4.1,1.5,1.6.5,2.1-1,3.9-.7.9-1.2,1.9-1.6,3-.8,1.9-1.4,3.7-2,5.7,6.3.5,11.8-2.3,18.1-2.2,4.5,0,6,3,9.8,4.7.8-.6,1-1.6.9-2.5-.2-2.3-1-4.5-1.3-6.8-.3-2.5,1.1-4.9.8-7.2-.2-1.4-1.6-2.4-3-2.6-2.3-.4-4,1.2-5.7-.7-1.1-1.2-1.2-3.2-2.8-4h0Z"/>
              <path class="cls-20" d="M588.1,25.3c0,0,.1-.2.2-.3.7-2.8-.1-5.6.4-8.4.2-.9.4-1.7,1-2.3.5-.5,1.4-.6,2.2-.6-.6-.6-1.4-1.1-2.3-1.2-2.3-.4-4,1.2-5.7-.7-.9-1-1.1-2.4-2-3.3-.9.3-1.9.6-2.8.9-4.2,1.3-8.1,3.6-11.8,5.8,0,0-.1,0-.2.1.6.4,1.2.9,1.7,1.4.7.7.9,1.2.7,1.7,1,0,3.5.3,3.6.1-1.4,1.8-2.8,3.5-4.3,5.3-.6.8-1.3,1.6-1.3,2.6,2-1.6,4-3.3,6-4.9,1.8-1.4,3.7-2.6,5.5-3.9.4-.3.8-.5,1.2-.7,1.9-.9,2.7,2.7,3.2,3.8,1,1.9,2.5,3.5,4.3,4.5,0,0,.2.1.3,0h0Z"/>
              <path class="cls-23" d="M583.8,11.9c-.8-.9-1-2.1-1.7-3-.4.7-.8,1.5-1.5,1.9-.5.3-1.1.6-1.6.9,0,0-.2.2-.2.3,0,.2.3.2.5.2,0,0,.1,0,.2.1,0,.1,0,.3,0,.4,0,.2-.2.4-.3.5-.5.6-1.1,1.3-1.6,1.9.3.1.6.2,1,.3-.3,1.1-1.4,1.6-2.1,2.4-.3.4-.7.8-1.1,1.3-.2.4-.4.7-.6,1.1,3.2-1.8,6.3-3.8,9-6.3.5-.4.9-.9,1.4-1.4-.4-.1-.8-.4-1.2-.8h0Z"/>
              <path class="cls-12" d="M566.3,27.9c-1-.1.7-4.8,1.8-7.5,0,.1-.2.2-.3.3-.7.9-1.2,1.9-1.6,3-.8,1.9-1.4,3.7-2,5.7,2.5.2,4.9-.1,7.2-.5-1.7-.3-3.4-.6-5.2-.9Z"/>
              <path class="cls-12" d="M593,29.2c-.2-2.3-1-4.5-1.3-6.8-.2-1.7.3-3.2.6-4.8-.7,1.5-1.1,3-1,4.6.1,1.2.4,2.4.5,3.5,0,.7.3,4.1-.5,4.5-.6.4-2.7-1.7-3.3-2.1-1.2-.8-2.5-1.5-3.8-2.1-1.8-.7-2.1-.2-3.7.6-.3.2-.7.3-1,.5.9,0,1.7-.1,2.6-.1,4.5,0,6,3,9.8,4.7.8-.6,1-1.6.9-2.5h0Z"/>
              <path class="cls-12" d="M569.4,17.5c.2-.3.1-.6,0-.9-.2-.3-.4-.5-.7-.7-1-.9-2.1-1.7-3.1-2.6,1.3-1,2.6-2.1,3.9-3.1-2,.8-3.9,1.6-6,2.5,1.5,1.7,3.7,2.5,5.3,4.1.3.3.5.5.6.8h0Z"/>
              <path class="cls-14" d="M578.6,17.7c2.4-1.5,4.8-3.2,7.1-4.9-.6,0-1.2-.3-1.9-1-.7-.7-1-1.7-1.4-2.6-.2.3-.2.7-.4,1-.1.3-.3.5-.5.8-.2.4-.5.7-.8,1.1.2.1.4.2.6.2,0,.2-.3,1.6-.6,1.4.2.2.6.3.9.2,0,0-1.2,1.8-1.5,2-.6.6-1.1,1.1-1.6,1.7Z"/>
            </g>
            <g>
              <path class="cls-17" d="M607.2,10.1c-.5-.3-1-.5-1.5-.8-.4-.2-.9-.5-1.3-.5-.8,0-1.2,1-1.6,1.5-.8,1-2.3,2.1-3.5,1.2-.9-.7-2.2-2-3.4-1.3-2,1.2-3.1,3.6-4.2,5.6-1.5,2.7-3,5.5-4.1,8.4.2-.6,1.8-.5,2.3-.5,1.4,0,2.7.1,4.1.2.6,0,1.2,0,1.8,0,.3,0,.7,0,1,0,.2,0,.4.3.6.5.3.4.6.8.8,1.2.7,1.1,1.3,2.3,2,3.4.5.9,1,1.9,1.6,2.7.5.7,1.5,1.1,2.3,1.5.9.5,1.9,1,2.8,1.5,1.2.7,2.5,1.3,3.7,2,.2,0,1.8,1,1.7,1.2.7-2.2,1.2-4.4,1.5-6.7.2-1.1.3-2.2.4-3.4,0-.6,0-1.1,0-1.7,0-.6,0-1.2.2-1.8.2-.7.9-1.1,1.5-1.5.7-.4,1.4-.7,2.1-1.2.8-.5,1.5-1.2,2.2-1.8.5-.5,1.4-1.3.4-1.9-4.4-2.7-8.8-5.4-13.3-7.8h0Z"/>
              <path class="cls-19" d="M602.8,20.8c.8,1.1,1.6,2.1,2.5,3,.5.5,1,1,1.4,1.5.8,1,1.3,2.2,1.8,3.4.5,1.2,1.1,2.5,1.2,3.9,0-.5-2-1.7-2.4-2-1-1.1-2.2-1.8-3.4-2.7-.5-.3-1-.6-1.4-1-2.5-2.3-2.9-6.6-3.2-9.8,0-.4,0-.8.2-1,1,1.6,2,3.3,3.2,4.9h0Z"/>
              <g class="cls-24">
                <path class="cls-6" d="M604,8.9c-.2.1-.4.3-.6.5.2-.2.4-.3.6-.5Z"/>
                <path class="cls-9" d="M599.3,11.5c-.9-.7-2.2-2-3.4-1.3-2,1.1-3.3,4.1-4.4,6-1.5,2.5-2.8,5.2-3.9,7.9.2-.5,2.1-.5,4.2-.4.8-1.5,1.8-2.9,2.8-4.3.4.5.6,1.2.5,1.9,1.8-3.5,3.8-6.9,6.4-9.8-.7.4-1.4.5-2.1,0h0Z"/>
              </g>
              <path class="cls-23" d="M599.2,15.2c.7,1.7,1.8,3.3,2.9,4.8.8,1.1,1.7,2.3,2.6,3.3.2.1.3.2.5.3.3-1.8.5-3.6.8-5.4.2-1.4.4-2.8,1.2-3.9.8-1.2,2.1-1.8,3.5-2.4-1.2-.6-2.3-1.3-3.5-1.9-.7-.4-1.4-.7-2.1-1.1-.3-.1-.6-.3-.9-.2-.6,0-.9.6-1.2,1.1-.8,1.2-2.5,2.6-3.8,1.6-.6-.4-1.3-1.1-2.1-1.4.2,1.6,1.3,3.7,2,5.1h0Z"/>
              <path class="cls-14" d="M601,16.3c.4.4.8.8,1.2,1.1,0-1.2-.2-2.4-.8-3.4-.1-.2-.3-.6,0-.7,0,0,.2,0,.4,0,.9,0,1.6-.9,1.6-1.7,0-.5-.2-.9-.3-1.4h0c0,0-.1.1-.2.2-.8,1-2.3,2.1-3.5,1.2-.6-.5-1.3-1.2-2.1-1.4.6,1.4,1.3,2.7,2,3.8.6.8,1.2,1.7,1.9,2.4h0Z"/>
              <g>
                <path class="cls-10" d="M610.5,36.7c.2,0,1.8,1,1.7,1.2.7-2.2,1.2-4.4,1.5-6.7.2-1.1.3-2.2.4-3.4,0-.6,0-1.1,0-1.7,0-.3,0-.5,0-.8-.8,1.4-1.5,2.9-1.7,4.4-.2,1.8-.3,3.7-1.1,5.4-.6-.3-1.1-.6-1.7-.9-.2-.1-.5-.3-.8-.3-1.2-.4-2-.2-2.9-.9-1.1-.8-2.2-1.3-3.3-2.1-1.1-.8-2.1-1.9-3.1-2.8.2.3.3.6.5,1,.5.9,1,1.9,1.6,2.7.5.7,1.5,1.1,2.3,1.5.9.5,1.9,1,2.8,1.5,1.2.7,2.5,1.3,3.7,2h0Z"/>
                <path class="cls-10" d="M620.6,17.9c-.2-.1-.5-.3-.7-.4-.8,2-2.4,3.6-3.8,5.2.7-.3,1.3-.6,1.9-1.1.8-.5,1.5-1.2,2.2-1.8.5-.5,1.4-1.3.4-1.9Z"/>
              </g>
            </g>
          </g>
        </g>
        <g>
          <path class="cls-8" d="M336,17.7c-.9-.2-1.9.2-2.7.6-4.9,2.3-8.5,5.7-12.6,9,2,1.2,4.3,1.3,6.2,2.4,1.9,1.1,1.1,1.9.1,4.1-.5,1-.6,2.2-.7,3.3-.2,2-.3,4-.3,6,6.2-1.3,10.7-5.6,16.7-7.3,4.3-1.2,6.6,1.2,10.8,1.7.6-.8.5-1.8.2-2.7-.8-2.1-2.2-4.1-3.2-6.1-1-2.3-.4-5-1.3-7.2-.6-1.3-2.2-1.9-3.6-1.7-2.4.3-3.4,2.3-5.7,1-1.4-.9-2-2.7-3.8-3h0Z"/>
          <path class="cls-20" d="M347.8,32.4c0,0,0-.2,0-.3-.2-2.9-1.7-5.3-2-8.1-.1-.9-.1-1.8.3-2.5.4-.7,1.1-1,1.9-1.2-.7-.5-1.7-.6-2.6-.5-2.4.3-3.4,2.3-5.7,1-1.1-.7-1.7-2-2.8-2.6-.8.5-1.6,1.1-2.4,1.6-3.6,2.4-6.7,5.7-9.6,9,0,0-.1.1-.2.2.7.2,1.4.5,2.1.8.9.5,1.2.9,1.2,1.4,1-.2,3.4-.7,3.5-.9l-2.6,6.3c-.4.9-.8,2-.5,2.9,1.4-2.1,2.9-4.3,4.3-6.4,1.3-1.9,2.7-3.6,4.2-5.3.3-.4.6-.7.9-1,1.6-1.4,3.3,1.8,4.2,2.7,1.5,1.5,3.4,2.6,5.4,3,.1,0,.2,0,.3,0h0Z"/>
          <path class="cls-23" d="M339.8,20.7c-1-.6-1.6-1.7-2.5-2.4-.2.8-.3,1.6-.9,2.3-.4.5-.9.9-1.3,1.3,0,0-.2.2-.1.3,0,.2.3,0,.5.1,0,0,.1,0,.2.1.1,0,.2.2.2.4,0,.2,0,.4-.2.6-.3.8-.7,1.5-1,2.3.3,0,.7,0,1,0,0,1.2-.9,1.9-1.4,2.9-.2.4-.5,1-.7,1.6,0,.4-.2.8-.3,1.2,2.5-2.7,4.9-5.4,6.9-8.6.3-.5.6-1.1.9-1.7-.4,0-.9-.1-1.4-.5h0Z"/>
          <path class="cls-12" d="M327.6,41.1c-1,.1-.7-4.8-.5-7.7,0,.1-.1.2-.2.4-.5,1-.6,2.2-.7,3.3-.2,2-.3,4-.3,6,2.5-.5,4.6-1.5,6.8-2.6-1.7.2-3.5.4-5.2.7h0Z"/>
          <path class="cls-12" d="M353.6,34.7c-.8-2.1-2.2-4.1-3.2-6.1-.7-1.5-.6-3.2-.8-4.8-.2,1.6-.2,3.2.4,4.7.5,1.1,1.1,2.1,1.5,3.2.3.7,1.4,3.8.9,4.5-.5.5-3.1-.9-3.7-1.1-1.4-.4-2.8-.8-4.2-.9-1.9-.1-2.1.4-3.4,1.7-.3.3-.5.5-.8.8.8-.3,1.6-.6,2.5-.9,4.3-1.2,6.6,1.2,10.8,1.7.6-.8.5-1.8.2-2.7h0Z"/>
          <path class="cls-12" d="M327.6,30.2c0-.3,0-.6-.3-.8-.2-.2-.6-.4-.9-.5-1.2-.5-2.5-1-3.7-1.5,1-1.4,1.9-2.8,2.9-4.1-1.7,1.3-3.3,2.7-5,4.1,2,1.2,4.3,1.3,6.2,2.4.4.2.6.4.8.6h0Z"/>
          <path class="cls-14" d="M336.5,27.8c1.9-2.2,3.7-4.4,5.4-6.7-.6.1-1.3.1-2.1-.4-.8-.5-1.4-1.4-2.1-2,0,.4,0,.7,0,1.1,0,.3-.1.6-.2.9-.1.4-.3.8-.4,1.3.2,0,.4,0,.6,0,0,.1.1,1.6-.2,1.5.3.1.6.1.9,0,0,0-.7,2.1-.8,2.3-.4.7-.7,1.4-1,2.1h0Z"/>
        </g>
        <g>
          <path class="cls-17" d="M361.7,12.4c-.5-.1-1.1-.2-1.7-.3-.4,0-1-.3-1.4-.1-.7.2-.8,1.3-1.1,1.9-.5,1.1-1.6,2.7-3,2.2-1.1-.4-2.6-1.3-3.6-.2-1.6,1.7-1.9,4.4-2.4,6.5-.7,3.1-1.3,6.1-1.6,9.2,0-.7,1.6-1,2.1-1.1,1.3-.4,2.6-.7,4-1,.6-.1,1.2-.3,1.7-.4.3,0,.7-.3,1-.4.2,0,.5.1.7.3.4.3.8.6,1.1.9,1,.9,1.9,1.8,2.9,2.7.7.7,1.5,1.5,2.3,2.1.7.5,1.7.6,2.6.8,1,.2,2.1.4,3.1.6,1.4.3,2.7.5,4.1.9.2,0,2,.4,2,.7,0-2.3-.1-4.6-.5-6.9-.2-1.1-.4-2.2-.6-3.3-.1-.5-.2-1.1-.4-1.6-.1-.6-.4-1.2-.4-1.8,0-.8.5-1.4,1-1.9.6-.6,1.2-1.1,1.7-1.7.6-.8,1.1-1.5,1.6-2.4.4-.7,1-1.6-.1-1.9-5-1.3-10-2.6-15-3.6h0Z"/>
          <path class="cls-19" d="M360.6,23.8c1,.8,2.1,1.5,3.2,2.1.6.3,1.2.6,1.8,1,1,.8,1.9,1.7,2.7,2.7.9,1,1.8,2.1,2.3,3.3-.2-.5-2.4-1-2.9-1.3-1.3-.8-2.6-1.1-4-1.6-.5-.2-1.1-.4-1.6-.6-3-1.5-4.7-5.5-5.8-8.5-.1-.3-.2-.7-.1-1,1.4,1.2,2.9,2.6,4.4,3.7h0Z"/>
          <g class="cls-24">
            <path class="cls-6" d="M358.3,12.1c-.2.2-.3.4-.4.6l.4-.6Z"/>
            <path class="cls-9" d="M354.5,15.9c-1.1-.4-2.6-1.3-3.6-.2-1.5,1.7-2,4.9-2.5,7-.7,2.9-1.2,5.8-1.4,8.7,0-.6,1.9-1.1,3.9-1.6.4-1.7.9-3.3,1.4-4.9.6.4.9,1,1,1.6.7-3.8,1.7-7.7,3.3-11.2-.5.5-1.2.8-2,.5h0Z"/>
          </g>
          <path class="cls-23" d="M355.5,19.6c1.2,1.4,2.6,2.6,4.1,3.7,1.1.9,2.2,1.7,3.5,2.4.2,0,.4.1.6.2-.2-1.8-.5-3.6-.8-5.4-.2-1.4-.4-2.8,0-4.1.5-1.4,1.5-2.3,2.7-3.2-1.3-.3-2.6-.6-3.9-.8-.8-.1-1.5-.3-2.3-.4-.3,0-.6-.1-.9,0-.5.2-.7.9-.8,1.4-.5,1.4-1.6,3.2-3.2,2.6-.7-.3-1.6-.7-2.4-.7.6,1.5,2.3,3.1,3.4,4.3h0Z"/>
          <path class="cls-14" d="M357.6,20.1c.5.3.9.5,1.4.8-.3-1.2-.9-2.2-1.8-3-.2-.2-.4-.5-.3-.7,0-.1.2-.1.3-.2.8-.3,1.3-1.3,1-2.1-.1-.4-.5-.8-.7-1.2,0,0,0,0,0,0,0,.1,0,.2-.1.3-.5,1.1-1.6,2.7-3,2.2-.7-.3-1.6-.7-2.4-.7,1,1.2,2,2.2,3,3.1.8.6,1.6,1.3,2.5,1.8h0Z"/>
          <g>
            <path class="cls-10" d="M372.4,36.8c.2,0,2,.4,2,.7,0-2.3-.1-4.6-.5-6.9-.2-1.1-.4-2.2-.6-3.3-.1-.5-.2-1.1-.4-1.6,0-.3-.1-.5-.2-.8-.3,1.5-.6,3.2-.3,4.7.3,1.8.8,3.6.5,5.5-.6-.1-1.3-.2-1.9-.4-.3,0-.6-.1-.9-.1-1.2,0-1.9.4-3.1,0-1.2-.4-2.5-.6-3.8-1-1.3-.5-2.5-1.2-3.8-1.8.3.2.5.5.8.8.7.7,1.5,1.5,2.3,2.1.7.5,1.7.6,2.6.8,1,.2,2.1.4,3.1.6,1.4.3,2.7.5,4.1.9h0Z"/>
            <path class="cls-10" d="M376.7,16c-.3,0-.5-.1-.8-.2-.2,2.1-1.3,4.1-2.1,6.1.5-.5,1.1-1,1.5-1.6.6-.8,1.1-1.5,1.6-2.4.4-.7,1-1.6-.1-1.9h0Z"/>
          </g>
        </g>
      </g>
      <g>
        <g>
          <path class="cls-11" d="M56.1,28.6c3.5,1.8,5.9,8.6,7.5,12,.6,1.3,1.2,2.8,1,4.2-2.3-.3-4.6-1.1-6.7-2.2-.6-.3-.8,2-.8,2.7,0,2.3,0,4.6,0,7-3.7-.6-7.2-2.6-9.6-5.5s-3.7-6.7-3.5-10.5c-3.1.7-6.2,1-9.3.7-.2-.9.5-1.7,1.2-2.3,4.1-3.9,14.5-8.8,20.1-6,0,0,0,0,0,0h0Z"/>
          <path class="cls-5" d="M46.7,45.7c2.5-2.8,4.4-6.2,5.6-8.7.7,1.9,1.7,3.6,2.9,5.2,1.9-2,4.1-3.7,6.2-5.5,0,0,.2-.1.2-.2-1.4-3.2-3.3-6.6-5.6-7.8,0,0,0,0,0,0-5.7-2.8-16,2.2-20.1,6-.7.6-1.3,1.4-1.2,2.3,3.1.2,6.3,0,9.3-.7-.2,3.3.8,6.7,2.7,9.5h0Z"/>
          <path class="cls-4" d="M50.4,33.8c-.1.2-.2.6,0,.8.2.1.4,0,.7,0,.8-.5,1.7-1,2.5-1.5.6,1.9-.1,5.1,0,7.1.4-1.5,2.2-6.8,3-11.2-.1,0-.3-.2-.4-.2,0,0,0,0,0,0-2.7-1.3-6.6-.9-10.3.4,1.8,0,3.7,0,5.5.1.4,0,1,.1,1.1.6,0,.2,0,.4-.1.5-.6,1.2-1.2,2.4-1.8,3.6h0Z"/>
        </g>
        <g>
          <g>
            <path class="cls-3" d="M112,27.6c-.3,0-.5-.2-.8-.2-12.1-3.6-24.5-3.3-35.2,4-10.8,7.3-18.4,20.4-33.4,17.3-5.4-1.1-10.1-4.1-14.2-7.6-4.1-3.6-7.4-8-11.5-11.6-3-2.7-6.9-5-10.7-6.2-4.3-1.5-8.7-2.9-13.2-3.4-1.5-.2-3-.2-4.5-.3-1.2,0-2.6-.3-3.8,0,0,1.5,0,2.9.1,4.4,2.5,0,5.1.3,7.6.7,3.3.5,6.7,1,9.9,2,3.8,1.2,7.3,2.9,10.6,5.2,3.3,2.4,6,5.3,8.7,8.4,3.1,3.3,6.1,6.9,9.9,9.4,7.7,5,18,4.8,26.4,1.2,6.9-3,11.9-8.3,17.7-12.9,3.1-2.5,6.2-5,9.8-6.7,7.6-3.5,15.8-2.3,23.6,0,5.5,1.6,11.2,3.8,17,4,2.7.1,5.3.7,8,.7,2.6,0,5.2-.4,7.8-.3,2.7.1,5.6,1.2,8.3,1.8,3.9,1,6.9,3.8,10.4,5.6,3,1.7,6,3.3,9.2,4.4,10.1,3.7,20.8,6.2,31.6,6,6.6,0,14.6-2.3,20.8-4.8,10.4-4.2,18.1-12.8,27.6-18.6,4.8-3,10-5.2,15.4-6.7,1.7-.5,19-2.7,19-2.7.5-1.4.5-2.9.3-4.4-2.6,0-5.2,0-7.9.2-10.1.9-19.9,4.2-28.6,9.4-5.5,3.2-10.1,7.2-14.6,11.7-3.9,3.8-9.3,6.4-14.3,8.6-10.8,4.6-23.2,4.9-34.6,2.3-5-1.2-9.9-2.8-14.6-4.9-4.9-2.2-9.2-5.4-13.8-8.1-4.2-2.5-9.1-3.6-13.9-4-5.2-.5-10.2.9-15.3.2-4.9-.7-9.7-2.3-14.5-3.7h0Z"/>
            <path class="cls-2" d="M264.7,23.1c1.3-.4,11.2-1.7,16.2-2.4-2.7-4.4-12.2-1.4-16.5.3-4,1.6-8,3.2-11.9,4.9-3.1,1.4-6.2,2.8-9,4.8-2.3,1.7-4.4,3.6-6.4,5.6-11.4,11.1-28.1,16.5-44,14.8-4.5-.5-8.9-1.5-13.2-2.5-5.7-1.3-11.4-2.7-16.5-5.6-2.5-1.5-4.9-3.9-5.5-6.5-.7-.5-1.4-.9-2.2-1.3-4.2-2.5-9.1-3.6-13.9-4-5.2-.5-10.2.9-15.3.2-.1,0-.3,0-.4,0-1.7.5-3.4.8-4.9.7-6.2-.7-12.7-2.8-18.9-4-2.5-.5-5-1-7.5-1-5.4,0-10.7,1.9-15.3,4.8-4.6,2.8-8.6,6.5-12.6,10.2-4,3.7-7.5,6.9-12.8,8-5.6,1.2-11.3,1.7-16.9-.2-1.6-.5-3.1-1.3-4.6-2.2-5-3-9-7.8-12.9-12-1.7-1.9-3.5-4.4-5.7-5.8-1.7-1-5.1-1.9-5.8-3.9-.2-.6-.2-1.2-.1-1.9-.6-.3-1.3-.5-1.9-.7-4.3-1.5-8.7-2.9-13.2-3.4-1.5-.2-3-.2-4.5-.3-1.2,0-2.6-.3-3.8,0,0,1.5,0,2.9.1,4.4,2.5,0,5.1.3,7.6.7,3.3.5,6.7,1,9.9,2,3.8,1.2,7.3,2.9,10.6,5.2,3.3,2.4,6,5.3,8.7,8.4,3.1,3.3,6.1,6.9,9.9,9.4,7.7,5,18,4.8,26.4,1.2,6.9-3,11.9-8.3,17.7-12.9,3.1-2.5,6.2-5,9.8-6.7,7.6-3.5,15.8-2.3,23.6,0,5.5,1.6,11.2,3.8,17,4,2.7.1,5.3.7,8,.7,2.6,0,5.2-.4,7.8-.3,2.7.1,5.6,1.2,8.3,1.8,3.9,1,6.9,3.8,10.4,5.6,3,1.7,6,3.3,9.2,4.4,10.1,3.7,20.8,6.2,31.6,6,6.6,0,14.6-2.3,20.8-4.8,10.4-4.2,18.1-12.8,27.6-18.6,4.8-3,10-5.2,15.4-6.7h0Z"/>
          </g>
          <g>
            <path class="cls-3" d="M91.2,21.1c.5-.2.9-.2,1.4-.2.2,0,.4,0,.5.2.1.1.1.3.1.5-.2,1.8-1.3,3.2-2.7,4.4-.4.4-4.1,2-4.1,1.4-.1-2,2.3-5.5,4.9-6.3h0Z"/>
            <path class="cls-3" d="M40.5,44c.4.2.8.6,1,.9,0,.1.2.3.1.5s-.2.3-.3.4c-1.7,1.1-3.6,1.1-5.5.9-.6,0-4.2-1.8-3.8-2.2,1.7-1.5,6.2-1.8,8.5-.5Z"/>
            <path class="cls-3" d="M113.3,23.6c.5,0,.9.2,1.2.4.1,0,.3.2.3.4,0,.2,0,.3-.1.5-1.1,1.6-2.7,2.4-4.5,2.9-.5.1-4.4,0-4.1-.5.9-1.9,4.6-4,7.2-3.6Z"/>
            <path class="cls-3" d="M194.2,45.3c.5,0,.9.2,1.2.4.1,0,.3.2.3.4,0,.2,0,.3-.1.5-1.1,1.6-2.7,2.4-4.5,2.9-.5.2-4.4,0-4.1-.5.9-1.9,4.6-4,7.2-3.7Z"/>
            <path class="cls-2" d="M182.7,55.1c0,.5,0,.9,0,1.3,0,.2-.1.3-.3.4-.1,0-.3,0-.5,0-1.8-.6-3-2-3.9-3.5-.3-.5-1.2-4.2-.6-4.1,2.1.4,5,3.4,5.4,6h0Z"/>
            <path class="cls-2" d="M207.8,54.4c.3.4.5.7.6,1.2,0,.2,0,.3,0,.5,0,.2-.3.2-.4.2-1.9.5-3.6,0-5.2-.9-.5-.2-3.3-2.9-2.7-3.1,2-.8,6.1.2,7.7,2.1h0Z"/>
            <path class="cls-2" d="M255.7,27.4c.4.2.6.4.9.7,0,.1.2.2.1.4,0,.1-.1.2-.3.3-1.3.9-2.8,1.1-4.4.9-.5,0-3.5-1.2-3.1-1.6,1.3-1.2,4.9-1.7,6.8-.7h0Z"/>
            <path class="cls-2" d="M62.7,51.1c.4.3.7.6.9,1,0,.1.2.3.1.5,0,.2-.2.3-.3.3-1.7.9-3.5.9-5.3.5-.5-.1-3.9-1.9-3.4-2.3,1.7-1.3,5.9-1.4,8,0h0Z"/>
          </g>
        </g>
        <g>
          <path class="cls-15" d="M33.8,27.9c-5.7,3.7-5.3,11.6-5.4,17.5,0,4.6.2,9.3.8,13.8.3,2.1.7,4.3,2,6,1.3,1.6,3.5,2.4,5.6,2s3.8-1.9,4.4-3.9c.6-2,0-4.3-1.6-5.7-.6-.5-1.5-.7-2.3-.6-.4,0-.9.3-1.1.7-.3.5-.1,1.1,0,1.7,1-.2,1.8-.6,2.4.5.9,1.5,0,3.2-1.4,4-2.3,1.4-4.1-.5-4.8-2.6-1.2-3.4-1.1-7.8-1.3-11.4-.2-3.8-.2-7.7.4-11.6.8-4.8,3.2-9.4,8.5-9.8,3.2-.2,6.2,1.5,9,3,10.9,6.2,23.2,15.7,36,17.8,4.6.7,9.4,1,14,.4,10.2-1.2,20.2-4.2,29.8-7.7,5-1.8,9.9-3.8,14.6-6.3,5.6-3,9.9-8.5,15.9-11,6.2-2.6,10.4.5,15.6,3.5,3.6,2.1,7.8,3.1,12,3.7,6.1.8,12.4.9,18.1-1.3,6.6-2.7,8.9-9.2,13.5-14.1,1.8-1.9,4.7-3.6,7.3-3.6,2.9,0,4.9,2.1,8,1.9,5-.2,10.4-2.1,15.3-3.1.5-.1,1-.2,1.5-.1,1.6.3,3.9,1.5,4.9,2.8,1.7,2.3,3.4,4.5,3.4,7.4,0,3.2.3,6.4.2,9.6,0,5.6-.6,11.2-2.5,16.5-.7,2.1-2.3,3.3-4.6,2.3-1.9-.8-2.3-3-1.6-4.8-1.3-.4-2.6.9-2.7,2.2-.3,3.5,4.1,6.6,7.3,5.3,3.5-1.4,5.2-7.1,5.4-10.5.4-5.7.7-11.4.4-17.2-.3-4.8-.6-10.8-5-13.7-3.4-2.2-7.5-2.5-11.2-1.4-5,1.4-8.9,2.7-13.8.8-4-1.6-7.8-2.3-11.7.5-4.3,3.2-5.6,8.5-9.4,12.1-3.2,3-7.4,4.6-11.7,5.2-8.6,1.2-18-1-25.8-4.8-2.5-1.2-4.9-2.6-7.7-3.1-7.3-1.3-9.7,4.1-14.7,7.6-7.3,5.1-15.7,8.4-24,11.5-11.3,4.2-23.2,8.2-35.3,7.3-5.9-.4-11.6-2.3-17-4.7-3.8-1.6-7-3.8-10.5-6-2.1-1.3-4.1-2.6-6.2-3.8-6.4-3.7-15.8-9.7-23.2-5h0Z"/>
          <path class="cls-18" d="M261.1,25.3c-.2-3.9-.5-8.5-2.9-11.7-.6-.1-1.3-.3-2-.6-1.2-.5-2.2-1.5-3.5-1.9-5.7-2-13.1,3.1-19.4,2.5-3.5-.4-7-2.6-10.5-1.7-2.9.7-4.6,2.6-6.3,4.7-4.4,8.2-12.2,14.3-21.6,14.3-5.7,0-11.1-.5-16.4-2.3-3.3-1.1-7-3.2-10.1-4.9-2.7-1.5-5.4-2-7.2-1.5-3.6,1-5.9,3.6-8.7,5.7-2.9,2.2-5.8,4.3-9,6-.4.2-.9.4-1.4.6-3.6,2-7.4,3.8-10.3,5.1-6.5,2.9-20.3,7.2-31.1,8.5-18.8,2.3-31.2-5.7-35-8.4-3.9-2.7-8.2-5-12.2-7.5-4.2-2.6-8-4.9-13.2-4.7-1.4,0-3,.5-4.3,1.1-1.8.7-2.6,2-3.6,3.6-.8,1.4-1.3,2.9-1.8,4.5-1,3.9-1,8.3-.9,11.9.2,5,2,10.6,1.4,15.8,0,.2,0,.4.1.7,0,0,0,.1,0,.2,1.3,1.6,3.5,2.4,5.5,2,2-.4,3.8-1.9,4.4-3.9.5-1.6.1-3.4-.8-4.8.4,1.7.2,3.8-.7,5.2-1.6,2.6-5.2,2.4-6.8,0-.7-1-1-2.6-.9-4.1-.7-3.1-.7-6.7-.8-9.8-.2-3.8-.2-7.7.4-11.6.8-4.8,3.2-9.4,8.5-9.8,3.2-.2,6.2,1.5,9,3,10.9,6.2,23.2,15.7,36,17.8,4.6.7,9.4,1,14,.4,10.2-1.2,20.2-4.2,29.8-7.7,5-1.8,9.9-3.8,14.6-6.3,5.6-3,9.9-8.5,15.9-11,6.2-2.6,10.4.5,15.6,3.5,3.6,2.1,7.8,3.1,12,3.7,6.1.8,12.4.9,18.1-1.3,6.6-2.7,8.9-9.2,13.5-14.1,1.8-1.9,4.7-3.6,7.3-3.6,2.9,0,4.9,2.1,8,1.9,5-.2,10.4-2.1,15.3-3.1.5-.1,1-.2,1.5-.1,1.6.3,3.9,1.5,4.9,2.8.6.9,1.3,1.7,1.8,2.6,2,1.7,2.4,4.8,2.5,7.6.3,6.6.6,15.4-1.1,21.9-1,3.8-4.1,6.9-8.8,4-1.1-.7-1.8-1.7-2.1-2.9,0,0,0,0,0,0-.3,3.5,4.1,6.6,7.3,5.3,3.5-1.4,5.2-7.1,5.4-10.5.4-5.7.7-11.4.4-17.2h0Z"/>
        </g>
        <g>
          <path class="cls-16" d="M52.6,37.7c-1.4.2-2.7,1-4.1.8-1.6-.2-2.8-1.5-4.2-2.3-1.7-1-3.1-.8-5-.9-1.7,0-3.3-1.1-5.1-1.2-1.4,0-2.8.4-4.2.1-.9-.2-1.6-.7-2.4-1.1-2.1-1-4.5-1.3-6.8-1.8-2.4-.5-4.5-1.2-7-1.1-.9,0-1.8.2-2.6,0-2.1-.5-3.2-2.9-5-4.1-2.5-1.5-6-.5-8.5-2-.6-.3-1.1-.8-1.6-1.1-1.3-.6-2.8-.5-4.2-.7-3.8-.6-6.9-2.8-10.4-4.1-.9-.3-1.8-.6-2.8-.9.7-1.1,1.3-2.2,1.8-3.4.2,0,.3.1.5.1,4.5,1.3,8.5,4.2,13.2,4.5,1.1,0,2.3,0,3.4.5.8.4,1.5,1,2.2,1.4,2,1.1,4.4,1,6.5,1.9,3.1,1.3,4.4,4.1,8.1,4.1,1.8,0,3.7-.3,5.3.4,1.1.4,2.1,1.3,3.3,1.5.9.1,1.9-.1,2.9,0,.7,0,1.4.4,2.1.6,4,1.4,7.8.5,11.9.7,2.9.2,4.9,3.3,7.8,3.6,1,0,2.1-.2,3.1-.3,3.6-.5,6.5,1.9,10,1.9,1.5,0,3-.6,4.5-.8,2.2-.3,4.5,0,6.7.2,2.2.2,4.9-.2,7,.5.9.3,1.9.9,2.8.6.9-.2,1.4-1.1,2.2-1.5,1-.5,2.2,0,3.3-.3.5-.1,1-.4,1.5-.5,1.4-.3,2.2,1,4,.5,1.4-.4,2.6-1.4,4.1-1.6.8,0,1.7,0,2.5.2,3.2.6,6.4.9,9.6.9.9,0,1.8,0,2.6-.4.8-.3,1.4-.8,2.1-1.2,1.9-1.1,3.5-.5,5.5-.8,1.8-.2,3.1-1.3,5.1-.9,1.3.2,2.9.4,3.8-.5.2-.2.4-.5.7-.7.4-.2.8-.3,1.3-.3,1.4,0,2.9.3,4.2.2,1.5-.1,2.8-1.2,4.4-1.4,1.9-.2,3.6.8,5.5.8,1.4,0,2.7-.5,4-.8,1.6-.3,3.2,0,4.8,0,1.9,0,2.9-1,4.6-1.3.9-.2,1.9-.4,2.4-1.1.1-.2.2-.4.4-.6.4-.4.9-.4,1.4-.4s1,.3,1.5.4c1.8.3,4.9-.5,6.7-1,1.1-.3,2-1,3.2-.9.8,0,1.6.4,2.4.2.6-.1,1.1-.5,1.6-.8,1.7-.9,4.7-.9,6.6-.8,2.3.1,4.3-1.3,6.3-2.1,2.1-.8,3.9-.4,6.1-.7,1.2-.1,2.1-.9,3.3-1,.9,0,1.7.5,2.5.7.9.2,4.5-.7,5.6-1.3,1.1-.6,2.4-1.1,3.7-1.4,2.6-.6,5.4-.8,8.1-.3,1.1.2,2.2.4,3.3.1,1.3-.4,2.3-1.5,3.5-2.1,2.2-.9,4.7.1,7-.2,1.8-.3,3.4-1.4,5.2-1.4,1,0,2,.4,3,.4,2.1,0,4.4-1.7,6.2-.5.6.4,1,1.1,1.7,1.1.4,0,.8-.2,1.1-.4,3-1.7,6.9-.2,10.1,0,2.4.2,4.8.5,7.1,1.3,1,.3,1.9.8,2.7,1.3.3,1.7.6,3.4.9,5.2-.4-.3-.9-.6-1.3-.9-3.8-2.6-9-3.1-13.4-4.1-.3,0-.6-.1-.9,0-.4.1-.7.6-1,.9-.7.6-1.7.7-2.7.5-.9-.2-1.8-.6-2.7-.8-2.5-.4-5.1,1-7.6.7-1-.1-2.1-.5-3.1-.2-.5.2-.9.5-1.3.7-1.6.8-3.5,0-5.2,0-.2,0-.5,0-.7.1-.3.2-.3.6-.5.9-.4.7-1.2.9-1.9,1-3.1.4-6.4-1-9.4,0-1.6.6-3.3,1.8-4.9,1.1-.4-.2-.8-.5-1.3-.6-1.5-.4-2.5,1.6-3.9,2.3-2,1-4.4-.7-6.6-.1-1.5.4-2.7,2-4.2,1.7-2.8-.5-5.3-.5-7.9.7-2.7,1.2-5.3,3-8.4,3.1-2.6,0-5.6-1.2-7.6.5-.4.3-.6.7-1.1.9-.5.3-1.2.3-1.8.3l-5-.2c-.8,0-1.6,0-2.3.2-1.2.5-1.9,1.9-3.1,2.4-.6.3-1.4.3-2.1.3-2.7,0-5.4.2-8.1.3-.7,0-1.4,0-2.1.2-.6.2-1.1.4-1.6.7-1.4.7-2.9,1.6-4.5,1.6-1.9,0-3.6-1.5-5.4-1.2-1.4.2-2.5,1.3-3.9,1.7-1.7.4-3.5-.5-5.3-.2-2,.3-3.8,1.1-5.9,1.2-3.1.2-7.8-.2-10.4,1.5-.7.5-1.4,1.1-2.2,1.4-1.5.5-3.1-.4-4.6-.6-2.2-.3-4.5.8-6.7.6-1.9-.2-3.6-1.2-5.5-1.3-1.9,0-3.3,1.4-5.4,1.2-1.2,0-2.4-.5-3.6-.2-.6.2-1.1.5-1.8.7-.9.2-1.8,0-2.7,0-1.8-.2-3.6-.2-5.4-.2-1.1,0-2.3,0-3.4,0-2.2,0-4.4,0-6.6.1-2.7,0-5.3-.1-8-.6-1.3-.3-2.4-.7-3.8-.5h0Z"/>
          <path class="cls-22" d="M52.6,37.7c-1.4.2-2.7,1-4.1.8-1.6-.2-2.8-1.5-4.2-2.3-1.7-1-3.1-.8-5-.9-1.7,0-3.3-1.1-5.1-1.2-1.4,0-2.8.4-4.2.1-.9-.2-1.6-.7-2.4-1.1-2.1-1-4.5-1.3-6.8-1.8-2.4-.5-4.5-1.2-7-1.1-.9,0-1.8.2-2.6,0-2.1-.5-3.2-2.9-5-4.1-2.5-1.5-6-.5-8.5-2-.6-.3-1.1-.8-1.6-1.1-1.3-.6-2.8-.5-4.2-.7-3.8-.6-6.9-2.8-10.4-4.1-.9-.3-1.8-.6-2.8-.9.2-.3.4-.6.5-.9,1.9.2,3.9.1,5.6.1,1,0,2.1.2,2.7.9.2.3.4.6.6,1,1,1.6,3.2,2,5.1,1.9,1,0,2-.2,2.9.2,1.2.5,1.8,1.8,2.9,2.5,1.6,1,3.7.5,5.5.7,2.4.1,4.7,1.4,6.1,3.3.6.8,1.4,1.9,2.4,1.7.4,0,.7-.3,1-.4,1.5-.6,3.3.6,4.8.9,1.5.3,3.1.2,4.6.4,1.9.2,3.8,1,5.5,1.9.7.4,1.5.8,2.3.8.8,0,1.6-.4,2.5-.6,1.6-.3,2.2,1.1,3.7,1.3,1.8.3,3.7-.2,5.4.2,2.3.6,4,2.6,6.2,3.6.4.2,1,.3,1.3,0,.1-.2.2-.4.2-.6.7-2,4.3-.5,5.5-.2,2.3.7,4.6,1.5,6.9,1.5,3.1,0,6.2-1.2,9.3-1.1,2.8.1,5.6,1.4,8.4,1,1.8-.3,3.6-1.3,5.5-.9.5.1,1,.3,1.6.2.5-.1.9-.6,1.3-.9,1.5-1.2,3.7-.9,5.6-.4s3.8,1.4,5.7.9c.9-.2,1.8-.7,2.7-.9,2.2-.5,3.4,1.8,5.6,1.4,1-.2,1.8-.8,2.6-1.4,1.9-1.2,4.1-1.7,6.3-1.5.7,0,1.4.2,2.2.2,1.2,0,2.3-.6,3.4-1.1,1.8-.9,3.7-1.8,5.7-1.7,1.3,0,2.6.5,3.9.5,1.6,0,3.1-1,4.6-1.5,1.5-.6,3.4-.8,4.6.2.4.4.8.9,1.3,1.1.5.2,1,.1,1.5,0l3.9-.6c0-.7-.6-1.4-1.2-1.8.2-1.1,1.8-1.4,2.9-1s1.9,1.3,3,1.6c1.1.3,2.6-.2,2.6-1.4,2.2.5,4.5.5,6.7,0-.5-.7-.2-1.9.5-2.5s1.6-.8,2.6-.8c1.7-.1,3.4.1,4.9.7.6.2,1.2.5,1.8.4,1-.1,1.3-.9,2-1.4.6-.4,1.2-.6,1.9-.7,1.3-.2,2.6,0,3.9,0,3.2-.1,6.2-1.8,9.3-2.9,2.4-.8,5.5-1.4,8-.5.5.2,1,.4,1.5.3,1-.2.6-1.5,2-1.7,1.2-.2,2.5.2,3.7,0,1.7-.2,3.2-1.3,4.7-2,1.5-.8,3.5-1.2,4.9-.3.5.3,1,.9,1.5.8.4,0,.6-.4.9-.6,2.8-2.2,6,.1,9-.4,1.4-.2,1.2-1,1.8-2.1.5-.9.4-.8,1.6-.8,1,0,2,.1,3,.3.4,0,.8.2,1.1.1.3,0,.6,0,.9-.2,2.1-.5,4.1-.5,6.3-.8,1-.1,2.1-.3,3.1-.3,3.1-.2,6.7,1.5,9.3,1.2,2.6-.3,1.2-2.6,2.7-2.3s2.6,1.3,4.1,1.5c1.8.3,3.7-.5,5.5.2,1.2.4,3.5.8,4.2,2,.2.3.3.7.5,1,.3.4.7.6,1.1.8,0,0,.2,0,.2.1.1.6.2,1.3.4,1.9-.4-.3-.9-.6-1.3-.9-3.8-2.6-9-3.1-13.4-4.1-.3,0-.6-.1-.9,0-.4.1-.7.6-1,.9-.7.6-1.7.7-2.7.5-.9-.2-1.8-.6-2.7-.8-2.5-.4-5.1,1-7.6.7-1-.1-2.1-.5-3.1-.2-.5.2-.9.5-1.3.7-1.6.8-3.5,0-5.2,0-.2,0-.5,0-.7.1-.3.2-.3.6-.5.9-.4.7-1.2.9-1.9,1-3.1.4-6.4-1-9.4,0-1.6.6-3.3,1.8-4.9,1.1-.4-.2-.8-.5-1.3-.6-1.5-.4-2.5,1.6-3.9,2.3-2,1-4.4-.7-6.6-.1-1.5.4-2.7,2-4.2,1.7-2.8-.5-5.3-.5-7.9.7-2.7,1.2-5.3,3-8.4,3.1-2.6,0-5.6-1.2-7.6.5-.4.3-.6.7-1.1.9-.5.3-1.2.3-1.8.3-1.7,0-3.3-.1-5-.2-.8,0-1.6,0-2.3.2-1.2.5-1.9,1.9-3.1,2.4-.6.3-1.4.3-2.1.3-2.7,0-5.4.2-8.1.3-.7,0-1.4,0-2.1.2-.6.2-1.1.4-1.6.7-1.4.7-2.9,1.6-4.5,1.6-1.9,0-3.6-1.5-5.4-1.2-1.4.2-2.5,1.3-3.9,1.7-1.7.4-3.5-.5-5.3-.2-2,.3-3.8,1.1-5.9,1.2-3.1.2-7.8-.2-10.4,1.5-.7.5-1.4,1.1-2.2,1.4-1.5.5-3.1-.4-4.6-.6-2.2-.3-4.5.8-6.7.6-1.9-.2-3.6-1.2-5.5-1.3-1.9,0-3.3,1.4-5.4,1.2-1.2,0-2.4-.5-3.6-.2-.6.2-1.1.5-1.8.7-.9.2-1.8,0-2.7,0-1.8-.2-3.6-.2-5.4-.2-1.1,0-2.3,0-3.4,0-2.2,0-4.4,0-6.6.1-2.7,0-5.3-.1-8-.6-1.3-.3-2.4-.7-3.8-.5h0Z"/>
          <g>
            <path class="cls-7" d="M247.8,11.7c.6.4,1,1.1,1.7,1.1.4,0,.8-.2,1.1-.4,3-1.7,6.9-.2,10.1,0,2.4.2,4.8.5,7.1,1.3,1,.3,1.9.8,2.7,1.3,0,.2,0,.5.1.8-1.4-1.2-3.4-1.9-5.3-2.1-2.3-.3-4.7-.3-7-.9-1.1-.3-2.2-.8-3.4-.8-1.2,0-2.4.6-3.6,1.1-1.2.4-2.6.7-3.6,0-.4-.3-.8-.7-1.3-.8-1.3-.3-2.3,1.3-3.5,1-.5-.1-.9-.5-1.5-.6-.7-.1-1.5-.1-2.1.2-.4.1-.8.4-1.2.5-1.1.4-2.4-.2-3.5.3-.4.1-.6.4-1,.6-1.3.6-2.8-.1-4.2-.3-1.3-.2-2.7.1-3.8.9-1.1.7-2,1.9-3.3,1.8-2.2-.2-4.4-.6-6.6-.9-.6,0-1.3-.1-1.7.3-.1.1-.2.2-.3.3-.5.4-1.5,0-2.1,0-.7,0-1.4.2-1.9.7s-.4.6-.7.8c-.4.2-.8.3-1.2.4-1.4.3-2.6,1.5-4,1.3-.8-.1-1.4-.6-2.1-.9s-1.7-.2-2,.4c-.2.3-.2.7-.5.9-.3.3-.9.2-1.3,0-2.2-.6-4.5-.4-6.6.2-3,.8-6.1,3.2-9.3,2.5-1.7-.4-2.9-.5-4.5.4-.5.3-1.1.8-1.7.9-.7.2-1.4-.1-1.9.5-.1.1-.2.3-.3.4-1,1.1-4,.3-5.4.3-1.9,0-3.9.1-5.8.3-.3,0-.7.2-.8.5,0,.2.2.4.3.7.1.5-.6.8-1.1.8-1,0-2-.4-3-.5s-2.2.2-2.7,1.1c-.1.2-.2.4-.4.6-.3.3-.7.2-1.1,0s-.7-.4-1-.5c-.4-.2-.9-.2-1.3-.2-1.8,0-3.8,0-5.2,1.1.3.6-.1,1.3-.8,1.5s-1.3,0-1.9-.3c-1.5-.6-4.1-2.8-5.8-1.5-.2.2-.4.4-.7.5-.3.1-.7,0-1,0-.7.2-.9,1.1-1.6,1.4-1.1.6-2.2-.9-3.5-1-1.8-.3-3.1,2-4.8,1.9-.8,0-1.4-.5-2.1-.7s-1.7,0-1.9.7c-.2.5,0,1.3-.4,1.5-.4.2-.8-.2-1.1-.4-.7-.5-1.7-.4-2.6-.4s-1.8.1-2.7.2c-.7,0-1.5.2-2,.7-.4.4-.6,1-1,1.4-.4.3-.9.3-1.4.2-1.1,0-2.2,0-3.2-.2-.8-.1-1.6-.5-2.4-.5-.6,0-1.2.3-1.8.5-2.3.6-3.8-.9-6-1.2-.4,0-.8,0-1.2,0-.4.1-.7.4-.8.8,0,.2,0,.5-.2.6,0,0-.2,0-.3,0-1,0-1.8-.5-2.7-.5-1.1,0-2.1-.1-3.1-.4-.1,0-.3,0-.4,0-.2.1-.2.4-.1.6s.2.4,0,.6c-.1.3-.6.3-.9.2-.4-.2-.8-.4-1.2-.6-1.7-.6-2.2,1.8-3.8,1.9-.4,0-.9-.1-1.3-.3-1.4-.5-3-.9-4.5-1-1.2-.1-2.3.3-3.5.4-1.4.2-2.7,0-4.1-.3-1.2-.2-2.4-.2-3.6-.2,0,0-.2,0-.2,0-.3.2,0,.7-.2,1-.1.2-.4.2-.7.2-1.9-.3-3.7-.8-5.6-1-.6,0-1.2,0-1.8-.1-1.1-.2-2-.9-3.1-1.2-.8-.3-1.8-.3-2.7-.1-1.2.3-2.4,1-3.5.5-.7-.3-1.1-.9-1.8-1.1-.6-.2-1.3-.2-1.8-.5-1-.5-1.6-2-2.8-2,.2.3.2.7-.1.9s-.8,0-.9-.3c0-.2,0-.4-.2-.6-.2-.3-.6-.4-.9-.3s-.6.3-1,.4c-1.2.5-2-.3-3.1-.4-1.3,0-2.6.4-3.9.1-1.6-.3-3-1.5-4.6-1.5-.8,0-1.6.2-2.3.2-1.8,0-2.9-1-4.2-1.9-.3-.2-.6-.4-.9-.3,0,1.1-1.4,0-1.7,0-.8-.3-1.9-.3-2.7-.1-.8.1-1.5.4-2.3.4-.8,0-1.5-.6-1.9-1.3-.2-.3-.3-.6-.5-.9s-.7-.4-1.1-.5c-1.4-.6-2.5-2-4-2.1-.7,0-1.4.2-2,0-.3-.1-.5-.3-.8-.4-.3-.1-.7,0-.8.2,0,.1,0,.2-.2.4-.2.2-.5.2-.7,0C.1,22.4.2,21.8,0,21.4c0-.1-.2-.3-.3-.4-.1-.1-.3-.2-.4-.4-.5-.4-1-.8-1.4-1.2.7.4,1.2.9,1.9,1.2,2,1.1,4.4,1,6.5,1.9,3.1,1.3,4.4,4.1,8.1,4.1,1.8,0,3.7-.3,5.3.4,1.1.4,2.1,1.3,3.3,1.5.9.1,1.9-.1,2.9,0,.7,0,1.4.4,2.1.6,4,1.4,7.8.5,11.9.7,2.9.2,4.9,3.3,7.8,3.6,1,0,2.1-.2,3.1-.3,3.6-.5,6.5,1.9,10,1.9,1.5,0,3-.6,4.5-.8,2.2-.3,4.5,0,6.7.2,2.2.2,4.9-.2,7,.5.9.3,1.9.9,2.8.6.9-.2,1.4-1.1,2.2-1.5,1-.5,2.2,0,3.3-.3.5-.1,1-.4,1.5-.5,1.4-.3,2.2,1,4,.5,1.4-.4,2.6-1.4,4.1-1.6.8,0,1.7,0,2.5.2,3.2.6,6.4.9,9.6.9.9,0,1.8,0,2.6-.4.8-.3,1.4-.8,2.1-1.2,1.9-1.1,3.5-.5,5.5-.8,1.8-.2,3.1-1.3,5.1-.9,1.3.2,2.9.4,3.8-.5.2-.2.4-.5.7-.7.4-.2.8-.3,1.3-.3,1.4,0,2.9.3,4.2.2,1.5-.1,2.8-1.2,4.4-1.4,1.9-.2,3.6.8,5.5.8,1.4,0,2.7-.5,4-.8,1.6-.3,3.2,0,4.8,0,1.9,0,2.9-1,4.6-1.3.9-.2,1.9-.4,2.4-1.1.1-.2.2-.4.4-.6.4-.4.9-.4,1.4-.4s1,.3,1.5.4c1.8.3,4.9-.5,6.7-1,1.1-.3,2-1,3.2-.9.8,0,1.6.4,2.4.2.6-.1,1.1-.5,1.6-.8,1.7-.9,4.7-.9,6.6-.8,2.3.1,4.3-1.3,6.3-2.1,2.1-.8,3.9-.4,6.1-.7,1.2-.1,2.1-.9,3.3-1,.9,0,1.7.5,2.5.7.9.2,4.5-.7,5.6-1.3,1.1-.6,2.4-1.1,3.7-1.4,2.6-.6,5.4-.8,8.1-.3,1.1.2,2.2.4,3.3.1,1.3-.4,2.3-1.5,3.5-2.1,2.2-.9,4.7.1,7-.2,1.8-.3,3.4-1.4,5.2-1.4,1,0,2,.4,3,.4,2.1,0,4.4-1.7,6.2-.5h0Z"/>
            <path class="cls-7" d="M-8.7,19.5c-.2,0-.4,0-.6-.1-.3-.1-.6-.2-.9-.5-.3-.2-.4-.5-.7-.7-1-.9-2.2-1.4-3.5-1.8-.6-.2-1.2-.2-1.7-.4-.7-.2-1.4-.4-2.1,0-.2.1-.4.2-.7.2-.2,0-.4-.2-.5-.4-.2-.2-.5-.3-.8-.4.2-.4.4-.8.5-1.2.2,0,.3.1.5.1,4.5,1.3,8.5,4.2,13.2,4.5.2,0,.5,0,.7,0,0,.1,0,.2.1.3.1.2.2.4.2.6-.3.1-.5-.3-.7-.5-.2-.2-.5-.4-.8-.3,0,0-.1,0-.2,0,0,0-.1.1-.1.2,0,.2.2.5,0,.7,0,.1-.2.1-.3.1-.6,0-.9-.9-1.4-.9,0,.2-.3.3-.5.3h0Z"/>
          </g>
        </g>
        <g>
          <path class="cls-15" d="M219.4,11.5c-4.3,3.2-5.6,8.5-9.4,12.1-3.2,3-7.4,4.6-11.7,5.2-8.6,1.2-18-1-25.8-4.8-2.5-1.2-4.9-2.6-7.7-3.1-5.4-1-8.1,1.7-11.2,4.6,1.3.2,2.7.2,4,.2.6-.3,1.2-.6,1.8-.9,6.2-2.6,10.4.5,15.6,3.5,3.6,2.1,7.8,3.1,12,3.7,6.1.8,12.4.9,18.1-1.3,6.6-2.7,8.9-9.2,13.5-14.1,1.3-1.4,3.3-2.7,5.3-3.3.6-1.3,1.3-2.5,2.2-3.6-2.3-.2-4.5.2-6.8,1.8h0Z"/>
          <path class="cls-15" d="M95.6,50.1c.6-1,1.3-1.9,1.9-2.8-2.2.2-4.5.2-6.8,0-5.9-.4-11.6-2.3-17-4.7-3.8-1.6-7-3.8-10.5-6-2.1-1.3-4.1-2.6-6.2-3.8-6.4-3.7-15.8-9.7-23.2-5-5.7,3.7-5.3,11.6-5.4,17.5,0,4.6.2,9.3.8,13.8.3,2.1.7,4.3,2,6,1.3,1.6,3.5,2.4,5.6,2s3.8-1.9,4.4-3.9c.6-2,0-4.3-1.6-5.7-.6-.5-1.5-.7-2.3-.6-.4,0-.9.3-1.1.7-.3.5-.1,1.1,0,1.7,1-.2,1.8-.6,2.4.5.9,1.5,0,3.2-1.4,4-2.3,1.4-4.1-.5-4.8-2.6-1.2-3.4-1.1-7.8-1.3-11.4-.2-3.8-.2-7.7.4-11.6.8-4.8,3.2-9.4,8.5-9.8,3.2-.2,6.2,1.5,9,3,10.9,6.2,23.2,15.7,36,17.8,3.5.5,7,.8,10.5.7h0Z"/>
          <path class="cls-15" d="M261.1,25.3c-.3-4.8-.6-10.8-5-13.7s-4.8-2.1-7.3-2c.2.6.5,1.1.6,1.6,0,.2.1.3.2.5.4,0,.8-.1,1.2,0,1.6.3,3.9,1.5,4.9,2.8,1.7,2.3,3.4,4.5,3.4,7.4,0,3.2.3,6.4.2,9.6,0,5.6-.6,11.2-2.5,16.5-.7,2.1-2.3,3.3-4.6,2.3-1.9-.8-2.3-3-1.6-4.8-1.3-.4-2.6.9-2.7,2.2-.3,3.5,4.1,6.6,7.3,5.3,3.5-1.4,5.2-7.1,5.4-10.5.4-5.7.7-11.4.4-17.2h0Z"/>
          <path class="cls-18" d="M95.6,50.1c.4-.6.8-1.1,1.1-1.7-16.5.8-27.4-6.2-31-8.7-3.9-2.7-8.2-5-12.2-7.5-4.2-2.6-8-4.9-13.2-4.7-1.4,0-3,.5-4.3,1.1-1.8.7-2.6,2-3.6,3.6-.8,1.4-1.3,2.9-1.8,4.5-1,3.9-1,8.3-.9,11.9.2,5,2,10.6,1.4,15.8,0,.2,0,.4.1.7,0,0,0,.1,0,.2,1.3,1.6,3.5,2.4,5.5,2,2-.4,3.8-1.9,4.4-3.9.5-1.6.1-3.4-.8-4.8.4,1.7.2,3.8-.7,5.2-1.6,2.6-5.2,2.4-6.8,0-.7-1-1-2.6-.9-4.1-.7-3.1-.7-6.7-.8-9.8-.2-3.8-.2-7.7.4-11.6.8-4.8,3.2-9.4,8.5-9.8,3.2-.2,6.2,1.5,9,3,10.9,6.2,23.2,15.7,36,17.8,3.5.5,7,.8,10.5.7h0Z"/>
          <path class="cls-18" d="M222.9,11.9c-2.9.7-4.6,2.6-6.3,4.7-4.4,8.2-12.2,14.3-21.6,14.3-5.7,0-11.1-.5-16.4-2.3-3.3-1.1-7-3.2-10.1-4.9-2.7-1.5-5.4-2-7.2-1.5-2.4.6-4.2,2-6,3.5.8,0,1.5,0,2.3,0,.6-.3,1.2-.6,1.8-.9,6.2-2.6,10.4.5,15.6,3.5,3.6,2.1,7.8,3.1,12,3.7,6.1.8,12.4.9,18.1-1.3,6.6-2.7,8.9-9.2,13.5-14.1,1.3-1.4,3.3-2.7,5.3-3.3.3-.5.5-1.1.8-1.6-.6,0-1.2,0-1.9.2h0Z"/>
          <path class="cls-18" d="M261.1,25.3c-.2-3.9-.5-8.5-2.9-11.7-.6-.1-1.3-.3-2-.6-1.2-.5-2.2-1.5-3.5-1.9-1.1-.4-2.3-.5-3.6-.4,0,.2.1.4.2.6,0,.2.1.3.2.5.4,0,.8-.1,1.2,0,1.6.3,3.9,1.5,4.9,2.8.6.9,1.3,1.7,1.8,2.6,2,1.7,2.4,4.8,2.5,7.6.3,6.6.6,15.4-1.1,21.9-1,3.8-4.1,6.9-8.8,4-1.1-.7-1.8-1.7-2.1-2.9,0,0,0,0,0,0-.3,3.5,4.1,6.6,7.3,5.3,3.5-1.4,5.2-7.1,5.4-10.5.4-5.7.7-11.4.4-17.2h0Z"/>
        </g>
        <g>
          <path class="cls-1" d="M230.6,11.3c3.1,2.3,4.1,9.4,5.1,12.9.4,1.4.7,2.9.2,4.3-2.2-.8-4.2-1.9-6-3.3-.5-.4-1.1,1.8-1.2,2.4-.4,2.2-.8,4.5-1.2,6.7-3.5-1.2-6.5-3.8-8.3-7-1.8-3.2-2.3-7.2-1.5-10.8-3.1.2-6.2-.2-9.1-1,0-.9.8-1.5,1.5-2,4.7-3,15.5-5.9,20.5-2.2,0,0,0,0,0,0h0Z"/>
          <path class="cls-5" d="M218.6,26.1c2.9-2.3,5.4-5.2,7-7.4.3,1.9,1,3.8,1.9,5.6,2.2-1.6,4.6-2.8,7-4.2,0,0,.2-.1.3-.2-.8-3.3-2-7-4-8.5,0,0,0,0,0,0-5-3.7-15.8-.8-20.5,2.2-.7.5-1.5,1.1-1.5,2,3,.8,6.1,1.1,9.1,1-.7,3.2-.4,6.6.9,9.6h0Z"/>
          <path class="cls-4" d="M224.2,15.3c-.2.2-.3.5-.1.7.2.2.4.1.6,0,.9-.3,1.8-.7,2.7-1,.2,1.9-1,4.9-1.4,6.9.7-1.4,3.3-6.2,4.9-10.2-.1-.1-.2-.2-.4-.3,0,0,0,0,0,0-2.4-1.8-6.2-2-10-1.4,1.8.4,3.5.7,5.3,1.1.4,0,1,.3.9.7,0,.2-.1.3-.2.5l-2.4,3.1h0Z"/>
        </g>
        <g>
          <path class="cls-8" d="M173,21c.5-.2.9-.4,1.4-.7.4-.2.8-.5,1.2-.4.7,0,1,.9,1.4,1.4.7.9,2,2,3.1,1.2.9-.6,2-1.8,3.1-1,1.8,1.1,2.7,3.3,3.6,5.1,1.3,2.5,2.5,5,3.5,7.6-.2-.6-1.6-.5-2.1-.5-1.2,0-2.4,0-3.7,0-.5,0-1.1,0-1.6,0-.3,0-.6,0-.9,0-.2,0-.4.2-.5.4-.3.3-.5.7-.8,1.1-.6,1-1.2,2-1.9,3-.5.8-.9,1.7-1.5,2.4-.5.7-1.4.9-2.1,1.3-.9.4-1.7.8-2.6,1.2-1.1.5-2.2,1.1-3.4,1.7-.1,0-1.7.8-1.6,1-.6-2-1-4-1.2-6.1-.1-1-.2-2-.2-3,0-.5,0-1,0-1.5,0-.5,0-1.1-.1-1.6-.2-.7-.8-1-1.3-1.4-.6-.3-1.3-.7-1.8-1.1-.7-.5-1.3-1.1-1.9-1.7-.5-.5-1.2-1.2-.3-1.7,4-2.3,8-4.6,12.2-6.6h0Z"/>
          <path class="cls-21" d="M176.7,30.6c-.7.9-1.5,1.8-2.3,2.6-.4.4-.9.8-1.3,1.3-.7.9-1.2,2-1.7,3-.5,1.1-1,2.2-1.2,3.4,0-.5,1.8-1.4,2.2-1.8.9-1,2-1.6,3.1-2.3.4-.3.9-.6,1.3-.9,2.3-2,2.8-5.8,3.1-8.7,0-.3,0-.7-.1-.9-.9,1.4-1.9,2.9-3,4.3h0Z"/>
          <g class="cls-24">
            <path class="cls-6" d="M176,19.9c.2.1.4.3.5.5-.2-.1-.3-.3-.5-.5Z"/>
            <path class="cls-20" d="M180.2,22.4c.9-.6,2-1.8,3.1-1,1.7,1.1,2.9,3.8,3.8,5.5,1.3,2.3,2.4,4.7,3.3,7.2-.2-.5-1.9-.5-3.7-.5-.7-1.4-1.5-2.7-2.4-3.9-.4.4-.6,1.1-.5,1.6-1.5-3.2-3.2-6.3-5.5-9,.6.3,1.3.5,1.9,0h0Z"/>
          </g>
          <path class="cls-23" d="M180.1,25.8c-.7,1.5-1.7,2.9-2.7,4.2-.8,1-1.6,2-2.4,2.9-.1,0-.3.2-.5.3-.2-1.6-.4-3.2-.6-4.8-.1-1.2-.3-2.5-1-3.5-.7-1.1-1.9-1.7-3.1-2.2,1.1-.6,2.1-1.1,3.2-1.6.6-.3,1.2-.6,1.9-.9.2-.1.5-.2.8-.2.5,0,.8.6,1.1,1,.7,1.1,2.2,2.4,3.4,1.5.5-.4,1.2-1,1.9-1.2-.2,1.5-1.3,3.3-1.9,4.6h0Z"/>
          <path class="cls-14" d="M178.4,26.7c-.3.4-.7.7-1.1,1,0-1.1.2-2.2.8-3.1.1-.2.3-.5,0-.6,0,0-.2,0-.3,0-.8,0-1.4-.8-1.4-1.6,0-.4.2-.8.3-1.2h0c0,0,.1.1.1.2.7.9,2,2,3.1,1.2.6-.4,1.2-1,1.9-1.2-.6,1.2-1.2,2.4-1.9,3.4-.5.7-1.1,1.5-1.8,2.1h0Z"/>
          <g>
            <path class="cls-12" d="M169.4,44.7c-.1,0-1.7.8-1.6,1-.6-2-1-4-1.2-6.1-.1-1-.2-2-.2-3,0-.5,0-1,0-1.5v-.7c.6,1.2,1.2,2.7,1.4,4,.2,1.6.1,3.3.8,4.8.5-.2,1-.5,1.6-.8.2-.1.5-.2.7-.3,1.1-.3,1.8-.1,2.7-.7,1-.7,2.1-1.1,3-1.8,1-.7,1.9-1.6,2.9-2.4-.2.3-.3.6-.5.8-.5.8-.9,1.7-1.5,2.4-.5.7-1.4.9-2.1,1.3-.9.4-1.7.8-2.6,1.2-1.1.5-2.2,1.1-3.4,1.7h0Z"/>
            <path class="cls-12" d="M160.9,27.6c.2-.1.4-.2.6-.4.7,1.8,2.1,3.3,3.3,4.8-.6-.3-1.1-.6-1.7-1-.7-.5-1.3-1.1-1.9-1.7-.5-.5-1.2-1.2-.3-1.7h0Z"/>
          </g>
        </g>
        <g>
          <path class="cls-17" d="M122.5,38.2c-.5-.2-1.1-.5-1.6-.7-.4-.2-1-.5-1.4-.4-.8,0-1.1,1.1-1.5,1.7-.7,1.1-2.2,2.4-3.5,1.6-1-.7-2.4-1.9-3.7-1-2,1.4-2.8,4-3.8,6.2-1.3,3-2.6,6-3.5,9.1.2-.7,1.8-.7,2.4-.7,1.4-.1,2.8-.2,4.2-.2.6,0,1.2,0,1.9,0,.3,0,.7-.2,1.1-.2.3,0,.5.2.6.4.4.4.7.8,1,1.2.8,1.1,1.6,2.2,2.4,3.3.6.9,1.2,1.8,1.9,2.6.6.7,1.6,1,2.5,1.3,1,.4,2,.8,3,1.2,1.3.6,2.7,1.1,4,1.7.2,0,2,.8,1.9,1.1.5-2.3.8-4.7.9-7.1,0-1.2,0-2.3,0-3.5,0-.6,0-1.2,0-1.8,0-.6-.1-1.3,0-1.9.2-.8.8-1.3,1.4-1.7.7-.5,1.4-.9,2-1.4.8-.6,1.4-1.4,2.1-2.1.5-.6,1.3-1.5.3-2-4.8-2.4-9.6-4.7-14.5-6.8h0Z"/>
          <path class="cls-19" d="M119,49.6c.9,1,1.8,2,2.9,2.8.6.5,1.1.9,1.6,1.4.9,1,1.6,2.2,2.2,3.3.7,1.2,1.4,2.5,1.6,3.9-.1-.5-2.2-1.5-2.6-1.9-1.1-1-2.4-1.7-3.8-2.5-.5-.3-1.1-.6-1.5-.9-2.8-2.1-3.7-6.5-4.2-9.8,0-.4-.1-.8,0-1.1,1.2,1.6,2.4,3.2,3.7,4.7h0Z"/>
          <g class="cls-24">
            <path class="cls-6" d="M119.1,37.2c-.2.1-.4.3-.5.6.2-.2.4-.4.5-.6Z"/>
            <path class="cls-9" d="M114.5,40.3c-1-.7-2.4-1.9-3.7-1-1.9,1.4-3.1,4.6-4,6.7-1.3,2.8-2.4,5.7-3.3,8.6.2-.6,2.2-.8,4.3-.8.7-1.6,1.6-3.2,2.5-4.7.5.5.8,1.2.7,1.9,1.5-3.8,3.3-7.5,5.7-10.7-.7.4-1.4.6-2.1.1h0Z"/>
          </g>
          <path class="cls-23" d="M114.7,44.2c.9,1.7,2.2,3.2,3.4,4.7,1,1.1,1.9,2.2,3,3.2.2,0,.4.2.6.3.1-1.9.2-3.7.3-5.6,0-1.4.2-2.9.9-4.1.8-1.3,2-2,3.4-2.8-1.3-.6-2.5-1.1-3.8-1.7-.7-.3-1.5-.6-2.2-.9-.3-.1-.6-.2-.9-.2-.6.1-.9.7-1.1,1.2-.8,1.3-2.3,2.9-3.8,2-.6-.4-1.4-1-2.3-1.2.3,1.7,1.7,3.7,2.5,5.1h0Z"/>
          <path class="cls-14" d="M116.7,45.2c.4.4.8.7,1.3,1.1,0-1.2-.4-2.5-1.2-3.5-.2-.2-.4-.5-.1-.8.1,0,.2,0,.4-.1.9-.1,1.6-1,1.5-2,0-.5-.3-.9-.4-1.4h0c0,0-.1.1-.2.2-.7,1.1-2.2,2.4-3.5,1.6-.7-.4-1.5-1.1-2.3-1.2.7,1.4,1.6,2.7,2.5,3.8.7.8,1.4,1.6,2.2,2.3h0Z"/>
          <g>
            <path class="cls-10" d="M128.4,65.3c.2,0,2,.8,1.9,1.1.5-2.3.8-4.7.9-7.1,0-1.2,0-2.3,0-3.5,0-.6,0-1.2,0-1.8,0-.3,0-.6,0-.9-.7,1.5-1.2,3.2-1.3,4.8,0,1.9,0,3.8-.6,5.7-.6-.3-1.2-.5-1.9-.8-.3-.1-.6-.2-.9-.3-1.2-.3-2,0-3.1-.7-1.2-.7-2.5-1.2-3.6-1.8-1.2-.7-2.3-1.8-3.5-2.6.2.3.4.6.6.9.6.9,1.2,1.8,1.9,2.6.6.7,1.6,1,2.5,1.3,1,.4,2,.8,3,1.2,1.3.6,2.7,1.1,4,1.7h0Z"/>
            <path class="cls-10" d="M137.1,44.9c-.3-.1-.5-.2-.8-.4-.6,2.2-2.1,3.9-3.4,5.8.6-.4,1.3-.8,1.9-1.3.8-.6,1.4-1.4,2.1-2.1.5-.6,1.3-1.5.3-2h0Z"/>
          </g>
        </g>
        <g>
          <path class="cls-17" d="M237.5.5c-.6,0-1.1,0-1.7,0-.4,0-1-.1-1.4,0-.7.3-.6,1.3-.8,2-.3,1.2-1.2,2.8-2.7,2.5-1.1-.3-2.8-.9-3.6.2-1.3,1.9-1.3,4.5-1.5,6.7-.3,3.1-.5,6.1-.4,9.2,0-.7,1.5-1.2,1.9-1.4,1.2-.5,2.5-1,3.8-1.5.5-.2,1.1-.4,1.6-.6.3-.1.6-.4.9-.5.2,0,.5,0,.7.2.4.2.8.5,1.2.8,1.1.7,2.1,1.5,3.1,2.3.8.6,1.6,1.3,2.5,1.8.8.5,1.8.4,2.6.4,1,0,2.1.1,3.1.2,1.4.1,2.8.2,4.1.4.2,0,2,.1,2,.4-.2-2.3-.7-4.5-1.3-6.7-.3-1.1-.6-2.1-1-3.2-.2-.5-.4-1-.6-1.6-.2-.6-.5-1.1-.6-1.7,0-.7.3-1.4.8-1.9.5-.6,1-1.2,1.4-1.9.5-.8.9-1.7,1.2-2.5.3-.7.7-1.7-.4-1.9-5.1-.7-10.1-1.3-15.1-1.7h0Z"/>
          <path class="cls-19" d="M237.8,11.9c1.1.6,2.3,1.2,3.5,1.7.6.2,1.3.5,1.9.8,1.1.6,2.1,1.5,3,2.3,1,.9,2,1.8,2.6,3-.3-.4-2.5-.7-3-.9-1.4-.6-2.7-.8-4.1-1.1-.6-.1-1.1-.2-1.7-.4-3.2-1.1-5.3-4.8-6.8-7.6-.2-.3-.3-.7-.3-1,1.6,1,3.1,2.1,4.8,3.1h0Z"/>
          <g class="cls-24">
            <path class="cls-6" d="M234.1.7c-.1.2-.2.4-.3.7.1-.2.2-.4.3-.7Z"/>
            <path class="cls-9" d="M230.9,4.9c-1.1-.3-2.8-.9-3.6.2-1.3,1.8-1.4,5.1-1.6,7.2-.3,2.9-.4,5.8-.3,8.7,0-.6,1.7-1.3,3.6-2,.1-1.7.5-3.3.8-5,.6.3,1,.8,1.2,1.5.2-3.8.7-7.7,1.9-11.4-.5.6-1.1,1-1.9.8h0Z"/>
          </g>
          <path class="cls-23" d="M232.3,8.3c1.4,1.2,2.9,2.2,4.5,3.1,1.2.7,2.4,1.4,3.7,1.9.2,0,.4,0,.6,0-.5-1.7-.9-3.4-1.4-5.2-.4-1.3-.7-2.7-.4-4,.3-1.4,1.2-2.5,2.2-3.5-1.3-.1-2.6-.2-3.9-.3-.8,0-1.5,0-2.3-.1-.3,0-.6,0-.9.1-.5.3-.5.9-.6,1.5-.3,1.4-1.2,3.4-2.8,3-.7-.2-1.6-.5-2.4-.4.8,1.4,2.7,2.8,3.8,3.8h0Z"/>
          <path class="cls-14" d="M234.4,8.6c.5.2,1,.4,1.5.6-.4-1.1-1.1-2.1-2.1-2.8-.2-.1-.5-.4-.4-.6,0-.1.2-.2.3-.2.8-.4,1.1-1.4.7-2.2-.2-.4-.6-.7-.8-1.1,0,0,0,0,0,0,0,0,0,.2,0,.3-.3,1.2-1.2,2.8-2.7,2.5-.7-.2-1.7-.5-2.5-.4,1.1,1,2.3,1.9,3.4,2.6.9.5,1.7,1,2.7,1.4h0Z"/>
          <g>
            <path class="cls-10" d="M251,23.1c.2,0,2,.1,2,.4-.2-2.3-.7-4.5-1.3-6.7-.3-1.1-.6-2.1-1-3.2-.2-.5-.4-1-.6-1.6-.1-.2-.2-.5-.3-.8-.1,1.5-.2,3.2.3,4.7.5,1.7,1.2,3.4,1.2,5.3-.6,0-1.3,0-1.9-.1-.3,0-.6,0-.9,0-1.2.1-1.8.6-3,.4-1.3-.2-2.6-.3-3.8-.5-1.3-.3-2.6-.9-3.9-1.3.3.2.6.4.9.6.8.6,1.6,1.3,2.5,1.8.8.5,1.8.4,2.6.4,1,0,2.1.1,3.1.2,1.4.1,2.8.2,4.1.4h0Z"/>
            <path class="cls-10" d="M252.6,2.2c-.3,0-.5,0-.8-.1,0,2.1-.7,4.2-1.3,6.2.5-.6.9-1.1,1.3-1.7.5-.8.9-1.7,1.2-2.5.3-.7.7-1.7-.4-1.9h0Z"/>
          </g>
        </g>
        <g>
          <g>
            <path class="cls-1" d="M312.4,25.6c4.2,0,9.8,5.4,12.9,7.8,1.2,1,2.5,2.1,3,3.5-2.4.8-4.9,1.2-7.4,1.1-.7,0,.2,2.3.5,2.9,1.1,2.2,2.3,4.4,3.4,6.6-3.8,1.2-8.1,1-11.8-.6-3.7-1.6-6.7-4.7-8.4-8.3-2.5,2.2-5.5,3.9-8.5,5.2-.6-.8-.3-1.8,0-2.8,2.1-5.7,9.5-15.3,16.3-15.5h.1Z"/>
            <path class="cls-5" d="M311.7,46.3c1-3.8,1.2-8.1,1.1-11,1.6,1.5,3.4,2.7,5.3,3.6.8-2.8,2.2-5.5,3.3-8.2,0-.1,0-.2.1-.3-2.9-2.3-6.3-4.7-9.1-4.7h-.1c-6.7.1-14.2,9.8-16.3,15.4-.3.9-.6,2,0,2.8,3.1-1.3,6-3,8.5-5.2,1.5,3.2,4,6,7.1,7.7h0Z"/>
            <path class="cls-4" d="M309.4,33.3c0,.3,0,.7.4.7.2,0,.4-.2.6-.4.6-.9,1.1-1.8,1.7-2.7,1.4,1.5,2.3,4.9,3.4,6.8-.3-1.7-1.2-7.5-2.5-12.1-.2,0-.4,0-.5,0h-.1c-3.2,0-6.7,2.4-9.6,5.3,1.8-.9,3.5-1.7,5.3-2.5.4-.2,1-.4,1.3,0,.1.2.1.4.1.6,0,1.4,0,2.8,0,4.3h0Z"/>
          </g>
          <g>
            <g>
              <path class="cls-11" d="M297.1,24.1c2.8,2.7,3.2,9.9,3.7,13.6.2,1.5.4,3-.2,4.4-2.1-1-4.1-2.4-5.8-4-.5-.5-1.3,1.7-1.5,2.3-.6,2.2-1.3,4.5-2,6.7-3.4-1.6-6.2-4.5-7.6-8-1.5-3.5-1.6-7.5-.3-11.1-3.1-.2-6.2-.8-9.2-2,.1-.9,1-1.5,1.8-1.9,5-2.5,16.4-4.3,21,0,0,0,0,0,0,0h0Z"/>
              <path class="cls-5" d="M283.3,37.7c3.2-2,6-4.7,7.9-6.8.1,2,.6,4,1.3,5.8,2.4-1.4,5-2.3,7.5-3.5.1,0,.2,0,.3-.1-.5-3.4-1.3-7.3-3.2-9.1,0,0,0,0,0,0-4.6-4.2-16-2.5-21,0-.8.4-1.7,1-1.8,1.9,2.9,1.1,6,1.8,9.2,2-1.1,3.1-1.1,6.6-.1,9.8h0Z"/>
              <path class="cls-4" d="M290.2,27.4c-.2.2-.4.5-.2.7.1.2.4.1.7,0,1-.2,1.9-.5,2.9-.7,0,2-1.6,4.9-2.1,6.8.9-1.3,4-5.9,6.1-9.8-.1-.1-.2-.2-.3-.4,0,0,0,0,0,0-2.2-2.1-6-2.7-10-2.5,1.8.6,3.5,1.1,5.2,1.7.4.1,1,.4.9.9,0,.2-.2.3-.3.5-.9,1-1.8,2-2.7,2.9Z"/>
            </g>
            <g>
              <path class="cls-8" d="M281,7.9c-.8-.4-1.9-.3-2.8-.2-5.3.8-9.8,3-14.7,5,1.5,1.7,3.7,2.5,5.3,4.1,1.5,1.6.5,2.1-1,3.9-.7.9-1.2,1.9-1.6,3-.8,1.9-1.4,3.7-2,5.7,6.3.5,11.9-2.3,18.1-2.2,4.5,0,6,3,9.9,4.7.8-.6,1-1.6.9-2.5-.2-2.3-1-4.5-1.3-6.8-.3-2.5,1.1-4.9.8-7.2-.2-1.4-1.6-2.4-3-2.6-2.3-.4-4,1.2-5.7-.7-1.1-1.2-1.2-3.2-2.8-4h0Z"/>
              <path class="cls-20" d="M288.1,25.3c.1,0,.1-.2.2-.3.6-2.8-.1-5.6.4-8.4.1-.9.4-1.7,1-2.3.5-.5,1.4-.6,2.2-.6-.6-.6-1.4-1.1-2.3-1.2-2.3-.4-4,1.2-5.7-.7-.9-1-1.1-2.4-2-3.3-.9.3-1.9.6-2.8.9-4.2,1.3-8.1,3.6-11.8,5.8,0,0-.1,0-.2.1.6.4,1.2.9,1.7,1.4.7.7.9,1.2.7,1.7,1,0,3.5.3,3.6.1-1.4,1.8-2.9,3.5-4.3,5.3-.6.8-1.3,1.6-1.3,2.6,2-1.6,4-3.3,6-4.9,1.8-1.4,3.6-2.6,5.5-3.9.4-.3.8-.5,1.2-.7,1.9-.9,2.7,2.7,3.2,3.8,1,1.9,2.5,3.5,4.4,4.5,0,0,.2.1.3,0h0Z"/>
              <path class="cls-23" d="M283.8,11.9c-.8-.9-1-2.1-1.7-3-.4.7-.8,1.5-1.5,1.9-.5.3-1.1.6-1.6.9-.1,0-.2.2-.2.3,0,.2.3.2.5.2,0,0,.1,0,.2.1,0,.1,0,.3,0,.4,0,.2-.2.4-.3.5-.5.6-1.1,1.3-1.6,1.9.3.1.6.2,1,.3-.3,1.1-1.4,1.6-2.1,2.4-.4.4-.7.8-1.1,1.3-.2.4-.4.7-.6,1.1,3.2-1.8,6.3-3.8,9-6.3.5-.4.9-.9,1.4-1.4-.4-.1-.8-.4-1.2-.8h0Z"/>
              <path class="cls-12" d="M266.3,27.9c-1-.1.7-4.8,1.8-7.5,0,.1-.2.2-.3.3-.7.9-1.2,1.9-1.6,3-.8,1.9-1.4,3.7-2,5.7,2.5.2,4.9-.1,7.2-.5-1.7-.3-3.4-.6-5.2-.9Z"/>
              <path class="cls-12" d="M293,29.2c-.2-2.3-1-4.5-1.3-6.8-.2-1.7.3-3.2.6-4.8-.6,1.5-1.1,3-1,4.6.1,1.2.4,2.4.5,3.5,0,.7.3,4.1-.5,4.5-.6.4-2.7-1.7-3.3-2.1-1.2-.8-2.5-1.5-3.8-2.1-1.8-.7-2.1-.2-3.7.6-.3.2-.7.3-1,.5.9,0,1.7-.1,2.6-.1,4.5,0,6,3,9.9,4.7.8-.6,1-1.6.9-2.5Z"/>
              <path class="cls-12" d="M269.4,17.5c.2-.3.1-.6,0-.9-.2-.3-.4-.5-.7-.7-1-.9-2.1-1.7-3.1-2.6,1.3-1,2.6-2.1,3.9-3.1-2,.8-3.9,1.6-6,2.5,1.5,1.7,3.7,2.5,5.3,4.1.3.3.5.5.6.8h0Z"/>
              <path class="cls-14" d="M278.6,17.7c2.4-1.5,4.8-3.2,7.1-4.9-.6,0-1.2-.3-1.9-1-.7-.7-1-1.7-1.4-2.6-.2.3-.2.7-.4,1-.1.3-.3.5-.5.8-.2.4-.5.7-.8,1.1.2.1.4.2.6.2,0,.2-.3,1.6-.6,1.4.2.2.6.3.9.2,0,0-1.2,1.8-1.5,2-.6.6-1.1,1.1-1.6,1.7Z"/>
            </g>
            <g>
              <path class="cls-17" d="M307.2,10.1c-.5-.3-1-.5-1.5-.8-.4-.2-.9-.5-1.4-.5-.8,0-1.1,1-1.6,1.5-.8,1-2.3,2.1-3.5,1.2-.9-.7-2.2-2-3.4-1.3-2,1.2-3.1,3.6-4.2,5.6-1.5,2.7-3,5.5-4.1,8.4.2-.6,1.8-.5,2.3-.5,1.4,0,2.7.1,4.1.2.6,0,1.2,0,1.8,0,.3,0,.7,0,1,0,.2,0,.4.3.6.5.3.4.6.8.8,1.2.7,1.1,1.3,2.3,2,3.4.5.9,1,1.9,1.6,2.7.5.7,1.5,1.1,2.3,1.5.9.5,1.9,1,2.8,1.5,1.2.7,2.5,1.3,3.7,2,.2,0,1.8,1,1.7,1.2.7-2.2,1.2-4.4,1.5-6.7.2-1.1.3-2.2.4-3.4,0-.6,0-1.1.1-1.7,0-.6,0-1.2.2-1.8.2-.7.9-1.1,1.5-1.5.7-.4,1.4-.7,2.1-1.2.8-.5,1.5-1.2,2.2-1.8.5-.5,1.4-1.3.4-1.9-4.4-2.7-8.8-5.4-13.3-7.8h0Z"/>
              <path class="cls-19" d="M302.8,20.8c.8,1.1,1.6,2.1,2.5,3,.5.5,1,1,1.4,1.5.8,1,1.3,2.2,1.8,3.4.5,1.2,1.1,2.5,1.2,3.9,0-.5-2-1.7-2.4-2-1-1.1-2.2-1.8-3.4-2.7-.5-.3-1-.6-1.4-1-2.5-2.3-2.9-6.6-3.2-9.8,0-.4,0-.8.2-1,1,1.6,2,3.3,3.2,4.9h0Z"/>
              <g class="cls-24">
                <path class="cls-6" d="M304,8.9c-.2.1-.4.3-.6.5.2-.2.4-.3.6-.5Z"/>
                <path class="cls-9" d="M299.3,11.5c-.9-.7-2.2-2-3.4-1.3-2,1.1-3.3,4.1-4.4,6-1.5,2.5-2.8,5.2-3.9,7.9.2-.5,2.1-.5,4.2-.4.8-1.5,1.8-2.9,2.8-4.3.4.5.6,1.2.5,1.9,1.8-3.5,3.8-6.9,6.4-9.8-.7.4-1.4.5-2.1,0h0Z"/>
              </g>
              <path class="cls-23" d="M299.2,15.2c.7,1.7,1.8,3.3,2.9,4.8.8,1.1,1.7,2.3,2.6,3.3.2.1.3.2.5.3.3-1.8.5-3.6.8-5.4.2-1.4.4-2.8,1.2-3.9.8-1.2,2.1-1.8,3.5-2.4-1.1-.6-2.3-1.3-3.5-1.9-.7-.4-1.4-.7-2.1-1.1-.3-.1-.6-.3-.9-.2-.6,0-.9.6-1.2,1.1-.8,1.2-2.5,2.6-3.8,1.6-.6-.4-1.3-1.1-2.1-1.4.2,1.6,1.3,3.7,2,5.1h0Z"/>
              <path class="cls-14" d="M301,16.3c.4.4.8.8,1.2,1.1,0-1.2-.2-2.4-.8-3.4-.1-.2-.3-.6,0-.7.1,0,.2,0,.4,0,.9,0,1.6-.9,1.6-1.7,0-.5-.2-.9-.3-1.4h0c0,0-.1.1-.2.2-.8,1-2.3,2.1-3.5,1.2-.6-.5-1.3-1.2-2.1-1.4.6,1.4,1.3,2.7,2,3.8.6.8,1.2,1.7,1.9,2.4h0Z"/>
              <g>
                <path class="cls-10" d="M310.5,36.7c.2,0,1.8,1,1.7,1.2.7-2.2,1.2-4.4,1.5-6.7.2-1.1.3-2.2.4-3.4,0-.6,0-1.1.1-1.7,0-.3,0-.5,0-.8-.8,1.4-1.5,2.9-1.7,4.4-.2,1.8-.3,3.7-1.1,5.4-.6-.3-1.1-.6-1.7-.9-.2-.1-.5-.3-.8-.3-1.2-.4-2-.2-2.9-.9-1.1-.8-2.2-1.3-3.3-2.1-1.1-.8-2.1-1.9-3.1-2.8.2.3.4.6.5,1,.5.9,1,1.9,1.6,2.7.5.7,1.5,1.1,2.3,1.5.9.5,1.9,1,2.8,1.5,1.2.7,2.5,1.3,3.7,2h0Z"/>
                <path class="cls-10" d="M320.6,17.9c-.2-.1-.5-.3-.7-.4-.8,2-2.4,3.6-3.8,5.2.7-.3,1.3-.6,1.9-1.1.8-.5,1.5-1.2,2.2-1.8.5-.5,1.4-1.3.4-1.9Z"/>
              </g>
            </g>
          </g>
        </g>
        <g>
          <path class="cls-8" d="M36,17.7c-.9-.2-1.9.2-2.7.6-4.9,2.3-8.5,5.7-12.7,9,1.9,1.2,4.3,1.3,6.2,2.4,1.9,1.1,1.1,1.9.1,4.1-.5,1-.6,2.2-.7,3.3-.2,2-.3,4-.3,6,6.2-1.3,10.7-5.6,16.7-7.3,4.3-1.2,6.6,1.2,10.8,1.7.6-.8.5-1.8.2-2.7-.8-2.1-2.2-4.1-3.2-6.1-1-2.3-.4-5-1.3-7.2-.6-1.3-2.2-1.9-3.6-1.7-2.3.3-3.4,2.3-5.7,1-1.4-.9-2-2.7-3.8-3h0Z"/>
          <path class="cls-20" d="M47.8,32.4c0,0,0-.2,0-.3-.2-2.9-1.7-5.3-2.1-8.1,0-.9,0-1.8.3-2.5.4-.7,1.1-1,1.9-1.2-.7-.5-1.7-.6-2.6-.5-2.3.3-3.4,2.3-5.7,1-1.1-.7-1.7-2-2.8-2.6-.8.5-1.6,1.1-2.4,1.6-3.6,2.4-6.7,5.7-9.6,9,0,0-.1.1-.2.2.7.2,1.4.5,2.1.8.9.5,1.2.9,1.2,1.4,1-.2,3.4-.7,3.5-.9l-2.6,6.3c-.4.9-.8,2-.5,2.9,1.4-2.1,2.9-4.3,4.3-6.4,1.3-1.9,2.7-3.6,4.2-5.3.3-.4.6-.7.9-1,1.6-1.4,3.3,1.8,4.2,2.7,1.5,1.5,3.4,2.6,5.4,3,0,0,.2,0,.3,0h0Z"/>
          <path class="cls-23" d="M39.8,20.7c-1-.6-1.6-1.7-2.5-2.4-.2.8-.3,1.6-.9,2.3-.4.5-.9.9-1.3,1.3,0,0-.2.2-.1.3,0,.2.3,0,.5.1,0,0,.1,0,.2.1,0,0,.2.2.2.4,0,.2,0,.4-.2.6-.3.8-.7,1.5-1,2.3.3,0,.7,0,1,0,0,1.2-.8,1.9-1.3,2.9-.2.4-.4,1-.7,1.6,0,.4-.2.8-.3,1.2,2.6-2.7,4.9-5.4,6.8-8.6.3-.5.6-1.1.9-1.7-.4,0-.9-.1-1.4-.5h0Z"/>
          <path class="cls-12" d="M27.6,41.1c-1,.1-.7-4.8-.5-7.7,0,.1-.1.2-.2.4-.5,1-.6,2.2-.7,3.3-.2,2-.3,4-.3,6,2.5-.5,4.7-1.5,6.8-2.6-1.7.2-3.5.4-5.2.7h0Z"/>
          <path class="cls-12" d="M53.6,34.7c-.8-2.1-2.2-4.1-3.2-6.1-.7-1.5-.6-3.2-.8-4.8-.2,1.6-.2,3.2.4,4.7.5,1.1,1.1,2.1,1.5,3.2.3.7,1.4,3.8.9,4.5-.5.5-3.1-.9-3.7-1.1-1.4-.4-2.8-.8-4.2-.9-1.9-.1-2.1.4-3.4,1.7-.3.3-.6.5-.8.8.8-.3,1.6-.6,2.4-.9,4.3-1.2,6.6,1.2,10.8,1.7.6-.8.5-1.8.2-2.7Z"/>
          <path class="cls-12" d="M27.6,30.2c0-.3,0-.6-.3-.8-.2-.2-.6-.4-.9-.5-1.2-.5-2.5-1-3.7-1.5,1-1.4,1.9-2.8,2.9-4.1-1.7,1.3-3.3,2.7-5,4.1,1.9,1.2,4.3,1.3,6.2,2.4.4.2.6.4.8.6Z"/>
          <path class="cls-14" d="M36.5,27.8c1.9-2.2,3.7-4.4,5.4-6.7-.6.1-1.3.1-2.1-.4-.8-.5-1.4-1.4-2.1-2,0,.4,0,.7,0,1.1,0,.3-.1.6-.2.9-.1.4-.3.8-.4,1.3.2,0,.4,0,.6,0,0,.1.1,1.6-.2,1.5.3.1.6.1.9,0,0,0-.7,2.1-.8,2.3-.4.7-.7,1.4-1,2.1h0Z"/>
        </g>
        <g>
          <path class="cls-17" d="M61.7,12.4c-.6-.1-1.1-.2-1.7-.3-.4,0-1-.3-1.4-.1-.7.2-.8,1.3-1.1,1.9-.5,1.1-1.6,2.7-3,2.2-1.1-.4-2.7-1.3-3.7-.2-1.6,1.7-1.9,4.4-2.4,6.5-.7,3.1-1.3,6.1-1.6,9.2,0-.7,1.6-1,2.1-1.1,1.3-.4,2.6-.7,3.9-1,.6-.1,1.2-.3,1.7-.4.3,0,.7-.3,1-.4.2,0,.5.1.7.3.4.3.8.6,1.2.9,1,.9,1.9,1.8,2.9,2.7.7.7,1.5,1.5,2.3,2.1.7.5,1.7.6,2.6.8,1,.2,2.1.4,3.1.6,1.4.3,2.7.5,4.1.9.2,0,2,.4,2,.7,0-2.3-.1-4.6-.5-6.9-.2-1.1-.4-2.2-.6-3.3-.1-.5-.2-1.1-.4-1.6-.1-.6-.4-1.2-.4-1.8,0-.8.5-1.4,1-1.9.6-.6,1.2-1.1,1.7-1.7.6-.8,1.1-1.5,1.6-2.4.4-.7.9-1.6-.1-1.9-5-1.3-10-2.6-15-3.6h0Z"/>
          <path class="cls-19" d="M60.6,23.8c1,.8,2.1,1.5,3.2,2.1.6.3,1.2.6,1.8,1,1.1.8,1.9,1.7,2.7,2.7.9,1,1.8,2.1,2.3,3.3-.2-.5-2.4-1-2.8-1.3-1.3-.8-2.6-1.1-4-1.6-.6-.2-1.1-.4-1.6-.6-3-1.5-4.7-5.5-5.8-8.5-.1-.3-.2-.7-.1-1,1.4,1.2,2.9,2.6,4.4,3.7h0Z"/>
          <g class="cls-24">
            <path class="cls-6" d="M58.3,12.1c-.2.2-.3.4-.4.6.1-.2.3-.4.4-.6Z"/>
            <path class="cls-9" d="M54.5,15.9c-1.1-.4-2.7-1.3-3.7-.2-1.6,1.7-2,4.9-2.5,7-.7,2.9-1.2,5.8-1.4,8.7,0-.6,1.9-1.1,3.9-1.6.3-1.7.9-3.3,1.4-4.9.6.4.9,1,1,1.6.7-3.8,1.7-7.7,3.3-11.2-.5.5-1.2.8-2,.5h0Z"/>
          </g>
          <path class="cls-23" d="M55.5,19.6c1.2,1.4,2.7,2.6,4.1,3.7,1.1.9,2.2,1.7,3.5,2.4.2,0,.4.1.6.2-.2-1.8-.5-3.6-.8-5.4-.2-1.4-.4-2.8,0-4.1.5-1.4,1.5-2.3,2.7-3.2-1.3-.3-2.6-.6-3.9-.8-.8-.1-1.5-.3-2.3-.4-.3,0-.6-.1-.9,0-.5.2-.7.9-.8,1.4-.5,1.4-1.6,3.2-3.2,2.6-.7-.3-1.6-.7-2.4-.7.6,1.5,2.3,3.1,3.4,4.3h0Z"/>
          <path class="cls-14" d="M57.6,20.1c.5.3.9.5,1.4.8-.3-1.2-.9-2.2-1.8-3-.2-.2-.4-.5-.3-.7,0-.1.2-.1.3-.2.8-.3,1.3-1.3,1-2.1-.2-.4-.5-.8-.7-1.2,0,0,0,0,0,0,0,.1,0,.2,0,.3-.5,1.1-1.6,2.7-3,2.2-.7-.3-1.6-.7-2.4-.7.9,1.2,2,2.2,3,3.1.8.6,1.6,1.3,2.5,1.8h0Z"/>
          <g>
            <path class="cls-10" d="M72.4,36.8c.2,0,2,.4,2,.7,0-2.3-.1-4.6-.5-6.9-.2-1.1-.4-2.2-.6-3.3-.1-.5-.2-1.1-.4-1.6,0-.3-.1-.5-.2-.8-.3,1.5-.6,3.2-.3,4.7.3,1.8.8,3.6.5,5.5-.6-.1-1.3-.2-1.9-.4-.3,0-.6-.1-.9-.1-1.2,0-1.9.4-3.1,0-1.2-.4-2.5-.6-3.8-1-1.3-.5-2.5-1.2-3.8-1.8.3.2.5.5.8.8.7.7,1.5,1.5,2.3,2.1.7.5,1.7.6,2.6.8,1,.2,2.1.4,3.1.6,1.4.3,2.7.5,4.1.9h0Z"/>
            <path class="cls-10" d="M76.7,16c-.3,0-.5-.1-.8-.2-.2,2.1-1.3,4.1-2.1,6.1.5-.5,1.1-1,1.5-1.6.6-.8,1.1-1.5,1.6-2.4.4-.7.9-1.6-.1-1.9h0Z"/>
          </g>
        </g>
      </g>
      <g>
        <g>
          <path class="cls-1" d="M12.4,25.6c4.2,0,9.8,5.4,12.9,7.8,1.2,1,2.5,2.1,3,3.5-2.4.8-4.9,1.2-7.4,1.1-.7,0,.2,2.3.5,2.9,1.1,2.2,2.3,4.4,3.4,6.6-3.8,1.2-8.1,1-11.8-.6-3.7-1.6-6.7-4.7-8.4-8.3-2.5,2.2-5.5,3.9-8.5,5.2-.6-.8-.3-1.8,0-2.8,2.1-5.7,9.5-15.3,16.3-15.5h.1Z"/>
          <path class="cls-5" d="M11.7,46.3c1-3.8,1.2-8.1,1.2-11,1.6,1.5,3.4,2.7,5.3,3.6.8-2.8,2.2-5.5,3.3-8.2,0-.1,0-.2.1-.3-2.9-2.3-6.3-4.7-9.1-4.7h0c-6.7.1-14.2,9.8-16.3,15.4-.3.9-.6,2,0,2.8,3.1-1.3,6-3,8.5-5.2,1.5,3.2,4,6,7.1,7.7Z"/>
          <path class="cls-4" d="M9.4,33.3c0,.3,0,.7.4.7.2,0,.4-.2.6-.4.6-.9,1.1-1.8,1.7-2.7,1.4,1.5,2.3,4.9,3.4,6.8-.3-1.7-1.2-7.5-2.5-12.1-.2,0-.3,0-.5,0h0c-3.2,0-6.7,2.4-9.6,5.3,1.8-.9,3.5-1.7,5.3-2.5.4-.2,1-.4,1.3,0,.1.2.1.4.1.6,0,1.4,0,2.8,0,4.3h0Z"/>
        </g>
        <g>
          <g>
            <path class="cls-11" d="M-2.9,24.1C0,26.8.3,34.1.9,37.7c.2,1.5.4,3-.2,4.4-2.1-1-4.1-2.4-5.8-4-.5-.5-1.3,1.7-1.5,2.3-.7,2.2-1.3,4.5-2,6.7-3.4-1.6-6.2-4.5-7.6-8-1.5-3.5-1.6-7.5-.3-11.1-3.1-.2-6.2-.8-9.2-2,0-.9,1-1.5,1.8-1.9,5-2.5,16.4-4.3,21,0,0,0,0,0,0,0h0Z"/>
            <path class="cls-5" d="M-16.7,37.7c3.2-2,6-4.7,7.9-6.8.1,2,.6,4,1.3,5.8,2.4-1.4,5-2.3,7.5-3.5,0,0,.2,0,.3-.1-.5-3.4-1.3-7.3-3.2-9.1,0,0,0,0,0,0-4.6-4.2-16-2.5-21,0-.8.4-1.7,1-1.8,1.9,2.9,1.1,6,1.8,9.2,2-1.1,3.1-1.1,6.6-.1,9.8h0Z"/>
            <path class="cls-4" d="M-9.8,27.4c-.2.2-.4.5-.2.7.1.2.4.1.7,0,1-.2,1.9-.5,2.9-.7,0,2-1.6,4.9-2.1,6.8.8-1.3,4-5.9,6.1-9.8-.1-.1-.2-.2-.3-.4,0,0,0,0,0,0-2.2-2.1-6-2.7-10-2.5,1.8.6,3.5,1.1,5.2,1.7.4.1,1,.4.9.9,0,.2-.2.3-.3.5-.9,1-1.8,2-2.7,2.9Z"/>
          </g>
          <g>
            <path class="cls-8" d="M-19,7.9c-.8-.4-1.8-.3-2.8-.2-5.3.8-9.8,3-14.7,5,1.5,1.7,3.7,2.5,5.3,4.1,1.5,1.6.5,2.1-1,3.9-.7.9-1.2,1.9-1.6,3-.8,1.9-1.4,3.7-2,5.7,6.3.5,11.8-2.3,18.1-2.2,4.5,0,6,3,9.8,4.7.8-.6,1-1.6.9-2.5-.2-2.3-1-4.5-1.3-6.8-.3-2.5,1.1-4.9.8-7.2-.2-1.4-1.6-2.4-3-2.6-2.3-.4-4,1.2-5.7-.7-1.1-1.2-1.2-3.2-2.8-4h0Z"/>
            <path class="cls-20" d="M-11.9,25.3c0,0,.1-.2.2-.3.7-2.8-.1-5.6.4-8.4.2-.9.4-1.7,1-2.3.5-.5,1.4-.6,2.2-.6-.6-.6-1.4-1.1-2.3-1.2-2.3-.4-4,1.2-5.7-.7-.9-1-1.1-2.4-2-3.3-.9.3-1.9.6-2.8.9-4.2,1.3-8.1,3.6-11.8,5.8,0,0-.1,0-.2.1.6.4,1.2.9,1.7,1.4.7.7.9,1.2.7,1.7,1,0,3.5.3,3.6.1-1.4,1.8-2.9,3.5-4.3,5.3-.6.8-1.3,1.6-1.3,2.6,2-1.6,4-3.3,6-4.9,1.8-1.4,3.7-2.6,5.5-3.9.4-.3.8-.5,1.2-.7,1.9-.9,2.7,2.7,3.2,3.8,1,1.9,2.5,3.5,4.3,4.5,0,0,.2.1.3,0h0Z"/>
            <path class="cls-23" d="M-16.2,11.9c-.8-.9-1-2.1-1.7-3-.4.7-.8,1.5-1.5,1.9-.5.3-1.1.6-1.6.9,0,0-.2.2-.2.3,0,.2.3.2.5.2,0,0,.1,0,.2.1,0,.1,0,.3,0,.4,0,.2-.2.4-.3.5-.5.6-1.1,1.3-1.6,1.9.3.1.6.2,1,.3-.3,1.1-1.4,1.6-2.1,2.4-.3.4-.7.8-1.1,1.3-.2.4-.4.7-.6,1.1,3.2-1.8,6.3-3.8,9-6.3.5-.4.9-.9,1.4-1.4-.4-.1-.8-.4-1.2-.8h0Z"/>
            <path class="cls-12" d="M-33.7,27.9c-1-.1.7-4.8,1.8-7.5,0,.1-.2.2-.3.3-.7.9-1.2,1.9-1.6,3-.8,1.9-1.4,3.7-2,5.7,2.5.2,4.9-.1,7.2-.5-1.7-.3-3.4-.6-5.2-.9Z"/>
            <path class="cls-12" d="M-7,29.2c-.2-2.3-1-4.5-1.3-6.8-.2-1.7.3-3.2.6-4.8-.7,1.5-1.1,3-1,4.6.1,1.2.4,2.4.5,3.5,0,.7.3,4.1-.5,4.5-.6.4-2.7-1.7-3.3-2.1-1.2-.8-2.5-1.5-3.8-2.1-1.8-.7-2.1-.2-3.7.6-.3.2-.7.3-1,.5.9,0,1.7-.1,2.6-.1,4.5,0,6,3,9.8,4.7.8-.6,1-1.6.9-2.5Z"/>
            <path class="cls-12" d="M-30.6,17.5c.2-.3.1-.6,0-.9-.2-.3-.4-.5-.7-.7-1-.9-2.1-1.7-3.1-2.6,1.3-1,2.6-2.1,3.9-3.1-2,.8-3.9,1.6-6,2.5,1.5,1.7,3.7,2.5,5.3,4.1.3.3.5.5.6.8h0Z"/>
            <path class="cls-14" d="M-21.4,17.7c2.4-1.5,4.8-3.2,7.1-4.9-.6,0-1.2-.3-1.9-1-.7-.7-1-1.7-1.4-2.6-.2.3-.2.7-.4,1-.1.3-.3.5-.5.8-.2.4-.5.7-.8,1.1.2.1.4.2.6.2,0,.2-.3,1.6-.6,1.4.2.2.6.3.9.2,0,0-1.2,1.8-1.5,2-.6.6-1.1,1.1-1.6,1.7Z"/>
          </g>
          <g>
            <path class="cls-17" d="M7.2,10.1c-.5-.3-1-.5-1.5-.8-.4-.2-.9-.5-1.3-.5-.8,0-1.2,1-1.6,1.5-.8,1-2.3,2.1-3.5,1.2-.9-.7-2.2-2-3.4-1.3-2,1.2-3.1,3.6-4.2,5.6-1.5,2.7-3,5.5-4.1,8.4.2-.6,1.8-.5,2.3-.5,1.4,0,2.7.1,4.1.2.6,0,1.2,0,1.8,0,.3,0,.7,0,1,0,.2,0,.4.3.6.5.3.4.6.8.8,1.2.7,1.1,1.3,2.3,2,3.4.5.9,1,1.9,1.6,2.7.5.7,1.5,1.1,2.3,1.5.9.5,1.9,1,2.8,1.5,1.2.7,2.5,1.3,3.7,2,.2,0,1.8,1,1.7,1.2.7-2.2,1.2-4.4,1.5-6.7.2-1.1.3-2.2.4-3.4,0-.6,0-1.1,0-1.7,0-.6,0-1.2.2-1.8.2-.7.9-1.1,1.5-1.5.7-.4,1.4-.7,2.1-1.2.8-.5,1.5-1.2,2.2-1.8.6-.5,1.4-1.3.4-1.9-4.4-2.7-8.8-5.4-13.3-7.8h0Z"/>
            <path class="cls-19" d="M2.8,20.8c.8,1.1,1.6,2.1,2.5,3,.5.5,1,1,1.4,1.5.8,1,1.3,2.2,1.8,3.4.5,1.2,1.1,2.5,1.2,3.9,0-.5-2-1.7-2.4-2-1-1.1-2.2-1.8-3.4-2.7-.5-.3-1-.6-1.4-1C.1,24.5-.3,20.2-.5,17c0-.4,0-.8.2-1,1,1.6,2,3.3,3.2,4.9h0Z"/>
            <g class="cls-24">
              <path class="cls-6" d="M4,8.9c-.2.1-.4.3-.6.5.2-.2.4-.3.6-.5Z"/>
              <path class="cls-9" d="M-.7,11.5c-.9-.7-2.2-2-3.4-1.3-2,1.1-3.3,4.1-4.4,6-1.5,2.5-2.8,5.2-3.9,7.9.2-.5,2.1-.5,4.2-.4.8-1.5,1.8-2.9,2.8-4.3.4.5.6,1.2.5,1.9,1.8-3.5,3.8-6.9,6.4-9.8-.7.4-1.4.5-2.1,0h0Z"/>
            </g>
            <path class="cls-23" d="M-.8,15.2c.7,1.7,1.8,3.3,2.9,4.8.8,1.1,1.7,2.3,2.6,3.3.2.1.3.2.5.3.3-1.8.5-3.6.8-5.4.2-1.4.4-2.8,1.2-3.9.8-1.2,2.1-1.8,3.5-2.4-1.2-.6-2.3-1.3-3.5-1.9-.7-.4-1.4-.7-2.1-1.1-.3-.1-.6-.3-.9-.2-.6,0-.9.6-1.2,1.1-.8,1.2-2.5,2.6-3.8,1.6-.6-.4-1.3-1.1-2.1-1.4.2,1.6,1.3,3.7,2,5.1Z"/>
            <path class="cls-14" d="M1,16.3c.4.4.8.8,1.2,1.1,0-1.2-.2-2.4-.8-3.4-.1-.2-.3-.6,0-.7,0,0,.2,0,.4,0,.9,0,1.6-.9,1.6-1.7,0-.5-.2-.9-.3-1.4h0c0,0-.1.1-.2.2-.8,1-2.3,2.1-3.5,1.2-.6-.5-1.3-1.2-2.1-1.4.6,1.4,1.3,2.7,2,3.8.6.8,1.2,1.7,1.9,2.4h0Z"/>
            <g>
              <path class="cls-10" d="M10.5,36.7c.2,0,1.8,1,1.7,1.2.7-2.2,1.2-4.4,1.5-6.7.2-1.1.3-2.2.4-3.4,0-.6,0-1.1,0-1.7,0-.3,0-.5,0-.8-.8,1.4-1.5,2.9-1.7,4.4-.2,1.8-.3,3.7-1.1,5.4-.6-.3-1.1-.6-1.7-.9-.2-.1-.5-.3-.8-.3-1.2-.4-1.9-.2-2.9-.9-1.1-.8-2.2-1.3-3.3-2.1-1.1-.8-2.1-1.9-3.1-2.8.2.3.3.6.5,1,.5.9,1,1.9,1.6,2.7.5.7,1.5,1.1,2.3,1.5.9.5,1.9,1,2.8,1.5,1.2.7,2.5,1.3,3.7,2h0Z"/>
              <path class="cls-10" d="M20.5,17.9c-.2-.1-.5-.3-.7-.4-.8,2-2.4,3.6-3.8,5.2.7-.3,1.3-.6,1.9-1.1.8-.5,1.5-1.2,2.2-1.8.6-.5,1.4-1.3.4-1.9Z"/>
            </g>
          </g>
        </g>
      </g>
    </g>
  </g>
</svg>