<svg version="1.2" xmlns="http://www.w3.org/2000/svg" viewBox="0 0 240 40" width="240" height="40">
	<title>New Project</title>
	<defs>
		<linearGradient id="g1" x2="1" gradientUnits="userSpaceOnUse" gradientTransform="matrix(-7.031,22.585,-2.838,-0.884,146.275,-43.714)">
			<stop offset="0" stop-color="#cf5c2b"/>
			<stop offset="1" stop-color="#59173e"/>
		</linearGradient>
		<linearGradient id="g2" x2="1" gradientUnits="userSpaceOnUse" gradientTransform="matrix(.912,72.509,-8.36,.105,121.862,-8.436)">
			<stop offset="0" stop-color="#cf5c2b"/>
			<stop offset="1" stop-color="#59173e"/>
		</linearGradient>
		<linearGradient id="g3" x2="1" gradientUnits="userSpaceOnUse" gradientTransform="matrix(0,94.029,-12.221,0,119.766,-5.212)">
			<stop offset="0" stop-color="#cf5c2b"/>
			<stop offset="1" stop-color="#59173e"/>
		</linearGradient>
		<linearGradient id="g4" x2="1" gradientUnits="userSpaceOnUse" gradientTransform="matrix(0,-73.92,6.879,0,119.594,85.674)">
			<stop offset="0" stop-color="#cf5c2b"/>
			<stop offset="1" stop-color="#59173e"/>
		</linearGradient>
		<linearGradient id="g5" x2="1" gradientUnits="userSpaceOnUse" gradientTransform="matrix(.228,-67.156,3.508,.012,120.065,56.263)">
			<stop offset="0" stop-color="#cf5c2b"/>
			<stop offset="1" stop-color="#59173e"/>
		</linearGradient>
		<linearGradient id="g6" x2="1" gradientUnits="userSpaceOnUse" gradientTransform="matrix(0,-72.156,4.131,0,118.578,53.356)">
			<stop offset="0" stop-color="#cf5c2b"/>
			<stop offset="1" stop-color="#59173e"/>
		</linearGradient>
	</defs>
	<style>
		.s0 { fill: url(#g1) } 
		.s1 { fill: url(#g2) } 
		.s2 { fill: #eb924d } 
		.s3 { fill: url(#g3) } 
		.s4 { fill: url(#g4) } 
		.s5 { fill: url(#g5) } 
		.s6 { fill: url(#g6) } 
	</style>
	<g id="&lt;Group&gt;">
		<path id="&lt;Path&gt;" class="s0" d="m236.6 11.9c-0.3-3.5-2.9-6.2-6.1-6.2-74.3-0.3-147.7-0.3-219.9 0q-1.2 0-2.4 0.6c-0.6 0.3-1.2 0.6-1.6 1.1q-0.7 0.8-1.2 1.6-0.6 1-1.1 2.1c-0.5 1.1-0.9 2.3-1 3.5-0.4 4.4-0.3 8.9 0.1 13.3 0.3 3.5 2.9 6.1 6.1 6.2 72 1 145.3 1 219.7 0 1.6-0.1 3.1-0.7 4.2-1.9 0.2-0.2 0.4-0.4 0.6-0.6 0.1-0.1 0.2-0.3 0.2-0.4q0.3-0.6 0.6-1.2 0.6-1.1 1.1-2.3c0.1-0.2 0.2-0.4 0.2-0.6q0.1-0.3 0.1-0.6 0.3-0.7 0.3-1.4c0.5-4.5 0.5-8.9 0.1-13.2z"/>
		<path id="&lt;Path&gt;" class="s1" d="m236.8 19.4c0 1.9-0.1 3.8-0.3 5.7q-0.1 1.1-0.5 2.1-0.3 0.8-0.7 1.4c-1.2 1.6-2.9 2.7-4.9 2.7q-1.3 0-2.6 0-3.3 0.1-6.6 0.1-3.3 0-6.6 0.1-3.3 0-6.6 0.1-2.7 0-5.5 0-0.5 0-1 0-3.3 0.1-6.6 0.1c-0.6 0-1.3 0-2 0-0.6 0-1.3-0.1-2-0.1-0.1 0-0.2 0-0.3-0.1-0.2-0.1-0.3-0.4-0.3-0.6q-0.1-0.6-0.1-1.2-0.1-1-0.1-2.1-0.1 1.6-0.6 3.1 0 0.1-0.1 0.2c-0.1 0.3-0.3 0.7-0.6 0.7-0.2 0-0.4-0.1-0.6-0.1-0.2 0-0.2 0.1-0.4 0.2-0.1 0-0.1 0.1-0.2 0.1-0.6 0.1-1.3 0-1.9 0q-2 0-3.9 0-3.3 0-6.6 0.1-2.7 0-5.5 0-0.5 0-1 0-1.7 0-3.3 0-1.6 0-3.2 0.1-3.3 0-6.6 0-3.2 0-6.5 0-1.4 0-2.9 0-1.8 0-3.6 0-3 0-6 0.1h-1.9q-1.4 0-2.8 0-0.7 0-1.6 0c-1.1 0-2.3 0-3.4 0-1.5-0.1-3.6 0.7-4.9-0.6q-0.2-0.2-0.3-0.4c-0.3-0.5-0.5-1.1-0.7-1.7q0 1.2 0 2.3 0 0.3-0.1 0.6-1.3-0.2-2.7-0.4-0.8 0-1.7-0.1-0.3 0-0.7 0 0 0 0 0c-0.6 0-1.1 0.1-1.6 0.4q-0.7-1.4-1.5-2.8 0 0 0 0-0.5-0.9-1-1.9 0.5 1.7 0.9 3.4 0.1 0.2 0.1 0.3 0 0.3-0.1 0.5c-0.2 0.2-0.6 0-0.9 0.1-0.2 0-0.3 0.1-0.4 0.2-0.4 0.2-0.8 0.1-1.2 0.1q-3.2 0-6.5 0-3.2 0-6.5-0.1-1.9 0-3.9 0h-0.2q-1.1 0-2.3 0-3.3 0-6.5 0-0.9 0-1.8 0-2.3 0-4.6 0-2.3 0-4.7-0.1-0.9 0-1.8 0-3.2 0-6.4 0-3.3 0-6.5-0.1-2.8 0-5.7 0-0.3 0-0.7 0-1.3 0-2.5 0-3.7-0.1-7.4-0.2c-0.2 0-2.7 0.2-2.4-0.4q0.1 0 0 0c0.1-0.2 0.3-0.3 0.4-0.4q0.4-0.6 0.8-1.2 0.1-0.2 0.2-0.4c0.4-0.7 0.7-1.3 1.2-1.9q0.2-0.3 0.4-0.5c0.1-0.1 0.2-0.1 0.3-0.2 0 0 0.2 0.1 0.2 0 0.1-0.1-0.5-0.4-0.6-0.5-0.4 0.5-0.7 1.1-1.1 1.6q-0.5 0.8-1 1.7c-0.4 0.5-0.8 1.1-1.3 1.6q0 0 0 0-0.4 0.4-0.8 0.5c-1.5 0.6-3.4 0.1-4.8 0-2.1 0-4.1 0-6.1 0h-0.6q-8.1-0.1-16.2-0.2c-3.2-0.1-5.8-2.7-6.1-6.2q-0.1-1.2-0.2-2.5c-0.1-0.9-0.5-2.3 0.1-3.1 0.1-0.1 0.1-0.2 0.2-0.3 0.1-0.1 0.3 0 0.5 0q1.6-0.2 3.2-0.3 0.1 0 0.2 0c0.1 0.1 0.2 0.3 0.2 0.5q0 0.3 0.1 0.5 0-0.8 0-1.6 0-0.7 0-1.3c-0.1 0.1-0.1 0.3-0.1 0.4-0.1 0.3-0.3 0.6-0.6 0.7q-0.2 0.1-0.4 0.1c-0.2 0-0.4 0.1-0.7 0.1q-0.8 0.1-1.5 0-0.3-0.1-0.5-0.1-0.3-0.1-0.6-0.3c-0.1-0.1-0.1-0.1-0.1-0.3q-0.1-0.3-0.1-0.6c-0.2-0.8 0-1.7 0-2.5 0.1-0.9 0.1-1.8 0.2-2.7 0.3-3.4 3-6.1 6.1-6.1q2.1 0 4.2 0 1.6 0 3.2 0h0.4q3.8 0 7.6 0 1.7-0.1 3.4-0.1 1 0 2 0 1.9 0 3.8 0 2.5 0 5 0 2.4 0 4.9 0 2.5 0 4.9 0 2.5 0 5 0 2.4 0 4.9-0.1h2q0.8 0 1.5 0h0.8q2.6 0 5.2 0 2.1 0 4.3 0h1.8q1.9 0 3.8 0 2.5 0 5 0 4.5 0 9.1 0h1q4.8 0 9.6 0h7.6q3.9 0 7.9 0 10.7 0 21.5 0 2.8 0 5.5 0 3.3 0 6.6 0 3.3 0 6.6 0h1.7q1 0 1.9 0h1.3q3.1 0 6.2 0 2.6 0 5.2 0 16 0.1 32.1 0.1 3.6 0.1 7.2 0.1 1.4 0 2.8 0 1.5 0 3.1 0 4.6 0 9.3 0c2.8 0 5.4 2.3 6 5.3 0.1 0.3 0.1 0.7 0.1 1-0.1 0.5-0.1 1-0.3 1.4q0 0 0 0c-0.4 0.7-0.9 1.1-1.5 1.5q-0.6 0.6-1.3 1.1c-0.5 0.4-1 0.8-1.2 1.4q-0.1 0.3-0.1 0.7c-0.1 0.4 0 0.7 0 1.1 0-0.5 0.1-1 0.4-1.4q0.2-0.2 0.5-0.5 1.4-1.2 2.8-2.4c0.2-0.2 0.4-0.3 0.6-0.3 0.5 0.1 0.3 4.3 0.3 4.8z"/>
		<path id="&lt;Path&gt;" class="s2" d="m9 16.7q0 0 0 0.1 0 0.2 0 0.4 0 0.1-0.1 0.2 0 0 0 0.1c-0.2 0.1-0.2 0.4-0.4 0.5q-0.1 0-0.3 0.1-0.4 0.1-0.8 0.2 0.4-0.2 0.8-0.4 0.1-0.1 0.2-0.3 0.1-0.1 0.1-0.2 0-0.1 0-0.2 0.1-0.5 0.1-0.9 0-0.1 0-0.2 0 0 0-0.1 0.1-0.5 0.2-1.1 0-0.2 0-0.5 0.1-0.3 0.1-0.5 0 1.4 0.1 2.8z"/>
		<path id="&lt;Path&gt;" class="s2" d="m236.8 19.4c0 1.9-0.1 3.8-0.3 5.7q-0.1 1.1-0.5 2.1-0.3 0.8-0.7 1.4 0.2-1.2 0.4-2.4c0.3-2.3 0.4-4.6 0.4-6.9 0-1.1 0-2.3 0-3.4 0-0.5-0.3-0.3-0.5-0.1-0.8 0.6-1.7 1.2-2.4 2q-0.4 0.5-0.7 1.2c-0.3 0.7-0.4 1.5-0.3 2.3q0 0.5-0.1 1 0 0.4-0.1 0.7-0.1 0.2-0.1 0.4c-0.1 0.1-0.1 0.2-0.1 0.3q-0.1-1.8-0.2-3.7c0-0.4 0-0.8 0.1-1.2 0.1-0.3 0.3-0.5 0.5-0.7-0.1 0.4 0 0.7 0 1.1 0-0.5 0.1-1 0.4-1.4q0.2-0.2 0.5-0.5 1.4-1.2 2.8-2.4c0.2-0.2 0.4-0.3 0.6-0.3 0.5 0.1 0.3 4.3 0.3 4.8z"/>
		<path id="&lt;Compound Path&gt;" class="s3" d="m38.4 31.5c-1.5 0.6-3.4 0.1-4.8 0-2.1 0-4.1 0-6.1 0q-0.1-0.1-0.1-0.3-0.1 0-0.1 0c-2-2.7-3.8-5.5-5.3-8.5-2.6-5.6-4.1-11.8-7.2-17q1.6 0 3.2 0 0.3 0.3 0.6 0.7-0.1-0.4-0.2-0.7 3.8 0 7.6 0 2.6 7.1 5.8 13.9c1.8 4 4.4 7.9 6.6 11.9zm3.6-13.3c-3.3-4.5-6.9-8.6-10.6-12.6q-1 0-2 0c4.2 4.5 8.1 9.3 11.9 14.5 2.6 3.7 5.3 7.8 8.2 11.7q1.2 0 2.5 0 0.4 0 0.7 0c-3.6-4.5-7.2-8.9-10.7-13.6zm37.4 0.9c-1.1-4.6-2.4-9.2-3.9-13.6h-1.8c1.2 4.8 2 9.6 2.8 14.6q-0.2-0.3-0.3-0.5c-2-4.4-4-9.7-6.8-14.1q-2.6 0-5.2 0c0.6 2.5 1.5 4.8 2.3 7.2 1.2 3.5 2.5 7 3.8 10.6 0.9 2.6 1.8 5.7 2.8 8.6q2.4 0.1 4.7 0.1 2.3 0 4.6 0c-0.6-4.4-2-8.8-3-12.9zm46.4-1.9c-1.6-3.7-3.2-7.7-5.6-10.8q-0.4-0.5-0.7-0.9-4.1 0-8.1 0c0.3 1.6 0.9 3.2 1.2 5.1 0.8 4.1 2.2 8.1 3.2 12.1 0.5 2.1 1.2 5.9 2.4 9.2q1.4 0.2 2.7 0.4 0.1-1.4 0.1-2.9c0.2 0.8 0.5 1.6 1 2.1 1.3 1.3 3.4 0.5 4.9 0.6 1.1 0 2.3 0 3.4 0-0.1-5.1-3.1-11.6-4.5-14.9zm20.4 8.1c0.1-6.2 1.3-13.4 0.3-19.8q-2.7 0-5.5 0c-2.1 5.2-2.8 11.5-3.4 16.9-0.3 2.1-1 6-1.1 9.7q3.1-0.1 6.1-0.1 1.8 0 3.6 0c0.1-2.7 0-5.3 0-6.7zm24.6-19.8c-1 3.2-1.7 6.6-2.5 9.6-1.4 5.8-2.7 11-2.9 16.8q1.6 0 3.3 0 0.5 0 1 0c1.6-4.7 2.4-9.4 3.5-14.4 0.8-3.8 2.1-7.9 2.8-12q-2.6 0-5.2 0zm47.3 0.2c-1.6 4.9-3.2 9.7-5 14.6q0.5-2.7 1-5.4c0.4-2.7 1.2-6.1 1.2-9.2q-3.6 0-7.2-0.1c-1.3 3.7-2 8.1-2.7 10.9-1.1 4.8-2.7 10-2.9 15.1q2.8 0 5.5 0 3.3-0.1 6.6-0.1c1.1-2.8 1.9-5.7 2.7-8.4 1.8-5.8 3-11.5 3.9-17.4q-1.6 0-3.1 0z"/>
		<path id="&lt;Path&gt;" class="s2" d="m159.2 25.8q0.4 0 0.8 0.1 0.4 0 0.8 0.1c0.2 0 0.4 0 0.6 0 2.2-0.1 4.4-0.1 6.6-0.1q3.3-0.1 6.6-0.1 3.3-0.1 6.6-0.1 3.3-0.1 6.6-0.1 3.3-0.1 6.6-0.1 3.3-0.1 6.6-0.2 3.3 0 6.6-0.1 3.3 0 6.6-0.1 1.4 0 2.9 0c3-0.1 6-0.1 9.1-0.3 1.3-0.1 2.6-0.3 3.8-0.9 1.1-0.7 2.4-2.2 2.2-3.7q0 2.1-0.1 4.1c0 0.7-0.1 1.6-0.6 2.1-0.5 0.4-1.2 0.4-1.8 0.3-5.6-0.5-11.3 0.7-17 0.6-3.2 0-6.5-0.4-9.8-0.4-6.7-0.2-13.2-0.3-19.9 0-5.8 0.3-11.7 0.5-17.5 0.2-0.8 0-1.7-0.1-2.5 0.1-0.4 0.2-0.9 0.4-1.4 0.5-0.6 0-1.1 0-1.7-0.1q-1.4-0.3-2.7-0.5c-0.4 0-0.9-0.2-1.4-0.2q-0.1 0-0.1 0.1c-0.3 0-0.7 0-1 0q-1.6 0.1-3.2 0.1-6.8 0.1-13.7 0.2c-5.7 0.1-11.4-1.1-17.1-0.2-4.8 0.8-9.6-0.3-14.4 0.2-0.8 0.1-1.6 0.2-2.4 0.2-0.9 0-1.8-0.1-2.7-0.3-3.5-0.4-7-0.1-10.5 0.2q0 0.5 0.1 1c-1.1-1.3-2.9-1.3-4.5-1.3q-2.2 0-4.4 0c-11 0-21.9-0.3-32.9-0.2-2.4 0-4.9 0.1-7.3 0.5 0.9-1 2.2-1.2 3.4-1.4 5.4-0.6 10.8 0.1 16.2 0.4 5 0.1 10-0.7 15-1.1 2.5-0.2 5-0.4 7.5-0.2 1.2 0 2.3 0.2 3.4 0.4 0.2 0 0.3 0 0.5-0.1 0.5 0 1 0.1 1.5 0.1q0.8 0.1 1.6 0.1 1.7 0.1 3.3 0.1 3.3 0.1 6.6 0.1 3.2 0 6.5-0.1 3.3 0 6.6 0.1 0.8 0 1.7 0c6.8 0.2 13.7 0.8 20.5-0.2 0.4-0.1 0.9-0.2 1.4-0.1 0.2 0 0.4 0 0.7 0q0.8 0 1.6 0 1.6-0.1 3.3-0.1 2.3 0.1 4.7 0.1 3.7 0.1 7.5 0.1 1.6 0 3.2 0.1 0.4 0.1 0.8 0.1z"/>
		<path id="&lt;Path&gt;" class="s2" d="m39.2 31q0 0 0 0-0.4 0.4-0.8 0.5c-1.5 0.6-3.4 0.1-4.8 0-2.1 0-4.1 0-6.1 0h-0.6q-8.1-0.1-16.2-0.2c-2.7-0.1-4.9-2-5.8-4.8-0.6-1.8-0.6-3.8-0.6-5.8 0-0.5 0-1.1 0.4-1.4 0.2-0.1 0.4-0.1 0.6-0.1q1.2-0.1 2.4-0.3c0.3 0 0.6 0 0.9 0.2 0.2 0.1 0.4 0.5 0.2 0.8q0.1-0.8 0.1-1.6 0.4-0.1 0.9-0.1-0.2 2.9-0.1 5.9c0 0.6 0.1 1.2 0.5 1.5 0.3 0.3 0.7 0.3 1.1 0.3q15.6 0.3 31.2 0.5-0.6 0.8-1.1 1.5c0.3-0.2 0.1-0.8-0.2-1-0.3-0.2-0.7-0.2-1-0.2q-14.4 0-28.7-0.3c-0.8 0-1.6 0-2.1-0.6-0.5-0.5-0.6-1.4-0.7-2.2q-0.1-1.7-0.2-3.3c0-0.2 0-0.5-0.2-0.7-0.1-0.1-0.3-0.2-0.4-0.2-0.9-0.2-1.9 0-2.7 0.5-0.2 0.1-0.3 0.2-0.4 0.3q0 0.2 0 0.4c-0.2 1.7-0.5 5 0.6 6.4 0.8 0.9 1.3 2.1 2.3 2.9 1.2 1 2.8 1 4.3 1.1q1.9 0.1 3.9 0.2c0.4 0 0.8 0.1 1.2 0 0.1 0 0.3 0 0.4 0 0.2 0 0.3 0 0.4-0.1 0.3-0.1 0.5-0.4 0.6-0.7 0.2-0.4 0.3-0.8 0.6-1.1-0.1 0.4-0.2 0.8-0.2 1.2q0 0.1 0 0.2 0.1 0.2 0.3 0.2c0.4 0 0.8 0 1.2 0q1.2 0.1 2.5 0.1 2.4 0.1 4.9 0.1c0.8 0.1 1.6 0.1 2.4 0 0.2 0 0.3 0 0.4 0 0.2 0 0.4 0 0.6 0q0.6 0 1.2 0c1.1 0.1 2.2 0.2 3.3 0.2q1 0 2 0.1c0.6 0 1-0.1 1.5-0.4z"/>
		<path id="&lt;Path&gt;" class="s4" d="m118.4 26.9c-36.4 0-72.6-0.2-107.7-0.8-0.7 0-1.4-0.7-1.5-1.5-0.4-4.4-0.4-8.4-0.1-12.2 0.1-0.9 0.8-1.5 1.5-1.5q16.2-0.1 32.3-0.2c10.7 0 21.5 0 32.2 0 1.8-0.1 3.6 0.3 5.2-0.4 1.4-0.7 2.6-1.9 3.8-2.9-0.6 0.7-1.2 1.4-1.7 2.1-0.1 0.2-0.2 0.3-0.3 0.4-0.2 0.4 0.1 0.5 0.4 0.5q1.7 0.1 3.5 0.2 0.8 0.1 1.5 0c0.2 0 0.5 0.1 0.7 0.1q0.4 0 0.8 0 1.6-0.1 3.3-0.1 0.6 0 1.2 0 3.3 0 6.6 0 3.3 0 6.6 0 3.3 0 6.6 0 2.8 0 5.6 0 8 0 16.1 0 4.1 0 8.2 0 1 0 2 0c0.3 0 0.5 0 0.8 0.1q0.2 0.1 0.5 0.1 0.8-0.1 1.5-0.2 0.4 0 0.8-0.2c0.4-0.1 0.8-0.4 1.2-0.7 0.3-0.3 0.5-0.6 0.9-0.8 0.4-0.2 0.7-0.4 1-0.7q0.7-0.6 1.4-1.1 0.5-0.5 1.1-1c-1.1 1.6-2.8 2.8-3.6 4.6 0-0.1 0.6-0.1 0.7-0.1q0.4-0.1 0.8-0.1 0.8 0 1.6 0.1c1.1 0.1 2.1 0 3.2 0.1q3.3 0 6.5 0 3.3 0 6.5 0 3.3 0 6.6 0 3.3 0 6.5 0 3.3 0 6.6 0 3.3 0 6.6 0 3.3 0.1 6.6 0.1 3.2 0 6.5 0 3.3 0 6.6 0 3.3 0 6.6 0.1 3.3 0 6.6 0 0.6 0 1.2 0c0.8 0 1.4 0.7 1.5 1.5 0.4 3.8 0.3 7.8-0.1 12.1-0.1 0.9-0.7 1.6-1.5 1.6-37.9 0.6-75.6 0.8-112 0.8z"/>
		<path id="&lt;Path&gt;" class="s5" d="m229.5 19.1c0.2 0.7 0.4 1.5 0.4 2.3 0 0.2-0.2 2.2-0.2 2.2q-1.8 0-3.5 0-5.4 0.1-10.7 0.1-1.3 0.1-2.5 0.1-4.7 0-9.4 0.1-1.9 0-3.7 0-0.3 0-0.6 0-0.9 0-1.8 0-5.4 0.1-10.8 0.1c-4.2 0.1-8.6 0.3-12.8 0-0.4 0-0.8-0.1-0.9-0.4-0.2-0.3-0.1-0.6 0-0.9q0.6-1.5 1.2-3.1-1.2 1.8-2.6 3.5c-0.4 0.4-0.8 0.8-1.2 1q-0.2 0.1-0.3 0.1-0.5 0.2-1 0c-0.5-0.1-1.1 0-1.7 0q-0.8 0-1.7 0-0.9 0-1.9 0-7.7 0.1-15.3 0.1-1.9 0-3.7 0-3.3 0-6.6 0-5.7 0-11.5 0-4.2 0-8.3 0h-7.8q-6.6 0-13.1 0h-1q-6.1 0-12.2 0-1.6 0-3.3-0.1-0.8 0.1-1.6 0c-0.3 0-0.7 0-1 0q-0.3 0-0.5 0.1c-0.9 0.2-1.8 0.2-2.7 0.2q-0.3 0-0.6 0-0.5 0-1.1 0c-0.1 0-1.5-0.1-1.5 0q0.7-1.4 1.6-2.8 0.6-0.8 1.2-1.5c-0.5 0.2-1 0.6-1.4 1-0.5 0.5-1 1-1.6 1.5-0.8 0.8-1.8 1.7-2.9 1.7-0.4 0-0.7-0.2-1-0.2q0-0.1-0.1-0.1c-0.3 0-0.6 0.1-0.9 0.1q-1.2 0-2.3 0c-0.1 0-0.3 0-0.5-0.2-0.1-0.1 0-0.4 0.1-0.6q0.7-1.7 1.6-3.3c-1.1 0.8-1.8 2-2.7 2.9-0.5 0.4-1 0.8-1.5 1-0.6 0.2-1.1 0.2-1.7 0.1-0.3 0-0.6 0-0.9 0q-2.6 0-5.2 0-3.7-0.1-7.3-0.1h-3.1q-1.5-0.1-3-0.1-2.5 0-5 0-4.1-0.1-8.2-0.1-1.8-0.1-3.6-0.1-2.2 0-4.4 0c-0.7 0-7.7 0-7.7-0.1-0.1-0.6-0.1-1.1-0.2-1.6-0.1-0.3-0.2-0.6-0.3-0.9-0.1-0.7 0.1-1.8 0.8-2.1 0.2-0.1 0.4-0.2 0.7-0.2q3-0.3 5.9-0.6 0.2 0 0.4 0-3-0.1-6-0.1c-0.4 0-0.9-0.1-1.3-0.3-0.2-0.1-0.3-0.2-0.3-0.5 0-0.3 0.1-3.8 0.2-3.8q3.8-0.1 7.6-0.1 5.2 0 10.4 0 2.4 0 4.8 0 2.2-0.1 4.4-0.1 13.1 0 26.3 0 2.5-0.1 5 0 2.5-0.1 5-0.1 1.2 0 2.5 0 7.9 0 15.8 0h0.5q9.6 0 19.3 0h9.2q4.2 0 8.4 0 1 0 2 0c0.5 0 1-0.1 1.4 0.1 0.4 0.2 0.8 0.4 1.2 0.4 0.2 0 1.7 0 1.7-0.3q-0.4 2.2-1 4.2c0.9-0.5 1.4-1.5 1.9-2.5 0.4-0.5 0.8-1.1 1.3-1.5q0-0.1 0.1-0.1c0.2-0.2 0.5-0.4 0.8-0.4 0.7 0 1.3 0.1 2 0.1 0.5 0 1 0.1 1.5 0.2 0.7 0 1.4 0 2 0.4q0 0 0 0-2.2 3.3-4.5 6.5c-0.2 0.3-0.5 0.6-0.6 1q2.6-2.5 5-5.4 0.5-0.8 1.1-1.5c0.2-0.3 0.4-0.6 0.7-0.7 0.2-0.2 0.5-0.2 0.8-0.2 3.7-0.3 7.5-0.3 11.3-0.3q4.7 0 9.5 0.1 1.7 0 3.5 0h0.3q6.4 0 12.8 0 6.5 0 13.1 0 1.2 0 2.4 0h1.4q2 0.1 4 0.1 2.7 0 5.3 0 0.9 0 1.8 0 0.6 0 1.2 0 2.2 0 4.2 0 3 0 6 0 2.5 0 5 0.1c0 0 0.1 2.2 0.1 2.4 0 0.1 0.1 0.2 0.1 0.4 0.1 0.3-0.1 0.7-0.4 0.9-0.3 0.2-0.7 0.3-1.1 0.3-3.7 0.5-7.5 0.9-11.2 0.8q-0.7-0.1-1.5-0.2 0.8 0.1 1.5 0.2 6.1 0.7 12.2 0.8z"/>
		<path id="&lt;Path&gt;" class="s2" d="m236.6 12c-0.1 0.5-0.1 1-0.3 1.4 0.5-2.5-0.9-5.4-3.1-6.2-0.8-0.2-1.6-0.3-2.4-0.3-4.9-0.3-9.8-0.6-14.8-0.7q0 0 0 0-3.3-0.2-6.6-0.2-3.3-0.1-6.6-0.1-3.3 0-6.6 0-3.3 0-6.6 0-3.3 0.1-6.5 0.1-3.3 0.1-6.6 0.2-3.3 0.1-6.6 0.2-1.7 0-3.3 0c-0.7 0.1-1.3 0.1-2-0.1q-0.1-0.1-0.3-0.1-0.4-0.2-0.9-0.3c-0.5 0-0.9 0-1.4 0q-2 0-4.1 0-8.1-0.1-16.3-0.2c-0.4 0-0.9 0-1.3 0q-0.2 0.1-0.3 0.1-0.4 0.2-0.7 0.4-1 0.4-1.9 0.8 0-0.3 0-0.6 0-0.1 0-0.2-0.1 0-0.1 0-0.6-0.1-1.2-0.1c-0.1 0-0.3 0-0.5-0.1-0.1 0-0.2-0.1-0.3-0.1-0.3-0.1-0.7 0-1.1 0q-0.6 0-1.1 0-2.5 0-5 0-2.5 0-4.9 0-2.5 0-5 0.1-2.4 0-4.9 0-0.6 0-1.2 0h-0.4q-0.4 0-0.8 0c-0.2-0.1-0.4-0.2-0.6-0.2-0.4-0.1-0.8 0-1.1 0q-1.5 0-2.9 0-2.5 0.1-5 0.1-2.4 0-4.9 0.1-2.5 0-5 0-2.4 0.1-4.9 0.1-2.5 0-4.9 0-2.5 0-5 0-2.5 0.1-4.9 0.1h-7.4c-0.4 0-0.7 0-1-0.1q-0.1-0.1-0.3-0.1c-0.8-0.1-1.6 0-2.3-0.1q-2.5 0-5 0-2.4 0-4.9 0-2.5 0-5 0-2.4 0.1-4.9 0.2-1.2 0-2.4 0.1-0.6 0-1.3 0-0.3 0-0.6 0c0 0.1-0.6 0-0.6 0.1q0 0.3 0 0.6c-0.5-0.7-1.4-0.8-2.1-0.8q-1.3 0.1-2.5 0.1-2.5 0-4.9 0-2.5 0-5 0-1.2 0.1-2.5 0.1c-0.1 0-0.3 0-0.5-0.1-0.5-0.1-0.9-0.1-1.4-0.2-2-0.2-4-0.4-6-0.1-2.6 0.4-5.1 2-6.1 4.6-0.7 1.8-0.5 3.9-0.4 5.9q0.1 0.5 0.2 1 0.1 0.4 0.3 0.8-0.3-0.1-0.6-0.3c-0.1-0.1-0.1-0.1-0.1-0.3q-0.1-0.3-0.1-0.6c-0.2-0.8 0-1.7 0-2.5 0.1-0.9 0.1-1.8 0.2-2.7 0.3-3.4 3-6.1 6.1-6.1q2.1 0 4.2 0 1.6 0 3.2 0h0.4q3.8 0 7.6 0 1.7-0.1 3.4-0.1 1 0 2 0 1.9 0 3.8 0 2.5 0 5 0 2.4 0 4.9 0 2.5 0 4.9 0 2.5 0 5 0 2.4 0 4.9-0.1h0.1q0.5 0.1 1 0 0 0 0.1 0 0.2 0 0.3 0 0.2 0 0.4 0h0.1q0.8 0 1.5 0h0.8q2.6 0 5.2 0 2.1 0 4.3 0h1.8q1.9 0 3.8 0 2.5 0 5 0 2.4 0 4.9 0h5.2q2.3 0 4.7 0h7.4q0.6 0 1.2 0c0.1 0 0.3 0 0.4 0q0.1 0 0.3 0h3.2q3.9 0 7.9 0 10.7 0 21.5 0 2.8 0 5.5 0 3.3 0 6.6 0 3.3 0 6.6 0h1.7c0.4 0 0.8 0.2 1.3 0.1q0.3 0 0.6-0.1h1.3q3.1 0 6.2 0 2.6 0 5.2 0 16 0.1 32.1 0.1 3.6 0.1 7.2 0.1 1.4 0 2.8 0 1.5 0 3.1 0 4.6 0 9.3 0c2.8 0 5.4 2.3 6 5.3 0.1 0.3 0.1 0.7 0.1 1z"/>
		<path id="&lt;Path&gt;" class="s2" d="m82 9.8q-0.1 0.2-0.2 0.3c0 0.1 0 0.4 0 0.5 0.1 0.1 0.5 0 0.6 0q0.7 0 1.3 0 1.1-0.1 2.2-0.1c-0.5-0.1-1-0.1-1.4 0-0.8 0-1.5-0.3-2.2-0.5q0.5-0.7 1-1.4c-0.1 0.2-0.3 0.3-0.4 0.4q-0.3 0.2-0.5 0.5c-0.1 0.1-0.3 0.2-0.4 0.3z"/>
		<path id="&lt;Path&gt;" class="s2" d="m151.8 9.6c-0.1 0.2-0.2 0.3-0.2 0.5 0 0.1 0.2 0.2 0.3 0.3q0.2 0 0.4 0 1-0.1 2.1-0.2 0.5 0 1 0c0.5 0.1 1 0.2 1.5 0.3 0.9 0.2 1.9 0.1 2.9 0.2-0.1 0-0.1 0-0.1 0q-0.1 0-0.2 0.1-0.1 0-0.2 0-0.3 0-0.6-0.1c-0.3 0-0.7-0.1-1-0.1q-0.3 0-0.6 0-0.1 0.1-0.2 0-0.1 0-0.2 0c-0.4 0-0.8 0-1.2 0q-0.4 0-0.9 0.1-0.9 0-1.7 0.1-0.6 0-1.3 0-0.1 0-0.2 0-0.1 0.1-0.2 0.1-0.2 0-0.3-0.2-0.1 0-0.1-0.1 0 0 0.1-0.1 0.1-0.3 0.3-0.6 0.1-0.2 0.2-0.3 0 0 0.1 0 0.1-0.2 0.1-0.3 0.6-1 1.5-1.6 0.1-0.1 0.2-0.1c0.1-0.1 0.2-0.2 0.2-0.3q0.3-0.3 0.5-0.6-0.7 0.9-1.3 1.9c-0.1 0.1-0.2 0.1-0.3 0.2q-0.3 0.4-0.6 0.8 0 0 0 0z"/>
		<path id="&lt;Path&gt;" class="s2" d="m93.2 32q-1.3 0-2.5 0-3.3 0-6.5 0-0.9 0-1.8 0-2.3 0-4.6 0-2.3 0-4.7-0.1-0.9 0-1.8 0-3.2 0-6.4 0-3.3 0-6.5-0.1-2.8 0-5.7 0-0.3 0-0.7 0-1.3 0-2.5 0-3.7-0.1-7.4-0.2c-0.2 0-2.7 0.2-2.4-0.4q0.1 0 0 0c0.6-0.9 1.3-1.9 1.8-2.7q-0.2 0.3-0.4 0.7-0.4 0.9-0.8 1.7c1.3 0.4 2.7 0.4 4.1 0.5 16.1 0.8 32.3-0.2 48.4 0.4 0.1 0 0.3 0.1 0.4 0.2z"/>
		<path id="&lt;Path&gt;" class="s2" d="m112.7 31.2q0 0.3-0.1 0.5c-0.2 0.2-0.6 0-0.9 0.1-0.2 0-0.3 0.1-0.4 0.2-0.4 0.2-0.8 0.1-1.2 0.1q-3.2 0-6.5 0-3.2 0-6.5-0.1-1.9 0-3.9 0h-0.2c0.2-0.1 0.4-0.1 0.6-0.1q1.9-0.1 3.7-0.1 1.9-0.1 3.8-0.1 1.9 0 3.8 0 1.8 0 3.7 0.1 0.3 0 0.5 0c1.2 0.1 2.4 0.1 3.4-0.7q0 0.1 0.2 0.1z"/>
		<path id="&lt;Path&gt;" class="s2" d="m114.1 31.2c0.5 0.4 1.1 0.5 1.7 0.6-0.6 0-1.1 0.1-1.6 0.4q-0.7-1.4-1.5-2.8c0.5 0.6 0.8 1.3 1.4 1.8z"/>
		<path id="&lt;Path&gt;" class="s2" d="m121 31.7q0 0 0 0 0 0.3-0.1 0.6-1.3-0.2-2.7-0.4-0.8 0-1.7-0.1 0.2 0 0.3 0 2.1-0.1 4.2-0.1z"/>
		<path id="&lt;Path&gt;" class="s2" d="m136.6 32.1h-0.5q-2.1 0-4.2 0-0.7 0-1.6 0c-1.1 0-2.3 0-3.4 0-1.5-0.1-3.6 0.7-4.9-0.6q-0.2-0.2-0.3-0.4c2 1.2 4.5 0.9 6.8 0.7q4.1-0.3 8.1 0.3z"/>
		<path id="&lt;Path&gt;" class="s2" d="m188.4 31.5q0.6-0.3 1.1-0.8 0 0.1-0.1 0.2c-0.1 0.3-0.3 0.7-0.6 0.7-0.2 0-0.4-0.1-0.6-0.1-0.2 0-0.2 0.1-0.4 0.2-0.1 0-0.1 0.1-0.2 0.1-0.6 0.1-1.3 0-1.9 0q-2 0-3.9 0-3.3 0-6.6 0.1-2.7 0-5.5 0-0.5 0-1 0-1.7 0-3.3 0-1.6 0-3.2 0.1-3.3 0-6.6 0-3.2 0-6.5 0-1.4 0-2.9 0-1.8 0-3.6 0-3 0-6 0.1h-1.9q0.2-0.2 0.5-0.2 2.5-0.1 4.9-0.3c0.7 0 1.5-0.1 2.2-0.1q0.2 0 0.5 0.1 0.3 0 0.6 0.1c0.6 0.2 1.3 0 1.9 0 0.4-0.1 0.7-0.2 1.1-0.1q0.2 0.1 0.5 0.1 0.5 0 1 0 1 0 2-0.2 0.2 0 0.4 0c0.1 0 0.2 0.1 0.3 0.2 0.6 0.4 1.5 0.2 2.2 0.1q0.8-0.2 1.6-0.2 0.4 0 0.9 0c1.2 0.1 2.4 0.1 3.6 0.1q2.5 0 5 0 2.4 0 4.9 0 2.5 0 5-0.1 1.3 0 2.6-0.1c0.9 0 1.8 0 2.7 0 0.8 0.1 1.6 0.2 2.4 0.2 0.3 0 0.7 0 1-0.1 0.3-0.1 0.4-0.2 0.6-0.3q0.2-0.1 0.4-0.1c0.7-0.1 1.4 0 2.1 0q1.4 0.1 2.9 0.2c0 0-0.2 0.1-0.1 0.1z"/>
		<path id="&lt;Path&gt;" class="s2" d="m236 27.2c-1 2.4-3.1 4-5.6 4.1q-1.3 0-2.6 0-3.3 0.1-6.6 0.1-3.3 0-6.6 0.1-3.3 0-6.6 0.1-2.7 0-5.5 0-0.5 0-1 0-3.3 0.1-6.6 0.1c-0.6 0-1.3 0-2 0-0.6 0-1.3-0.1-2-0.1-0.1 0-0.2 0-0.3-0.1-0.2-0.1-0.3-0.4-0.3-0.6q-0.1-0.6-0.1-1.2 0 0 0 0c0 0.6 0.4 1.2 1 1.5 0.5 0.2 1.1 0.2 1.7 0.2q3.2 0 6.4 0 1.6 0 3.1 0 0.7 0 1.4 0 0.4 0 0.8 0c0.2 0 0.5 0 0.7 0q0.2-0.1 0.5-0.1 0.3 0 0.6 0 1.2-0.1 2.5-0.1 1.9-0.1 3.9-0.2 1.9 0 3.9 0 2.2-0.1 4.5-0.1 2.2-0.1 4.4 0c1.6 0 3.2 0.1 4.7 0q1.3-0.1 2.4-0.4c0.2-0.1 0.3-0.2 0.5-0.2q0 0 0.1 0 0.1 0 0.2-0.1 0.7-0.5 1.3-1.2c0.2-0.1 0.4-0.3 0.5-0.6q0.1-0.2 0.2-0.4 0.2-0.5 0.5-0.8z"/>
		<path id="&lt;Compound Path&gt;" class="s6" d="m35.4 23.9q-4.1-0.1-8.2-0.1-1.8-0.1-3.6-0.1-0.4-0.7-0.7-1.3c-1.4-2.9-2.7-5.9-3.9-9q5.2 0 10.4 0 0.8 1.4 1.7 2.8c1.4 2.5 2.9 5.1 4.3 7.7zm8-4.1c-1.5-2.2-3.1-4.4-4.8-6.5q-2.2 0-4.4 0.1c1.6 3.4 3.6 6.5 5.7 9.7q0.2 0.4 0.5 0.8 1.5 0 3 0.1h3.1c-1.1-1.4-2.2-2.8-3.1-4.2zm26.5-6.5q-2.5-0.1-5 0c0.6 3.7 1.6 7.3 2.9 10.8q0.1 0 0.1 0.1c0.3 0 0.6 0.2 1 0.2 1.1 0 2.1-0.9 2.9-1.7 0.6-0.5 1.1-1 1.6-1.5q-1.6-4.1-3.5-7.9zm3.7 8.4q-0.9 1.4-1.6 2.8c0-0.1 1.4 0 1.5 0q0.6 0 1.1 0-0.5-1.4-1-2.8zm3.8-8.5q-1.3 0-2.5 0c1.1 3.7 2.2 7.4 3.5 11 0.3 0 0.7 0 1 0q0.8 0.1 1.6 0-1.7-5.5-3.6-11zm46.6 4.6q-0.9-2.3-1.8-4.6h-9.2c0.5 3.3 1.2 6.5 2.1 9.8q0.2 0.7 0.4 1.3h2.9q4.1 0 8.3 0c-0.9-2.2-1.8-4.3-2.7-6.5zm19.5-4.4c-0.5-0.1-1-0.2-1.5-0.2-0.7 0-1.3-0.1-2-0.1-0.3 0-0.6 0.2-0.8 0.4q-0.1 0-0.1 0.1c-0.2 2-0.3 3.9-0.4 5.6q-0.2 2.5-0.5 5.1 3.3 0 6.6 0 0.1-2.2 0.2-4.3c0.1-1.2 0.2-2.6 0.4-4.1q0-1 0.1-2.1 0 0 0 0c-0.6-0.4-1.3-0.4-2-0.4zm28.8-0.1q-1.8 0-3.5 0-1.9 5.3-3.1 10.9 0.9 0 1.7 0c0.6 0 1.2-0.1 1.7 0q0.5 0.2 1 0 1.3-5.4 2.5-10.9zm42.3 0.1q-1.5 3.6-3 7.1 0-0.1 0-0.1c0.5-2.3 1.1-4.6 1.7-7q-0.8 0-1.7 0-2.7 0-5.4 0c-0.4 1.7-0.7 3.3-1.2 4.9q-0.7 2.8-1.4 5.6 4.7-0.1 9.3-0.1 1.3 0 2.5-0.1 0.1-0.2 0.2-0.4 0.8-2.5 1.7-5 0 0 0 0 0.8-2.5 1.5-4.9-2.1 0-4.2 0zm-13.8-0.1c-1.1 3.6-2.3 7.1-3.4 10.6q0.9 0 1.9 0c1.1-3.5 2-7 2.9-10.6zm-107.2-0.1h-0.5c1.1 3.7 2.2 7.4 3.3 11.1h0.7q-1.7-5.6-3.5-11.1z"/>
	</g>
	<g id="Layer 1">
	</g>
</svg>