<svg version="1.2" xmlns="http://www.w3.org/2000/svg" viewBox="0 0 220 80" width="220" height="80">
	<title>New Project</title>
	<defs>
		<linearGradient id="g1" x2="1" gradientUnits="userSpaceOnUse" gradientTransform="matrix(-36.882,99.257,-36.137,-13.428,191.161,-104.418)">
			<stop offset="0" stop-color="#cf5c2b"/>
			<stop offset="1" stop-color="#59173e"/>
		</linearGradient>
		<linearGradient id="g2" x2="1" gradientUnits="userSpaceOnUse" gradientTransform="matrix(-33.73,177.9,-61.026,-11.571,142.898,-29.893)">
			<stop offset="0" stop-color="#cf5c2b"/>
			<stop offset="1" stop-color="#59173e"/>
		</linearGradient>
		<linearGradient id="g3" x2="1" gradientUnits="userSpaceOnUse" gradientTransform="matrix(-46.339,236.649,-56.683,-11.099,136.473,-34.013)">
			<stop offset="0" stop-color="#cf5c2b"/>
			<stop offset="1" stop-color="#59173e"/>
		</linearGradient>
		<linearGradient id="g4" x2="1" gradientUnits="userSpaceOnUse" gradientTransform="matrix(-3.139,-53.158,17.929,-1.059,104.83,105.057)">
			<stop offset="0" stop-color="#cf5c2b"/>
			<stop offset="1" stop-color="#59173e"/>
		</linearGradient>
		<linearGradient id="g5" x2="1" gradientUnits="userSpaceOnUse" gradientTransform="matrix(-14.638,39.132,-26.387,-9.87,189.667,15.802)">
			<stop offset="0" stop-color="#cf5c2b"/>
			<stop offset="1" stop-color="#59173e"/>
		</linearGradient>
		<linearGradient id="g6" x2="1" gradientUnits="userSpaceOnUse" gradientTransform="matrix(-127.73,296.387,-199.854,-86.128,239.906,-97.477)">
			<stop offset="0" stop-color="#cf5c2b"/>
			<stop offset="1" stop-color="#59173e"/>
		</linearGradient>
		<linearGradient id="g7" x2="1" gradientUnits="userSpaceOnUse" gradientTransform="matrix(-9.233,24.682,-16.643,-6.226,168.722,15.055)">
			<stop offset="0" stop-color="#cf5c2b"/>
			<stop offset="1" stop-color="#59173e"/>
		</linearGradient>
		<linearGradient id="g8" x2="1" gradientUnits="userSpaceOnUse" gradientTransform="matrix(-80.565,186.944,-126.057,-54.325,200.41,-56.395)">
			<stop offset="0" stop-color="#cf5c2b"/>
			<stop offset="1" stop-color="#59173e"/>
		</linearGradient>
		<linearGradient id="g9" x2="1" gradientUnits="userSpaceOnUse" gradientTransform="matrix(-9.233,24.682,-16.643,-6.226,54.776,30.061)">
			<stop offset="0" stop-color="#cf5c2b"/>
			<stop offset="1" stop-color="#59173e"/>
		</linearGradient>
		<linearGradient id="g10" x2="1" gradientUnits="userSpaceOnUse" gradientTransform="matrix(-80.565,186.944,-126.057,-54.325,86.464,-41.389)">
			<stop offset="0" stop-color="#cf5c2b"/>
			<stop offset="1" stop-color="#59173e"/>
		</linearGradient>
	</defs>
	<style>
		.s0 { fill: url(#g1) } 
		.s1 { fill: url(#g2) } 
		.s2 { fill: url(#g3) } 
		.s3 { fill: #eb924d } 
		.s4 { fill: url(#g4) } 
		.s5 { fill: url(#g5) } 
		.s6 { fill: url(#g6) } 
		.s7 { fill: url(#g7) } 
		.s8 { fill: url(#g8) } 
		.s9 { fill: url(#g9) } 
		.s10 { fill: url(#g10) } 
	</style>
	<g id="Layer 1">
		<g id="&lt;Group&gt;">
			<path id="&lt;Path&gt;" class="s0" d="m211.1 61.1q-0.2-2.3-0.3-4.6-0.1-2.3-0.3-4.7c0-1.1-0.1-2.3-0.2-3.4 0-0.9 0.4-2.5-0.1-3.3-0.3-0.5-1-0.7-1.5-0.8q-1.2-0.2-2.3-0.4 1.5-0.3 3-0.9c0.2 0 0.4-0.1 0.6-0.3 0.1-0.2 0.2-0.4 0.2-0.6 0.3-2.1 0.1-4.3 0.1-6.4q0-3.2 0-6.4 0-3-0.1-6.1c0-0.6 0.3-2.1 0-2.7-0.3-0.5-0.9-0.4-1.4-0.5q-0.8-0.1-1.5 0c-0.8 0-1.5 0.1-2.3 0.3 1-0.3 2-0.4 3-0.7 0.6-0.1 1.3-0.3 1.8-0.6 0.4-0.2 0.8-0.4 1-0.8 0.1-0.1 0.1-0.3 0.1-0.5q0.2-0.5 0.2-1.1 0.1-1.6 0.1-3.2 0-0.8 0-1.6c0-0.3-0.1-0.7-0.2-1-0.1-1.4-0.7-2.8-1.6-3.9-0.9-1.1-2.2-1.9-3.6-2.3q-0.7-0.2-1.5-0.2c-62.6-2-123.9-2.1-184 0-0.2 0-0.5 0-0.7 0q-0.3 0.1-0.7 0.3-0.7 0.2-1.5 0.5c-0.9 0.5-1.7 1.1-2.3 1.9-0.4 0.5-0.6 1-0.9 1.5-0.2 0.3-0.4 0.5-0.5 0.8-0.7 1.2-1.3 2.5-2.2 3.6-0.8 1.1-1.1 2.9-1 4.2 0.1 1.9 0.2 3.7 0.3 5.5 0.3 3 0.1 5.9 0.4 8.8 0 0.4 0.1 0.9 0.4 1.2 0.2 0.2 0.5 0.2 0.8 0.3q1.4 0.3 2.8 0.6c-1.2 0.7-2.9 0.8-3.5 2-0.2 0.4-0.2 0.9-0.2 1.3-0.1 1.6-0.3 3.1-0.4 4.7q-0.1 1-0.1 2.1c0 0.7-0.1 1.3-0.1 2-0.2 1.5-0.6 3.6-0.1 5.1 0.4 1.4 2.3 1.5 3.5 1.9-0.6 0-1.1 0.6-1.5 1.1-0.2 0.3-0.4 0.6-0.5 0.9q-0.3 0.3-0.5 0.7-0.4 0.8-0.6 1.7c-0.1 0.4-0.2 0.7-0.2 1.1q0 0.5-0.1 1 0 1.1 0 2.2-0.1 2.1-0.1 4.2c0.1 1.4-0.3 2.7 0.3 4.1 0.6 1.3 1.6 2.5 2.8 3.2 1 0.7 2.2 1 3.4 1 60.3 2.7 121.7 2.7 184 0 1.7 0 3.2-0.7 4.5-1.8 0.5-0.5 1-1 1.5-1.7q0.8-1.2 1.5-2.5c1.1-2.1 2.5-4.4 2.3-6.8z"/>
			<path id="&lt;Path&gt;" class="s1" d="m204.3 68.6c-62.4 2.7-123.7 2.7-184.1 0-2.7 0-5.2-1.9-6.2-4.3-0.4-1.1-0.5-2.2-0.4-3.4q0-0.3 0.1-0.6c0-0.3 0.2-0.6 0.2-0.9q0.1-0.3 0.1-0.5c0.1-0.9 0.1-1.9 0.2-2.8 0-0.5 0.1-1 0.2-1.5 0.2-0.6 0.5-1.1 0.9-1.5 2-1.5 5.9-1.4 8.8-1.5q0.9 0 1.6-0.1 1.9-0.1 3.8-0.1-4.5 0-9-0.7-2.1-0.4-4.1-0.9-0.5-0.1-1-0.4c-0.4-0.2-0.8-0.4-1-0.9-0.2-0.3-0.2-0.7-0.1-1.1 0-0.4-0.1-0.8-0.1-1.1 0.1-0.8 0.2-1.6 0.2-2.4q0.2-0.9 0.2-1.9 0.2-2.6 0.4-5.1c0-0.5 0.1-1.1 0.4-1.5 0.3-0.2 0.5-0.3 0.8-0.4q1.2-0.4 2.4-0.6c0.4-0.1 0.8-0.1 1.1-0.2 0.4-0.1 0.8-0.2 1.2-0.3q6.6-0.7 13.2-1.5 0.8-0.1 1.6-0.2-9.9-1.2-19.9-2.4-0.4-0.1-0.9-0.1c-0.2 0-0.5-0.1-0.7-0.3q0 0 0 0c-0.2-0.2-0.2-0.4-0.2-0.6-0.3-3.6 0-7.3-0.2-10.9 0-0.2 0-1.3-0.1-2.4-0.1-1.7-0.2-3.6-0.2-3.6-0.3-4 2.7-7.4 6.7-7.5 60-2.1 121.4-2 183.9 0 4 0.1 7.1 3.6 6.8 7.6-0.1 1.3 0.2 2.7-0.1 4-0.1 0.4-0.2 0.7-0.5 0.9-0.2 0.2-0.5 0.3-0.8 0.3q-1.1 0.3-2.2 0.6c-1.1 0.2-2 0.5-3.1 0.6q-9 0.9-18 1.9-0.3 0-0.5 0.1-0.3 0-0.6 0 0.7 0 1.4 0 11.4-0.2 22.7-0.4c0.2 0 0.4 0 0.6 0.1 0.2 0.2 0.3 0.4 0.3 0.7q0 0.5 0 0.9c0 1-0.2 1.9-0.2 2.9 0 0.8 0.3 1.7 0.2 2.6q0 1.9-0.1 3.8c-0.1 2.9-0.3 5.9-0.6 8.8-0.1 0.4-0.1 0.8-0.4 1.1-0.2 0.3-0.5 0.4-0.9 0.5q-0.2 0.1-0.5 0.2c-4.5 1.3-9.3 0.3-13.9 1q-0.5 0.1-0.9 0.2-0.1 0-0.3 0.1 0.6 0 1.1 0.1 7.5 0.5 14.9 1.5c0.6 0 1.3 0.1 1.6 0.6 0.3 0.4 0.3 0.9 0.3 1.3v1.5c0 1.5 0 2.9 0 4.4q0.2 3 0.4 5.9 0.1 1.4 0.2 2.9c0.3 3.9-2.8 7.4-6.7 7.5z"/>
			<path id="&lt;Compound Path&gt;" class="s2" d="m210.1 27.2q0 1.9-0.1 3.8c-2.5 0.2-5 0.4-7.5 0.7q-0.8 0.1-1.7 0.2-3.2 0.3-6.3 0.6-1.6 0.1-3.2 0.3c-0.7 0-1.3 0.3-2 0.4-0.9 0.1-1.9-0.2-2.8-0.2q-1.6-0.1-3.1-0.1-3.1 0-6.2 0.4c-4.2 0.5-8.3 1.3-12.4 2q-9.9 1.6-19.8 2.5 5.4 0.5 10.7 1.7-2 0.2-4 0.3-6.3 0.4-12.7 0.5-6.3 0.1-12.7 0-6.4 0-12.7 0.1-6.4 0-12.7 0.3-3.2 0.1-6.4 0.4-0.7 0-1.5 0.1c-0.7 0.1-1.3 0.3-1.9 0.3-5.1 0.6-10.1 1.4-15.1 2.3-7.8 1.6-15.6 3.1-23.5 3.6q-2.1 0.1-4.3 0.3c-6.8 1.3-14.1 1.6-20.8 2.4-2.2 0.3-4.5 0.5-6.9 0.6q-2.1-0.4-4.1-0.9-0.5-0.1-1-0.4c-0.4-0.2-0.8-0.4-1-0.9-0.2-0.3-0.2-0.7-0.1-1.1 0-0.4-0.1-0.8-0.1-1.1 0.1-0.8 0.2-1.6 0.2-2.4 6.2-0.5 12.4-2.3 18.3-3.1 7.5-1.1 15.2-1.7 22.8-2.1 8.6-0.5 17.2 0.5 25.8 0.5 7.9 0 15.8-0.7 23.7-1.3q23.1-1.9 46.2-3.9-5-0.1-10-0.3-6.4-0.2-12.8-0.5c-1-0.1-2-0.2-3-0.1q-1.5 0.2-3.1 0.1-3 0-6-0.7c-1.2-0.3-2.3-0.7-3.5-0.9-2-0.3-4-0.2-6-0.2-7.6-0.1-15-2.1-22.5-2.1-2 0.1-4 0.2-5.9 0.4-2.1 0.2-4.2 0.4-6.3 0.4-1 0.1-1.9 0.1-2.8-0.1-0.7-0.2-1.5-0.1-2.2-0.1q-2 0-3.9-0.1-3.8-0.1-7.6-0.1c-9.7 0-19.3 0.5-29 0.4-4.1 0-8.3-0.1-12.4-0.7q0 0 0 0c-0.2-0.2-0.2-0.4-0.2-0.6-0.3-3.6 0-7.3-0.2-10.9 0-0.2 0-1.3-0.1-2.4 4.9-0.4 9.9-0.5 14.8-0.9 9.7-0.7 19.3-1 29-1 19.2 0.1 38.4 1.3 57.5 2.8 19.2 1.5 38.3 3.2 57.5 4.6 9.6 0.7 19.3 1.1 29 1.1 2.9 0 5.8-0.2 8.6-0.4 0 1-0.2 1.9-0.2 2.9 0 0.8 0.3 1.7 0.2 2.6zm0.3 25.1c0-1.5 0-2.9 0-4.4-6.1-0.7-12.3-1.4-18.4-1.8-10.6-0.7-21.1-0.6-31.7-0.2-2.2 0.1-4.4 0.2-6.5 0.4q-1.6 0.3-3.2 0.4-6.3 0.8-12.7 1.3-2.4 0.2-4.9 0.3 6.4 0 12.8-0.1 6.4 0 12.8-0.1 3.3 0 6.5 0 1.6 0 3.2-0.1c0.4 0 0.9 0.1 1.3 0 0.3-0.1 0.6-0.2 0.8-0.2 1-0.2 2.1 0 3 0.1q1.6 0 3.2 0.1 3.2 0.2 6.4 0.5 5 0.4 10 0.8c3.6 0.3 7.2 0.8 10.9 1.2-8.3 0.8-16.5 1.6-24.7 2.1-19 1-38 2.3-57 2-18.7-0.4-37.4-1.5-56.2-1.4q-14.8 0-29.6 0.5c-7.3 0.2-14.7 0.1-22 0.9-0.1 0.5-0.2 1-0.2 1.5-0.1 0.9-0.1 1.9-0.2 2.8 8.1 0.3 16.3-0.2 24.4-0.2q14.8-0.1 29.6 0.3c18.7 0.4 37.4 1.4 56.1 1.8 19 0.3 38-1.1 57-2 9.8-0.5 19.7-0.5 29.5-0.6h0.2q-0.2-2.9-0.4-5.9z"/>
			<path id="&lt;Path&gt;" class="s3" d="m15.2 47.2c0 0.8 0 1.5 0.2 2.2-0.4-0.2-0.8-0.4-1-0.9-0.2-0.3-0.2-0.7-0.1-1.1 0-0.4-0.1-0.8-0.1-1.1 0.1-1.5 0.4-2.9 0.4-4.3q0.2-2.6 0.4-5.1c0-0.5 0.1-1.1 0.4-1.5 0.3-0.2 0.5-0.3 0.8-0.4q1.2-0.4 2.4-0.6c0.4-0.1 0.8-0.1 1.1-0.2 0.4-0.1 0.8-0.2 1.2-0.3q6.6-0.7 13.2-1.5-7.1 1.4-14.1 2.9c-1 0.1-2.2 0.1-3 0.7q-0.2 0.2-0.4 0.5c-0.1 0.1-0.2 0.3-0.3 0.4-0.3 0.2-0.4 0.6-0.5 0.9q-0.5 1.3-0.5 2.8c-0.1 0.3 0 0.7-0.1 1.1q0 0.1 0 0.2c0 0.1-0.1 0.2-0.1 0.3-0.3 0.7-0.2 1.5-0.1 2.3 0 0.2 0.1 0.5 0.2 0.8 0.1 0.6 0 1.3 0 1.9z"/>
			<path id="&lt;Path&gt;" class="s3" d="m185.7 20.4q-0.4-0.1-0.8-0.1h1.3q-0.3 0-0.5 0.1z"/>
			<path id="&lt;Path&gt;" class="s3" d="m190 42.3q1.9 0.2 3.7 0.3-0.5 0.1-0.9 0.2-1.4-0.3-2.8-0.5z"/>
			<path id="&lt;Path&gt;" class="s3" d="m208.1 40.5c0.2-0.8 0.2-1.6 0.1-2.4q-0.2-2.1-0.3-4.3c-0.1-0.3-0.1-0.6-0.3-0.8-0.2-0.1-0.4-0.1-0.7-0.1q-2.7 0.1-5.4 0.2c1.9-0.2 3.9-0.7 5.7-1.6 0.5-0.2 1-0.6 1.2-1.1 0.1-0.3 0.1-0.5 0.1-0.8 0-2.3-0.4-4.9-0.7-7.2-0.9-0.8-2.2-0.9-3.3-1q-7.2-0.4-14.3-0.8c-1.2-0.1-2.5-0.2-3.7-0.2q11.4-0.2 22.7-0.4c0.2 0 0.4 0 0.6 0.1 0.2 0.2 0.3 0.4 0.3 0.7 0.1 1.3-0.2 2.5-0.2 3.8 0 0.8 0.3 1.7 0.2 2.6 0 4.1-0.2 8.4-0.7 12.6-0.1 0.4-0.1 0.8-0.4 1.1-0.2 0.3-0.5 0.4-0.9 0.5q-0.2 0.1-0.5 0.2c0.2-0.3 0.4-0.7 0.5-1.1z"/>
			<path id="&lt;Path&gt;" class="s3" d="m13.8 17.9c0-0.5-0.3-6-0.3-6-0.3-4 2.7-7.4 6.7-7.5 60-2.1 121.4-2 183.9 0 4 0.1 7.1 3.6 6.8 7.6-0.1 1.3 0.2 2.7-0.1 4-0.1 0.4-0.2 0.7-0.5 0.9-0.2 0.2-0.5 0.3-0.8 0.3-0.7 0.2-1.5 0.4-2.2 0.6 0.6-0.6 1.4-1.3 1.7-2.2 0.2-0.5 0-1-0.2-1.6-0.3-0.8-0.3-1.7-0.4-2.6 0-1.1 0.2-2.7-0.7-3.5-0.7-0.7-1.5-1.3-2.4-1.7-2-1-4.4-1.2-6.7-1.3q-0.1 0-0.3 0c-4.2-0.2-8.4-0.2-12.5 0.2-0.6 0.1-1 0.2-1.5 0.3-0.6 0.2-1.3 0-1.9 0q-2.2-0.1-4.3-0.2-4.2-0.2-8.5-0.2-3.2-0.1-6.4-0.1-1 0-2 0-1.9 0-3.9 0-2.6 0-5.3 0-0.2 0-0.3 0-4.2 0-8.5 0-2.1 0-4.2 0c-0.7 0-1.4 0.1-2.1 0-0.6-0.2-1.1-0.6-1.8-0.6-0.6-0.1-1.3 0-1.9 0.1q-2.3 0.2-4.6 0.4c-0.7 0.1-1.5 0.2-1.9 0.7-0.2 0.2-0.3 0.4-0.5 0.6-0.5 0.3-1.1 0.1-1.6-0.1q-1.5-0.5-3.1-0.6c-0.9 0-1.9 0.1-2.9 0.1-0.6 0-1.1-0.2-1.7-0.3-2.4-0.5-4.8-0.5-7.2-0.7q-2.6-0.2-5.2-0.3c-5.7-0.2-11.4 0-17.1 0.2q-4.2 0.2-8.5 0.4c-1.3 0.1-2.7 0.4-4 0.2-0.4 0-0.7-0.2-1.1-0.3-0.4 0-0.8 0-1.2 0q-2.3 0-4.7 0-2.7 0-5.5 0c-0.6 0-1.2 0.2-1.8 0.2-0.6 0-1.2-0.2-1.7-0.2-1.2 0-2.3 0.3-3.4 0.7-0.4 0.2-0.9 0.4-1.3 0.4-0.9-0.1-1.4-0.9-2.2-1.2-1.7-0.9-3.6 0.7-5.4 0.1-0.9-0.3-1.8-0.3-2.8-0.3q-1.8 0-3.6 0c-4.1 0-8.2 0.2-12.3 0.6q-3.1 0.3-6.1 0.8c-1 0.2-2 0.5-3 0.6-0.3 0-0.5 0-0.8 0.2-1.2 0.9-4.5 5.6-2.1 7.2q0.2 0.2 0.4 0.3c0.3 0.1 0.6 0.1 0.8 0.2 0.3 0.1 0.6 0.1 0.9 0.1q1 0 2 0c0.8 0 1.5 0 2.2 0.2q-2.3 0.4-4.6 0.9c-0.6 0.1-1.1 0.2-1.5 0.4q-0.1 0.1-0.3 0.1c-0.3 0.1-0.5 0.5-0.7 0.8-0.3 0.8-0.1 1.7-0.2 2.6-0.2 1.5 0 3.1 0.2 4.6q0.3 2.9 0.7 5.8-0.4-0.1-0.9-0.1c-0.2 0-0.6-0.1-0.7-0.3-0.2-0.2-0.2-0.4-0.2-0.6-0.3-3.6 0-7.3-0.2-10.9z"/>
			<path id="&lt;Path&gt;" class="s3" d="m211 61.1q-0.3-4.4-0.6-8.8c0-2 0-3.9 0-5.9 0-0.4 0-0.9-0.3-1.3-0.3-0.5-1-0.6-1.6-0.6q-7.4-1-14.9-1.5c4.5 0.8 9 1.9 13.3 3.1 0.8 0.2 0.9 0.9 1.2 1.6 0.3 0.8 0.4 1.7 0.4 2.6 0 0.3 0 0.7-0.1 1-0.3 0.8-1.1 1.2-1.8 1.6q0.8 0.2 1.6 0.4c0.2 0 0.3 0.1 0.4 0.2 0.1 0.1 0.1 0.3 0.1 0.4 0.2 1.4 0.1 2.9 0.1 4.3q0 1.4 0 2.8c0 0.2 0.1 0.5 0.2 0.7 0.1 0.6 0 1.1-0.1 1.6-0.4 1.1-1.1 2.1-2 2.7-1.6 1-3.7 1.2-5.6 1.4-3.2 0.2-6.4 0.2-9.6 0.5q-1.6 0.1-3.2 0.3-3.2 0.2-6.3 0.4-6.1 0.4-12.1 0.6c-9.5 0.4-19 0.3-28.5 0.3q-1.8 0-3.5 0c-0.9 0-1.8 0.1-2.7 0-2.3-0.2-4.5 0.2-6.7 0.4-2.6 0.3-5.4 0.3-7.6-1-0.7-0.4-1.4-1-2.2-1-0.7 0-1.4 0.3-2 0.6-1.2 0.6-2.5 0.9-3.8 1.1q0 0 0 0c-2.8 0.3-5.5 0.2-8.2 0-2.1-0.2-4.2 0.2-6.1-0.5-1.5-0.6-3.1-1.4-4.6-1-0.6 0.2-1.1 0.5-1.6 0.7-1 0.4-2.1 0.5-3.2 0.5q-1 0.1-2 0.1-4.3 0.2-8.5 0c-1.2-0.1-2.4-0.1-3.6-0.4-0.8-0.3-1.6-0.1-2.4-0.1q-5.1 0.4-10.3 0.2-2.1-0.1-4.2-0.2c-0.7-0.1-1.4-0.2-2.1-0.2-0.5 0-0.9 0.2-1.4 0.2q-4.3-0.1-8.5-0.1-7.4-0.1-14.7-0.2c-3.3 0.5-6.1-0.1-9.4-0.7-2.7-0.5-5.7-1.6-6.8-4.1-0.5-1.1-0.5-2.2-0.5-3.4 0-0.3 0.1-0.6 0-1 0-0.3-0.1-0.6-0.2-0.9-0.1-1 0.2-2.2 0.4-3.2 0.2-0.5 0.3-1 0.7-1.4 0.3-0.3 0.8-0.5 1.2-0.7 1.3-0.4 2.5-0.5 3.8-0.5q2.8-0.2 5.5-0.4 0.6 0 1.1 0 0-0.3 0-0.6-1.7-0.1-3.4-0.1c-2.9 0.1-6.8 0-8.8 1.5-0.8 0.7-1 1.9-1.1 3-0.1 1.1-0.1 2.2-0.3 3.3 0 0.3-0.2 0.6-0.2 0.9q-0.1 0.3-0.1 0.6c-0.1 1.2 0 2.3 0.4 3.4 1 2.4 3.5 4.3 6.2 4.3 60.4 2.7 121.7 2.7 184.1 0 3.9-0.1 7-3.6 6.7-7.5z"/>
			<path id="&lt;Path&gt;" class="s3" d="m24.6 39.6q0 1.2 0.1 2.4 0 0.6 0 1.2c0.1 0.3 0 0.6 0.1 0.9 0.1 0.2 0.1 0.4 0.1 0.7q0.1 1 0.1 2 0.1 2.1 0.2 4.2 0.1 2.6 0.3 5.2c0 1 0.2 1.8 0.7 2.7q0.1 0.2 0.3 0.4 0.3 0.4 0.7 0.6c1.1 0.5 2.3 0.7 3.5 0.9 1.8 0.3 3.6 0.4 5.5 0.4 24 0.9 48 1.7 72 1.1 2.9-0.1 6-0.1 8.7 1-1.2-2.3-4.3-2.6-6.8-2.6-26.7-0.6-53.4-1.3-80-3.5-0.7-0.1-1.5-0.2-2-0.7-0.4-0.4-0.5-0.9-0.6-1.4-1.4-5.5-1.7-11.3-0.8-16.9 0-0.3 0.1-0.7 0.1-1q-0.1-0.6-0.1-1.1 0-1.1 0.1-2.2c-0.1-0.2-0.3-0.2-0.5-0.2q-0.8 0.1-1.6 0.2 0.1 0.7 0 1.4c0 0.2 0 0.3 0 0.4 0 0.4 0 0.7 0 1q-0.1 0.7-0.1 1.5 0 0.7 0 1.4z"/>
			<path id="&lt;Path&gt;" class="s3" d="m117.9 63.5c0.3-0.7 1.3-0.9 2.1-0.9q9.7-0.2 19.4-0.4 9.2-0.1 18.3-0.3c2-0.1 4.1-0.1 5.7 1q0-0.3-0.1-0.7c0.7-0.1 1.4-0.2 2.1-0.2 0.4 0.1 0.8-0.1 1.2-0.1 0.9-0.2 1.8-0.2 2.7-0.2 5-0.3 10-0.3 15.1-0.6q1.9-0.1 3.8-0.2c1.2-0.1 2.5-0.2 3.7-0.4 0.2 0 0.4-0.1 0.6-0.1q0.3 0 0.7 0c1.3-0.1 2.5-0.4 3.7-0.9 1.5-0.7 2.8-1.9 3.3-3.5 0.2-0.7 0.2-1.4 0.3-2.1q0.2-5-0.2-10c-0.2-0.1-0.6 0.2-0.6 0.4q-0.9 3.6-1.4 7.3c-0.2 1.5-0.3 3-1.2 4.2-1 1.3-2.7 1.7-4.2 2.1-8.4 1.9-17 2.1-25.5 2.3q-12 0.3-23.9 0.5c-6.7-0.2-13.5 0.8-20 0.1-1.9-0.2-3.8-0.5-5.6-0.2-0.2 0-0.3 0-0.4 0.1q-0.1 0.1-0.1 0.3c-0.2 0.8 0.2 1.8 0.5 2.5z"/>
			<path id="&lt;Compound Path&gt;" class="s4" d="m200.2 49.5q0-4.2 0-8.5-0.1-4-0.1-8.1c0-3.2 0.1-6.5-0.3-9.7-0.1-0.7-0.2-1.3-0.2-2 0-0.9-0.2-1.7-0.6-2.6-0.6-1.2-1.3-2.4-2.2-3.4-1.9-2.3-4.7-2.4-7.6-2.5-3-0.1-6.1 0-9.1-0.1q-5.1 0-10.1 0-6.2-0.1-12.4-0.1-6.1-0.1-12.3-0.2-3.1 0-6.2 0c-0.4 0-0.8-0.1-1.3 0-0.2 0.1-0.5 0.2-0.7 0.2-1 0.1-2-0.1-2.9-0.3q0.2-3.2 1.1-6.3-1.3 3.2-2.9 6.2c-0.1 0.1-0.2 0.3-0.3 0.3-0.1 0.1-0.3 0.1-0.4 0-0.3 0-0.7 0-1-0.1-0.7-0.2-1.4-0.1-2.2-0.1q-4.7 0-9.5-0.1-9.4 0-18.7 0.1c-6.7 0-13.4-0.1-20.1-0.1q-2.8 0-5.5 0c-0.8 0-1.5-0.1-2.3 0.1-0.8 0.2-1.7 0-2.5 0-0.5 0-1-0.1-1.3-0.4-0.4-0.2-0.5-0.7-0.7-1.1q-0.5-1.3-1-2.6 0.1 1.5 0.3 3c0.1 0.4 0.1 0.8-0.2 0.9q-0.1 0.1-0.3 0.1c-0.3 0-0.7 0.1-1.1 0-0.7-0.1-1.3-0.1-2-0.1q-11.4 0.1-22.8 0c-4.2 0-14.4-2.2-15.8 3.6-0.2 0.8-0.2 1.6-0.3 2.5-0.1 2.4 0 4.9 0 7.4q0.2 12.4 0.7 24.8c0.1 1.2 0.1 2.5 0.3 3.8 0.1 1 0 2.3 0.8 3 0.3 0.3 0.5 0.5 0.7 0.9 0.5 0.6 1.1 1 1.8 1.4 1.6 0.7 3.3 0.9 5 0.9q8.3 0.4 16.5 0.7 8.3 0.3 16.6 0.4 8.3 0.2 16.6 0.3 7.5 0 15.1 0 3.8 0 7.6 0c2.8 0 6.1-0.8 8.7 0.5 1.3 0.6 2.3 1.7 2.9 3q-0.1-1.6 0.1-3.2 3-0.4 6.1-0.5c0.9 0 1.7 0.1 2.6 0.1q1.5 0 3.1 0 6.1 0 12.3-0.1 3.8 0 7.7-0.1 8.3-0.1 16.6-0.4 1.4 0 2.9-0.1 11.5-0.4 22.9-1.3 1-0.1 1.9-0.3c0.9-0.2 1.9-0.5 2.7-1.2 0.9-0.8 1.9-1.7 2.5-2.8 1.1-1.8 0.9-3.8 0.8-5.8zm-4.1 3.8c-0.4 0.7-1.1 1.3-1.7 1.8-0.2 0.2-0.4 0.3-1 0.4-0.4 0.1-0.9 0.2-1.4 0.2-7.3 0.6-15 1-22.7 1.3q-1.5 0.1-3 0.1c-5.8 0.3-11.2 0.4-16.5 0.4-15.7 0.2-31.2 0.3-46.1 0.3q-10 0-20 0c-5.5-0.1-11-0.1-16.5-0.2-5.5-0.1-11.1-0.3-16.6-0.5-5.5-0.2-11-0.4-16.4-0.6-1.2-0.1-2.6-0.2-3.5-0.7q-0.4-0.1-0.4-0.2-0.3-0.4-0.7-0.8 0-0.2 0-0.5 0-0.4-0.1-0.7c-0.1-1.1-0.2-2.2-0.2-3.5-0.4-8.1-0.6-16.4-0.7-24.6v-1.4c-0.1-2-0.1-3.9 0-5.8q0-0.3 0-0.7c0.1-0.4 0.1-0.9 0.1-1.1 0.2-0.5 1.6-1 4.5-1 1.5 0 3 0.1 4.4 0.2 1.2 0.1 2.3 0.2 3.2 0.2q10.2 0 20.3 0h3.9q7.6 0 15.2 0.1h4.8q5.4 0 10.8 0 2.2 0.1 4.5 0 5.6 0 11.3 0c12.8 0 25.8 0.1 38.4 0.3 9.9 0.1 20.1 0.2 30.1 0.2h0.5q1.3 0 2.6 0 1.3 0 2.6 0c1.3 0 2.3 0 3.2 0.1h0.1c2.7 0.1 4 0.2 4.7 1.1 0.8 0.9 1.3 1.7 1.7 2.5 0.2 0.6 0.2 0.7 0.2 1 0 0.7 0.1 1.4 0.2 1.9q0 0.3 0.1 0.5c0.2 2.3 0.2 4.6 0.2 7q0 1.2 0 2.4l0.2 16.5q0 0.5 0 1c0 1.2 0 2.3-0.3 2.8z"/>
			<path id="&lt;Path&gt;" class="s3" d="m24.7 34.3l4.5-0.9-0.2-0.4-4.7 0.6z"/>
			<path id="&lt;Path&gt;" class="s3" d="m195.2 20.8l5.2 0.4v-1.1l-5.7 0.2z"/>
			<path id="&lt;Path&gt;" class="s3" d="m195.5 43.4l5.8 1.2-0.1-1-6.2-0.5z"/>
			<g id="&lt;Group&gt;">
				<path id="&lt;Path&gt;" class="s3" d="m178.5 38.5c-4.4-2.5-11.8-1.7-15.3 1.6-2.2 2.1-2.3 6 0 8.1 5.1 4.6 14.1 2.7 17.3-3q0.1-0.1 0.2-0.2c2.5-2.2 0.7-6-2.2-6.5z"/>
				<path id="&lt;Path&gt;" class="s5" d="m179.6 36.3c-4.5-2.5-11.8-1.7-15.3 1.6-2.2 2.1-2.3 6 0 8.1 5.1 4.6 14.1 2.7 17.3-3q0.1-0.1 0.2-0.2c2.5-2.2 0.7-5.9-2.2-6.5z"/>
				<path id="&lt;Path&gt;" class="s6" d="m178.5 37.7c-4.4-2.5-11.8-1.7-15.3 1.6-2.2 2.1-2.3 6.1 0 8.1 5.1 4.6 14.1 2.7 17.3-3q0.1-0.1 0.2-0.2c2.5-2.2 0.7-5.9-2.2-6.5z"/>
			</g>
			<g id="&lt;Group&gt;">
				<path id="&lt;Path&gt;" class="s3" d="m161.7 29.4c-2.8-1.6-7.4-1.1-9.7 1-1.4 1.3-1.4 3.8 0 5.1 3.3 2.9 8.9 1.7 11-1.9q0-0.1 0.1-0.1c1.5-1.4 0.4-3.8-1.4-4.1z"/>
				<path id="&lt;Path&gt;" class="s7" d="m162.3 28c-2.7-1.6-7.4-1.1-9.6 1-1.4 1.3-1.5 3.8 0 5.1 3.2 2.9 8.9 1.7 10.9-1.9q0.1-0.1 0.2-0.1c1.5-1.4 0.4-3.8-1.5-4.1z"/>
				<path id="&lt;Path&gt;" class="s8" d="m161.7 28.9c-2.8-1.6-7.4-1.1-9.7 1-1.4 1.3-1.4 3.8 0 5.1 3.3 2.9 8.9 1.7 11-1.9q0-0.1 0.1-0.1c1.5-1.4 0.4-3.8-1.4-4.1z"/>
			</g>
			<g id="&lt;Group&gt;">
				<path id="&lt;Path&gt;" class="s3" d="m47.7 44.4c-2.8-1.6-7.4-1.1-9.6 1-1.4 1.3-1.5 3.8 0 5.1 3.2 2.9 8.9 1.7 10.9-1.9q0.1-0.1 0.1-0.1c1.6-1.4 0.5-3.8-1.4-4.1z"/>
				<path id="&lt;Path&gt;" class="s9" d="m48.4 43c-2.8-1.6-7.4-1.1-9.6 1-1.4 1.3-1.5 3.8 0 5.1 3.2 2.9 8.8 1.7 10.9-1.9q0-0.1 0.1-0.1c1.6-1.4 0.5-3.8-1.4-4.1z"/>
				<path id="&lt;Path&gt;" class="s10" d="m47.7 43.9c-2.8-1.6-7.4-1.1-9.6 1-1.4 1.3-1.5 3.8 0 5.1 3.2 2.9 8.9 1.7 10.9-1.9q0.1-0.1 0.1-0.1c1.6-1.4 0.5-3.8-1.4-4.1z"/>
			</g>
		</g>
	</g>
</svg>