<?xml version="1.0" encoding="UTF-8"?>
<svg id="Layer_1" data-name="Layer 1" xmlns="http://www.w3.org/2000/svg" xmlns:xlink="http://www.w3.org/1999/xlink" viewBox="0 0 47.91 57.24">
  <defs>
    <style>
      .cls-1 {
        fill: url(#_Áåçûìÿííûé_ãðàäèåíò_3-3);
      }

      .cls-1, .cls-2, .cls-3, .cls-4 {
        stroke-width: 0px;
      }

      .cls-2 {
        fill: url(#_Áåçûìÿííûé_ãðàäèåíò_3-2);
      }

      .cls-3 {
        fill: #ec934d;
      }

      .cls-4 {
        fill: url(#_Áåçûìÿííûé_ãðàäèåíò_3);
      }
    </style>
    <linearGradient id="_Áåçûìÿííûé_ãðàäèåíò_3" data-name="Áåçûìÿííûé ãðàäèåíò 3" x1="52.4" y1="-10.16" x2="45.45" y2=".8" gradientUnits="userSpaceOnUse">
      <stop offset="0" stop-color="#d05c2a"/>
      <stop offset="1" stop-color="#59163e"/>
    </linearGradient>
    <linearGradient id="_Áåçûìÿííûé_ãðàäèåíò_3-2" data-name="Áåçûìÿííûé ãðàäèåíò 3" x1="36.16" y1="-2.03" x2="5.01" y2="98.78" xlink:href="#_Áåçûìÿííûé_ãðàäèåíò_3"/>
    <linearGradient id="_Áåçûìÿííûé_ãðàäèåíò_3-3" data-name="Áåçûìÿííûé ãðàäèåíò 3" x1="30.86" y1="12.74" x2="6.39" y2="103.13" xlink:href="#_Áåçûìÿííûé_ãðàäèåíò_3"/>
  </defs>
  <path class="cls-4" d="M47.61,39.42c-.08,1.16-.17,2.35-.59,3.43-1.18,3.07-3.6,6.45-6.15,8.54-2.76,2.27-6.29,3.27-9.49,4.75-1.34.62-2.72,1.08-4.24,1.09-1.66.02-3.23-.66-4.6-1.56-4.32-2.83-7.32-7.06-11.13-10.45-.61-.55-1.75-1.64-1.55-2.57.12-.56.78-.79,1.34-.91-.35-.07-.7-.14-1.05-.22-.84-.19-1.69-.43-2.47-.81-1.28-.62-2.1-1.67-2.99-2.75-1.77-2.14-3.75-4.24-4.49-6.98-1.06-3.94,1.95-7.08,4.21-9.97.94-1.19,1.96-2.3,2.95-3.45.12-.13.18-.28.26-.43.1-.19.27-.33.42-.47.35-.33.73-.64,1.11-.92.39-.29.79-.55,1.21-.79.21-.12.42-.24.64-.35.09-.04.61-.22.63-.3.01-.05.03-.1.04-.15.25-.82.76-1.57,1.43-2.11,3.25-2.63,6.57-5.14,10.03-7.5C26.58,2.22,29.34-.46,33.78.07c3.15.37,6.03,1.89,8.81,3.31.44.23.86.46,1.26.75.93.67,1.88,1.26,2.37,2.34.49,1.04.58,2.22.67,3.38.17,2.25.34,4.5.48,6.75.03.43.01.87.05,1.29.02.19.06.38.07.58.02.43,0,.94-.26,1.3-.11.15-.21.29-.28.46-.04.08-.26.66-.34.66.38,0,.71.27.89.61.18.33.22.72.26,1.09.1.99.14,1.98.08,2.97-.03.49-.08.97-.16,1.45-.04.24-.08.49-.15.72-.08.28-.19.56-.3.83-.12.27-.25.53-.41.78-.06.09-.24.46-.35.49.25-.06.47.15.63.35.58.76.84,1.6.72,2.55-.02.16,0,.31.02.47.02.24,0,.48,0,.72-.01.56-.03,1.11-.04,1.67-.04,1.29-.1,2.58-.18,3.86Z"/>
  <path class="cls-2" d="M47.85,34.83c-.04.72-.09,1.45-.12,2.16-.04.82-.08,1.63-.13,2.44-.08,1.16-.17,2.35-.59,3.43-.26.67-.61,1.28-1.05,1.83-2.51,3.2-7.54,4.66-10.97,6.26-1.34.61-2.71,1.08-4.23,1.09-1.67,0-3.23-.67-4.6-1.56-.68-.45-1.42-.96-2-1.54-1.91-1.97-4.23-3.75-6.16-5.8-.79-.82-1.51-1.7-2.11-2.63-.57-.87.27-1.13,1.21-1.19.25,0,.5,0,.75,0h.16c.39.02.72.04.87.05.62.02,1.24.06,1.86.1,1.59.1,3.17.19,4.76,0-.54-.09-1.08-.17-1.62-.24-2.7-.38-5.4-.71-8.12-.96-.25-.02-.51-.05-.76-.07-2.92-.26-4.96-3.33-6.7-5.42,0-.02-.02-.02-.03-.04-.54-.66-1.11-1.31-1.65-1.99-1.2-1.5-2.29-3.07-2.8-4.95-.23-.84-.34-1.74-.17-2.6.06-.32.16-.64.29-.95.46-1.08,1.26-2.07,1.94-2.98,1.29-1.7,2.94-3.9,4.9-5.01.22-.13.45-.25.68-.35.67-.27,1.38-.38,2.1-.47s1.43-.15,2.14-.2c.2-.02.39-.03.6-.04,1.6-.11,3.2-.19,4.78-.4.69-.09,1.37-.22,2.06-.38-1.89-.2-3.81-.27-5.71-.22-.69.02-1.39.07-2.08.12-.23,0-.46.02-.69.03-.23,0-.42-.06-.6-.18-.34-.2-.16-.49.09-.68,1.52-1.1,2.88-2.4,4.32-3.59,1.48-1.23,3.09-2.25,4.67-3.32C26.58,2.22,29.34-.46,33.78.07c3.15.37,6.03,1.89,8.81,3.31.44.23.86.46,1.26.75.93.67,1.88,1.26,2.37,2.34.49,1.04.58,2.22.67,3.38.08,1.05.13,2.11.16,3.17.05,1.8.05,3.61.11,5.4,0,.16.02.31.02.46,0,.12,0,.24-.03.35-.04.11-.13.2-.21.27-.03.02-.06.05-.09.07-.42.31-.87.57-1.35.78-.11.06-.22.1-.34.14.53-.06,1.58-.19,1.96.36.27.37.33.8.31,1.24-.04,1.04-.08,2.1,0,3.14,0,.03,0,.06,0,.09.07.76.03,1.63-.58,2.19-.14.13-.31.24-.47.33-.16.09-.34.18-.5.27-.45.24-.9.45-1.37.64-.79.31-1.61.55-2.44.71.45-.02.9-.04,1.34-.06.74-.03,1.47-.06,2.21-.09.69-.02,1.5,0,1.89.57.16.24.22.54.26.83.2,1.35.17,2.73.09,4.11Z"/>
  <path class="cls-1" d="M47.42,25.23c-1.27.26-2.54.53-3.82.86-4.33,1.11-8.7,2.14-13.06,3.11-7.15,1.59-14.81,3.4-22.26,3.5-.54-.66-1.11-1.31-1.65-1.99,7.85-2.61,16.21-3.94,24.14-6.31,3.96-1.19,7.83-2.6,11.68-4.08-4.7.31-9.36.97-14.08,1.2-5.37.27-10.74.82-16.11,1.03-3.06.12-5.73.2-8.32-.35.46-1.08,1.26-2.07,1.94-2.98,1.29-1.7,2.94-3.9,4.9-5.01,1.01-.15,2.01-.27,3.01-.4,5.07-.64,10.24-.9,15.35-1.16,5.41-.29,10.73.28,16.14.36.57,0,1.15,0,1.76-.02.05,1.8.05,3.61.11,5.4,0,.16.02.31.02.46,0,.12,0,.24-.03.35-.05.15-.18.25-.31.35-.52.39-1.08.69-1.69.92.53-.06,1.58-.19,1.96.36.27.37.33.8.31,1.24-.04,1.04-.08,2.1,0,3.14ZM39.25,34.42c-5.41-.1-10.77.26-16.09,1.19-.17.03-.14.32.04.31,5.25-.44,10.58-.46,15.8.41,1.46.24,2.91.56,4.34.9-3.61.79-7.25,1.24-10.94,1.55-2.83.24-5.66.35-8.5.42-1.96.05-3.92.07-5.88.09h-.16c-.25,0-.5,0-.75,0-.94.06-1.78.32-1.21,1.19.6.93,1.33,1.81,2.11,2.63,4.74.71,9.53,1.04,14.38,1.24,4,.17,8,.14,12.01.26.53.02,1.05.04,1.56.06.44-.55.79-1.16,1.05-1.83.42-1.08.51-2.27.59-3.43.05-.81.09-1.62.13-2.44.03-.71.08-1.44.12-2.16-2.91-.24-5.84-.35-8.6-.4Z"/>
  <path class="cls-3" d="M13.25,36.65c.77.6,1.59,1.13,2.47,1.57-1.32.05-2.6-.51-3.64-1.32-1.27-.98-3.04-2.69-3.77-4.15,0-.02-.02-.02-.03-.04-.54-.66-1.11-1.31-1.65-1.99-1.2-1.5-2.29-3.07-2.8-4.95-.23-.84-.34-1.74-.17-2.6.06-.32.16-.64.29-.95.46-1.08,1.26-2.07,1.94-2.98,1.29-1.7,2.94-3.9,4.9-5.01.22-.13.45-.25.68-.35.67-.27,1.38-.38,2.1-.47,2.5-.3,5.04-.3,7.53-.64-1.96.53-4.03,1.01-6.01,1.23-1.3.14-2.62.24-3.83.71-1.21.49-1.59,1.7-2.4,2.6-.98,1.09-2.14,2.13-3.16,3.21-.17.18-.35.38-.4.62-.18.82,1.17.98,1.68,1.03,2.07.2,4.17.34,6.23.61-1.36-.18-2.69.3-4.04.28-1.47-.02-2.75-.04-4.16.53-.51.21-.4.41-.27.9.14.52.3,1.04.47,1.55.12.36.24.72.38,1.08.77,2.09,2.72,4.27,4.12,5.99,1.06,1.29,2.23,2.51,3.54,3.53Z"/>
  <path class="cls-3" d="M47.85,34.83c-.04.72-.09,1.45-.12,2.16-.04.82-.08,1.63-.13,2.44-.08,1.16-.17,2.35-.59,3.43-.26.67-.61,1.28-1.05,1.83-2.51,3.2-7.54,4.66-10.97,6.26-1.34.61-2.71,1.08-4.23,1.09-1.67,0-3.23-.67-4.6-1.56-.68-.45-1.42-.96-2-1.54-1.91-1.97-4.23-3.75-6.16-5.8-.79-.82-1.51-1.7-2.11-2.63-.57-.87.27-1.13,1.21-1.19.25,0,.5,0,.75,0h.16c.39.02.72.04.87.05.62.02,1.24.06,1.86.1-.67.12-1.34.23-1.96.27-.18.02-.37.03-.54.11-.27.13-.42.41-.49.7-.16.86.45,1.64,1.03,2.29,2.68,2.92,5.69,5.55,8.95,7.82,1.17.81,2.63.69,4.04.46,4.74-.79,9.25-2.9,12.9-6.03.86-.73,1.04-1.85,1.34-2.93.83-3.02,1.23-6.16,1.18-9.29,0-.57-.04-1.15-.33-1.63-.68-1.13-2.35-1.08-3.47-1.78.74-.03,1.47-.06,2.21-.09.69-.02,1.5,0,1.89.57.16.24.22.54.26.83.2,1.35.17,2.73.09,4.11Z"/>
  <path class="cls-3" d="M46.85,27.52c-.14.13-.31.24-.47.33.02-.14.09-.3.13-.42.07-.26.13-.53.19-.79.12-.52.2-1.04.25-1.58.06-.6.09-1.22.07-1.83,0-.36-.04-.74-.19-1.07-.25-.56-.82-.9-1.36-1.22-.28-.17-.57-.33-.86-.49.29-.03.58-.07.87-.1-.11.06-.22.1-.34.14.53-.06,1.58-.19,1.96.36.27.37.33.8.31,1.24-.04,1.04-.08,2.1,0,3.14,0,.03,0,.06,0,.09.07.76.03,1.63-.58,2.19Z"/>
  <path class="cls-3" d="M47.14,19.23c-.04.11-.13.2-.21.27-.13-3.5-.75-6.96-1.38-10.41-.09-.48-.17-.97-.32-1.44-.1-.32-.3-.62-.45-.92-.93-1.96-3.28-2.56-5.13-3.33-2.52-1.05-6.2-3.18-8.99-2.32-1.22.38-2.28,1.13-3.32,1.88-1.81,1.32-3.58,2.69-5.41,3.98-1.74,1.21-4,2.1-5.51,3.58-.38.38-1.04,1.01-1.09,1.58,0,.06,0,.13.02.19-.23,0-.46.02-.69.03-.23,0-.42-.06-.6-.18-.34-.2-.16-.49.09-.68,1.52-1.1,2.88-2.4,4.32-3.59,1.48-1.23,3.09-2.25,4.67-3.32C26.58,2.22,29.34-.46,33.78.07c3.15.37,6.03,1.89,8.81,3.31.44.23.86.46,1.26.75.93.67,1.88,1.26,2.37,2.34.49,1.04.58,2.22.67,3.38.08,1.05.13,2.11.16,3.17.05,1.8.05,3.61.11,5.4,0,.16.02.31.02.46,0,.12,0,.24-.03.35Z"/>
</svg>