<svg version="1.2" xmlns="http://www.w3.org/2000/svg" viewBox="0 0 200 80" width="200" height="80">
	<title>New Project</title>
	<defs>
		<linearGradient id="g1" x2="1" gradientUnits="userSpaceOnUse" gradientTransform="matrix(-36.882,99.257,-36.137,-13.428,180.999,-105.741)">
			<stop offset="0" stop-color="#cf5c2b"/>
			<stop offset="1" stop-color="#59173e"/>
		</linearGradient>
		<linearGradient id="g2" x2="1" gradientUnits="userSpaceOnUse" gradientTransform="matrix(-33.73,177.9,-61.026,-11.571,132.86,-31.216)">
			<stop offset="0" stop-color="#cf5c2b"/>
			<stop offset="1" stop-color="#59173e"/>
		</linearGradient>
		<linearGradient id="g3" x2="1" gradientUnits="userSpaceOnUse" gradientTransform="matrix(-46.339,236.649,-56.683,-11.099,126.434,-35.336)">
			<stop offset="0" stop-color="#cf5c2b"/>
			<stop offset="1" stop-color="#59173e"/>
		</linearGradient>
		<linearGradient id="g4" x2="1" gradientUnits="userSpaceOnUse" gradientTransform="matrix(-12.908,34.506,-23.268,-8.704,159.402,-3.422)">
			<stop offset="0" stop-color="#cf5c2b"/>
			<stop offset="1" stop-color="#59173e"/>
		</linearGradient>
		<linearGradient id="g5" x2="1" gradientUnits="userSpaceOnUse" gradientTransform="matrix(-31.012,71.907,-48.487,-20.912,161.777,-6.002)">
			<stop offset="0" stop-color="#cf5c2b"/>
			<stop offset="1" stop-color="#59173e"/>
		</linearGradient>
		<linearGradient id="g6" x2="1" gradientUnits="userSpaceOnUse" gradientTransform="matrix(-12.908,34.506,-23.268,-8.704,88.542,22.694)">
			<stop offset="0" stop-color="#cf5c2b"/>
			<stop offset="1" stop-color="#59173e"/>
		</linearGradient>
		<linearGradient id="g7" x2="1" gradientUnits="userSpaceOnUse" gradientTransform="matrix(-75.949,172.818,-116.531,-51.212,118.111,-40.2)">
			<stop offset="0" stop-color="#cf5c2b"/>
			<stop offset="1" stop-color="#59173e"/>
		</linearGradient>
		<linearGradient id="g8" x2="1" gradientUnits="userSpaceOnUse" gradientTransform="matrix(-22.133,41.864,-3.303,-1.746,141.945,-47.385)">
			<stop offset="0" stop-color="#cf5c2b"/>
			<stop offset="1" stop-color="#59173e"/>
		</linearGradient>
		<linearGradient id="g9" x2="1" gradientUnits="userSpaceOnUse" gradientTransform="matrix(-27.547,68.006,-2.931,-1.187,84.725,-82.178)">
			<stop offset="0" stop-color="#cf5c2b"/>
			<stop offset="1" stop-color="#59173e"/>
		</linearGradient>
		<linearGradient id="g10" x2="1" gradientUnits="userSpaceOnUse" gradientTransform="matrix(-24.667,60.895,-9.499,-3.848,100.252,-61.887)">
			<stop offset="0" stop-color="#cf5c2b"/>
			<stop offset="1" stop-color="#59173e"/>
		</linearGradient>
		<linearGradient id="g11" x2="1" gradientUnits="userSpaceOnUse" gradientTransform="matrix(-27.066,61.955,-5.26,-2.298,195.889,-25.298)">
			<stop offset="0" stop-color="#cf5c2b"/>
			<stop offset="1" stop-color="#59173e"/>
		</linearGradient>
	</defs>
	<style>
		.s0 { fill: url(#g1) } 
		.s1 { fill: url(#g2) } 
		.s2 { fill: url(#g3) } 
		.s3 { fill: #eb924d } 
		.s4 { fill: url(#g4) } 
		.s5 { fill: url(#g5) } 
		.s6 { fill: url(#g6) } 
		.s7 { fill: url(#g7) } 
		.s8 { fill: url(#g8) } 
		.s9 { fill: url(#g9) } 
		.s10 { fill: url(#g10) } 
		.s11 { fill: url(#g11) } 
	</style>
	<g id="&lt;Group&gt;">
		<path id="&lt;Path&gt;" class="s0" d="m200.9 59.7q-0.1-2.2-0.3-4.5-0.1-2.4-0.2-4.8c-0.1-1-0.2-2.2-0.2-3.3 0-1 0.3-2.5-0.2-3.3-0.3-0.5-0.9-0.7-1.5-0.8q-1.1-0.2-2.3-0.4 1.6-0.3 3-0.9c0.2-0.1 0.5-0.2 0.6-0.3 0.1-0.2 0.2-0.4 0.2-0.6 0.4-2.1 0.1-4.3 0.1-6.4q0-3.2 0-6.4 0-3 0-6.1c0-0.7 0.3-2.1-0.1-2.7-0.2-0.5-0.9-0.5-1.4-0.5q-0.7-0.1-1.5 0c-0.7 0-1.5 0.1-2.2 0.2 1-0.2 2-0.4 2.9-0.6 0.7-0.2 1.3-0.4 1.9-0.7 0.3-0.2 0.7-0.3 0.9-0.7 0.1-0.1 0.1-0.3 0.2-0.5q0.1-0.6 0.1-1.1 0.1-1.6 0.1-3.2 0.1-0.8 0-1.6c0-0.4-0.1-0.7-0.1-1-0.2-1.5-0.7-2.8-1.7-3.9-0.9-1.1-2.1-1.9-3.5-2.3q-0.8-0.2-1.6-0.2c-62.6-2.1-123.9-2.1-183.9-0.1-0.3 0.1-0.5 0-0.7 0.1q-0.4 0.1-0.8 0.2-0.7 0.3-1.4 0.6c-0.9 0.5-1.8 1.1-2.4 1.9-0.3 0.5-0.6 1-0.9 1.5-0.1 0.3-0.4 0.5-0.5 0.7-0.6 1.3-1.3 2.6-2.1 3.7-0.9 1.1-1.2 2.9-1.1 4.2 0.2 1.8 0.2 3.7 0.4 5.5 0.2 2.9 0 5.9 0.3 8.8 0.1 0.4 0.1 0.9 0.4 1.2 0.3 0.1 0.6 0.2 0.8 0.3q1.4 0.3 2.8 0.6c-1.1 0.7-2.8 0.8-3.4 2-0.2 0.4-0.3 0.8-0.3 1.3-0.1 1.5-0.2 3.1-0.4 4.7q0 1-0.1 2.1c0 0.6 0 1.3-0.1 2-0.2 1.5-0.5 3.5-0.1 5 0.5 1.5 2.3 1.6 3.6 1.9-0.7 0.1-1.2 0.6-1.6 1.2-0.2 0.3-0.3 0.6-0.5 0.8q-0.3 0.4-0.5 0.8-0.4 0.8-0.6 1.7c-0.1 0.3-0.2 0.6-0.2 1q0 0.6 0 1.1-0.1 1.1-0.1 2.1 0 2.2 0 4.3c0 1.4-0.3 2.7 0.2 4.1 0.6 1.3 1.6 2.5 2.9 3.2 1 0.6 2.1 1 3.3 1 60.4 2.7 121.7 2.6 184 0 1.7-0.1 3.3-0.7 4.5-1.8 0.6-0.6 1.1-1 1.5-1.7q0.8-1.2 1.5-2.5c1.1-2.1 2.5-4.4 2.3-6.9z"/>
		<path id="&lt;Path&gt;" class="s1" d="m194.2 67.3c-62.3 2.6-123.7 2.7-184 0-2.7 0-5.2-1.9-6.2-4.3-0.4-1.1-0.5-2.3-0.5-3.4q0-0.3 0.1-0.6c0.1-0.3 0.2-0.6 0.3-0.9q0-0.3 0-0.5c0.1-0.9 0.2-1.9 0.3-2.8 0-0.5 0.1-1 0.2-1.5 0.2-0.6 0.4-1.1 0.9-1.5 2-1.5 5.9-1.5 8.8-1.5q0.8 0 1.5-0.1 1.9-0.1 3.8-0.1-4.5 0-8.9-0.8-2.1-0.3-4.1-0.8-0.6-0.2-1-0.4c-0.5-0.2-0.8-0.5-1-0.9-0.2-0.3-0.2-0.8-0.2-1.1 0-0.4 0-0.8 0-1.2 0-0.8 0.1-1.5 0.2-2.3q0.1-1 0.2-1.9 0.2-2.6 0.3-5.1c0.1-0.6 0.1-1.1 0.5-1.5 0.2-0.2 0.5-0.3 0.8-0.4q1.1-0.4 2.3-0.6c0.4-0.1 0.8-0.1 1.2-0.2 0.4-0.1 0.7-0.2 1.2-0.3q6.6-0.7 13.2-1.5 0.8-0.1 1.6-0.2-10-1.2-19.9-2.4-0.5-0.1-0.9-0.1c-0.3-0.1-0.5-0.1-0.7-0.3q-0.1 0-0.1 0c-0.1-0.2-0.1-0.4-0.1-0.7-0.3-3.5 0-7.2-0.2-10.9 0-0.2-0.1-1.2-0.1-2.3-0.1-1.7-0.2-3.6-0.3-3.6-0.3-4 2.8-7.4 6.8-7.5 60-2.1 121.3-2.1 183.9 0 4 0.1 7.1 3.6 6.8 7.6-0.1 1.3 0.1 2.6-0.2 4-0.1 0.3-0.2 0.7-0.4 0.9-0.2 0.2-0.5 0.2-0.8 0.3q-1.1 0.3-2.3 0.6c-1 0.2-2 0.4-3 0.5q-9.1 1-18.1 2-0.2 0-0.5 0-0.3 0.1-0.5 0.1 0.7 0 1.4 0 11.3-0.2 22.7-0.4c0.2 0 0.4 0 0.6 0.1 0.2 0.2 0.2 0.4 0.2 0.7q0.1 0.4 0.1 0.9c0 1-0.2 1.9-0.2 2.9 0 0.8 0.2 1.7 0.2 2.5q0 1.9-0.1 3.9c-0.1 2.9-0.3 5.8-0.6 8.7-0.1 0.5-0.2 0.9-0.4 1.2-0.3 0.3-0.6 0.4-0.9 0.5q-0.3 0.1-0.6 0.2c-4.4 1.2-9.3 0.2-13.8 1q-0.5 0.1-0.9 0.2-0.2 0-0.3 0.1 0.5 0 1.1 0 7.5 0.6 14.9 1.5c0.6 0.1 1.2 0.2 1.6 0.7 0.2 0.4 0.2 0.8 0.2 1.3v1.5c0 1.4 0 2.9 0.1 4.4q0.2 2.9 0.4 5.9 0 1.4 0.1 2.8c0.3 4-2.7 7.4-6.7 7.6z"/>
		<path id="&lt;Compound Path&gt;" class="s2" d="m200.1 25.8q0 1.9-0.1 3.9c-2.6 0.2-5.1 0.4-7.5 0.7q-0.9 0.1-1.7 0.2-3.2 0.3-6.4 0.6-1.6 0.1-3.2 0.2c-0.6 0.1-1.2 0.4-1.9 0.4-0.9 0.1-1.9-0.1-2.9-0.2q-1.5 0-3.1 0-3.1 0-6.2 0.4c-4.1 0.5-8.2 1.2-12.3 1.9q-9.9 1.7-19.9 2.5 5.5 0.6 10.8 1.8-2 0.2-4 0.3-6.4 0.4-12.7 0.5-6.4 0-12.7 0-6.4 0-12.8 0-6.3 0.1-12.7 0.4-3.1 0.1-6.3 0.4-0.8 0-1.6 0.1c-0.6 0-1.2 0.2-1.9 0.3-5 0.6-10.1 1.3-15.1 2.3-7.7 1.5-15.5 3-23.4 3.6q-2.2 0.1-4.3 0.2c-6.8 1.4-14.1 1.7-20.8 2.5-2.3 0.3-4.6 0.4-6.9 0.5q-2.1-0.3-4.1-0.8-0.6-0.2-1-0.4c-0.5-0.2-0.8-0.5-1-0.9-0.2-0.3-0.2-0.8-0.2-1.1 0-0.4 0-0.8 0-1.2 0-0.8 0.1-1.5 0.2-2.3 6.1-0.5 12.4-2.3 18.2-3.1 7.6-1.1 15.3-1.7 22.9-2.2 8.6-0.4 17.1 0.6 25.7 0.6 8 0 15.9-0.7 23.8-1.4q23.1-1.8 46.2-3.8-5-0.1-10.1-0.3-6.4-0.2-12.8-0.5c-1-0.1-2-0.2-3-0.1q-1.5 0.2-3 0.1-3.1 0-6.1-0.8c-1.1-0.2-2.3-0.6-3.4-0.8-2-0.4-4.1-0.2-6.1-0.3-7.5-0.1-14.9-2.1-22.5-2-1.9 0-3.9 0.2-5.9 0.4-2.1 0.2-4.2 0.4-6.3 0.4-0.9 0-1.9 0.1-2.8-0.1-0.7-0.2-1.5-0.1-2.2-0.1q-1.9-0.1-3.8-0.1-3.8-0.1-7.7-0.1c-9.6 0-19.3 0.5-28.9 0.4-4.2 0-8.3-0.1-12.4-0.7q-0.1 0-0.1 0c-0.1-0.2-0.1-0.4-0.1-0.7-0.3-3.5 0-7.2-0.2-10.9 0-0.2-0.1-1.2-0.1-2.3 4.9-0.5 9.9-0.6 14.8-0.9 9.6-0.7 19.3-1 29-1 19.2 0.1 38.3 1.3 57.5 2.8 19.2 1.4 38.3 3.2 57.4 4.6 9.7 0.7 19.4 1.1 29.1 1.1 2.8 0 5.7-0.2 8.6-0.4 0 1-0.2 1.9-0.2 2.9 0 0.8 0.2 1.7 0.2 2.5zm0.3 25.2c-0.1-1.5-0.1-3-0.1-4.4-6.1-0.7-12.2-1.4-18.4-1.8-10.5-0.7-21.1-0.6-31.6-0.2-2.2 0.1-4.4 0.1-6.6 0.4q-1.6 0.2-3.1 0.4-6.4 0.8-12.7 1.2-2.5 0.2-5 0.4 6.5-0.1 12.9-0.1 6.4-0.1 12.8-0.1 3.2 0 6.4-0.1 1.6 0 3.2 0c0.5 0 0.9 0 1.4 0 0.3-0.1 0.5-0.2 0.8-0.3 0.9-0.1 2 0.1 3 0.1q1.6 0.1 3.2 0.2 3.2 0.2 6.3 0.5 5 0.3 10 0.8c3.7 0.3 7.3 0.7 10.9 1.2-8.2 0.8-16.4 1.6-24.7 2-18.9 1.1-37.9 2.4-56.9 2-18.8-0.3-37.5-1.4-56.2-1.4q-14.9 0.1-29.7 0.5c-7.2 0.2-14.6 0.2-21.9 1-0.1 0.5-0.2 1-0.2 1.5-0.1 0.9-0.2 1.9-0.3 2.8 8.1 0.3 16.3-0.2 24.4-0.3q14.8 0 29.6 0.3c18.7 0.5 37.4 1.5 56.2 1.9 19 0.3 38-1.1 57-2 9.8-0.5 19.6-0.5 29.5-0.6h0.2q-0.2-3-0.4-5.9z"/>
		<g id="&lt;Group&gt;">
			<path id="&lt;Path&gt;" class="s3" d="m149.6 16.6c-3.9-2.2-10.4-1.5-13.5 1.4-2 1.9-2.1 5.3 0 7.2 4.5 4 12.4 2.3 15.3-2.7q0-0.1 0.1-0.2c2.2-2 0.7-5.2-1.9-5.7z"/>
			<path id="&lt;Path&gt;" class="s4" d="m150.5 14.7c-3.9-2.2-10.4-1.6-13.5 1.4-1.9 1.8-2 5.3 0 7.1 4.5 4.1 12.4 2.4 15.3-2.7q0.1 0 0.2-0.1c2.1-2 0.6-5.3-2-5.7z"/>
			<path id="&lt;Path&gt;" class="s5" d="m149.6 15.9c-3.9-2.2-10.4-1.5-13.5 1.4-2 1.9-2.1 5.3 0 7.2 4.5 4 12.4 2.3 15.3-2.7q0-0.1 0.1-0.2c2.2-1.9 0.7-5.2-1.9-5.7z"/>
		</g>
		<g id="&lt;Group&gt;">
			<path id="&lt;Path&gt;" class="s3" d="m76.3 49.1c-3.9-2.2-10.4-1.5-13.5 1.4-1.9 1.9-2 5.3 0 7.2 4.5 4 12.4 2.3 15.3-2.7q0.1-0.1 0.2-0.2c2.2-1.9 0.6-5.2-2-5.7z"/>
			<path id="&lt;Path&gt;" class="s6" d="m77.2 47.2c-3.9-2.2-10.4-1.5-13.4 1.4-2 1.9-2.1 5.3 0 7.2 4.5 4 12.4 2.3 15.2-2.7q0.1-0.1 0.2-0.2c2.2-2 0.6-5.2-2-5.7z"/>
			<path id="&lt;Path&gt;" class="s7" d="m76.3 48.4c-3.9-2.2-10.4-1.5-13.5 1.4-1.9 1.9-2 5.4 0 7.2 4.5 4.1 12.4 2.3 15.3-2.7q0.1-0.1 0.2-0.1c2.2-2 0.6-5.3-2-5.8z"/>
		</g>
		<path id="&lt;Path&gt;" class="s3" d="m5.1 45.9c0 0.8 0 1.5 0.3 2.2-0.5-0.2-0.8-0.5-1-0.9-0.2-0.3-0.2-0.8-0.2-1.1 0-0.4 0-0.8 0-1.2 0.1-1.4 0.3-2.8 0.4-4.2q0.2-2.6 0.3-5.1c0.1-0.6 0.1-1.1 0.5-1.5 0.2-0.2 0.5-0.3 0.8-0.4q1.1-0.4 2.3-0.6c0.4-0.1 0.8-0.1 1.2-0.2 0.4-0.1 0.7-0.2 1.2-0.3q6.6-0.7 13.2-1.5-7.1 1.4-14.2 2.8c-0.9 0.2-2.1 0.2-2.9 0.8-0.3 0.3-0.6 0.6-0.8 0.9-0.1 0.1-0.7 1.4-0.5 1.4q5.2 0.2 10.5 0.3-3.9 0.7-7.7 1.4c-1.3 0.3-2.8 0.7-3.4 1.9-0.3 0.7-0.3 1.7-0.2 2.5 0.1 0.3 0.2 0.6 0.2 0.8 0.1 0.7 0 1.4 0 2z"/>
		<path id="&lt;Path&gt;" class="s3" d="m175.6 19q-0.4 0-0.8 0h1.3q-0.2 0-0.5 0z"/>
		<path id="&lt;Path&gt;" class="s3" d="m180 41q1.8 0.2 3.7 0.3-0.5 0.1-0.9 0.2-1.4-0.3-2.8-0.5z"/>
		<path id="&lt;Path&gt;" class="s3" d="m198.1 39.2c0.2-0.8 0.1-1.6 0.1-2.4q-0.2-2.2-0.4-4.4c0-0.2 0-0.6-0.3-0.7-0.1-0.2-0.4-0.2-0.6-0.2q-2.8 0.1-5.5 0.2c2-0.1 3.9-0.7 5.7-1.5 0.5-0.3 1.1-0.6 1.3-1.1 0.1-0.3 0.1-0.6 0.1-0.9-0.1-2.3-0.5-4.8-0.7-7.1-0.9-0.8-2.2-0.9-3.4-1q-7.1-0.4-14.3-0.9c-1.1 0-2.4-0.1-3.6-0.1q11.3-0.2 22.7-0.4c0.2 0 0.4 0 0.6 0.1 0.2 0.2 0.2 0.4 0.2 0.7 0.2 1.3-0.1 2.5-0.1 3.8 0 0.8 0.2 1.7 0.2 2.5-0.1 4.1-0.3 8.4-0.7 12.6-0.1 0.5-0.2 0.9-0.4 1.2-0.3 0.3-0.6 0.4-0.9 0.5q-0.3 0.1-0.6 0.2c0.3-0.3 0.5-0.7 0.6-1.1z"/>
		<path id="&lt;Path&gt;" class="s3" d="m3.8 16.5c0-0.5-0.3-5.9-0.4-5.9-0.3-4 2.8-7.4 6.8-7.5 60-2.1 121.3-2.1 183.9 0 4 0.1 7.1 3.6 6.8 7.6-0.1 1.3 0.1 2.6-0.2 4-0.1 0.3-0.2 0.7-0.4 0.9-0.2 0.2-0.5 0.2-0.8 0.3-0.8 0.2-1.5 0.4-2.3 0.6 0.7-0.6 1.4-1.3 1.7-2.2 0.2-0.6 0.1-1.1-0.1-1.6-0.3-0.9-0.4-1.7-0.4-2.6-0.1-1.1 0.1-2.7-0.7-3.6-0.7-0.6-1.6-1.2-2.4-1.6-2.1-1-4.4-1.2-6.7-1.3q-0.2 0-0.3-0.1c-4.2-0.1-8.4-0.1-12.6 0.3-0.5 0.1-0.9 0.2-1.4 0.3-0.6 0.1-1.4 0-2 0q-2.1-0.2-4.2-0.2-4.3-0.2-8.5-0.3-3.2 0-6.4 0-1 0-2 0-2 0-3.9 0-2.7 0-5.4 0-0.1 0-0.2 0-4.3 0-8.5 0-2.2 0-4.3 0c-0.6 0-1.4 0.1-2-0.1-0.6-0.1-1.2-0.5-1.8-0.5-0.7-0.1-1.3 0-1.9 0.1q-2.3 0.1-4.6 0.4c-0.7 0.1-1.5 0.2-2 0.7-0.1 0.2-0.3 0.4-0.5 0.6-0.4 0.3-1 0.1-1.5-0.1q-1.5-0.5-3.1-0.6c-1 0-1.9 0.1-2.9 0.1-0.6-0.1-1.2-0.2-1.8-0.3-2.3-0.5-4.7-0.5-7.1-0.7q-2.6-0.2-5.3-0.3c-5.6-0.2-11.3-0.1-17 0.2q-4.3 0.2-8.5 0.4c-1.3 0.1-2.7 0.4-4 0.2-0.4-0.1-0.8-0.2-1.1-0.3-0.4 0-0.8 0-1.2 0q-2.4 0-4.7 0-2.8 0-5.6 0c-0.6 0-1.2 0.1-1.8 0.1-0.5 0-1.1-0.1-1.7-0.1-1.1 0-2.3 0.3-3.4 0.7-0.4 0.2-0.8 0.4-1.3 0.3-0.8 0-1.4-0.8-2.1-1.1-1.8-0.9-3.6 0.7-5.4 0.1-0.9-0.4-1.9-0.3-2.8-0.3q-1.8 0-3.7 0c-4.1 0-8.2 0.1-12.3 0.5q-3 0.4-6.1 0.9c-0.9 0.2-1.9 0.5-2.9 0.6-0.3 0-0.6 0-0.8 0.2-1.2 0.8-4.6 5.6-2.2 7.2 0.8 0.6 1.8 0.6 2.7 0.6q9.1-0.2 18.2-0.3-9.8 0.8-19.6 1.6c-0.4 0-0.9 0-1.2 0.2-1.3 0.7-0.9 2.3-1 3.4-0.3 1.6 0 3.2 0.2 4.7q0.2 2.9 0.7 5.8-0.5-0.1-0.9-0.1c-0.3-0.1-0.6-0.1-0.8-0.3-0.1-0.2-0.1-0.4-0.1-0.7-0.3-3.5 0-7.2-0.2-10.9z"/>
		<path id="&lt;Path&gt;" class="s3" d="m194.2 67.3c-62.3 2.6-123.7 2.7-184 0-2.7 0-5.2-1.9-6.2-4.3-0.4-1.1-0.5-2.3-0.5-3.4q0-0.3 0.1-0.6c0.1-0.3 0.2-0.6 0.3-0.9 0.1-1.1 0.2-2.2 0.3-3.3 0.1-1.1 0.2-2.3 1.1-3 2-1.5 5.9-1.5 8.8-1.5 2.3 0 4.7 0 7.1 0.2-0.7 0-1.3 0.3-2 0.4-0.9 0-1.9 0.1-2.8 0.1q-2.8 0.2-5.5 0.3c-1.3 0.1-2.6 0.2-3.8 0.6-0.5 0.1-0.9 0.3-1.2 0.7-0.4 0.4-0.6 0.9-0.7 1.4-0.3 1-0.6 2.2-0.4 3.2 0 0.3 0.1 0.6 0.2 0.9 0 0.3 0 0.7 0 1-0.1 1.2 0 2.3 0.5 3.4 1.1 2.5 4 3.6 6.8 4.1 3.3 0.6 6 1.2 9.4 0.7q7.3 0.1 14.6 0.2 4.3 0 8.6 0c0.5 0 0.9-0.1 1.4-0.1 0.6 0 1.3 0.1 2 0.2q2.1 0.1 4.2 0.2 5.2 0.2 10.4-0.2c0.8 0 1.6-0.2 2.4 0.1 1.1 0.3 2.3 0.3 3.5 0.3q4.3 0.2 8.5 0.1 1 0 2.1-0.1c1-0.1 2.2-0.1 3.2-0.5 0.5-0.2 1-0.5 1.5-0.7 1.6-0.4 3.1 0.4 4.6 0.9 2 0.7 4.1 0.4 6.1 0.5 2.8 0.2 5.5 0.4 8.2 0.1q0.1 0 0.1 0c1.3-0.2 2.6-0.5 3.8-1.1 0.6-0.3 1.2-0.7 1.9-0.6 0.8 0 1.5 0.6 2.3 1 2.2 1.3 5 1.3 7.6 1 2.2-0.2 4.4-0.7 6.6-0.4 1 0.1 1.8-0.1 2.8-0.1q1.7 0 3.4 0c9.5 0.1 19.1 0.1 28.6-0.2q6-0.2 12-0.6 3.2-0.2 6.4-0.5 1.6-0.1 3.2-0.2c3.2-0.4 6.4-0.3 9.6-0.6 1.9-0.1 3.9-0.3 5.5-1.4 1-0.6 1.7-1.5 2-2.6 0.2-0.5 0.2-1.1 0.2-1.6-0.1-0.2-0.2-0.5-0.2-0.7q0-1.4 0-2.8c0-1.4 0.1-2.9-0.1-4.3 0-0.2 0-0.3-0.2-0.4-0.1-0.1-0.2-0.2-0.3-0.2q-0.8-0.2-1.6-0.5c0.7-0.3 1.5-0.7 1.7-1.5 0.2-0.3 0.1-0.7 0.1-1.1 0-0.8 0-1.7-0.3-2.5-0.4-0.8-0.4-1.4-1.3-1.6-4.2-1.2-8.8-2.3-13.2-3.2q7.5 0.6 14.9 1.5c0.6 0.1 1.2 0.2 1.6 0.7 0.2 0.4 0.2 0.8 0.2 1.3 0 2 0 3.9 0.1 5.9q0.2 4.4 0.5 8.7c0.3 4-2.7 7.4-6.7 7.6z"/>
		<path id="&lt;Path&gt;" class="s3" d="m86 13.4c-6.6 1.2-13.4 1.1-19.9-0.2 6.6-0.3 13.3 0 19.9 0.2z"/>
		<path id="&lt;Path&gt;" class="s3" d="m139.8 18.9c-3.3 0.5-6.7 0.3-10.1 0.2-9.2-0.4-18.6-0.9-27.1-4.1 5.2 0 10.3 0.9 15.5 1.5 7.1 1 14.6 1.7 21.7 2.4z"/>
		<path id="&lt;Path&gt;" class="s8" d="m144 18.6c-2.4-0.1-4.9-0.4-7.3-0.7q-16.5-1.8-32.9-3.6c-12-1.3-24-2.6-35.9-1.7-1.6-0.1-3.3 0.1-4.9 0.1 7.3 0.8 14.7 1.1 22.1 0.8 2.9-0.2 5.8-0.4 8.7-0.1 2.3 0.3 4.6 0.8 6.8 1.3 4.3 1 8.6 1.7 12.9 2.3 12.1 1.6 24.3 2.2 36.5 2.2-2.3-0.3-3.7-0.6-6-0.6z"/>
		<path id="&lt;Path&gt;" class="s3" d="m47.3 29.3c-5.8 0.6-11.7 0.6-17.5-0.1 5.9-0.6 11.6-0.4 17.5 0.1z"/>
		<path id="&lt;Path&gt;" class="s9" d="m51.9 29.3q-12.4-0.2-24.7-0.1c0.9 0 2-0.2 2.9-0.4q1.6-0.2 3.1-0.3c2.1-0.2 4.2-0.3 6.2-0.2 0.4 0.1 0.7 0 1 0 0.5-0.1 1 0 1.5 0q1.6 0.1 3.2 0.2 3.1 0.3 6.3 0.7 0.3 0.1 0.5 0.1z"/>
		<path id="&lt;Path&gt;" class="s3" d="m67.9 42.7q-3.3 1.4-6.7 2.7c-1.4 0.5-2.8 1.1-4.3 1.5-1.9 0.4-3.9 0.6-5.8 0.7-5 0.4-10 0.7-14.8-0.5 10.7-0.1 21.2-2.2 31.6-4.4z"/>
		<path id="&lt;Path&gt;" class="s10" d="m78 40.3q-8.6 2.2-17.1 4.4c-2.7 0.8-5.5 1.5-8.2 1.9-3.5 0.5-7 0.6-10.5 0.7q-4.6 0-9.2 0 1.8-0.3 3.6-0.5c0.5 0 1 0 1.5-0.1 2.5-0.4 4.9-0.2 7.4-0.3 2.7-0.1 5.3-0.8 8-1.3q6.2-1 12.4-2.3 6.1-1.2 12.1-2.5z"/>
		<path id="&lt;Path&gt;" class="s3" d="m177.4 51.4c-4.7 1.7-9.9 1.4-14.9 1.1-1.1-0.1-2.1-0.1-3.2 0-0.6 0.1-1.3 0.2-2 0.3-2.9 0.6-5.9 1.2-9 1.4-3 0.1-6.1-0.1-9-1.2 8 1.3 16.1-1.2 24.1-1.3 2-0.1 4 0 6-0.1 2.8-0.1 5.3-0.1 8-0.2z"/>
		<path id="&lt;Path&gt;" class="s11" d="m136.3 52.7c4.3 0.6 8.7 1.2 13.1 0.9 2.8-0.2 5.6-0.9 8.4-1.2 3.4-0.3 6.7-0.3 10.1-0.3q9-0.1 18-1.5-2.5-0.1-5 0c-1.5 0-2.9 0-4.4 0-3.3 0-6.5 0.3-9.8 0.5-3.3 0.3-6.5 0.6-9.8 0.9-3.2 0.3-6.5 0.6-9.7 0.8-3.3 0.1-6.5 0.2-9.8 0-0.4 0-0.7 0-1.1-0.1z"/>
	</g>
</svg>