<?xml version="1.0" encoding="UTF-8"?>
<svg id="Layer_1" data-name="Layer 1" xmlns="http://www.w3.org/2000/svg" xmlns:xlink="http://www.w3.org/1999/xlink" viewBox="0 0 49.43 57.19">
  <defs>
    <style>
      .cls-1 {
        fill: url(#_Áåçûìÿííûé_ãðàäèåíò_3-3);
      }

      .cls-1, .cls-2, .cls-3, .cls-4 {
        stroke-width: 0px;
      }

      .cls-2 {
        fill: url(#_Áåçûìÿííûé_ãðàäèåíò_3-2);
      }

      .cls-3 {
        fill: #ec934d;
      }

      .cls-4 {
        fill: url(#_Áåçûìÿííûé_ãðàäèåíò_3);
      }
    </style>
    <linearGradient id="_Áåçûìÿííûé_ãðàäèåíò_3" data-name="Áåçûìÿííûé ãðàäèåíò 3" x1="35.09" y1="-8.84" x2="28.92" y2="9.27" gradientUnits="userSpaceOnUse">
      <stop offset="0" stop-color="#d05c2a"/>
      <stop offset="1" stop-color="#59163e"/>
    </linearGradient>
    <linearGradient id="_Áåçûìÿííûé_ãðàäèåíò_3-2" data-name="Áåçûìÿííûé ãðàäèåíò 3" x1="34.53" y1="-4.63" x2="-4.98" y2="116.03" xlink:href="#_Áåçûìÿííûé_ãðàäèåíò_3"/>
    <linearGradient id="_Áåçûìÿííûé_ãðàäèåíò_3-3" data-name="Áåçûìÿííûé ãðàäèåíò 3" x1="29.14" y1="13.26" x2="-1.86" y2="101.02" xlink:href="#_Áåçûìÿííûé_ãðàäèåíò_3"/>
  </defs>
  <path class="cls-4" d="M49.17,25.75c-1.01,3.7-3.88,7.08-6.29,9.97-2.08,2.49-4.27,4.88-6.51,7.22-2.74,2.85-5.4,5.79-8.3,8.49-1.54,1.43-2.99,3-4.66,4.29-5.2,4.04-12.18-1.26-17.08-3.33-1.6-.68-3.23-1.38-4.47-2.59-.78-.76-1.37-1.75-1.57-2.82-.1-.54-.04-1.03,0-1.57.02-.19-.03-.36-.04-.56-.1-1.09.19-2.33.51-3.36.06-.21.14-.42.3-.57.13-.12.31-.17.48-.22.52-.14,1.05-.24,1.58-.29-1.12-.16-2.14-.89-2.67-1.89-.84-1.59-.26-3.84-.22-5.57.05-2.19.1-4.5.25-6.73.08-1.15.18-2.29.32-3.43.11-.93.11-2.26.62-3.08.33-.52.93-.79,1.5-1.03-.57-.04-1.14-.09-1.72-.15-.08,0-.03-1.41-.03-1.55.04-.82.06-1.83.22-2.67.1-.5.24-.99.45-1.45.16-.35.4-.53.6-.83,1.94-2.85,3.5-5.89,6.37-7.92.4-.28.83-.52,1.28-.74C12.89,1.95,15.8.44,18.97.07c4.47-.53,7.25,2.15,10.72,4.49,2.18,1.48,4.36,2.96,6.46,4.55,1.24.94,2.4,1.97,3.52,3.05.71.68,1.48,1.32,2.06,2.12.28.39.38.91.22,1.37-.03.09-.08.19-.05.29.02.09.1.15.18.21.39.28.82.61,1.27.78.3.11.63.09.94.2.92.34,1.61,1.14,2.22,1.86.03.03.05.06.08.09.55.66,1.1,1.32,1.66,1.97.26.31.56.6.73.97.17.36.31.75.38,1.14.17.86.06,1.76-.17,2.6Z"/>
  <path class="cls-2" d="M49.42,24.33c-.02.73-.29,1.37-.89,1.92-.14.13-.29.25-.45.36-.4.29-.83.51-1.27.73-.08.04-.17.09-.25.13-.55.29-1.1.56-1.66.85.04,0,.08,0,.12-.02.9-.07,1.84-.21,2.74-.21-.21.32-.42.64-.63.96-.66,1.01-1.34,2.02-2.04,3.01-.46.65-.92,1.29-1.4,1.92-.46.62-1.03,1.16-1.55,1.73-.15.17-.3.33-.49.44-.31.17-.68.17-1.03.18h-.02c-1.47.03-2.95.18-4.39.44.29.06.59.13.87.19.82.17,1.63.36,2.45.53.29.06.59.13.78.36-.21.26-.43.52-.65.78-.62.69-1.28,1.34-1.99,1.93-.2.17-.36.32-.49.53-.35.54-.89.94-1.36,1.38-2.41,2.27-4.86,4.5-7.18,6.87-.58.59-1.32,1.1-2.01,1.55-1.38.9-2.95,1.58-4.63,1.58-1.54,0-2.92-.48-4.27-1.1-4.06-1.89-10.34-3.58-12.12-8.16-.19-.47-.38-.99-.43-1.49-.06-.63-.11-1.24-.17-1.86-.02-.24-.04-.48.06-.7.2-.44.77-.56,1.26-.61,2.63-.29,5.26-.58,7.89-.86h.03c.34-.04.67-.07,1.01-.11-2.83-.48-5.65-.97-8.47-1.45-.22-.04-.45-.08-.67-.14-.35-.09-.68-.23-.93-.49-.44-.44-.51-1.1-.5-1.69.02-.5.08-.96.07-1.47,0-1.12,0-2.24,0-3.36,0-.86.02-1.72.05-2.57.02-.75.13-1.56.02-2.31-.03-.21-.08-.42-.13-.63-.06-.25-.11-.5-.1-.76,0-.19,0-.37.02-.56.06-1.47.25-2.94.37-4.39.03-.4.09-.84.38-1.12.29-.29.74-.31,1.15-.31,1.32-.02,2.65-.04,3.98-.04h.49c1.46,0,2.91.02,4.36.04-1.43-.18-2.84-.42-4.26-.7-.94-.17-1.92-.31-2.81-.67-.3-.13-.59-.21-.92-.24-.26-.02-.52-.02-.78-.05-.02,0-.05,0-.08,0-.19,0-.48,0-.59-.14-.05-.06-.06-.14-.06-.22-.06-.93-.1-1.87-.1-2.81,0-.27,0-.55,0-.82,0-1.42.09-2.86.69-4.14.5-1.09,1.45-1.69,2.39-2.36.4-.29.83-.52,1.28-.74C12.89,1.97,15.8.44,18.97.07c4.47-.53,7.25,2.17,10.72,4.53,2.46,1.67,4.9,3.37,7.24,5.2.08.06.17.13.25.18.64.5,1.26.96,1.72,1.62.29.42.7.7,1.07,1.05.42.4.82.82,1.18,1.27.07.08.14.17.13.29,0,.2-.25.29-.44.32-.28.06-.55.11-.82.17-1.51.3-3.04.61-4.56.92.5,0,1,0,1.5,0,1.58-.02,3.16-.07,4.72.15.66.1,1.4.21,2.07.45.31.11.6.25.86.41.15.1.25.21.35.36.3.47.64.87,1.01,1.3,1.31,1.53,3,3.03,3.4,5.08.06.33.1.66.07.97Z"/>
  <path class="cls-1" d="M5.74,11.48c0-.27,0-.55,0-.82,2.28.02,4.59.29,6.87.31,4.21.02,8.39-.36,12.59-.58,3.99-.21,7.98-.43,11.98-.41.64.5,1.26.96,1.72,1.62.29.42.7.7,1.07,1.05.42.4.82.82,1.18,1.27.07.08.14.17.13.29,0,.2-.25.29-.44.32-.28.06-.55.11-.82.17-1.51.3-3.04.61-4.56.92.5,0,1,0,1.5,0,1.58-.02,3.16-.07,4.72.15.66.1,1.4.21,2.07.45-1.38.07-2.84,0-4.44-.03-4.7-.1-9.39.09-14.1.32-4.68.22-9.39.25-14.05-.17-.21-.02-.41-.04-.63-.06h.49c1.46,0,2.91.02,4.36.04-1.43-.18-2.84-.42-4.26-.7-.94-.17-1.92-.31-2.81-.67-.3-.13-.59-.21-.92-.24-.26-.02-.52-.02-.78-.05-.02,0-.05,0-.08,0-.19,0-.48,0-.59-.14-.05-.06-.06-.14-.06-.22-.06-.93-.1-1.87-.1-2.81ZM30.74,22.64c-8.74,0-17.43.66-26.1-.51-.02.19-.02.37-.02.56,0,.26.05.51.1.76,7.71,2.76,16,3.18,24.15,3.55,2.86.13,5.73.31,8.58.58-3.79.07-7.58.19-11.37.34-6.29.25-12.6.34-18.87.84-.34.03-1.28.09-2.42.21-.02,1.12-.02,2.23,0,3.36,0,.51-.06.97-.07,1.47-.02.59.06,1.25.5,1.69.25.26.58.4.93.49.22.06.45.1.67.14,2.83.48,5.65.97,8.47,1.45-.34.04-.67.07-1.01.11,3.43.29,6.87.42,10.24.59,5.07.26,10.11.4,15.17.36.22-.25.44-.51.65-.78-.2-.22-.5-.29-.78-.36-.82-.17-1.63-.36-2.45-.53-.29-.06-.58-.13-.87-.19,1.44-.26,2.92-.41,4.39-.44h.02c.35,0,.72,0,1.03-.18.19-.1.34-.27.49-.44.52-.56,1.09-1.11,1.55-1.73.48-.63.94-1.27,1.4-1.92.7-.99,1.38-2,2.04-3.01.21-.32.43-.64.63-.96-.9,0-1.84.14-2.74.21-.04,0-.08.02-.12.02.55-.29,1.1-.56,1.66-.85.08-.04.17-.09.25-.13.44-.22.87-.44,1.27-.73.16-.11.31-.23.45-.36.6-.55.86-1.2.89-1.92-6.17-1.34-12.74-1.69-18.68-1.69Z"/>
  <path class="cls-3" d="M40.32,37.85c-.78.99-1.67,1.9-2.64,2.71-.2.17-.36.32-.49.53-.35.54-.89.94-1.36,1.38-2.41,2.27-4.86,4.5-7.18,6.87-.58.59-1.32,1.1-2.01,1.55-1.38.9-2.95,1.58-4.63,1.58-1.54,0-2.92-.48-4.27-1.1-4.06-1.89-10.34-3.58-12.12-8.16-.19-.47-.38-.99-.43-1.49-.06-.63-.11-1.24-.17-1.86-.02-.24-.04-.48.06-.7.2-.44.77-.56,1.26-.61,2.64-.29,5.28-.58,7.92-.86-.95.45-1.96.75-2.97,1-.37.09-.71.2-1.08.18-.42-.01-.88.12-1.29.19-.91.14-1.81.29-2.72.43-.1.02-.21.04-.27.12-.04.06-.05.15-.04.23.04,1.29.32,2.58.83,3.77.16.38.35.75.61,1.07.32.39.74.69,1.16.98.84.59,1.68,1.2,2.62,1.61.34.15.71.13,1.04.3.47.24.94.49,1.42.71,1.92.9,3.91,1.63,5.93,2.26.16.05.32.1.48.15.9.28,1.87.37,2.81.28,2.99-.3,5.39-2.3,7.56-4.21.82-.72,1.61-1.47,2.39-2.23,2.12-2.03,4.25-4.06,6.36-6.09-.6-.61-1.31-1.12-2.08-1.5h.06c.82.17,1.63.36,2.45.53.29.06.59.13.78.36Z"/>
  <path class="cls-3" d="M5.49,18.01c-.17,1.16-.2,2.33-.07,3.48.04.34.1.71.35.95.23.23.58.29.91.33.97.14,1.96.29,2.93.43-.91,0-1.83.11-2.72.35-.44.11-.89.27-1.2.59-.5.51-.55,1.3-.55,2.01-.02,3.29.31,6.6.99,9.82-.35-.09-.68-.23-.93-.49-.44-.44-.51-1.1-.5-1.69.02-.5.08-.96.07-1.47-.02-1.98,0-3.95.06-5.93.02-.75.13-1.56.02-2.31-.06-.48-.24-.9-.23-1.39.03-1.65.26-3.31.4-4.95.03-.4.09-.84.38-1.12.29-.29.74-.31,1.15-.31,1.49-.02,2.98-.04,4.47-.04-1.88.3-3.73,1.02-5.51,1.73Z"/>
  <path class="cls-3" d="M41.27,14.2c0,.2-.25.29-.44.32-.28.06-.55.11-.82.17.29-.65-.3-1.49-.87-2.01-3.95-3.6-8.44-6.55-12.92-9.48-1.06-.7-2.14-1.4-3.33-1.84-1.2-.44-2.23-.7-3.45-.35-3.09.87-6.1,2.04-8.97,3.45-1.09.54-2.19,1.14-2.9,2.11-.85,1.15-1.03,2.65-1.1,4.07-.06,1.34-.05,2.68.04,4-.19,0-.48,0-.59-.14-.05-.06-.06-.14-.06-.22-.06-.93-.1-1.87-.1-2.81-.02-1.66-.03-3.44.68-4.97.5-1.09,1.45-1.69,2.39-2.36.4-.29.83-.52,1.28-.74C12.89,1.97,15.8.44,18.97.07c4.47-.53,7.25,2.17,10.72,4.53,2.46,1.67,4.9,3.37,7.24,5.2.72.56,1.45,1.05,1.96,1.81.29.42.7.7,1.07,1.05.42.4.82.82,1.18,1.27.07.08.14.17.13.29Z"/>
  <path class="cls-3" d="M48.53,26.26c-.14.13-.29.25-.45.36.13-.85.5-1.69.4-2.54-.07-.65-.41-1.24-.74-1.8-.55-.93-1.09-1.85-1.63-2.76-.36-.61-.72-1.23-1.28-1.66-.52-.39-1.16-.58-1.78-.75-1.05-.29-2.11-.55-3.18-.77-.96-.2-1.92-.34-2.87-.51-.18-.03-.19-.1-.03-.21,1.58-.02,3.16-.07,4.72.15.96.13,2.11.32,2.93.86.15.1.25.21.35.36.3.47.64.87,1.01,1.3,1.31,1.53,3,3.03,3.4,5.08.21,1.12.04,2.11-.82,2.89Z"/>
  <path class="cls-3" d="M47.77,28.1c-.87,1.34-1.75,2.67-2.67,3.97-.46.65-.92,1.29-1.4,1.92-.46.62-1.03,1.16-1.55,1.73-.15.17-.3.33-.49.44-.31.17-.68.17-1.03.18h-.02c.59-.86,1.51-1.44,2.16-2.23.8-.96,1.36-2.07,2.08-3.1.51-.73,2.05-1.98.5-2.51-.14-.06-.42-.14-.56-.1.08-.02.17-.05.25-.07.9-.07,1.84-.21,2.74-.21Z"/>
</svg>