<svg version="1.2" xmlns="http://www.w3.org/2000/svg" viewBox="0 0 60 60" width="60" height="60">
	<title>New Project</title>
	<defs>
		<linearGradient id="g1" x2="1" gradientUnits="userSpaceOnUse" gradientTransform="matrix(.287,27.821,-17.019,.175,40.526,-0.639)">
			<stop offset="0" stop-color="#cf5c2b"/>
			<stop offset="1" stop-color="#59173e"/>
		</linearGradient>
		<linearGradient id="g2" x2="1" gradientUnits="userSpaceOnUse" gradientTransform="matrix(-66.063,122.545,-114.184,-61.556,86.889,-5.534)">
			<stop offset="0" stop-color="#cf5c2b"/>
			<stop offset="1" stop-color="#59173e"/>
		</linearGradient>
		<linearGradient id="g3" x2="1" gradientUnits="userSpaceOnUse" gradientTransform="matrix(-61.795,114.627,-75.389,-40.642,66.596,4.873)">
			<stop offset="0" stop-color="#cf5c2b"/>
			<stop offset="1" stop-color="#59173e"/>
		</linearGradient>
		<linearGradient id="g4" x2="1" gradientUnits="userSpaceOnUse" gradientTransform="matrix(.295,28.646,-7.595,.078,51.843,-1.624)">
			<stop offset="0" stop-color="#cf5c2b"/>
			<stop offset="1" stop-color="#59173e"/>
		</linearGradient>
		<linearGradient id="g5" x2="1" gradientUnits="userSpaceOnUse" gradientTransform="matrix(.295,28.641,-6.774,.07,13.467,-1.514)">
			<stop offset="0" stop-color="#cf5c2b"/>
			<stop offset="1" stop-color="#59173e"/>
		</linearGradient>
		<linearGradient id="g6" x2="1" gradientUnits="userSpaceOnUse" gradientTransform="matrix(.29,28.151,-18.694,.193,54.067,-1.397)">
			<stop offset="0" stop-color="#cf5c2b"/>
			<stop offset="1" stop-color="#59173e"/>
		</linearGradient>
		<linearGradient id="g7" x2="1" gradientUnits="userSpaceOnUse" gradientTransform="matrix(-9.149,15.901,-3.975,-2.287,31.791,-12.234)">
			<stop offset="0" stop-color="#cf5c2b"/>
			<stop offset="1" stop-color="#59173e"/>
		</linearGradient>
		<linearGradient id="g8" x2="1" gradientUnits="userSpaceOnUse" gradientTransform="matrix(-7.86,29.614,-15.737,-4.177,16.114,-3.801)">
			<stop offset="0" stop-color="#cf5c2b"/>
			<stop offset="1" stop-color="#59173e"/>
		</linearGradient>
		<linearGradient id="g9" x2="1" gradientUnits="userSpaceOnUse" gradientTransform="matrix(-1.728,-54.547,52.966,-1.678,12.484,84.631)">
			<stop offset="0" stop-color="#cf5c2b"/>
			<stop offset="1" stop-color="#59173e"/>
		</linearGradient>
	</defs>
	<style>
		.s0 { fill: url(#g1) } 
		.s1 { fill: url(#g2) } 
		.s2 { fill: url(#g3) } 
		.s3 { fill: #eb924d } 
		.s4 { fill: url(#g4) } 
		.s5 { fill: url(#g5) } 
		.s6 { fill: url(#g6) } 
		.s7 { fill: url(#g7) } 
		.s8 { fill: url(#g8) } 
		.s9 { fill: url(#g9) } 
	</style>
	<g id="Layer 1">
		<g id="&lt;Group&gt;">
			<path id="&lt;Path&gt;" class="s0" d="m1.7 28q-0.5 2.3-0.3 4.6c0 1.5 0.1 3 1 4.2q0.5 0.8 1.3 1.3c0.3 0.2 0.7 0.3 1 0.6 0.1 0 0.2 0 0.2 0.2 0 0.1-0.4 0.4-0.6 0.5-0.2 0.2-0.5 0.4-0.6 0.8-0.1 0.5 0.1 1.2 0.4 1.7q0.9 1.8 2 3.5c2.9 4.5 6.3 9.1 11.5 11.1 3 1.2 6.1 1.3 9.3 1.4q4.9 0.3 9.9 0c2.9-0.1 6.2-0.4 8.7-1.9 1.8-1.1 3.3-2.8 4.5-4.6q2.8-4.2 4.9-8.9c0.2-0.3 0.3-0.6 0.4-0.9q0-0.2 0-0.4-0.1-0.5-0.4-0.9c0.5-0.2 1-0.7 1.3-1.3q0.2-0.4 0.3-0.9c0.1-0.3 0.2-0.5 0.3-0.8 0.4-0.5 0.5-1.1 0.7-1.7q0.6-2.1 0.9-4.2 0.1-0.3 0.1-0.6c0.2-0.9 0.3-1.9 0.2-2.8q0-0.1 0-0.2c-0.1 3.4-1.3 6.4-2.7 9.5q-2.2 5.1-5.2 9.7c-1.2 1.7-2.6 3.4-4.5 4.5-2.5 1.6-5.7 1.8-8.7 2q-4.9 0.2-9.8 0c-3.1-0.2-6.2-0.3-9.2-1.4-3.1-1.3-5.7-3.5-7.8-6.1-2.3-2.7-4.1-5.9-5.6-8.8-2.5-4.6-3.4-9.4-2.2-14.2-0.6 1.6-1 3.4-1.3 5z"/>
			<path id="&lt;Path&gt;" class="s1" d="m58.7 27.5q0 0.1 0 0.3c-0.1 1.6-0.4 3.2-0.9 4.8-0.4 1.6-1.1 3.1-1.8 4.7q-0.7 1.6-1.4 3 0 0.1-0.1 0.2-1.7 3.4-3.7 6.4-0.8 1.2-1.7 2.2c-0.8 0.9-1.7 1.8-2.8 2.4-2.5 1.6-5.7 1.8-8.7 2q-4.9 0.2-9.8 0c-3.1-0.2-6.2-0.3-9.2-1.4-3.1-1.3-5.7-3.5-7.8-6.1q0 0 0 0c-1.6-1.9-2.9-3.9-4.1-6q-0.5-0.8-0.9-1.7-0.4-0.5-0.7-1.1-0.3-0.7-0.6-1.4c-1.1-2.2-1.7-4.5-2-6.7q-0.2-2 0.1-4 0.1-1.1 0.4-2.1 0.3-1.3 0.8-2.6 0.1-0.4 0.3-0.7 0.5-1.1 1-2.3 0.2-0.6 0.5-1.2 0.6-1.2 1.3-2.5 0.4-0.8 0.9-1.6 0.6-1 1.3-2 0 0 0.1-0.1 0.3-0.5 0.6-0.9 0.3-0.5 0.6-0.8 0.1-0.1 0.1-0.2c1.7-2.2 3.8-4.2 6.7-5.1 6.1-2 12.4-2 19-1.6 2.7 0.2 5.6 0.7 7.7 2.3 4.4 3.5 8.2 7.5 11.3 12.1q0 0.1 0.1 0.1c1.2 1.8 2 3.8 2.6 5.8q0 0 0 0 0.2 0.6 0.3 1.2 0.1 0.4 0.2 0.9 0 0 0 0 0 0 0 0 0.2 1.2 0.3 2.5 0 0.6 0 1.2z"/>
			<path id="&lt;Compound Path&gt;" class="s2" d="m58.7 27.5q0 0.1 0 0.3c-0.1 1.6-0.4 3.2-0.9 4.8q-2.5-0.2-5.1-0.3-10.2-0.7-20.4-1.2c-10-0.6-19.9-0.9-29.8-2q-0.2-2 0.1-4c9.8-0.7 19.7-0.4 29.7-0.2q0.2 0 0.4 0-0.9-0.1-1.7-0.3c-8.7-1.3-18.3-2.2-26.9-4.9q0.5-1.1 1-2.3 0.2-0.6 0.5-1.2 0.6-1.2 1.3-2.5 0.4-0.8 0.9-1.6c8.3-0.2 16.9 1 24.8 1.7 6.6 0.5 13.2 1 19.7 1.7q1.5 0.1 2.9 0.3 0 0.1 0.1 0.1c1.2 1.8 2 3.8 2.6 5.8q0 0 0 0 0.2 0.6 0.3 1.2 0.1 0.4 0.2 0.9 0 0 0 0 0 0 0 0 0.2 1.2 0.3 2.5 0 0.6 0 1.2zm-4.3 13c-2.9-0.3-5.7-0.6-8.6-0.7q-8.7-0.2-17.3-0.7c-5.8-0.3-11.5-0.6-17.3-0.6-1.7 0-3.6-0.2-5.4-0.2q0.4 0.9 0.9 1.7c1.2 2.1 2.5 4.1 4.1 6 5.6 1 11.2 1.6 17 2q8.6 0.7 17.2 1 2.1 0.1 4.1 0.1 0.9-1 1.7-2.2 2-3 3.7-6.4 0 0-0.1 0z"/>
			<path id="&lt;Path&gt;" class="s3" d="m55.3 15.9c1.2 1.8 2 3.8 2.6 5.8q-0.2-0.4-0.4-0.8-0.7-1.3-1.5-2.6-1.5-2.4-3.3-4.7c-0.6-0.6-1.2-1.2-1.4-2-0.3-0.6-0.8-1.1-1.3-1.6-1.6-1.7-3.5-3-5.3-4.5-1-0.8-2-1.7-3.2-2.3-1.2-0.6-2.5-0.8-3.8-0.8q-0.7-0.1-1.4-0.1c-0.2 0-0.4 0-0.6 0-0.2-0.1-0.4-0.1-0.6-0.2q-0.9 0-1.8-0.1c-5-0.4-10.1 0-14.9 1.2-0.9 0.3-1.8 0.5-2.6 1q-0.2 0.1-0.4 0.2c-0.8 0.4-1.4 1-2.1 1.6q-0.5 0.4-1.1 0.8-0.2 0.2-0.4 0.3c-0.3 0.1-0.4 0.4-0.6 0.6-0.3 0.5-0.5 1.1-0.8 1.6q-0.1 0.1-0.1 0.3-0.1 0.4-0.2 0.9-0.5-0.1-1-0.4 0 0 0.1-0.1 0.3-0.5 0.6-0.9 0.3-0.5 0.6-0.8 0.1-0.1 0.1-0.2c1.7-2.2 3.8-4.2 6.7-5.1 6.1-2 12.4-2 19-1.6 2.7 0.2 5.6 0.7 7.7 2.3 4.5 3.5 8.3 7.6 11.4 12.2z"/>
			<path id="&lt;Path&gt;" class="s3" d="m58.4 23.8q0 0.1-0.1 0.2c0-0.3-0.1-0.7-0.1-1.1q0.1 0.4 0.2 0.9z"/>
			<path id="&lt;Path&gt;" class="s3" d="m54.7 26.2c0.7 0 1.4 0 2 0.3 1.1 0.5 1.6 1.7 1.9 2.8q0.1-1.5-0.1-3c0-0.1 0-0.3-0.1-0.4-0.1-0.2-0.3-0.3-0.5-0.4-1.5-0.7-3.2-0.3-4.8 0q-1.5 0.2-3.1 0.3-1.5 0.1-3 0.1c-0.2 0-0.4 0-0.6 0.1-0.3 0.1 0 0.1 0.2 0.1q0.7 0 1.5 0 1.6 0 3.1 0 1.6 0 3.1 0.1 0.2 0 0.4 0z"/>
			<path id="&lt;Path&gt;" class="s3" d="m50.8 46.9c-1.2 1.8-2.6 3.5-4.5 4.6-2.5 1.6-5.7 1.8-8.7 2q-4.9 0.2-9.8 0c-3.1-0.2-6.2-0.3-9.2-1.4-3.1-1.3-5.7-3.5-7.8-6.1-1.6-1.8-2.9-3.9-4.1-6q-0.8-1.4-1.6-2.8-0.3-0.7-0.6-1.4c-2-4.2-2.6-8.5-1.5-12.8q0.3-1.3 0.8-2.6 0.3-0.8 0.7-1.6c0.2-0.7 0.6-1.3 0.8-1.9q0.4-1 0.9-1.9 0.9-1.8 2.3-3.4c0.1-0.2 0.3-0.3 0.5-0.4 0.1-0.1 0.3-0.1 0.5-0.1q1 0.1 2 0.1c2 0.2 4 0.9 6.1 0.9 1-0.1 2-0.3 3-0.3q0.8 0 1.6 0 0.4 0 0.8 0.1 0.2 0 0.4 0 0.1 0 0.2 0 0.1 0 0.2 0c-0.5 0.2-1 0.3-1.5 0.3q-0.7 0.2-1.5 0.2-1.5 0.2-3 0.2-1.5 0-3 0-1.3 0-2.6-0.1c-1 0-1.9 0-2.7 0.3-1.2 0.3-2.1 1.2-2.7 2.2q-0.1 0.1-0.1 0.1-0.6 0.9-1 2c-0.1 0.3-0.2 0.6-0.4 1 0 0.1-0.1 0.1-0.2 0.2-0.1 0.2-0.2 0.4-0.3 0.6q-0.3 0.6-0.5 1.2-0.4 1-0.8 2.1c-0.1 0.6-0.4 1.3-0.4 1.9 0.1 0.5 0 1-0.1 1.5 0 0.2 0 1.7 0 1.7q1.5 0.1 3 0.6-0.7 0-1.3 0.2c-0.3 0-0.8 0.2-1.1 0.5-0.1 0.2-0.1 0.4-0.1 0.6-0.1 0.4-0.1 0.8 0 1.2 0.2 1.7 0.7 3.4 1.4 5.1q0.3 0.6 0.5 1.2c0.2 0.3 0.4 0.7 0.7 0.9 0.2 0.1 0.5 0.2 0.8 0.2 0.6 0.1 1.1 0.4 1.7 0.5 1.2 0.2 2.3 0.4 3.5 0.5 2.2 0 4.4-0.4 6.4 0.1q-0.5 0.1-1 0.1-3.1 0.2-6.3 0.4-1.5 0.1-3.1 0.2c-0.2 0-0.7-0.1-0.8 0.2q0 0.1 0 0.2c0.1 0.4 0.3 0.8 0.5 1.1 0.6 1 1.3 1.9 2 2.8q1 1.4 2.1 2.6c0.4 0.4 0.8 0.8 1.2 1.1q0.1 0.1 0.2 0.1c0.3 0.2 0.6 0.6 0.9 0.8q1 0.9 2.1 1.6 1.6 0.9 3.4 1.4c2.4 0.8 4.9 1 7.4 1.2 5.2 0.3 10.5 0.2 15.6-1 1.4-0.3 2.7-0.7 4-1.4 2.1-1.2 3.5-3.2 4.9-5.2 0.8-1.2 1.6-2.5 1.7-4q-1.4-0.5-3-0.7 1.6-0.2 3.1-0.3 0.2-0.1 0.3-0.1 0.2 0.1 0.3 0.1 0.2 0 0.4-0.1c0 0 0.3 0 0.3 0q-0.2 0.8-0.6 1.5-0.2 0.3-0.4 0.6c-0.2 0.3-0.4 0.7-0.6 1.1q-0.4 0.6-0.8 1.3-0.7 1.2-1.5 2.4z"/>
			<path id="&lt;Path&gt;" class="s4" d="m44.5 26q5.5-0.1 10.9-0.2c0.7 0 1.4 0 2.1 0.3 0.7 0.2 1.2 0.8 1.2 1.5q0-0.1 0-0.1 0-0.6 0-1.2-0.1-1.3-0.3-2.5 0 0.2-0.2 0.3c-0.3 0.4-0.9 0.4-1.4 0.5q-0.5 0.1-1.1 0.1-5.6 0.7-11.2 1.3z"/>
			<path id="&lt;Path&gt;" class="s5" d="m6.3 39q0.2 0.5 0.4 1-0.8-1.4-1.6-2.8-0.3-0.7-0.6-1.4 0.1 0.1 0.1 0.2 0.6 0.4 1.1 0.7c1.3 0.8 2.8 0.9 4.3 1.1 0.8 0.2 1.7 0.3 2.5 0.3q4.9 0.5 9.7 1-7.9-0.2-15.9-0.1z"/>
			<path id="&lt;Path&gt;" class="s6" d="m54.9 38.4c-1.4 1-3.3 1.5-5.1 1.9q2.4 0 4.8 0.1c-0.2 0.2-0.3 0.6-0.2 0.9q0.5-1.1 0.9-2.2c0.3-0.7 0.6-1.5 1-2.1 0 0.2-0.4 0.5-0.6 0.7q-0.4 0.4-0.8 0.7z"/>
			<path id="&lt;Path&gt;" class="s7" d="m25.6 11.8c-4.5 0.7-9.4 0.6-14 0.1-0.7-0.1-1.8-0.3-2.5 0.1q-0.6 0.4-1.2 0.8-0.6 0.4-1 0.9 1-1.9 2.3-3.7 0.3-0.5 0.6-0.9 0 0 0 0.1c0.1 0.5 0.4 1 0.9 1.3 0.4 0.2 0.9 0.4 1.5 0.5 4.3 0.8 9 0.4 13.4 0.8z"/>
			<path id="&lt;Path&gt;" class="s8" d="m2.5 25.6c-0.2 0.4 0.1 1 0.5 1.3 0.4 0.2 0.9 0.3 1.4 0.4 1.8 0.2 3.7 0.4 5.6 0.2-2.2 0.1-4.5 0.3-6.6 0.4q-0.2 0-0.4 0.1c-0.3 0.1-0.4 0.4-0.4 0.7 0 0.3 0.1 0.6 0 0.9-0.3-1.3-0.3-2.7-0.1-4z"/>
			<path id="&lt;Compound Path&gt;" class="s9" d="m50.1 25.3c-0.4-2-1-4.1-1.9-6-0.8-1.8-1.9-3.5-3.1-5.1-1.1-1.3-2.9-2.2-4.4-3.1-0.6-0.3-1.2-0.8-1.9-1.1-13.8-6.2-30 5.8-28.6 20.2 0.3 2.4 1 4.8 2.3 6.9 3.4 5.9 9.7 9.6 16.6 10.2 2.6 0.3 5.2 0.2 7.7-0.4 5-1.2 9.2-4.4 11.6-8.8 2.1-3.8 2.4-8.7 1.7-12.8zm-6.2 10.8c-1.8 3.4-4.9 5.8-8.7 6.7-1.9 0.4-3.9 0.5-5.8 0.3-5.2-0.5-9.9-3.3-12.5-7.7-0.9-1.6-1.5-3.4-1.7-5.2q-0.1-0.8 0-1.7c0-0.2 0-0.5 0-0.7q0-0.2-0.1-0.4c-0.1-0.4-0.1-0.8 0-1.2 0.1-0.4 0.3-0.8 0.7-1 0.3-0.2 0.6-0.2 0.9-0.3q1.1-0.1 2.3-0.1-1.5-0.2-2.9-0.4c-0.1 0 0.3-1.2 0.4-1.3 0.1-0.4 0.3-0.7 0.5-1.1 0.3-0.6 0.7-1.2 1.2-1.7q1.2-1.7 2.9-3 1.7-1.3 3.6-2.2 1.9-0.8 4-1.1 2.2-0.4 4.3-0.1 1.9 0.3 3.7 1.1c0.5 0.3 0.9 0.6 1.4 0.9 1.2 0.6 2.5 1.3 3.3 2.3 0.9 1.2 1.7 2.5 2.3 3.8 0.7 1.5 1.2 3 1.5 4.5 0.3 1.7 0.3 3.3-0.1 5q-2.9 0.2-5.9 0.1 2.7 0.3 5.4 0.6c0.6 0 0.3 0.5 0.2 0.9q-0.2 0.5-0.2 0.9 0 0.5-0.1 0.9-0.1 0.3-0.3 0.6-0.1 0.2-0.1 0.3c-0.1 0.1-0.2 0.3-0.2 0.3z"/>
			<path id="&lt;Path&gt;" class="s3" d="m45.7 41c1.6-1.6 2.8-3.7 3.4-5.9 0.7-2.3 0.9-4.6 0.9-6.9 0-0.3-0.1-0.7-0.2-1-0.2-0.4-0.5-0.6-0.9-0.7q-1-0.3-2-0.5c1.6 0.1 3.3 0 4.8-0.1q-0.4 0.1-0.8 0.3-0.1 0-0.1 0.1-0.1 0-0.1 0.2c-0.1 0.3-0.1 0.7-0.1 1.1q0.1 1 0 1.9 0 0.5 0 0.9c-0.1 0.7-0.2 1.4-0.4 2-0.2 1.3-0.4 2.6-0.7 3.8-0.4 1.3-0.9 2.5-1.8 3.5 0.1 0.2 0.3 0.4 0.5 0.6-0.3 0-0.6 0-0.9 0.2q-0.2 0.1-0.4 0.3-0.7 0.7-1.3 1.4-0.2 0.2-0.5 0.3c-0.4 0.3-0.6 0.7-0.9 1-1.5 1.4-3.3 2.3-5.2 2.9q-0.3 0.1-0.5 0.2-2 0.6-4 0.8-2.1 0.2-4.2 0-1-0.1-2-0.2-0.5-0.1-1-0.3c-1.1-0.2-2.2-0.4-3.3-0.7-3-1-5.7-2.9-8.2-4.9q-0.5-0.4-0.9-0.8c-0.2-0.1-0.3-0.2-0.5-0.3-0.1-0.1-0.1-0.2-0.2-0.3q-0.4-0.3-0.8-0.4c-0.5-0.1-0.9-0.1-1.4-0.2 0.1-0.1 0.2-0.2 0.4-0.2q0.5-0.1 1.1-0.1c0.1-0.1 0.3 0 0.5 0q0.2-0.1 0.4-0.1c0.7 0.1 1.4 0.3 2.1 0.4q0.6 0 1.3 0-1.5 0.1-3.1 0.2c0.4 1 1.4 1.5 2.3 2 0.1 0.1 0.3 0.1 0.5 0.3q0.1 0 0.2 0.1 0.2 0.2 0.4 0.4 0.4 0.3 0.9 0.6 0.8 0.6 1.7 1.2 1.3 0.8 2.7 1.3c1.4 0.6 2.9 0.9 4.4 1 2.8 0.2 5.4 0.6 8.2 0.2q0.5-0.1 0.9-0.2c2.2-0.5 4.1-1.6 5.9-2.8 1.1-0.8 1.9-1.7 2.9-2.6z"/>
			<path id="&lt;Path&gt;" class="s3" d="m12.4 36.6q-0.6-1.4-1.1-2.8c-0.3-0.6-0.5-1.1-0.6-1.6q-0.2-0.8-0.3-1.5-0.1-0.7-0.2-1.4c0.1 0.4 0.1 0.9 0.1 1.4q0.1 0.7 0.2 1.4 0.3 1.4 0.7 2.8 0.2 0.7 0.4 1.3 0.1 0.2 0.2 0.5 0 0.2 0 0.4c0.1 0.4 0.3 0.7 0.4 1.1q0.6-0.1 1.1-0.1c-0.1 0-0.3-0.3-0.3-0.3q-0.2-0.2-0.3-0.4c-0.1-0.3-0.2-0.5-0.3-0.8z"/>
			<path id="&lt;Path&gt;" class="s3" d="m19 12.7c1.8 0.2 3.7 0 5.6-0.1q-0.7-0.2-1.4-0.2-0.7-0.1-1.4-0.1-0.7 0-1.4 0-0.7 0-1.4 0-0.7 0-1.4 0-0.1 0-0.2 0c0 0.1 0 0.2 0 0.2 0.1 0.1 0.2 0.1 0.3 0.1q0.4 0 0.8 0.1 0.2 0 0.5 0z"/>
		</g>
	</g>
</svg>