<?xml version="1.0" encoding="UTF-8"?>
<svg id="Capa_1" data-name="Capa 1" xmlns="http://www.w3.org/2000/svg" version="1.1" viewBox="0 0 693.3 1068.3">
  <defs>
    <style>
      .cls-1 {
        fill: #fff;
        isolation: isolate;
        opacity: .2;
      }

      .cls-1, .cls-2, .cls-3 {
        stroke-width: 0px;
      }

      .cls-2 {
        fill: #c1d5b0;
      }

      .cls-3 {
        fill: #8dc68c;
      }

      .cls-4 {
        opacity: .2;
      }
    </style>
  </defs>
  <g>
    <path class="cls-3" d="M464.7,581c86.7-30.5,58.5-142.2,69-212,3.5-23.4,23.1-55,49-55.8,47.5-1.4,61.3,59.5,69.8,95.2,15.4,64.5,2.2,139-34.8,194.1-19.6,29.1-50.8,59.3-81.7,76.4-24.4,13.5-55.7,23.2-83.7,24.6-30.1,1.5-72.8-3.3-99.6-18.3-21.1-11.9-54.4-41.9-60.2-66.8-4.8-20.9-7.6-67.3,23.5-72.6,19.9-3.4,41.7,14.5,58.3,23.1,20.3,10.6,41.2,18.4,64.5,17,9.6-.5,18.2-2.3,26-5Z"/>
    <polygon class="cls-3" points="594 323.7 621.3 289.7 606.8 329.8 594 323.7"/>
    <polygon class="cls-3" points="567 334.5 539.6 300.5 554.1 340.6 567 334.5"/>
    <polygon class="cls-3" points="541.1 444.8 500.1 429.8 542.7 430.7 541.1 444.8"/>
    <polygon class="cls-3" points="651.5 455.4 693.3 467.9 650.7 469.6 651.5 455.4"/>
    <polygon class="cls-3" points="630.2 556.1 672 568.6 629.4 570.3 630.2 556.1"/>
    <polygon class="cls-3" points="566.9 646.5 580.3 688.1 554.8 653.9 566.9 646.5"/>
    <polygon class="cls-3" points="509.4 561.5 475.1 534.6 515.4 548.6 509.4 561.5"/>
    <polygon class="cls-3" points="483.3 694 478.2 737.4 469.2 695.7 483.3 694"/>
  </g>
  <g class="cls-4">
    <path class="cls-3" d="M652.5,408.5c-8.5-35.7-22.2-96.6-69.8-95.2-12.4.4-23.4,7.8-31.8,18,18.9,24.1,27.5,59,29.1,87.5,1.5,25.6-3.2,51.1-10.3,75.6-8.3,28.5-19.8,56.8-36.6,81.5-15.7,23.2-36.6,44.7-64.1,53-37,11.1-75.2,1.1-108.5-16.3-23.3-12.2-48.4-27.5-66.4-48.1-7,16.8-4.7,40.7-1.6,54,5.8,24.9,39,54.9,60.2,66.8,26.7,15.1,69.5,19.9,99.6,18.3,28-1.4,59.3-11.2,83.7-24.6,30.9-17.1,62.1-47.2,81.7-76.4,37-55.1,50.2-129.7,34.8-194.1Z"/>
    <polygon class="cls-3" points="594 323.7 621.3 289.7 606.8 329.8 594 323.7"/>
    <polygon class="cls-3" points="651.5 455.4 693.3 467.9 650.7 469.6 651.5 455.4"/>
    <polygon class="cls-3" points="630.2 556.1 672 568.6 629.4 570.3 630.2 556.1"/>
    <polygon class="cls-3" points="566.9 646.5 580.3 688.1 554.8 653.9 566.9 646.5"/>
    <polygon class="cls-3" points="483.3 694 478.2 737.4 469.2 695.7 483.3 694"/>
  </g>
  <g class="cls-4">
    <path class="cls-3" d="M652.5,408.5c-8.5-35.7-22.2-96.6-69.8-95.2-2.4,0-4.8.4-7.1,1,2.6,4,5.2,8.1,7.6,12.2,5.7,9.8,11.2,20,15.4,30.6,6.6,16.6,9.5,35.4,11.7,53,4.6,38.1,6.5,77.5-6.9,114.1-6.2,16.9-14.2,33.1-23.3,48.7-8.9,15.5-17.9,31.6-28.8,45.9-17.4,22.8-41.4,36.7-70.1,39.1-17.8,1.5-35-1.1-52.8-2.6-21.4-1.9-43.1-2.1-64.3-6-25.3-4.6-49.7-15.8-71.4-30.2,6.2,24.8,39,54.4,60,66.2,26.7,15.1,69.5,19.9,99.6,18.3,28-1.4,59.3-11.2,83.7-24.6,30.9-17.1,62.1-47.2,81.7-76.4,37-55.1,50.2-129.7,34.8-194.1Z"/>
    <polygon class="cls-3" points="594 323.7 621.3 289.7 606.8 329.8 594 323.7"/>
    <polygon class="cls-3" points="651.5 455.4 693.3 467.9 650.7 469.6 651.5 455.4"/>
    <polygon class="cls-3" points="630.2 556.1 672 568.6 629.4 570.3 630.2 556.1"/>
    <polygon class="cls-3" points="566.9 646.5 580.3 688.1 554.8 653.9 566.9 646.5"/>
    <polygon class="cls-3" points="483.3 694 478.2 737.4 469.2 695.7 483.3 694"/>
  </g>
  <g>
    <path class="cls-3" d="M177.6,442.3c-57-41.9-19.5-150.6-8.5-207,4.8-24.4,6.9-59.5-6-82.2-23.3-40.8-75.6-.6-94.6,23.6-28.6,36.4-33.8,90.5-34.4,135-.4,28.1,1.5,56.8,6.2,84.5,6.6,38.5,21.9,80.3,46.7,111.2,36.1,45,96.2,65.1,152.7,62.7,36.8-1.5,64.4-17,79.8-51.8,13.2-29.9,20.9-86.4-23.6-79.2-29.8,4.8-58.7,24.2-89.7,16.3-11.5-2.9-20.9-7.4-28.7-13.1Z"/>
    <polygon class="cls-3" points="78.6 177.2 64.9 135.6 93 169.5 78.6 177.2"/>
    <polygon class="cls-3" points="43.6 249.4 6.5 226.3 49.7 234.3 43.6 249.4"/>
    <polygon class="cls-3" points="38.9 302.7 0 282.8 43.8 287.2 38.9 302.7"/>
    <polygon class="cls-3" points="63.4 450.5 24.1 469.7 53.9 437.3 63.4 450.5"/>
    <polygon class="cls-3" points="154.7 547.9 133.5 586.1 139.4 542.5 154.7 547.9"/>
    <polygon class="cls-3" points="138.5 145.1 157.3 105.7 154.2 149.5 138.5 145.1"/>
    <polygon class="cls-3" points="160.4 237.7 201.3 253 157.3 253.7 160.4 237.7"/>
    <polygon class="cls-3" points="148.9 418.7 188.8 400.8 158 432.2 148.9 418.7"/>
  </g>
  <g class="cls-4">
    <path class="cls-3" d="M283.2,513.9c-29.3,2.7-61.1-.8-87.4-14.8-22-11.8-39.3-30.3-50.4-52.6-24.7-49.5-23.4-108.2-19.3-162,3.2-42.2,10.8-93.4,39.5-126.8-.7-1.6-1.5-3.1-2.3-4.5-23.3-40.8-75.6-.6-94.6,23.6-28.6,36.4-33.8,90.5-34.4,135-.4,28.1,1.5,56.8,6.2,84.5,6.6,38.5,21.9,80.3,46.7,111.2,36.1,45,96.2,65.1,152.7,62.7,36.8-1.5,64.4-17,79.8-51.8,1.9-4.3,3.7-9.2,5.2-14.3-13.1,5.1-27.1,8.6-41.7,9.9Z"/>
    <polygon class="cls-3" points="78.6 177.2 64.9 135.6 93 169.5 78.6 177.2"/>
    <polygon class="cls-3" points="43.6 249.4 6.5 226.3 49.7 234.3 43.6 249.4"/>
    <polygon class="cls-3" points="38.9 302.7 0 282.8 43.8 287.2 38.9 302.7"/>
    <polygon class="cls-3" points="63.4 450.5 24.1 469.7 53.9 437.3 63.4 450.5"/>
    <polygon class="cls-3" points="154.7 547.9 133.5 586.1 139.4 542.5 154.7 547.9"/>
    <polygon class="cls-3" points="138.5 145.1 157.3 105.7 154.2 149.5 138.5 145.1"/>
  </g>
  <g class="cls-4">
    <path class="cls-3" d="M235.3,550.3c-48-4.2-92.1-26.4-120.4-66-40.8-56.9-42.6-132.9-28-199.1,3.9-17.7,9.5-34.9,12.3-52.8,2.9-18.8,4.9-38.2,11.7-56.1,6.4-16.9,16.9-29.7,29.7-40.1-25.3-4.2-57.8,22.6-72,40.7-28.6,36.4-33.8,90.5-34.4,135-.4,28.1,1.5,56.8,6.2,84.5,6.6,38.5,21.9,80.3,46.7,111.2,36.1,45,96.2,65.1,152.7,62.7,24.7-1,45.2-8.4,60.7-23.6-21.5,4.1-43.4,5.6-65.2,3.7Z"/>
    <polygon class="cls-3" points="78.6 177.2 64.9 135.6 93 169.5 78.6 177.2"/>
    <polygon class="cls-3" points="43.6 249.4 6.5 226.3 49.7 234.3 43.6 249.4"/>
    <polygon class="cls-3" points="38.9 302.7 0 282.8 43.8 287.2 38.9 302.7"/>
    <polygon class="cls-3" points="63.4 450.5 24.1 469.7 53.9 437.3 63.4 450.5"/>
    <polygon class="cls-3" points="154.7 547.9 133.5 586.1 139.4 542.5 154.7 547.9"/>
    <path class="cls-3" d="M155.7,128.4c-4.8,2.9-9.4,6.1-13.8,9.7l-3.4,7.1,15.7,4.4,1.5-21.2Z"/>
    <path class="cls-3" d="M155.9,125.3l1.4-19.7-13.2,27.7c3.8-2.8,7.7-5.5,11.8-8Z"/>
  </g>
  <g>
    <path class="cls-3" d="M276.1,814.8c-67,5.5-81.5-77.5-109.2-121.1-9.3-14.6-31.8-29.9-49.4-22.7-32.2,13.2-23.2,58-18.2,84.4,8.9,47.7,39.9,93.5,81.1,119.3,21.8,13.6,51.6,24.5,77.3,26.7,20.3,1.7,44.1-1.1,63.3-8.5,20.6-7.9,47.7-23.9,61.1-41.9,10.6-14.3,23.8-44.2,20.3-62.5-3-15.4-15-47.2-37.3-41.5-14.3,3.6-23.5,22.1-32,32.8-10.4,13.1-22,24.5-38,30.6-6.6,2.5-12.8,3.9-18.8,4.4Z"/>
    <polygon class="cls-3" points="112.8 683.4 100.4 641.5 125.2 676.3 112.8 683.4"/>
    <polygon class="cls-3" points="104 752.8 60.5 756 99.7 739.2 104 752.8"/>
    <polygon class="cls-3" points="149.4 839.5 114.6 865.8 138.4 830.5 149.4 839.5"/>
  </g>
  <g class="cls-4">
    <path class="cls-3" d="M394.9,766.8c-3.8,9.6-8.5,18.8-14.1,27.4-6.9,10.6-15.2,20.7-25.6,28.1-12.1,8.5-26.9,13.9-41.3,16.8-30.6,6.1-63.8,2-90.8-14.3-26.5-16-43.8-41.6-54.5-70.2-8-21.5-13.9-47-9.6-70.2-11.1-10.7-27.7-18.8-41.4-13.2-32.2,13.2-23.2,58-18.2,84.4,8.9,47.7,39.9,93.5,81.1,119.3,21.8,13.6,51.6,24.5,77.3,26.7,20.3,1.7,44.1-1.1,63.3-8.5,20.6-7.9,47.7-23.9,61.1-41.9,10.6-14.3,23.8-44.2,20.3-62.5-1.1-5.9-3.6-14.1-7.4-21.7Z"/>
    <polygon class="cls-3" points="112.8 683.4 100.4 641.5 125.2 676.3 112.8 683.4"/>
    <polygon class="cls-3" points="104 752.8 60.5 756 99.7 739.2 104 752.8"/>
    <polygon class="cls-3" points="149.4 839.5 114.6 865.8 138.4 830.5 149.4 839.5"/>
  </g>
  <g class="cls-4">
    <path class="cls-3" d="M398.2,774.5c-1.7,5-3.7,10-6,14.9-8.5,17.9-20,39.9-36.7,51.6-18.2,12.7-42.9,17.1-64.5,19.5-31.4,3.5-71.3,7.4-98.6-12.2-12.9-9.3-21.3-24.8-28-38.8-6.4-13.5-12.2-27.4-17.8-41.3-10.2-25.5-27-70.4-13.9-98.5-5.2-.9-10.4-.7-15.2,1.3-32.2,13.2-23.2,58-18.2,84.4,8.9,47.7,39.9,93.5,81.1,119.3,21.8,13.6,51.6,24.5,77.3,26.7,20.3,1.7,44.1-1.1,63.3-8.5,20.6-7.9,47.7-23.9,61.1-41.9,10.6-14.3,23.8-44.2,20.3-62.5-.8-3.9-2.1-8.9-4-14Z"/>
    <polygon class="cls-3" points="112.8 683.4 100.4 641.5 125.2 676.3 112.8 683.4"/>
    <polygon class="cls-3" points="104 752.8 60.5 756 99.7 739.2 104 752.8"/>
    <polygon class="cls-3" points="149.4 839.5 114.6 865.8 138.4 830.5 149.4 839.5"/>
  </g>
  <g>
    <path class="cls-3" d="M208.9,529.2c-3.2-69.1-4.7-138.2-2.4-206.9,1.8-52.6,5.7-105.2,12.6-157.4,5.8-43.5,16.4-89,48.2-121.4,21-21.3,58.7-36.1,89.1-29.8,107.5,22.4,110.1,174.4,115,259.7,2.4,41.2,3.5,82.9,2.3,124.1-1.9,65.2-10.1,129.8-19.4,194.3-15.6,107.7-20.3,210.8-18.3,319.3.9,49.4-4.7,102.8-44.4,137.3-46.8,40.7-123.8,13.3-150.1-35.3-37.2-68.8-13.9-160.1-18-234.5-4.6-83.2-10.8-166.3-14.7-249.5Z"/>
    <polygon class="cls-3" points="452.3 127.6 496 128 454.9 143.7 452.3 127.6"/>
    <polygon class="cls-3" points="436.9 100.5 479.6 90.7 443.2 115.5 436.9 100.5"/>
    <polygon class="cls-3" points="275 41.8 262.2 0 289.6 34.5 275 41.8"/>
    <polygon class="cls-3" points="232.6 133.3 193.1 114.6 237 117.6 232.6 133.3"/>
    <polygon class="cls-3" points="223 233.3 183.4 214.6 227.3 217.6 223 233.3"/>
    <polygon class="cls-3" points="214.4 349.5 171.3 342.2 214.4 333.2 214.4 349.5"/>
    <polygon class="cls-3" points="214.4 377.3 171.3 369.9 214.4 361 214.4 377.3"/>
    <polygon class="cls-3" points="452.3 223.9 496 224.3 454.9 240 452.3 223.9"/>
    <polygon class="cls-3" points="460 344.9 503.8 345.3 462.7 361 460 344.9"/>
    <polygon class="cls-3" points="453.5 479.6 496 489.6 453.5 493.8 453.5 479.6"/>
    <polygon class="cls-3" points="225.1 646.1 183.6 632.5 226.2 632 225.1 646.1"/>
    <polygon class="cls-3" points="229.8 718 186.3 719.8 226 704.3 229.8 718"/>
    <polygon class="cls-3" points="433.9 799.6 475.4 786.1 432.7 785.4 433.9 799.6"/>
    <polygon class="cls-3" points="431.3 904 474.8 901.1 433.7 890 431.3 904"/>
    <polygon class="cls-3" points="233.6 974.5 190.5 981.2 228.3 961.4 233.6 974.5"/>
  </g>
  <g class="cls-4">
    <path class="cls-3" d="M380,1000.6c-17.6-28.5-35.6-60.7-40.1-94.3-2.6-19.2-1.8-38.5-.8-57.8,1.1-21.1,1.5-42,1.3-63.1-.8-92.8-6.2-185.7-2.3-278.5,3.9-92.8,15-185,22.7-277.5,2.1-25.7,3.2-51.5,6-77.2,2.5-23.3,6.1-47.3,15.3-69.1,6.5-15.5,15.9-30,29.2-40.1-14.3-14.2-32.1-24.5-54.6-29.2-30.4-6.3-68.1,8.5-89.1,29.8-31.8,32.3-42.5,77.9-48.2,121.4-6.9,52.2-10.8,104.7-12.6,157.4-2.3,68.7-.8,137.8,2.4,206.9,3.8,83.2,10,166.3,14.7,249.5,4.1,74.4-19.2,165.7,18,234.5,26.3,48.6,103.4,76,150.1,35.3,4.7-4.1,8.9-8.5,12.7-13.1-8.8-11.1-17-22.8-24.4-34.9Z"/>
    <polygon class="cls-3" points="275 41.8 262.2 0 289.6 34.5 275 41.8"/>
    <polygon class="cls-3" points="232.6 133.3 193.1 114.6 237 117.6 232.6 133.3"/>
    <polygon class="cls-3" points="223 233.3 183.4 214.6 227.3 217.6 223 233.3"/>
    <polygon class="cls-3" points="214.4 349.5 171.3 342.2 214.4 333.2 214.4 349.5"/>
    <polygon class="cls-3" points="214.4 377.3 171.3 369.9 214.4 361 214.4 377.3"/>
    <polygon class="cls-3" points="225.1 646.1 183.6 632.5 226.2 632 225.1 646.1"/>
    <polygon class="cls-3" points="229.8 718 186.3 719.8 226 704.3 229.8 718"/>
    <polygon class="cls-3" points="433.9 799.6 475.4 786.1 432.7 785.4 433.9 799.6"/>
    <polygon class="cls-3" points="431.3 904 474.8 901.1 433.7 890 431.3 904"/>
    <polygon class="cls-3" points="233.6 974.5 190.5 981.2 228.3 961.4 233.6 974.5"/>
  </g>
  <g class="cls-4">
    <path class="cls-3" d="M327.9,1048.5c-19.6-35.2-30.7-74.7-38.4-114-16.9-86.3-19-175.2-17.5-262.9.6-33.3,2.1-66.6,2.8-99.9,1.9-91.2-.2-182.4,12.6-273,6.3-44.9,12.8-89.2,13.6-134.6.6-33.1,3.9-66.1,17.3-96.7,8.2-18.7,19.2-37.6,32.7-54.5-29.3-3.6-63.8,10.6-83.6,30.7-31.8,32.3-42.5,77.9-48.2,121.4-6.9,52.2-10.8,104.7-12.6,157.4-2.3,68.7-.8,137.8,2.4,206.9,3.8,83.2,10,166.3,14.7,249.5,4.1,74.4-19.2,165.7,18,234.5,17.9,33.1,59.5,56.4,98.9,55-4.6-6.3-8.8-12.9-12.6-19.6Z"/>
    <polygon class="cls-3" points="275 41.8 262.2 0 289.6 34.5 275 41.8"/>
    <polygon class="cls-3" points="232.6 133.3 193.1 114.6 237 117.6 232.6 133.3"/>
    <polygon class="cls-3" points="223 233.3 183.4 214.6 227.3 217.6 223 233.3"/>
    <polygon class="cls-3" points="214.4 349.5 171.3 342.2 214.4 333.2 214.4 349.5"/>
    <polygon class="cls-3" points="214.4 377.3 171.3 369.9 214.4 361 214.4 377.3"/>
    <polygon class="cls-3" points="225.1 646.1 183.6 632.5 226.2 632 225.1 646.1"/>
    <polygon class="cls-3" points="229.8 718 186.3 719.8 226 704.3 229.8 718"/>
    <polygon class="cls-3" points="433.9 799.6 475.4 786.1 432.7 785.4 433.9 799.6"/>
    <polygon class="cls-3" points="431.3 904 474.8 901.1 433.7 890 431.3 904"/>
    <polygon class="cls-3" points="233.6 974.5 190.5 981.2 228.3 961.4 233.6 974.5"/>
  </g>
  <g>
    <g>
      <path class="cls-2" d="M129.7,694.8c0,2.9-2.3,5.2-5.2,5.2s-5.2-2.3-5.2-5.2,2.3-5.2,5.2-5.2,5.2,2.3,5.2,5.2Z"/>
      <g>
        <path class="cls-2" d="M114.7,683.5s.4.3,1.1.9c.6.6,1.6,1.4,2.7,2.5,2.2,2.1,5.1,4.9,7.9,7.9,2.8,3,5.4,6,7.4,8.4,1,1.2,1.7,2.2,2.3,2.9.5.7.8,1.1.8,1.1,0,0,0,.2,0,.3,0,0-.2,0-.3,0,0,0-.4-.3-1.1-.9-.7-.6-1.6-1.4-2.7-2.5-2.2-2.1-5.1-5-7.8-7.9-2.8-3-5.4-6-7.3-8.4-1-1.2-1.7-2.2-2.3-2.9-.5-.7-.8-1.1-.8-1.1,0,0,0-.1,0-.1,0,0,0,0,.1,0Z"/>
        <path class="cls-2" d="M136.4,683s-.3.4-.9,1.1c-.6.7-1.4,1.6-2.5,2.7-2.1,2.2-4.9,5.1-7.9,7.9-3,2.8-6,5.4-8.4,7.4-1.2,1-2.2,1.7-2.9,2.3-.7.5-1.1.8-1.1.8,0,0-.2,0-.3,0,0,0,0-.2,0-.2,0,0,.3-.4.9-1.1.6-.7,1.4-1.6,2.5-2.7,2.1-2.2,5-5.1,7.9-7.8,3-2.8,6-5.4,8.4-7.3,1.2-1,2.2-1.7,2.9-2.3.7-.5,1.1-.8,1.1-.8,0,0,.1,0,.1,0,0,0,0,0,0,.1Z"/>
        <path class="cls-2" d="M124.7,677.8s0,.5.2,1.4c0,.9.2,2.2.3,3.7.2,3,.3,7.1.3,11.2,0,4.1-.2,8.1-.4,11.1-.1,1.5-.3,2.8-.3,3.7,0,.9-.2,1.4-.2,1.4,0,.1-.1.2-.2.2,0,0-.2,0-.2-.2,0,0,0-.5-.1-1.4,0-.9-.2-2.2-.3-3.7-.2-3-.3-7.1-.2-11.2,0-4.1.3-8.1.5-11.1.1-1.5.3-2.8.4-3.7,0-.9.2-1.4.2-1.4,0,0,0,0,.1,0,0,0,0,0,0,0Z"/>
        <path class="cls-2" d="M140.6,694.6s-.5,0-1.4.1c-.9,0-2.2.2-3.7.2-3,.1-7.1.1-11.1,0-4.1-.1-8.1-.4-11.1-.7-1.5-.1-2.8-.3-3.7-.4-.9-.1-1.4-.2-1.4-.2,0,0-.2-.1-.2-.2,0,0,0-.2.2-.2,0,0,.5,0,1.4-.1.9,0,2.2-.1,3.7-.2,3-.1,7.1,0,11.1,0,4.1.2,8.1.5,11.1.8,1.5.1,2.8.3,3.7.5.9.1,1.4.2,1.4.2,0,0,0,0,0,.1,0,0,0,0,0,0Z"/>
      </g>
    </g>
    <g>
      <path class="cls-2" d="M144.2,773.1c0,2.9-2.3,5.2-5.2,5.2s-5.2-2.3-5.2-5.2,2.3-5.2,5.2-5.2c2.9,0,5.2,2.3,5.2,5.2Z"/>
      <g>
        <path class="cls-2" d="M129.2,761.8s.4.3,1.1.9c.7.6,1.6,1.4,2.8,2.5,2.2,2.1,5.1,4.9,7.9,7.9,2.8,3,5.4,6,7.4,8.4,1,1.2,1.7,2.2,2.3,2.9.5.7.8,1.1.8,1.1,0,0,0,.2,0,.3,0,0-.2,0-.2,0,0,0-.4-.3-1.1-.9-.7-.6-1.6-1.4-2.7-2.5-2.2-2.1-5.1-5-7.8-7.9-2.8-3-5.4-6-7.3-8.4-1-1.2-1.7-2.2-2.3-2.9-.5-.7-.8-1.1-.8-1.1,0,0,0-.1,0-.1,0,0,0,0,.1,0Z"/>
        <path class="cls-2" d="M150.9,761.3s-.3.4-.9,1.1c-.6.7-1.4,1.6-2.5,2.8-2.1,2.2-4.9,5.1-7.9,7.9s-6,5.4-8.4,7.4c-1.2,1-2.2,1.7-2.9,2.3-.7.5-1.1.8-1.1.8,0,0-.2,0-.3,0,0,0,0-.2,0-.2,0,0,.3-.4.9-1.1.6-.7,1.4-1.6,2.5-2.7,2.1-2.2,5-5.1,7.9-7.8,3-2.8,6.1-5.4,8.4-7.3,1.2-1,2.2-1.7,2.9-2.3.7-.5,1.1-.8,1.1-.8,0,0,0,0,.1,0,0,0,0,0,0,.1Z"/>
        <path class="cls-2" d="M139.2,756.1s0,.5.2,1.4c0,.9.2,2.2.3,3.7.2,3,.3,7.1.3,11.2,0,4.1-.2,8.1-.4,11.1-.1,1.5-.3,2.8-.3,3.7,0,.9-.2,1.4-.2,1.4,0,.1-.1.2-.2.2,0,0-.2,0-.2-.2,0,0,0-.5-.1-1.4,0-.9-.2-2.2-.3-3.7-.2-3-.3-7.1-.2-11.2,0-4.1.3-8.1.5-11.1.1-1.5.3-2.8.4-3.7.1-.9.2-1.4.2-1.4,0,0,0,0,.1,0,0,0,0,0,0,0Z"/>
        <path class="cls-2" d="M155.2,773s-.5,0-1.4.1c-.9,0-2.2.2-3.7.2-3,.1-7.1.1-11.1,0-4.1-.1-8.1-.4-11.1-.7-1.5-.1-2.8-.3-3.7-.4-.9-.1-1.4-.2-1.4-.2-.1,0-.2-.1-.2-.2,0,0,0-.2.2-.2,0,0,.5,0,1.4-.1.9,0,2.2-.1,3.7-.2,3.1-.1,7.1,0,11.2,0,4.1.2,8.1.5,11.1.8,1.5.2,2.8.3,3.7.5.9.1,1.4.2,1.4.2,0,0,0,0,0,.1,0,0,0,0,0,0Z"/>
      </g>
    </g>
    <g>
      <path class="cls-2" d="M195.8,850.2c0,2.9-2.3,5.2-5.2,5.2s-5.2-2.3-5.2-5.2,2.3-5.2,5.2-5.2,5.2,2.3,5.2,5.2Z"/>
      <g>
        <path class="cls-2" d="M180.8,838.9s.4.3,1.1.9c.7.6,1.6,1.4,2.7,2.5,2.2,2.1,5.1,4.9,7.9,7.9,2.8,3,5.4,6,7.4,8.4,1,1.2,1.7,2.2,2.3,2.9.5.7.8,1.1.8,1.1,0,0,0,.2,0,.3,0,0-.2,0-.2,0,0,0-.4-.3-1.1-.9-.7-.6-1.6-1.4-2.7-2.5-2.2-2.1-5.1-5-7.8-7.9-2.8-3-5.4-6-7.3-8.4-1-1.2-1.7-2.2-2.3-2.9-.5-.7-.8-1.1-.8-1.1,0,0,0-.1,0-.1,0,0,0,0,.1,0Z"/>
        <path class="cls-2" d="M202.4,838.4s-.3.4-.9,1.1c-.6.7-1.4,1.6-2.5,2.7-2.1,2.2-4.9,5.1-7.9,7.9-3,2.8-6,5.4-8.4,7.4-1.2,1-2.2,1.7-2.9,2.3-.7.5-1.1.8-1.1.8,0,0-.2,0-.3,0,0,0,0-.2,0-.2,0,0,.3-.4.9-1.1.6-.7,1.4-1.6,2.5-2.7,2.1-2.2,5-5.1,7.9-7.8,3-2.8,6-5.4,8.4-7.3,1.2-1,2.2-1.7,2.9-2.3.7-.5,1.1-.8,1.1-.8,0,0,.1,0,.1,0,0,0,0,0,0,.1Z"/>
        <path class="cls-2" d="M190.8,833.2s0,.5.1,1.4c0,.9.2,2.2.3,3.7.2,3,.3,7.1.3,11.2,0,4.1-.2,8.1-.4,11.1-.1,1.5-.3,2.8-.3,3.7,0,.9-.2,1.4-.2,1.4,0,.1-.1.2-.2.2,0,0-.2,0-.2-.2,0,0,0-.5-.1-1.4,0-.9-.2-2.2-.3-3.7-.2-3-.2-7.1-.2-11.2,0-4.1.3-8.1.5-11.1.1-1.5.3-2.8.4-3.7,0-.9.2-1.4.2-1.4,0,0,0,0,.1,0,0,0,0,0,0,0Z"/>
        <path class="cls-2" d="M206.7,850.1s-.5,0-1.4.1c-.9,0-2.2.2-3.7.2-3,.1-7.1.1-11.2,0-4.1-.1-8.1-.4-11.1-.7-1.5-.1-2.8-.3-3.7-.4-.9-.1-1.4-.2-1.4-.2-.1,0-.2-.1-.2-.2,0,0,0-.2.2-.2,0,0,.5,0,1.4-.1.9,0,2.2-.1,3.7-.2,3,0,7.1,0,11.2,0,4,.2,8.1.5,11.1.8,1.5.2,2.8.4,3.7.5.9.1,1.4.2,1.4.2,0,0,0,0,0,.1,0,0,0,0,0,0Z"/>
      </g>
    </g>
    <g>
      <path class="cls-2" d="M187.3,779.1c0,2.9-2.3,5.2-5.2,5.2s-5.2-2.3-5.2-5.2,2.3-5.2,5.2-5.2,5.2,2.3,5.2,5.2Z"/>
      <g>
        <path class="cls-2" d="M172.3,767.8s.4.3,1.1.9c.7.6,1.6,1.4,2.8,2.5,2.2,2.1,5.1,4.9,7.9,7.9,2.8,3,5.4,6,7.4,8.4,1,1.2,1.7,2.2,2.3,2.9.5.7.8,1.1.8,1.1,0,0,0,.2,0,.3,0,0-.2,0-.2,0,0,0-.4-.3-1.1-.9-.7-.6-1.6-1.4-2.7-2.5-2.2-2.1-5.1-5-7.8-7.9-2.7-3-5.4-6-7.3-8.4-1-1.2-1.7-2.2-2.3-2.9-.5-.7-.8-1.1-.8-1.1,0,0,0-.1,0-.1,0,0,0,0,.1,0Z"/>
        <path class="cls-2" d="M194,767.3s-.3.4-.9,1.1c-.6.7-1.4,1.6-2.5,2.7-2.1,2.2-4.9,5.1-7.9,7.9-3,2.8-6,5.4-8.4,7.4-1.2,1-2.2,1.7-2.9,2.3-.7.5-1.1.8-1.1.8,0,0-.2,0-.3,0,0,0,0-.2,0-.2,0,0,.3-.4.9-1.1.6-.7,1.4-1.6,2.5-2.7,2.1-2.2,5-5.1,7.9-7.8,3-2.8,6-5.4,8.4-7.3,1.2-1,2.2-1.7,2.9-2.3.7-.5,1.1-.8,1.1-.8,0,0,0,0,.1,0,0,0,0,0,0,.1Z"/>
        <path class="cls-2" d="M182.4,762.1s0,.5.2,1.4c0,.9.2,2.2.3,3.7.2,3,.3,7.1.3,11.2,0,4.1-.2,8.1-.4,11.1-.1,1.5-.3,2.8-.3,3.7,0,.9-.2,1.4-.2,1.4,0,.1-.1.2-.2.2,0,0-.2,0-.2-.2,0,0,0-.5-.1-1.4,0-.9-.2-2.2-.3-3.7-.2-3-.3-7.1-.2-11.2,0-4.1.3-8.1.5-11.1.1-1.5.3-2.8.4-3.7.1-.9.2-1.4.2-1.4,0,0,0,0,.1,0,0,0,0,0,0,0Z"/>
        <path class="cls-2" d="M198.3,779s-.5,0-1.4.1c-.9,0-2.2.2-3.7.2-3,.1-7.1.1-11.1,0-4.1-.1-8.1-.4-11.1-.7-1.5-.1-2.8-.3-3.7-.4-.9-.1-1.4-.2-1.4-.2-.1,0-.2-.1-.2-.2,0,0,0-.1.2-.2,0,0,.5,0,1.4-.1.9,0,2.2-.1,3.7-.2,3.1-.1,7.1,0,11.2,0,4.1.2,8.1.5,11.1.8,1.5.1,2.8.3,3.7.5.9.1,1.4.2,1.4.2,0,0,0,0,0,.1,0,0,0,0,0,0Z"/>
      </g>
    </g>
  </g>
  <g>
    <g>
      <path class="cls-2" d="M599.2,344c0,2.9-2.3,5.2-5.2,5.2s-5.2-2.3-5.2-5.2,2.3-5.2,5.2-5.2,5.2,2.3,5.2,5.2Z"/>
      <g>
        <path class="cls-2" d="M584.3,332.7s.4.3,1.1.9c.7.6,1.6,1.4,2.7,2.5,2.2,2.1,5.1,4.9,7.9,7.9,2.8,3,5.4,6,7.4,8.4,1,1.2,1.7,2.2,2.3,2.9.5.7.8,1.1.8,1.1,0,0,0,.2,0,.3,0,0-.2,0-.2,0,0,0-.4-.3-1.1-.9-.7-.6-1.6-1.4-2.7-2.5-2.2-2.1-5.1-5-7.8-7.9-2.8-3-5.4-6-7.3-8.4-1-1.2-1.7-2.2-2.3-2.9-.5-.7-.8-1.1-.8-1.1,0,0,0-.1,0-.1,0,0,0,0,.1,0Z"/>
        <path class="cls-2" d="M605.9,332.2s-.3.4-.9,1.1c-.6.7-1.4,1.6-2.5,2.8-2.1,2.2-4.9,5.1-7.9,7.9-3,2.8-6,5.4-8.4,7.4-1.2,1-2.2,1.7-2.9,2.3-.7.5-1.1.8-1.1.8,0,0-.2,0-.3,0,0,0,0-.2,0-.2,0,0,.3-.4.9-1.1.6-.7,1.4-1.6,2.5-2.7,2.1-2.2,5-5.1,7.9-7.8,3-2.7,6-5.4,8.4-7.3,1.2-1,2.2-1.7,2.9-2.3.7-.5,1.1-.8,1.1-.8,0,0,.1,0,.1,0,0,0,0,0,0,.1Z"/>
        <path class="cls-2" d="M594.3,327s0,.5.2,1.4c0,.9.2,2.2.3,3.7.2,3,.3,7.1.3,11.2,0,4.1-.2,8.1-.4,11.1-.1,1.5-.3,2.8-.3,3.7,0,.9-.2,1.4-.2,1.4,0,.1-.1.2-.2.2,0,0-.2,0-.2-.2,0,0,0-.5-.1-1.4,0-.9-.2-2.2-.3-3.7-.2-3-.3-7.1-.2-11.2,0-4.1.3-8.1.5-11.1.1-1.5.3-2.8.4-3.7,0-.9.2-1.4.2-1.4,0,0,0,0,.1,0,0,0,0,0,0,0Z"/>
        <path class="cls-2" d="M610.2,343.9s-.5,0-1.4.1c-.9,0-2.2.2-3.7.2-3,.1-7.1.1-11.2,0-4.1-.1-8.1-.4-11.1-.7-1.5-.1-2.8-.3-3.7-.4-.9-.1-1.4-.2-1.4-.2,0,0-.2-.1-.2-.2,0,0,0-.1.2-.2,0,0,.5,0,1.4-.1.9,0,2.2-.1,3.7-.2,3,0,7.1,0,11.2,0,4.1.2,8.1.5,11.1.8,1.5.2,2.8.3,3.7.5.9.1,1.4.2,1.4.2,0,0,0,0,0,.1,0,0,0,0,0,0Z"/>
      </g>
    </g>
    <g>
      <path class="cls-2" d="M620.9,434.4c0,2.9-2.3,5.2-5.3,5.2s-5.2-2.3-5.2-5.2,2.3-5.2,5.2-5.2,5.3,2.3,5.3,5.2Z"/>
      <g>
        <path class="cls-2" d="M605.9,423.1s.4.3,1.1.9c.7.6,1.6,1.4,2.7,2.5,2.2,2.1,5.1,4.9,7.9,7.9,2.8,3,5.4,6,7.4,8.4,1,1.2,1.7,2.2,2.3,2.9.5.7.8,1.1.8,1.1,0,0,0,.2,0,.3,0,0-.2,0-.2,0,0,0-.4-.3-1.1-.9-.7-.6-1.6-1.4-2.7-2.5-2.2-2.1-5.1-5-7.8-7.9-2.8-3-5.4-6-7.3-8.4-1-1.2-1.7-2.2-2.3-2.9-.5-.7-.8-1.1-.8-1.1,0,0,0-.1,0-.1,0,0,0,0,.1,0Z"/>
        <path class="cls-2" d="M627.6,422.6s-.3.4-.9,1.1c-.6.7-1.4,1.6-2.5,2.7-2.1,2.2-4.9,5.1-7.9,7.9-3,2.8-6,5.4-8.4,7.4-1.2,1-2.2,1.7-2.9,2.3-.7.5-1.1.8-1.1.8,0,0-.2,0-.3,0,0,0,0-.2,0-.2,0,0,.3-.4.9-1.1.6-.7,1.4-1.6,2.5-2.7,2.1-2.2,5-5.1,7.9-7.8,3-2.8,6-5.4,8.4-7.3,1.2-1,2.2-1.7,2.9-2.3.7-.5,1.1-.8,1.1-.8,0,0,.1,0,.1,0,0,0,0,0,0,.1Z"/>
        <path class="cls-2" d="M615.9,417.4s0,.5.1,1.4c0,.9.2,2.2.3,3.7.2,3,.3,7.1.3,11.2,0,4.1-.2,8.1-.5,11.1,0,1.5-.3,2.8-.3,3.7,0,.9-.2,1.4-.2,1.4,0,.1-.1.2-.2.2,0,0-.2,0-.2-.2,0,0,0-.5-.1-1.4,0-.9-.2-2.2-.3-3.7-.2-3-.2-7.1-.2-11.2,0-4.1.3-8.1.5-11.1.1-1.5.3-2.8.4-3.7,0-.9.2-1.4.2-1.4,0,0,0,0,.1,0,0,0,0,0,0,0Z"/>
        <path class="cls-2" d="M631.8,434.2s-.5,0-1.4.1c-.9,0-2.2.2-3.7.2-3,.1-7.1.1-11.2,0-4-.1-8.1-.4-11.1-.7-1.5-.1-2.8-.3-3.7-.4-.9-.1-1.4-.2-1.4-.2-.1,0-.2-.1-.2-.2,0,0,0-.1.2-.2,0,0,.5,0,1.4-.1.9,0,2.2-.1,3.7-.2,3.1,0,7.1,0,11.2,0,4,.2,8.1.5,11.1.8,1.5.2,2.8.4,3.7.5.9.1,1.4.2,1.4.2,0,0,0,0,0,.1,0,0,0,0,0,0Z"/>
      </g>
    </g>
    <g>
      <path class="cls-2" d="M604.5,534.9c0,2.9-2.3,5.2-5.2,5.2s-5.2-2.3-5.2-5.2,2.3-5.2,5.2-5.2,5.2,2.3,5.2,5.2Z"/>
      <g>
        <path class="cls-2" d="M589.6,523.6s.4.3,1.1.9c.7.6,1.6,1.4,2.8,2.5,2.2,2.1,5.1,4.9,7.9,7.9,2.8,3,5.4,6,7.4,8.4,1,1.2,1.7,2.2,2.3,2.9.5.7.8,1.1.8,1.1,0,0,0,.2,0,.3,0,0-.2,0-.2,0,0,0-.4-.3-1.1-.9-.7-.6-1.6-1.4-2.7-2.5-2.2-2.1-5.1-5-7.8-7.9-2.7-3-5.4-6-7.3-8.4-1-1.2-1.7-2.2-2.3-2.9-.5-.7-.8-1.1-.8-1.1,0,0,0-.1,0-.1,0,0,0,0,.1,0Z"/>
        <path class="cls-2" d="M611.2,523.1s-.3.4-.9,1.1c-.6.7-1.4,1.6-2.5,2.8-2.1,2.2-4.9,5.1-7.9,7.9-3,2.8-6,5.4-8.4,7.4-1.2,1-2.2,1.7-2.9,2.3-.7.5-1.1.8-1.1.8,0,0-.2,0-.3,0,0,0,0-.2,0-.2,0,0,.3-.4.9-1.1.6-.7,1.4-1.6,2.5-2.7,2.1-2.2,5-5.1,7.9-7.8,3-2.8,6.1-5.4,8.4-7.3,1.2-1,2.2-1.7,2.9-2.3.7-.5,1.1-.8,1.1-.8,0,0,.1,0,.1,0,0,0,0,0,0,.1Z"/>
        <path class="cls-2" d="M599.6,517.9s0,.5.2,1.4c0,.9.2,2.2.3,3.7.2,3,.3,7.1.3,11.2,0,4.1-.2,8.1-.4,11.1-.1,1.5-.3,2.8-.3,3.7,0,.9-.2,1.4-.2,1.4,0,.1-.1.2-.2.2,0,0-.2,0-.2-.2,0,0,0-.5-.1-1.4,0-.9-.2-2.2-.3-3.7-.2-3-.3-7.1-.2-11.2,0-4.1.3-8.1.5-11.1.1-1.5.3-2.8.4-3.7.1-.9.2-1.4.2-1.4,0,0,0,0,.1,0,0,0,0,0,0,0Z"/>
        <path class="cls-2" d="M615.5,534.7s-.5,0-1.4.1c-.9,0-2.2.2-3.7.2-3,.1-7.1.1-11.2,0-4.1-.1-8.1-.4-11.1-.7-1.5-.1-2.8-.3-3.7-.4-.9-.1-1.4-.2-1.4-.2,0,0-.2-.1-.2-.2,0,0,0-.2.2-.2,0,0,.5,0,1.4-.1.9,0,2.2-.1,3.7-.2,3.1,0,7.1,0,11.2,0,4.1.2,8.1.5,11.1.8,1.5.2,2.8.3,3.7.5.9.1,1.4.2,1.4.2,0,0,0,0,0,.1,0,0,0,0,0,0Z"/>
      </g>
    </g>
    <g>
      <path class="cls-2" d="M564.4,608.8c0,2.9-2.3,5.2-5.2,5.2s-5.2-2.3-5.2-5.2,2.3-5.2,5.2-5.2c2.9,0,5.2,2.3,5.2,5.2Z"/>
      <g>
        <path class="cls-2" d="M549.4,597.5s.4.3,1.1.9c.7.6,1.6,1.4,2.7,2.5,2.2,2.1,5.1,4.9,7.9,7.9,2.8,3,5.4,6,7.4,8.4,1,1.2,1.7,2.2,2.3,2.9.5.7.8,1.1.8,1.1,0,0,0,.2,0,.3,0,0-.2,0-.2,0,0,0-.4-.3-1.1-.9-.7-.6-1.6-1.4-2.7-2.5-2.2-2.1-5.1-5-7.8-7.9-2.8-3-5.4-6-7.3-8.4-1-1.2-1.7-2.2-2.3-2.9-.5-.7-.8-1.1-.8-1.1,0,0,0-.1,0-.1,0,0,0,0,.1,0Z"/>
        <path class="cls-2" d="M571,597s-.3.4-.9,1.1c-.6.7-1.4,1.6-2.5,2.7-2.1,2.2-4.9,5.1-7.9,7.9-3,2.8-6,5.4-8.4,7.4-1.2,1-2.2,1.7-2.9,2.3-.7.5-1.1.8-1.1.8,0,0-.2,0-.3,0,0,0,0-.2,0-.2,0,0,.3-.4.9-1.1.6-.7,1.4-1.6,2.5-2.7,2.1-2.2,5-5.1,7.9-7.8,3-2.7,6-5.4,8.4-7.3,1.2-1,2.2-1.7,2.9-2.3.7-.5,1.1-.8,1.1-.8,0,0,.1,0,.1,0,0,0,0,0,0,.1Z"/>
        <path class="cls-2" d="M559.4,591.8s0,.5.2,1.4c0,.9.2,2.2.3,3.7.2,3,.3,7.1.3,11.1,0,4.1-.2,8.1-.4,11.1,0,1.5-.3,2.8-.3,3.7,0,.9-.2,1.4-.2,1.4,0,.1-.1.2-.2.2,0,0-.2,0-.2-.2,0,0,0-.5-.1-1.4,0-.9-.2-2.2-.3-3.7-.2-3-.3-7.1-.2-11.2,0-4.1.3-8.1.5-11.1.1-1.5.3-2.8.4-3.7,0-.9.2-1.4.2-1.4,0,0,0,0,.1,0,0,0,0,0,0,0Z"/>
        <path class="cls-2" d="M575.3,608.7s-.5,0-1.4.1c-.9,0-2.2.2-3.7.2-3,.1-7.1.1-11.2,0-4.1-.1-8.1-.4-11.1-.7-1.5-.1-2.8-.3-3.7-.4-.9-.1-1.4-.2-1.4-.2-.1,0-.2-.1-.2-.2,0,0,0-.2.2-.2,0,0,.5,0,1.4-.1.9,0,2.2-.1,3.7-.2,3,0,7.1,0,11.2,0,4,.2,8.1.5,11.1.8,1.5.2,2.8.3,3.7.5.9.1,1.4.2,1.4.2,0,0,0,0,0,.1,0,0,0,0,0,0Z"/>
      </g>
    </g>
    <g>
      <path class="cls-2" d="M500.5,652.7c0,2.9-2.3,5.2-5.3,5.2s-5.2-2.3-5.2-5.2,2.3-5.2,5.2-5.2,5.3,2.3,5.3,5.2Z"/>
      <g>
        <path class="cls-2" d="M485.6,641.4s.4.3,1.1.9c.7.6,1.6,1.4,2.7,2.5,2.2,2.1,5.1,4.9,7.9,7.9,2.8,3,5.4,6,7.4,8.4,1,1.2,1.7,2.2,2.3,2.9.5.7.8,1.1.8,1.1,0,0,0,.2,0,.3,0,0-.2,0-.2,0,0,0-.4-.3-1.1-.9-.7-.6-1.6-1.4-2.7-2.5-2.2-2.1-5.1-5-7.8-7.9-2.8-3-5.4-6-7.3-8.4-1-1.2-1.7-2.2-2.3-2.9-.5-.7-.8-1.1-.8-1.1,0,0,0-.1,0-.1,0,0,0,0,.1,0Z"/>
        <path class="cls-2" d="M507.2,640.9s-.3.4-.9,1.1c-.6.7-1.4,1.6-2.5,2.7-2.1,2.2-4.9,5.1-7.9,7.9-3,2.8-6,5.4-8.4,7.4-1.2,1-2.2,1.7-2.9,2.3-.7.5-1.1.8-1.1.8,0,0-.2,0-.3,0,0,0,0-.2,0-.2,0,0,.3-.4.9-1.1.6-.7,1.4-1.6,2.5-2.7,2.1-2.2,5-5.1,7.9-7.8,3-2.7,6-5.4,8.4-7.3,1.2-1,2.2-1.7,2.9-2.3.7-.5,1.1-.8,1.1-.8,0,0,.1,0,.1,0,0,0,0,0,0,.1Z"/>
        <path class="cls-2" d="M495.6,635.7s0,.5.1,1.4c0,.9.2,2.2.3,3.7.2,3,.3,7.1.3,11.2,0,4.1-.2,8.1-.5,11.1,0,1.5-.3,2.8-.3,3.7,0,.9-.2,1.4-.2,1.4,0,.1-.1.2-.2.2,0,0-.2,0-.2-.2,0,0,0-.5-.1-1.4,0-.9-.2-2.2-.3-3.7-.2-3-.2-7.1-.2-11.2,0-4.1.3-8.1.5-11.1.1-1.5.3-2.8.4-3.7,0-.9.2-1.4.2-1.4,0,0,0,0,.1,0,0,0,0,0,0,0Z"/>
        <path class="cls-2" d="M511.5,652.5s-.5,0-1.4.1c-.9,0-2.2.2-3.7.2-3,.1-7.1.1-11.2,0-4-.1-8.1-.4-11.1-.7-1.5-.1-2.8-.3-3.7-.4-.9-.1-1.4-.2-1.4-.2-.1,0-.2-.1-.2-.2,0,0,0-.1.2-.2,0,0,.5,0,1.4-.1.9,0,2.2-.1,3.7-.2,3.1,0,7.1,0,11.2,0,4,.2,8.1.5,11.1.8,1.5.2,2.8.3,3.7.5.9.1,1.4.2,1.4.2,0,0,0,0,0,.1,0,0,0,0,0,0Z"/>
      </g>
    </g>
    <g>
      <path class="cls-2" d="M513.1,598.3c0,2.9-2.3,5.2-5.2,5.2s-5.2-2.3-5.2-5.2,2.3-5.2,5.2-5.2c2.9,0,5.2,2.3,5.2,5.2Z"/>
      <g>
        <path class="cls-2" d="M498.1,587s.4.3,1.1.9c.7.6,1.6,1.4,2.7,2.5,2.2,2.1,5.1,4.9,7.9,7.9,2.8,3,5.4,6,7.4,8.4,1,1.2,1.7,2.2,2.3,2.9.5.7.8,1.1.8,1.1,0,0,0,.2,0,.3,0,0-.2,0-.2,0,0,0-.4-.3-1.1-.9-.7-.6-1.6-1.4-2.7-2.5-2.2-2.1-5.1-5-7.9-7.9-2.7-3-5.4-6-7.3-8.4-1-1.2-1.7-2.2-2.3-2.9-.5-.7-.8-1.1-.8-1.1,0,0,0-.1,0-.1,0,0,0,0,.1,0Z"/>
        <path class="cls-2" d="M519.7,586.5s-.3.4-.9,1.1c-.6.7-1.4,1.6-2.5,2.7-2.1,2.2-4.9,5.1-7.9,7.9-3,2.8-6,5.4-8.4,7.4-1.2,1-2.2,1.7-2.9,2.3-.7.5-1.1.8-1.1.8,0,0-.2,0-.3,0,0,0,0-.2,0-.2,0,0,.3-.4.9-1.1.6-.7,1.4-1.6,2.5-2.7,2.1-2.2,5-5.1,7.9-7.8,3-2.8,6-5.4,8.4-7.3,1.2-1,2.2-1.7,2.9-2.3.7-.5,1.1-.8,1.1-.8,0,0,.1,0,.1,0,0,0,0,0,0,.1Z"/>
        <path class="cls-2" d="M508.1,581.3s0,.5.1,1.4c0,.9.2,2.2.3,3.7.2,3,.3,7.1.3,11.2,0,4.1-.2,8.1-.4,11.1-.1,1.5-.3,2.8-.3,3.7,0,.9-.2,1.4-.2,1.4,0,.1-.1.2-.2.2,0,0-.2,0-.2-.2,0,0,0-.5-.1-1.4,0-.9-.2-2.2-.3-3.7-.2-3-.2-7.1-.2-11.2,0-4.1.3-8.1.5-11.1.1-1.5.3-2.8.4-3.7,0-.9.2-1.4.2-1.4,0,0,0,0,.1,0,0,0,0,0,0,0Z"/>
        <path class="cls-2" d="M524,598.1s-.5,0-1.4.1c-.9,0-2.2.2-3.7.2-3,.1-7.1.1-11.1,0-4.1-.1-8.1-.4-11.1-.7-1.5-.1-2.8-.3-3.7-.4-.9-.1-1.4-.2-1.4-.2-.1,0-.2-.1-.2-.2,0,0,0-.2.2-.2,0,0,.5,0,1.4-.1.9,0,2.2-.1,3.7-.2,3-.1,7.1,0,11.2,0,4,.2,8.1.5,11.1.8,1.5.2,2.8.3,3.7.5.9.1,1.4.2,1.4.2,0,0,0,0,0,.1,0,0,0,0,0,0Z"/>
      </g>
    </g>
    <g>
      <path class="cls-2" d="M559.2,513.4c0,2.9-2.3,5.2-5.2,5.2s-5.2-2.3-5.2-5.2,2.3-5.2,5.2-5.2c2.9,0,5.2,2.3,5.2,5.2Z"/>
      <g>
        <path class="cls-2" d="M544.2,502.1s.4.3,1.1.9c.7.6,1.6,1.4,2.7,2.5,2.2,2.1,5.1,4.9,7.9,7.9,2.8,3,5.4,6,7.4,8.4,1,1.2,1.7,2.2,2.3,2.9.5.7.8,1.1.8,1.1,0,0,0,.2,0,.3,0,0-.2,0-.2,0,0,0-.4-.3-1.1-.9-.7-.6-1.6-1.4-2.7-2.5-2.2-2.1-5.1-5-7.8-7.9-2.8-3-5.4-6-7.3-8.4-1-1.2-1.7-2.2-2.3-2.9-.5-.7-.8-1.1-.8-1.1,0,0,0-.1,0-.1,0,0,0,0,.1,0Z"/>
        <path class="cls-2" d="M565.9,501.6s-.3.4-.9,1.1c-.6.7-1.4,1.6-2.5,2.7-2.1,2.2-4.9,5.1-7.9,7.9-3,2.8-6,5.4-8.4,7.4-1.2,1-2.2,1.7-2.9,2.3-.7.5-1.1.8-1.1.8,0,0-.2,0-.3,0,0,0,0-.2,0-.2,0,0,.3-.4.9-1.1.6-.7,1.4-1.6,2.5-2.7,2.1-2.2,5-5.1,7.9-7.8,3-2.8,6-5.4,8.4-7.3,1.2-1,2.2-1.7,2.9-2.3.7-.5,1.1-.8,1.1-.8,0,0,.1,0,.1,0,0,0,0,0,0,.1Z"/>
        <path class="cls-2" d="M554.2,496.4s0,.5.1,1.4c0,.9.2,2.2.3,3.7.2,3,.3,7.1.3,11.2,0,4.1-.2,8.1-.5,11.1,0,1.5-.3,2.8-.3,3.7,0,.9-.2,1.4-.2,1.4,0,.1-.1.2-.2.2,0,0-.2,0-.2-.2,0,0,0-.5-.1-1.4,0-.9-.2-2.2-.3-3.7-.2-3-.2-7.1-.2-11.2,0-4.1.3-8.1.5-11.1.1-1.5.3-2.8.4-3.7.1-.9.2-1.4.2-1.4,0,0,0,0,.1,0,0,0,0,0,0,0Z"/>
        <path class="cls-2" d="M570.1,513.3s-.5,0-1.4.1c-.9,0-2.2.2-3.7.2-3,.1-7.1.1-11.2,0-4-.1-8.1-.4-11.1-.7-1.5-.1-2.8-.3-3.7-.4-.9-.1-1.4-.2-1.4-.2-.1,0-.2-.1-.2-.2,0,0,0-.1.2-.2,0,0,.5,0,1.4-.1.9,0,2.2-.1,3.7-.2,3.1-.1,7.1,0,11.2,0,4,.2,8.1.5,11.1.8,1.5.1,2.8.3,3.7.5.9.1,1.4.2,1.4.2,0,0,0,0,0,.1,0,0,0,0,0,0Z"/>
      </g>
    </g>
    <g>
      <path class="cls-2" d="M580.7,395.8c0,2.9-2.3,5.2-5.2,5.2s-5.2-2.3-5.2-5.2,2.3-5.2,5.2-5.2,5.2,2.3,5.2,5.2Z"/>
      <g>
        <path class="cls-2" d="M565.7,384.5s.4.3,1.1.9c.7.6,1.6,1.4,2.8,2.5,2.2,2.1,5.1,4.9,7.9,7.9,2.8,3,5.4,6,7.4,8.4,1,1.2,1.7,2.2,2.3,2.9.5.7.8,1.1.8,1.1,0,0,0,.2,0,.3,0,0-.2,0-.2,0,0,0-.4-.3-1.1-.9-.7-.6-1.6-1.4-2.7-2.5-2.2-2.1-5.1-5-7.8-7.9-2.7-3-5.4-6-7.3-8.4-1-1.2-1.7-2.2-2.3-2.9-.5-.7-.8-1.1-.8-1.1,0,0,0-.1,0-.1,0,0,0,0,.1,0Z"/>
        <path class="cls-2" d="M587.4,384s-.3.4-.9,1.1c-.6.7-1.4,1.6-2.5,2.7-2.1,2.2-4.9,5.1-7.9,7.9-3,2.8-6,5.4-8.4,7.4-1.2,1-2.2,1.7-2.9,2.3-.7.5-1.1.8-1.1.8,0,0-.2,0-.3,0,0,0,0-.2,0-.2,0,0,.3-.4.9-1.1.6-.7,1.4-1.6,2.5-2.7,2.1-2.2,5-5.1,7.9-7.8,3-2.8,6-5.4,8.4-7.3,1.2-1,2.2-1.7,2.9-2.3.7-.5,1.1-.8,1.1-.8,0,0,0,0,.1,0,0,0,0,0,0,.1Z"/>
        <path class="cls-2" d="M575.7,378.8s0,.5.2,1.4c0,.9.2,2.2.3,3.7.2,3,.3,7.1.3,11.2,0,4.1-.2,8.1-.4,11.1-.1,1.5-.3,2.8-.3,3.7,0,.9-.2,1.4-.2,1.4,0,.1-.1.2-.2.2,0,0-.2,0-.2-.2,0,0,0-.5-.1-1.4,0-.9-.2-2.2-.3-3.7-.2-3-.3-7.1-.2-11.2,0-4.1.3-8.1.5-11.1.1-1.5.3-2.8.4-3.7.1-.9.2-1.4.2-1.4,0,0,0,0,.1,0,0,0,0,0,0,0Z"/>
        <path class="cls-2" d="M591.6,395.6s-.5,0-1.4.1c-.9,0-2.2.2-3.7.2-3,.1-7.1.1-11.2,0-4.1-.1-8.1-.4-11.1-.7-1.5-.1-2.8-.3-3.7-.4-.9-.1-1.4-.2-1.4-.2-.1,0-.2-.1-.2-.2,0,0,0-.2.2-.2,0,0,.5,0,1.4-.1.9,0,2.2-.1,3.7-.2,3.1,0,7.1,0,11.2,0,4.1.2,8.1.5,11.1.8,1.5.1,2.8.3,3.7.5.9.1,1.4.2,1.4.2,0,0,0,0,0,.1,0,0,0,0,0,0Z"/>
      </g>
    </g>
  </g>
  <g>
    <g>
      <path class="cls-2" d="M118.1,173.4c0,2.9-2.3,5.2-5.2,5.2s-5.2-2.3-5.2-5.2,2.3-5.2,5.2-5.2,5.2,2.3,5.2,5.2Z"/>
      <g>
        <path class="cls-2" d="M103.1,162.2s.4.3,1.1.9c.7.6,1.6,1.4,2.7,2.5,2.2,2.1,5.1,4.9,7.9,7.9,2.8,3,5.4,6,7.4,8.4,1,1.2,1.7,2.2,2.3,2.9.5.7.8,1.1.8,1.1,0,0,0,.2,0,.3,0,0-.2,0-.2,0,0,0-.4-.3-1.1-.9-.7-.6-1.6-1.4-2.7-2.5-2.2-2.1-5.1-5-7.8-7.9-2.8-3-5.4-6-7.3-8.4-1-1.2-1.7-2.2-2.3-2.9-.5-.7-.8-1.1-.8-1.1,0,0,0-.1,0-.1,0,0,0,0,.1,0Z"/>
        <path class="cls-2" d="M124.8,161.7s-.3.4-.9,1.1c-.6.7-1.4,1.6-2.5,2.8-2.1,2.2-4.9,5.1-7.9,7.9-3,2.8-6,5.4-8.4,7.4-1.2,1-2.2,1.7-2.9,2.3-.7.5-1.1.8-1.1.8,0,0-.2,0-.3,0,0,0,0-.2,0-.2,0,0,.3-.4.9-1.1.6-.7,1.4-1.6,2.5-2.7,2.1-2.2,5-5.1,7.9-7.8,3-2.8,6-5.4,8.4-7.3,1.2-1,2.2-1.7,2.9-2.3.7-.5,1.1-.8,1.1-.8,0,0,.1,0,.1,0,0,0,0,0,0,.1Z"/>
        <path class="cls-2" d="M113.1,156.4s0,.5.2,1.4c0,.9.2,2.2.3,3.7.2,3,.3,7.1.3,11.2,0,4.1-.2,8.1-.5,11.1,0,1.5-.3,2.8-.3,3.7,0,.9-.2,1.4-.2,1.4,0,.1-.1.2-.2.2,0,0-.2,0-.2-.2,0,0,0-.5-.1-1.4,0-.9-.2-2.2-.3-3.7-.2-3-.3-7.1-.2-11.2,0-4.1.3-8.1.5-11.1.1-1.5.3-2.8.4-3.7,0-.9.2-1.4.2-1.4,0,0,0,0,.1,0,0,0,0,0,0,0Z"/>
        <path class="cls-2" d="M129,173.3s-.5,0-1.4.1c-.9,0-2.2.2-3.7.2-3,.1-7.1.1-11.2,0-4-.1-8.1-.4-11.1-.7-1.5-.1-2.8-.3-3.7-.4-.9-.1-1.4-.2-1.4-.2-.1,0-.2-.1-.2-.2,0,0,0-.2.2-.2,0,0,.5,0,1.4-.1.9,0,2.2-.1,3.7-.2,3-.1,7.1,0,11.2,0,4.1.2,8.1.5,11.1.8,1.5.1,2.8.3,3.7.5.9.1,1.4.2,1.4.2,0,0,0,0,0,.1,0,0,0,0,0,0Z"/>
      </g>
    </g>
    <g>
      <circle class="cls-2" cx="88.6" cy="283.6" r="5.2"/>
      <g>
        <path class="cls-2" d="M78.9,272.3s.4.3,1.1.9c.7.6,1.6,1.4,2.8,2.5,2.2,2.1,5.1,4.9,7.9,7.9,2.8,3,5.4,6,7.4,8.4,1,1.2,1.7,2.2,2.3,2.9.5.7.8,1.1.8,1.1,0,0,0,.2,0,.3,0,0-.2,0-.2,0,0,0-.4-.3-1.1-.9-.7-.6-1.6-1.4-2.7-2.5-2.2-2.1-5.1-5-7.8-7.9-2.8-3-5.4-6-7.3-8.4-1-1.2-1.7-2.2-2.3-2.9-.5-.7-.8-1.1-.8-1.1,0,0,0-.1,0-.1,0,0,0,0,.1,0Z"/>
        <path class="cls-2" d="M100.5,271.8s-.3.4-.9,1.1c-.6.7-1.4,1.6-2.5,2.7-2.1,2.2-4.9,5.1-7.9,7.9-3,2.8-6,5.4-8.4,7.4-1.2,1-2.2,1.7-2.9,2.3-.7.5-1.1.8-1.1.8,0,0-.2,0-.3,0,0,0,0-.2,0-.2,0,0,.3-.4.9-1.1.6-.7,1.4-1.6,2.5-2.7,2.1-2.2,5-5.1,7.9-7.8,3-2.8,6.1-5.4,8.4-7.3,1.2-1,2.2-1.7,2.9-2.3.7-.5,1.1-.8,1.1-.8,0,0,.1,0,.1,0,0,0,0,0,0,.1Z"/>
        <path class="cls-2" d="M88.9,266.6s0,.5.2,1.4c0,.9.2,2.2.3,3.7.2,3,.3,7.1.3,11.2,0,4.1-.2,8.1-.5,11.1,0,1.5-.3,2.8-.3,3.7,0,.9-.2,1.4-.2,1.4,0,.1-.1.2-.2.2,0,0-.2,0-.2-.2,0,0,0-.5-.1-1.4,0-.9-.2-2.2-.3-3.7-.2-3-.3-7.1-.2-11.2,0-4,.3-8.1.5-11.1.1-1.5.3-2.8.4-3.7,0-.9.2-1.4.2-1.4,0,0,0,0,.1,0,0,0,0,0,0,0Z"/>
        <path class="cls-2" d="M104.8,283.4s-.5,0-1.4.1c-.9,0-2.2.2-3.7.2-3,.1-7.1.1-11.1,0-4.1-.1-8.1-.4-11.1-.7-1.5-.1-2.8-.3-3.7-.4-.9-.1-1.4-.2-1.4-.2-.1,0-.2-.1-.2-.2,0,0,0-.1.2-.2,0,0,.5,0,1.4-.1.9,0,2.2-.1,3.7-.2,3-.1,7.1,0,11.2,0,4.1.2,8.1.4,11.1.8,1.5.1,2.8.3,3.7.4.9.1,1.4.2,1.4.2,0,0,0,0,0,.1,0,0,0,0,0,0Z"/>
      </g>
    </g>
    <g>
      <path class="cls-2" d="M87.6,405.6c0,2.9-2.3,5.2-5.3,5.2s-5.2-2.3-5.2-5.2,2.3-5.2,5.2-5.2,5.3,2.3,5.3,5.2Z"/>
      <g>
        <path class="cls-2" d="M72.6,394.3s.4.3,1.1.9c.6.6,1.6,1.4,2.7,2.5,2.2,2.1,5.1,4.9,7.9,7.9,2.8,3,5.4,6,7.4,8.4,1,1.2,1.7,2.2,2.3,2.9.5.7.8,1.1.8,1.1,0,0,0,.2,0,.3,0,0-.2,0-.2,0,0,0-.4-.3-1.1-.9-.7-.6-1.6-1.4-2.7-2.5-2.2-2.1-5.1-5-7.9-7.9-2.7-3-5.4-6-7.3-8.4-1-1.2-1.7-2.2-2.3-2.9-.5-.7-.8-1.1-.8-1.1,0,0,0-.1,0-.1,0,0,0,0,.1,0Z"/>
        <path class="cls-2" d="M94.2,393.8s-.3.4-.9,1.1c-.6.7-1.4,1.6-2.5,2.7-2.1,2.2-4.9,5.1-7.9,7.9-3,2.8-6,5.4-8.4,7.4-1.2,1-2.2,1.7-2.9,2.3-.7.5-1.1.8-1.1.8,0,0-.2,0-.3,0,0,0,0-.2,0-.2,0,0,.3-.4.9-1.1.6-.7,1.4-1.6,2.5-2.7,2.1-2.2,5-5.1,7.9-7.8,3-2.7,6.1-5.4,8.4-7.3,1.2-1,2.2-1.7,2.9-2.3.7-.5,1.1-.8,1.1-.8,0,0,.1,0,.1,0,0,0,0,0,0,.1Z"/>
        <path class="cls-2" d="M82.6,388.5s0,.5.1,1.4c0,.9.2,2.2.3,3.7.2,3,.3,7.1.3,11.2,0,4.1-.2,8.1-.4,11.1-.1,1.5-.3,2.8-.3,3.7,0,.9-.2,1.4-.2,1.4,0,.1-.1.2-.2.2,0,0-.2,0-.2-.2,0,0,0-.5-.1-1.4,0-.9-.2-2.2-.3-3.7-.2-3-.2-7.1-.2-11.2,0-4.1.3-8.1.5-11.1.1-1.5.3-2.8.4-3.7,0-.9.2-1.4.2-1.4,0,0,0,0,.1,0,0,0,0,0,0,0Z"/>
        <path class="cls-2" d="M98.5,405.4s-.5,0-1.4.1c-.9,0-2.2.2-3.7.2-3,.1-7.1.1-11.1,0-4.1-.1-8.1-.4-11.1-.7-1.5-.1-2.8-.3-3.7-.4-.9-.1-1.4-.2-1.4-.2,0,0-.2-.1-.2-.2,0,0,0-.2.2-.2,0,0,.5,0,1.4-.1.9,0,2.2-.1,3.7-.2,3,0,7.1,0,11.1,0,4.1.2,8.1.5,11.1.8,1.5.2,2.8.3,3.7.5.9.1,1.4.2,1.4.2,0,0,0,0,0,.1,0,0,0,0,0,0Z"/>
      </g>
    </g>
    <g>
      <path class="cls-2" d="M149.4,517.4c0,2.9-2.3,5.2-5.3,5.2s-5.2-2.3-5.2-5.2,2.3-5.2,5.2-5.2c2.9,0,5.3,2.3,5.3,5.2Z"/>
      <g>
        <path class="cls-2" d="M134.4,506.1s.4.3,1.1.9c.7.6,1.6,1.4,2.7,2.5,2.2,2.1,5.1,4.9,7.9,7.9,2.8,3,5.4,6,7.4,8.4,1,1.2,1.7,2.2,2.3,2.9.5.7.8,1.1.8,1.1,0,0,0,.2,0,.3,0,0-.2,0-.2,0,0,0-.4-.3-1.1-.9-.7-.6-1.6-1.4-2.7-2.5-2.2-2.1-5.1-5-7.8-7.9-2.8-3-5.4-6-7.3-8.4-1-1.2-1.7-2.2-2.3-2.9-.5-.7-.8-1.1-.8-1.1,0,0,0-.1,0-.1,0,0,0,0,.1,0Z"/>
        <path class="cls-2" d="M156.1,505.6s-.3.4-.9,1.1c-.6.7-1.4,1.6-2.5,2.7-2.1,2.2-4.9,5.1-7.9,7.9-3,2.8-6,5.4-8.4,7.4-1.2,1-2.2,1.7-2.9,2.3-.7.5-1.1.8-1.1.8,0,0-.2,0-.3,0,0,0,0-.2,0-.2,0,0,.3-.4.9-1.1.6-.7,1.4-1.6,2.5-2.7,2.1-2.2,5-5.1,7.9-7.8,3-2.8,6-5.4,8.4-7.3,1.2-1,2.2-1.7,2.9-2.3.7-.5,1.1-.8,1.1-.8,0,0,.1,0,.1,0,0,0,0,0,0,.1Z"/>
        <path class="cls-2" d="M144.4,500.4s0,.5.1,1.4c0,.9.2,2.2.3,3.7.2,3,.3,7.1.3,11.2,0,4.1-.2,8.1-.5,11.1,0,1.5-.3,2.8-.3,3.7-.1.9-.2,1.4-.2,1.4,0,.1-.1.2-.2.2,0,0-.2,0-.2-.2,0,0,0-.5-.1-1.4,0-.9-.2-2.2-.3-3.7-.2-3-.3-7.1-.2-11.2,0-4.1.3-8.1.5-11.1.1-1.5.3-2.8.4-3.7,0-.9.2-1.4.2-1.4,0,0,0,0,.1,0,0,0,0,0,0,0Z"/>
        <path class="cls-2" d="M160.3,517.2s-.5,0-1.4.1c-.9,0-2.2.2-3.7.2-3,.1-7.1.1-11.2,0-4-.1-8.1-.4-11.1-.7-1.5-.1-2.8-.3-3.7-.4-.9-.1-1.4-.2-1.4-.2-.1,0-.2-.1-.2-.2,0,0,0-.2.2-.2,0,0,.5,0,1.4-.1.9,0,2.2-.1,3.7-.2,3,0,7.1,0,11.2,0,4.1.2,8.1.5,11.1.8,1.5.1,2.8.3,3.7.5.9.1,1.4.2,1.4.2,0,0,0,0,0,.1,0,0,0,0,0,0Z"/>
      </g>
    </g>
    <g>
      <path class="cls-2" d="M156,445.6c0,2.9-2.3,5.2-5.2,5.2s-5.2-2.3-5.2-5.2,2.3-5.2,5.2-5.2,5.2,2.3,5.2,5.2Z"/>
      <g>
        <path class="cls-2" d="M141.1,434.3s.4.3,1.1.9c.7.6,1.6,1.4,2.7,2.5,2.2,2.1,5.1,4.9,7.9,7.9,2.8,3,5.5,6,7.4,8.4,1,1.2,1.7,2.2,2.3,2.9.5.7.8,1.1.8,1.1,0,0,0,.2,0,.3,0,0-.2,0-.2,0,0,0-.4-.3-1.1-.9-.7-.6-1.6-1.4-2.7-2.5-2.2-2.1-5.1-5-7.8-7.9-2.8-3-5.4-6-7.3-8.4-1-1.2-1.7-2.2-2.3-2.9-.5-.7-.8-1.1-.8-1.1,0,0,0-.1,0-.1,0,0,0,0,.1,0Z"/>
        <path class="cls-2" d="M162.7,433.8s-.3.4-.9,1.1c-.6.7-1.4,1.6-2.5,2.7-2.1,2.2-4.9,5.1-7.9,7.9-3,2.8-6,5.4-8.4,7.4-1.2,1-2.2,1.7-2.9,2.3-.7.5-1.1.8-1.1.8,0,0-.2,0-.3,0,0,0,0-.2,0-.2,0,0,.3-.4.9-1.1.6-.7,1.4-1.6,2.5-2.7,2.1-2.2,5-5.1,7.9-7.8,3-2.8,6-5.4,8.4-7.3,1.2-1,2.2-1.7,2.9-2.3.7-.5,1.1-.8,1.1-.8,0,0,.1,0,.1,0,0,0,0,0,0,.1Z"/>
        <path class="cls-2" d="M151.1,428.6s0,.5.2,1.4c0,.9.2,2.2.3,3.7.2,3,.3,7.1.3,11.2,0,4.1-.2,8.1-.5,11.1,0,1.5-.3,2.8-.4,3.7,0,.9-.2,1.4-.2,1.4,0,.1-.1.2-.2.2,0,0-.2,0-.2-.2,0,0,0-.5-.1-1.4,0-.9-.2-2.2-.3-3.7-.2-3-.3-7.1-.2-11.2,0-4.1.3-8.1.5-11.1.1-1.5.3-2.8.4-3.7,0-.9.2-1.4.2-1.4,0,0,0,0,.1,0,0,0,0,0,0,0Z"/>
        <path class="cls-2" d="M167,445.4s-.5,0-1.4.1c-.9,0-2.2.2-3.7.2-3,.1-7.1.1-11.2,0-4.1-.1-8.1-.4-11.1-.7-1.5-.1-2.8-.3-3.7-.4-.9-.1-1.4-.2-1.4-.2-.1,0-.2-.1-.2-.2,0,0,0-.1.2-.2,0,0,.5,0,1.4-.1.9,0,2.2-.1,3.7-.2,3,0,7.1,0,11.2,0,4.1.2,8.1.5,11.1.8,1.5.2,2.8.3,3.7.5.9.1,1.4.2,1.4.2,0,0,0,0,0,.1,0,0,0,0,0,0Z"/>
      </g>
    </g>
    <g>
      <path class="cls-2" d="M130.6,330.6c0,2.9-2.3,5.2-5.3,5.2s-5.2-2.3-5.2-5.2,2.3-5.2,5.2-5.2,5.3,2.3,5.3,5.2Z"/>
      <g>
        <path class="cls-2" d="M115.7,319.3s.4.3,1.1.9c.7.6,1.6,1.4,2.7,2.5,2.2,2.1,5.1,4.9,7.9,7.9,2.8,3,5.4,6,7.4,8.4,1,1.2,1.7,2.2,2.3,2.9.5.7.8,1.1.8,1.1,0,0,0,.2,0,.3,0,0-.2,0-.2,0,0,0-.4-.3-1.1-.9-.7-.6-1.6-1.4-2.7-2.5-2.2-2.1-5.1-5-7.8-7.9-2.8-3-5.4-6-7.3-8.4-1-1.2-1.7-2.2-2.3-2.9-.5-.7-.8-1.1-.8-1.1,0,0,0-.1,0-.1,0,0,0,0,.1,0Z"/>
        <path class="cls-2" d="M137.3,318.8s-.3.4-.9,1.1c-.6.7-1.4,1.6-2.5,2.8-2.1,2.2-4.9,5.1-7.9,7.9-3,2.8-6,5.4-8.4,7.4-1.2,1-2.2,1.7-2.9,2.3-.7.5-1.1.8-1.1.8,0,0-.2,0-.3,0,0,0,0-.2,0-.2,0,0,.3-.4.9-1.1.6-.7,1.4-1.6,2.5-2.7,2.1-2.2,5-5.1,7.9-7.8,3-2.8,6-5.4,8.4-7.3,1.2-1,2.2-1.7,2.9-2.3.7-.5,1.1-.8,1.1-.8,0,0,.1,0,.1,0,0,0,0,0,0,.1Z"/>
        <path class="cls-2" d="M125.7,313.6s0,.5.1,1.4c0,.9.2,2.2.3,3.7.2,3,.3,7.1.3,11.2,0,4.1-.2,8.1-.5,11.1,0,1.5-.3,2.8-.3,3.7-.1.9-.2,1.4-.2,1.4,0,.1-.1.2-.2.2,0,0-.2,0-.2-.2,0,0,0-.5-.2-1.4,0-.9-.2-2.2-.3-3.7-.2-3-.3-7.1-.2-11.2,0-4.1.3-8.1.5-11.1.1-1.5.3-2.8.4-3.7,0-.9.2-1.4.2-1.4,0,0,0,0,.1,0,0,0,0,0,0,0Z"/>
        <path class="cls-2" d="M141.6,330.4s-.5,0-1.4.1c-.9,0-2.2.2-3.7.2-3,.1-7.1.1-11.2,0-4-.1-8.1-.4-11.1-.7-1.5-.1-2.8-.3-3.7-.4-.9-.1-1.4-.2-1.4-.2-.1,0-.2-.1-.2-.2,0,0,0-.1.2-.2,0,0,.5,0,1.4-.1.9,0,2.2-.1,3.7-.2,3,0,7.1,0,11.2,0,4.1.2,8.1.5,11.1.8,1.5.2,2.8.4,3.7.5.9.1,1.4.2,1.4.2,0,0,0,0,0,.1,0,0,0,0,0,0Z"/>
      </g>
    </g>
    <g>
      <path class="cls-2" d="M154.7,224.7c0,2.9-2.3,5.2-5.2,5.2s-5.2-2.3-5.2-5.2,2.3-5.2,5.2-5.2c2.9,0,5.2,2.3,5.2,5.2Z"/>
      <g>
        <path class="cls-2" d="M139.7,213.4s.4.3,1.1.9c.7.6,1.6,1.4,2.7,2.5,2.2,2.1,5.1,4.9,7.9,7.9,2.8,3,5.4,6,7.4,8.4,1,1.2,1.7,2.2,2.3,2.9.5.7.8,1.1.8,1.1,0,0,0,.2,0,.3,0,0-.2,0-.2,0,0,0-.4-.3-1.1-.9-.7-.6-1.6-1.4-2.7-2.5-2.2-2.1-5.1-5-7.8-7.9-2.8-3-5.4-6-7.3-8.4-1-1.2-1.7-2.2-2.3-2.9-.5-.7-.8-1.1-.8-1.1,0,0,0-.1,0-.1,0,0,0,0,.1,0Z"/>
        <path class="cls-2" d="M161.4,212.9s-.3.4-.9,1.1c-.6.7-1.4,1.6-2.5,2.7-2.1,2.2-4.9,5.1-7.9,7.9s-6,5.4-8.4,7.4c-1.2,1-2.2,1.7-2.9,2.3-.7.5-1.1.8-1.1.8,0,0-.2,0-.3,0,0,0,0-.2,0-.2,0,0,.3-.4.9-1.1.6-.7,1.4-1.6,2.5-2.7,2.1-2.2,5-5.1,7.9-7.8,3-2.7,6-5.4,8.4-7.3,1.2-1,2.2-1.7,2.9-2.3.7-.5,1.1-.8,1.1-.8,0,0,0,0,.1,0,0,0,0,0,0,.1Z"/>
        <path class="cls-2" d="M149.7,207.7s0,.5.2,1.4c0,.9.2,2.2.3,3.7.2,3,.3,7.1.3,11.2,0,4.1-.2,8.1-.4,11.1-.1,1.5-.3,2.8-.4,3.7,0,.9-.2,1.4-.2,1.4,0,.1-.1.2-.2.2,0,0-.2,0-.2-.2,0,0,0-.5-.1-1.4,0-.9-.2-2.2-.3-3.7-.2-3-.3-7.1-.2-11.2,0-4.1.3-8.1.5-11.1.1-1.5.3-2.8.4-3.7.1-.9.2-1.4.2-1.4,0,0,0,0,.1,0,0,0,0,0,0,0Z"/>
        <path class="cls-2" d="M165.6,224.5s-.5,0-1.4.1c-.9,0-2.2.2-3.7.2-3,.1-7.1.1-11.1,0-4.1-.1-8.1-.4-11.1-.7-1.5-.1-2.8-.3-3.7-.4-.9-.1-1.4-.2-1.4-.2-.1,0-.2-.1-.2-.2,0,0,0-.2.2-.2,0,0,.5,0,1.4-.1.9,0,2.2-.1,3.7-.2,3.1,0,7.1,0,11.2,0,4,.2,8.1.5,11.1.8,1.5.2,2.8.3,3.7.5.9.1,1.4.2,1.4.2,0,0,0,0,0,.1,0,0,0,0,0,0Z"/>
      </g>
    </g>
  </g>
  <g>
    <g>
      <path class="cls-2" d="M327,56.1c0,2.9-2.3,5.2-5.2,5.2s-5.2-2.3-5.2-5.2,2.3-5.2,5.2-5.2,5.2,2.3,5.2,5.2Z"/>
      <g>
        <path class="cls-2" d="M312.1,44.8s.4.3,1.1.9c.7.6,1.6,1.4,2.8,2.5,2.2,2.1,5.1,4.9,7.9,7.9,2.8,3,5.4,6,7.4,8.4,1,1.2,1.7,2.2,2.3,2.9.5.7.8,1.1.8,1.1,0,0,0,.2,0,.3,0,0-.2,0-.2,0,0,0-.4-.3-1.1-.9-.7-.6-1.6-1.4-2.7-2.5-2.2-2.1-5.1-5-7.8-7.9-2.7-3-5.4-6-7.3-8.4-1-1.2-1.7-2.2-2.3-2.9-.5-.7-.8-1.1-.8-1.1,0,0,0-.1,0-.1,0,0,0,0,.1,0Z"/>
        <path class="cls-2" d="M333.7,44.3s-.3.4-.9,1.1c-.6.7-1.4,1.6-2.5,2.8-2.1,2.2-4.9,5.1-7.9,7.9-3,2.8-6,5.4-8.4,7.4-1.2,1-2.2,1.7-2.9,2.3-.7.5-1.1.8-1.1.8,0,0-.2,0-.3,0,0,0,0-.2,0-.2,0,0,.3-.4.9-1.1.6-.7,1.4-1.6,2.5-2.7,2.1-2.2,5-5.1,7.9-7.8,3-2.8,6-5.4,8.4-7.3,1.2-1,2.2-1.7,2.9-2.3.7-.5,1.1-.8,1.1-.8,0,0,.1,0,.1,0,0,0,0,0,0,.1Z"/>
        <path class="cls-2" d="M322.1,39.1s0,.5.2,1.4c0,.9.2,2.2.3,3.7.2,3,.3,7.1.3,11.1,0,4.1-.2,8.1-.4,11.1-.1,1.5-.3,2.8-.3,3.7,0,.9-.2,1.4-.2,1.4,0,.1-.1.2-.2.2,0,0-.2,0-.2-.2,0,0,0-.5-.1-1.4,0-.9-.2-2.2-.3-3.7-.2-3-.3-7.1-.2-11.1,0-4.1.3-8.1.5-11.1.1-1.5.3-2.8.4-3.7.1-.9.2-1.4.2-1.4,0,0,0,0,.1,0,0,0,0,0,0,0Z"/>
        <path class="cls-2" d="M338,55.9s-.5,0-1.4.1c-.9,0-2.2.2-3.7.2-3,.1-7.1.1-11.1,0-4.1-.1-8.1-.4-11.1-.7-1.5-.1-2.8-.3-3.7-.4-.9-.1-1.4-.2-1.4-.2,0,0-.2-.1-.2-.2,0,0,0-.1.2-.2,0,0,.5,0,1.4-.1.9,0,2.2-.1,3.7-.2,3.1,0,7.1,0,11.2,0,4.1.2,8.1.5,11.1.8,1.5.2,2.8.4,3.7.5.9.1,1.4.2,1.4.2,0,0,0,0,0,.1,0,0,0,0,0,0Z"/>
      </g>
    </g>
    <g>
      <path class="cls-2" d="M379.8,116.2c0,2.9-2.3,5.2-5.2,5.2s-5.2-2.3-5.2-5.2,2.3-5.2,5.2-5.2,5.2,2.3,5.2,5.2Z"/>
      <g>
        <path class="cls-2" d="M364.8,104.9s.4.3,1.1.9c.7.6,1.6,1.4,2.7,2.5,2.2,2.1,5.1,4.9,7.9,7.9,2.8,3,5.4,6,7.4,8.4,1,1.2,1.7,2.2,2.3,2.9.5.7.8,1.1.8,1.1,0,0,0,.2,0,.3,0,0-.2,0-.2,0,0,0-.4-.3-1.1-.9-.7-.6-1.6-1.4-2.7-2.5-2.2-2.1-5.1-5-7.8-7.9-2.8-3-5.4-6-7.3-8.4-1-1.2-1.7-2.2-2.3-2.9-.5-.7-.8-1.1-.8-1.1,0,0,0-.1,0-.1,0,0,0,0,.1,0Z"/>
        <path class="cls-2" d="M386.4,104.4s-.3.4-.9,1.1c-.6.7-1.4,1.6-2.5,2.7-2.1,2.2-4.9,5.1-7.9,7.9-3,2.8-6,5.4-8.4,7.4-1.2,1-2.2,1.7-2.9,2.3-.7.5-1.1.8-1.1.8,0,0-.2,0-.3,0,0,0,0-.2,0-.2,0,0,.3-.4.9-1.1.6-.7,1.4-1.6,2.5-2.7,2.1-2.2,5-5.1,7.9-7.8,3-2.8,6-5.4,8.4-7.3,1.2-1,2.2-1.7,2.9-2.3.7-.5,1.1-.8,1.1-.8,0,0,.1,0,.1,0,0,0,0,0,0,.1Z"/>
        <path class="cls-2" d="M374.8,99.2s0,.5.1,1.4c0,.9.2,2.2.3,3.7.2,3,.3,7.1.3,11.2,0,4.1-.2,8.1-.4,11.1-.1,1.5-.3,2.8-.3,3.7,0,.9-.2,1.4-.2,1.4,0,.1-.1.2-.2.2,0,0-.2,0-.2-.2,0,0,0-.5-.1-1.4,0-.9-.2-2.2-.3-3.7-.2-3-.3-7.1-.2-11.2,0-4.1.3-8.1.5-11.1.1-1.5.3-2.8.4-3.7,0-.9.2-1.4.2-1.4,0,0,0,0,.1,0,0,0,0,0,0,0Z"/>
        <path class="cls-2" d="M390.7,116.1s-.5,0-1.4.1c-.9,0-2.2.2-3.7.2-3,.1-7.1.1-11.2,0-4.1-.1-8.1-.4-11.1-.7-1.5-.1-2.8-.3-3.7-.4-.9-.1-1.4-.2-1.4-.2-.1,0-.2-.1-.2-.2,0,0,0-.1.2-.2,0,0,.5,0,1.4-.1.9,0,2.2-.1,3.7-.2,3,0,7.1,0,11.2,0,4,.2,8.1.5,11.1.8,1.5.1,2.8.3,3.7.5.9.1,1.4.2,1.4.2,0,0,0,0,0,.1,0,0,0,0,0,0Z"/>
      </g>
    </g>
    <g>
      <path class="cls-2" d="M363.4,262.8c0,2.9-2.3,5.2-5.2,5.2s-5.2-2.3-5.2-5.2,2.3-5.2,5.2-5.2c2.9,0,5.2,2.3,5.2,5.2Z"/>
      <g>
        <path class="cls-2" d="M348.5,251.5s.4.3,1.1.9c.6.6,1.6,1.4,2.7,2.5,2.2,2.1,5.1,4.9,7.9,7.9,2.8,3,5.4,6,7.4,8.4,1,1.2,1.7,2.2,2.3,2.9.5.7.8,1.1.8,1.1,0,0,0,.2,0,.3,0,0-.2,0-.3,0,0,0-.4-.3-1.1-.9-.7-.6-1.6-1.4-2.7-2.5-2.2-2.1-5.1-5-7.8-7.9-2.8-3-5.4-6-7.3-8.4-1-1.2-1.7-2.2-2.3-2.9-.5-.7-.8-1.1-.8-1.1,0,0,0-.1,0-.1,0,0,0,0,.1,0Z"/>
        <path class="cls-2" d="M370.1,251s-.3.4-.9,1.1c-.6.7-1.4,1.6-2.5,2.7-2.1,2.2-4.9,5.1-7.9,7.9-3,2.8-6,5.4-8.4,7.4-1.2,1-2.2,1.7-2.9,2.3-.7.5-1.1.8-1.1.8,0,0-.2,0-.3,0,0,0,0-.2,0-.2,0,0,.3-.4.9-1.1.6-.7,1.4-1.6,2.5-2.7,2.1-2.2,5-5.1,7.9-7.8,3-2.7,6-5.4,8.4-7.3,1.2-1,2.2-1.7,2.9-2.3.7-.5,1.1-.8,1.1-.8,0,0,.1,0,.1,0,0,0,0,0,0,.1Z"/>
        <path class="cls-2" d="M358.5,245.7s0,.5.2,1.4c0,.9.2,2.2.3,3.7.2,3,.3,7.1.3,11.2,0,4.1-.2,8.1-.5,11.1,0,1.5-.3,2.8-.3,3.7,0,.9-.2,1.4-.2,1.4,0,.1-.1.2-.2.2,0,0-.2,0-.2-.2,0,0,0-.5-.1-1.4,0-.9-.2-2.2-.3-3.7-.2-3-.3-7.1-.2-11.2,0-4.1.3-8.1.5-11.1.1-1.5.3-2.8.4-3.7.1-.9.2-1.4.2-1.4,0,0,0,0,.1,0,0,0,0,0,0,0Z"/>
        <path class="cls-2" d="M374.4,262.6s-.5,0-1.4.1c-.9,0-2.2.2-3.7.2-3,.1-7.1.1-11.1,0-4.1-.1-8.1-.4-11.1-.7-1.5-.1-2.8-.3-3.7-.4-.9-.1-1.4-.2-1.4-.2-.1,0-.2-.1-.2-.2,0,0,0-.2.2-.2,0,0,.5,0,1.4-.1.9,0,2.2-.1,3.7-.2,3,0,7.1,0,11.1,0,4.1.2,8.1.5,11.1.8,1.5.2,2.8.3,3.7.5.9.1,1.4.2,1.4.2,0,0,0,0,0,.1,0,0,0,0,0,0Z"/>
      </g>
    </g>
    <g>
      <path class="cls-2" d="M347.1,394.4c0,2.9-2.3,5.2-5.3,5.2s-5.2-2.3-5.2-5.2,2.3-5.3,5.2-5.3,5.3,2.3,5.3,5.3Z"/>
      <g>
        <path class="cls-2" d="M332.1,383.1s.4.3,1.1.9c.7.6,1.6,1.4,2.7,2.5,2.2,2.1,5.1,4.9,7.9,7.9,2.8,3,5.4,6,7.4,8.4,1,1.2,1.7,2.2,2.3,2.9.5.7.8,1.1.8,1.1,0,0,0,.2,0,.3,0,0-.2,0-.2,0,0,0-.4-.3-1.1-.9-.7-.6-1.6-1.4-2.7-2.5-2.2-2.1-5.1-5-7.8-7.9-2.8-3-5.4-6-7.3-8.4-1-1.2-1.7-2.2-2.3-2.9-.5-.7-.8-1.1-.8-1.1,0,0,0-.1,0-.1,0,0,0,0,.1,0Z"/>
        <path class="cls-2" d="M353.8,382.6s-.3.4-.9,1.1c-.6.7-1.4,1.6-2.5,2.7-2.1,2.2-4.9,5.1-7.9,7.9-3,2.8-6,5.4-8.4,7.4-1.2,1-2.2,1.7-2.9,2.3-.7.5-1.1.8-1.1.8,0,0-.2,0-.3,0,0,0,0-.2,0-.2,0,0,.3-.4.9-1.1.6-.7,1.4-1.6,2.5-2.7,2.1-2.2,5-5.1,7.9-7.8,3-2.7,6-5.4,8.4-7.3,1.2-1,2.2-1.7,2.9-2.3.7-.5,1.1-.8,1.1-.8,0,0,.1,0,.1,0,0,0,0,0,0,.1Z"/>
        <path class="cls-2" d="M342.1,377.3s0,.5.1,1.4c0,.9.2,2.2.3,3.7.2,3,.3,7.1.3,11.2,0,4.1-.2,8.1-.5,11.1,0,1.5-.3,2.8-.3,3.7,0,.9-.2,1.4-.2,1.4,0,.1-.1.2-.2.2,0,0-.2,0-.2-.2,0,0,0-.5-.1-1.4,0-.9-.2-2.2-.3-3.7-.2-3-.2-7.1-.2-11.2,0-4.1.3-8.1.5-11.1.1-1.5.3-2.8.4-3.7,0-.9.2-1.4.2-1.4,0,0,0,0,.1,0,0,0,0,0,0,0Z"/>
        <path class="cls-2" d="M358,394.2s-.5,0-1.4.1c-.9,0-2.2.2-3.7.2-3,.1-7.1.1-11.2,0-4-.1-8.1-.4-11.1-.7-1.5-.1-2.8-.3-3.7-.4-.9-.1-1.4-.2-1.4-.2-.1,0-.2-.1-.2-.2,0,0,0-.2.2-.2,0,0,.5,0,1.4-.1.9,0,2.2-.1,3.7-.2,3,0,7.1,0,11.1,0,4.1.2,8.1.5,11.1.8,1.5.2,2.8.4,3.7.5.9.1,1.4.2,1.4.2,0,0,0,0,0,.1,0,0,0,0,0,0Z"/>
      </g>
    </g>
    <g>
      <path class="cls-2" d="M341.9,518.5c0,2.9-2.3,5.2-5.2,5.2s-5.2-2.3-5.2-5.2,2.3-5.2,5.2-5.2,5.2,2.3,5.2,5.2Z"/>
      <g>
        <path class="cls-2" d="M326.9,507.3s.4.3,1.1.9c.7.6,1.6,1.4,2.8,2.5,2.2,2.1,5.1,4.9,7.9,7.9,2.8,3,5.4,6,7.4,8.4,1,1.2,1.7,2.2,2.3,2.9.5.7.8,1.1.8,1.1,0,0,0,.2,0,.3,0,0-.2,0-.2,0,0,0-.4-.3-1.1-.9-.7-.6-1.6-1.4-2.7-2.5-2.2-2.1-5.1-5-7.8-7.9-2.8-3-5.4-6-7.3-8.4-1-1.2-1.7-2.2-2.3-2.9-.5-.7-.8-1.1-.8-1.1,0,0,0-.1,0-.1,0,0,0,0,.1,0Z"/>
        <path class="cls-2" d="M348.6,506.8s-.3.4-.9,1.1c-.6.7-1.4,1.6-2.5,2.7-2.1,2.2-4.9,5.1-7.9,7.9-3,2.8-6,5.4-8.4,7.4-1.2,1-2.2,1.7-2.9,2.3-.7.5-1.1.8-1.1.8,0,0-.2,0-.3,0,0,0,0-.2,0-.2,0,0,.3-.4.9-1.1.6-.7,1.4-1.6,2.5-2.7,2.1-2.2,5-5.1,7.9-7.8,3-2.8,6-5.4,8.4-7.3,1.2-1,2.2-1.7,2.9-2.3.7-.5,1.1-.8,1.1-.8,0,0,.1,0,.1,0,0,0,0,0,0,.1Z"/>
        <path class="cls-2" d="M336.9,501.5s0,.5.2,1.4c0,.9.2,2.2.3,3.7.2,3,.3,7.1.3,11.2,0,4.1-.2,8.1-.5,11.1,0,1.5-.3,2.8-.4,3.7,0,.9-.2,1.4-.2,1.4,0,.1-.1.2-.2.2,0,0-.2,0-.2-.2,0,0,0-.5-.1-1.4,0-.9-.2-2.2-.3-3.7-.2-3-.3-7.1-.2-11.2,0-4.1.3-8.1.5-11.1.1-1.5.3-2.8.4-3.7,0-.9.2-1.4.2-1.4,0,0,0,0,.1,0,0,0,0,0,0,0Z"/>
        <path class="cls-2" d="M352.8,518.4s-.5,0-1.4.1c-.9,0-2.2.2-3.7.2-3,.1-7.1.1-11.1,0-4.1-.1-8.1-.4-11.1-.7-1.5-.1-2.8-.3-3.7-.4-.9-.1-1.4-.2-1.4-.2-.1,0-.2-.1-.2-.2,0,0,0-.2.2-.2,0,0,.5,0,1.4-.1.9,0,2.2-.1,3.7-.2,3-.1,7.1,0,11.2,0,4.1.2,8.1.5,11.1.8,1.5.1,2.8.3,3.7.5.9.1,1.4.2,1.4.2,0,0,0,0,0,.1,0,0,0,0,0,0Z"/>
      </g>
    </g>
    <g>
      <path class="cls-2" d="M340.9,636.4c0,2.9-2.3,5.2-5.2,5.2s-5.2-2.3-5.2-5.2,2.3-5.2,5.2-5.2,5.2,2.3,5.2,5.2Z"/>
      <g>
        <path class="cls-2" d="M326,625.1s.4.3,1.1.9c.7.6,1.6,1.4,2.7,2.5,2.2,2.1,5.1,4.9,7.9,7.9,2.8,3,5.4,6,7.4,8.4,1,1.2,1.7,2.2,2.3,2.9.5.7.8,1.1.8,1.1,0,0,0,.2,0,.3,0,0-.2,0-.2,0,0,0-.4-.3-1.1-.9-.7-.6-1.6-1.4-2.7-2.5-2.2-2.1-5.1-5-7.8-7.9-2.7-3-5.4-6-7.3-8.4-1-1.2-1.7-2.2-2.3-2.9-.5-.7-.8-1.1-.8-1.1,0,0,0-.1,0-.1,0,0,0,0,.1,0Z"/>
        <path class="cls-2" d="M347.6,624.6s-.3.4-.9,1.1c-.6.7-1.4,1.6-2.5,2.7-2.1,2.2-4.9,5.1-7.9,7.9-3,2.8-6,5.4-8.4,7.4-1.2,1-2.2,1.7-2.9,2.3-.7.5-1.1.8-1.1.8,0,0-.2,0-.3,0,0,0,0-.2,0-.2,0,0,.3-.4.9-1.1.6-.7,1.4-1.6,2.5-2.7,2.1-2.2,5-5.1,7.9-7.8,3-2.8,6-5.4,8.4-7.3,1.2-1,2.2-1.7,2.9-2.3.7-.5,1.1-.8,1.1-.8,0,0,.1,0,.1,0,0,0,0,0,0,.1Z"/>
        <path class="cls-2" d="M336,619.3s0,.5.2,1.4c0,.9.2,2.2.3,3.7.2,3,.3,7.1.3,11.2,0,4.1-.2,8.1-.4,11.1-.1,1.5-.3,2.8-.3,3.7,0,.9-.2,1.4-.2,1.4,0,.1-.1.2-.2.2,0,0-.2,0-.2-.2,0,0,0-.5-.1-1.4,0-.9-.2-2.2-.3-3.7-.2-3-.3-7.1-.2-11.2,0-4.1.3-8.1.5-11.1.1-1.5.3-2.8.4-3.7.1-.9.2-1.4.2-1.4,0,0,0,0,.1,0,0,0,0,0,0,0Z"/>
        <path class="cls-2" d="M351.9,636.2s-.5,0-1.4.1c-.9,0-2.2.2-3.7.2-3,.1-7.1.1-11.1,0-4.1-.1-8.1-.4-11.1-.7-1.5-.1-2.8-.3-3.7-.4-.9-.1-1.4-.2-1.4-.2-.1,0-.2-.1-.2-.2,0,0,0-.2.2-.2,0,0,.5,0,1.4-.1.9,0,2.2-.1,3.7-.2,3,0,7.1,0,11.2,0,4,.2,8.1.5,11.1.8,1.5.1,2.8.3,3.7.5.9.1,1.4.2,1.4.2,0,0,0,0,0,.1,0,0,0,0,0,0Z"/>
      </g>
    </g>
    <g>
      <path class="cls-2" d="M345.1,756.8c0,2.9-2.3,5.2-5.2,5.2s-5.2-2.3-5.2-5.2,2.3-5.2,5.2-5.2,5.2,2.3,5.2,5.2Z"/>
      <g>
        <path class="cls-2" d="M330.2,745.5s.4.3,1.1.9c.7.6,1.6,1.4,2.8,2.5,2.2,2.1,5.1,4.9,7.9,7.9,2.8,3,5.4,6,7.4,8.4,1,1.2,1.7,2.2,2.3,2.9.5.7.8,1.1.8,1.1,0,0,0,.2,0,.3,0,0-.2,0-.2,0,0,0-.4-.3-1.1-.9-.7-.6-1.6-1.4-2.7-2.5-2.2-2.1-5.1-5-7.8-7.9-2.7-3-5.4-6-7.3-8.4-1-1.2-1.7-2.2-2.3-2.9-.5-.7-.8-1.1-.8-1.1,0,0,0-.1,0-.1,0,0,0,0,.1,0Z"/>
        <path class="cls-2" d="M351.8,745s-.3.4-.9,1.1c-.6.7-1.4,1.6-2.5,2.7-2.1,2.2-4.9,5.1-7.9,7.9-3,2.8-6,5.4-8.4,7.4-1.2,1-2.2,1.7-2.9,2.3-.7.5-1.1.8-1.1.8,0,0-.2,0-.3,0,0,0,0-.2,0-.2,0,0,.3-.4.9-1.1.6-.7,1.4-1.6,2.5-2.7,2.1-2.2,5-5.1,7.9-7.8,3-2.8,6-5.4,8.4-7.3,1.2-1,2.2-1.7,2.9-2.3.7-.5,1.1-.8,1.1-.8,0,0,.1,0,.1,0,0,0,0,0,0,.1Z"/>
        <path class="cls-2" d="M340.1,739.8s0,.5.2,1.4c0,.9.2,2.2.3,3.7.2,3,.3,7.1.3,11.2,0,4.1-.2,8.1-.4,11.1-.1,1.5-.3,2.8-.3,3.7,0,.9-.2,1.4-.2,1.4,0,.1-.1.2-.2.2,0,0-.2,0-.2-.2,0,0,0-.5-.1-1.4,0-.9-.2-2.2-.3-3.7-.2-3-.3-7.1-.2-11.2,0-4.1.3-8.1.5-11.1.1-1.5.3-2.8.4-3.7.1-.9.2-1.4.2-1.4,0,0,0,0,.1,0,0,0,0,0,0,0Z"/>
        <path class="cls-2" d="M356.1,756.6s-.5,0-1.4.1c-.9,0-2.2.2-3.7.2-3,.1-7.1.1-11.1,0-4.1-.1-8.1-.4-11.1-.7-1.5-.1-2.8-.3-3.7-.4-.9-.1-1.4-.2-1.4-.2,0,0-.2-.1-.2-.2,0,0,0-.2.2-.2,0,0,.5,0,1.4-.1.9,0,2.2-.1,3.7-.2,3.1,0,7.1,0,11.2,0,4.1.2,8.1.5,11.1.8,1.5.1,2.8.3,3.7.5.9.1,1.4.2,1.4.2,0,0,0,0,0,.1,0,0,0,0,0,0Z"/>
      </g>
    </g>
    <g>
      <path class="cls-2" d="M344.2,890.7c0,2.9-2.3,5.2-5.2,5.2s-5.2-2.3-5.2-5.2,2.3-5.2,5.2-5.2c2.9,0,5.2,2.3,5.2,5.2Z"/>
      <g>
        <path class="cls-2" d="M329.2,879.4s.4.3,1.1.9c.7.6,1.6,1.4,2.7,2.5,2.2,2.1,5.1,4.9,7.9,7.9,2.8,3,5.4,6,7.4,8.4,1,1.2,1.7,2.2,2.3,2.9.5.7.8,1.1.8,1.1,0,0,0,.2,0,.3,0,0-.2,0-.2,0,0,0-.4-.3-1.1-.9-.7-.6-1.6-1.4-2.7-2.5-2.2-2.1-5.1-5-7.8-7.9-2.8-3-5.4-6-7.3-8.4-1-1.2-1.7-2.2-2.3-2.9-.5-.7-.8-1.1-.8-1.1,0,0,0-.1,0-.1,0,0,0,0,.1,0Z"/>
        <path class="cls-2" d="M350.8,878.9s-.3.4-.9,1.1c-.6.7-1.4,1.6-2.5,2.7-2.1,2.2-4.9,5.1-7.9,7.9-3,2.8-6,5.4-8.4,7.4-1.2,1-2.2,1.7-2.9,2.3-.7.5-1.1.8-1.1.8,0,0-.2,0-.3,0,0,0,0-.2,0-.2,0,0,.3-.4.9-1.1.6-.7,1.4-1.6,2.5-2.7,2.1-2.2,5-5.1,7.9-7.8,3-2.7,6-5.4,8.4-7.3,1.2-1,2.2-1.7,2.9-2.3.7-.5,1.1-.8,1.1-.8,0,0,.1,0,.1,0,0,0,0,0,0,.1Z"/>
        <path class="cls-2" d="M339.2,873.7s0,.5.1,1.4c0,.9.2,2.2.3,3.7.2,3,.3,7.1.3,11.2,0,4.1-.2,8.1-.4,11.1-.1,1.5-.3,2.8-.3,3.7,0,.9-.2,1.4-.2,1.4,0,.1-.1.2-.2.2,0,0-.2,0-.2-.2,0,0,0-.5-.1-1.4,0-.9-.2-2.2-.3-3.7-.2-3-.2-7.1-.2-11.2,0-4.1.3-8.1.5-11.1.1-1.5.3-2.8.4-3.7,0-.9.2-1.4.2-1.4,0,0,0,0,.1,0,0,0,0,0,0,0Z"/>
        <path class="cls-2" d="M355.1,890.6s-.5,0-1.4.1c-.9,0-2.2.2-3.7.2-3,.1-7.1.1-11.1,0-4.1-.1-8.1-.4-11.1-.7-1.5-.1-2.8-.3-3.7-.4-.9-.1-1.4-.2-1.4-.2-.1,0-.2-.1-.2-.2,0,0,0-.2.2-.2,0,0,.5,0,1.4-.1.9,0,2.2-.1,3.7-.2,3,0,7.1,0,11.2,0,4,.2,8.1.5,11.1.8,1.5.2,2.8.3,3.6.5.9.1,1.4.2,1.4.2,0,0,0,0,0,.1,0,0,0,0,0,0Z"/>
      </g>
    </g>
    <g>
      <path class="cls-2" d="M372.6,987.2c0,2.9-2.3,5.2-5.3,5.2s-5.2-2.3-5.2-5.2,2.3-5.2,5.2-5.2,5.3,2.3,5.3,5.2Z"/>
      <g>
        <path class="cls-2" d="M357.6,975.9s.4.3,1.1.9c.6.6,1.6,1.4,2.7,2.5,2.2,2.1,5.1,4.9,7.9,7.9,2.8,3,5.4,6,7.4,8.4,1,1.2,1.7,2.2,2.3,2.9.5.7.8,1.1.8,1.1,0,0,0,.2,0,.3,0,0-.2,0-.2,0,0,0-.4-.3-1.1-.9-.7-.6-1.6-1.4-2.7-2.5-2.2-2.1-5.1-5-7.9-7.9-2.7-3-5.4-6-7.3-8.4-1-1.2-1.7-2.2-2.3-2.9-.5-.7-.8-1.1-.8-1.1,0,0,0-.1,0-.1,0,0,0,0,.1,0Z"/>
        <path class="cls-2" d="M379.2,975.4s-.3.4-.9,1.1c-.6.7-1.4,1.6-2.5,2.7-2.1,2.2-4.9,5.1-7.9,7.9-3,2.8-6,5.4-8.4,7.4-1.2,1-2.2,1.7-2.9,2.3-.7.5-1.1.8-1.1.8,0,0-.2,0-.3,0,0,0,0-.2,0-.2,0,0,.3-.4.9-1.1.6-.7,1.4-1.6,2.5-2.7,2.1-2.2,5-5.1,7.9-7.8,3-2.8,6.1-5.4,8.4-7.3,1.2-1,2.2-1.7,2.9-2.3.7-.5,1.1-.8,1.1-.8,0,0,.1,0,.1,0s0,0,0,.1Z"/>
        <path class="cls-2" d="M367.6,970.2s0,.5.1,1.4c0,.9.2,2.2.3,3.7.2,3,.3,7.1.3,11.2,0,4.1-.2,8.1-.4,11.1-.1,1.5-.3,2.8-.3,3.7,0,.9-.2,1.4-.2,1.4,0,.1-.1.2-.2.2,0,0-.2,0-.2-.2,0,0,0-.5-.1-1.4,0-.9-.2-2.2-.3-3.7-.2-3-.2-7.1-.2-11.2,0-4.1.3-8.1.5-11.1.1-1.5.3-2.8.4-3.7,0-.9.2-1.4.2-1.4,0,0,0,0,.1,0,0,0,0,0,0,0Z"/>
        <path class="cls-2" d="M383.5,987.1s-.5,0-1.4.1c-.9,0-2.2.2-3.7.2-3,.1-7.1.1-11.2,0-4.1-.1-8.1-.4-11.1-.7-1.5-.1-2.8-.3-3.7-.4-.9-.1-1.4-.2-1.4-.2,0,0-.2-.1-.2-.2,0,0,0-.2.2-.2,0,0,.5,0,1.4-.1.9,0,2.2-.1,3.7-.2,3-.1,7.1,0,11.1,0,4.1.2,8.1.5,11.1.8,1.5.1,2.8.3,3.7.5.9.1,1.4.2,1.4.2,0,0,0,0,0,.1,0,0,0,0,0,0Z"/>
      </g>
    </g>
    <g>
      <path class="cls-2" d="M305.8,177.9c0,2.9-2.3,5.2-5.2,5.2s-5.2-2.3-5.2-5.2,2.3-5.2,5.2-5.2,5.2,2.3,5.2,5.2Z"/>
      <g>
        <path class="cls-2" d="M290.9,166.6s.4.3,1.1.9c.7.6,1.6,1.4,2.7,2.5,2.2,2.1,5.1,4.9,7.9,7.9,2.8,3,5.4,6,7.4,8.4,1,1.2,1.7,2.2,2.3,2.9.5.7.8,1.1.8,1.1,0,0,0,.2,0,.3,0,0-.2,0-.2,0,0,0-.4-.3-1.1-.9-.7-.6-1.6-1.4-2.7-2.5-2.2-2.1-5.1-5-7.8-7.9-2.8-3-5.4-6-7.3-8.4-1-1.2-1.7-2.2-2.3-2.9-.5-.7-.8-1.1-.8-1.1,0,0,0-.1,0-.1,0,0,0,0,.1,0Z"/>
        <path class="cls-2" d="M312.5,166.1s-.3.4-.9,1.1c-.6.7-1.4,1.6-2.5,2.7-2.1,2.2-4.9,5.1-7.9,7.9-3,2.8-6,5.4-8.4,7.4-1.2,1-2.2,1.7-2.9,2.3-.7.5-1.1.8-1.1.8,0,0-.2,0-.3,0,0,0,0-.2,0-.2,0,0,.3-.4.9-1.1.6-.7,1.4-1.6,2.5-2.7,2.1-2.2,5-5.1,7.9-7.8,3-2.8,6-5.4,8.4-7.3,1.2-1,2.2-1.7,2.9-2.3.7-.5,1.1-.8,1.1-.8,0,0,.1,0,.1,0,0,0,0,0,0,.1Z"/>
        <path class="cls-2" d="M300.9,160.9s0,.5.2,1.4c0,.9.2,2.2.3,3.7.2,3,.3,7.1.3,11.2,0,4.1-.2,8.1-.5,11.1,0,1.5-.3,2.8-.3,3.7,0,.9-.2,1.4-.2,1.4,0,.1-.1.2-.2.2,0,0-.2,0-.2-.2,0,0,0-.5-.1-1.4,0-.9-.2-2.2-.3-3.7-.2-3-.3-7.1-.2-11.2,0-4,.3-8.1.5-11.1.1-1.5.3-2.8.4-3.7,0-.9.2-1.4.2-1.4,0,0,0,0,.1,0,0,0,0,0,0,0Z"/>
        <path class="cls-2" d="M316.8,177.8s-.5,0-1.4.1c-.9,0-2.2.2-3.7.2-3,.1-7.1.1-11.2,0-4-.1-8.1-.4-11.1-.7-1.5-.1-2.8-.3-3.7-.4-.9-.1-1.4-.2-1.4-.2-.1,0-.2-.1-.2-.2,0,0,0-.1.2-.2,0,0,.5,0,1.4-.1.9,0,2.2-.1,3.7-.2,3,0,7.1,0,11.2,0,4.1.2,8.1.5,11.1.8,1.5.1,2.8.3,3.7.5.9.1,1.4.2,1.4.2,0,0,0,0,0,.1,0,0,0,0,0,0Z"/>
      </g>
    </g>
    <g>
      <path class="cls-2" d="M290.9,306.8c0,2.9-2.3,5.2-5.3,5.2s-5.2-2.3-5.2-5.2,2.3-5.2,5.2-5.2c2.9,0,5.3,2.3,5.3,5.2Z"/>
      <g>
        <path class="cls-2" d="M275.9,295.6s.4.3,1.1.9c.6.6,1.6,1.4,2.7,2.5,2.2,2.1,5.1,4.9,7.9,7.9,2.8,3,5.4,6,7.4,8.4,1,1.2,1.7,2.2,2.3,2.9.5.7.8,1.1.8,1.1,0,0,0,.2,0,.3,0,0-.2,0-.2,0,0,0-.4-.3-1.1-.9-.7-.6-1.6-1.4-2.7-2.5-2.2-2.1-5.1-5-7.9-7.9-2.7-3-5.4-6-7.3-8.4-1-1.2-1.7-2.2-2.3-2.9-.5-.7-.8-1.1-.8-1.1,0,0,0-.1,0-.1,0,0,0,0,.1,0Z"/>
        <path class="cls-2" d="M297.5,295.1s-.3.4-.9,1.1c-.6.7-1.4,1.6-2.5,2.7-2.1,2.2-4.9,5.1-7.9,7.9-3,2.8-6,5.4-8.4,7.4-1.2,1-2.2,1.7-2.9,2.3-.7.5-1.1.8-1.1.8,0,0-.2,0-.3,0,0,0,0-.2,0-.2,0,0,.3-.4.9-1.1.6-.7,1.4-1.6,2.5-2.7,2.1-2.2,5-5.1,7.9-7.8,3-2.7,6-5.4,8.4-7.3,1.2-1,2.2-1.7,2.9-2.3.7-.5,1.1-.8,1.1-.8,0,0,.1,0,.1,0,0,0,0,0,0,.1Z"/>
        <path class="cls-2" d="M285.9,289.8s0,.5.1,1.4c0,.9.2,2.2.3,3.7.2,3,.3,7.1.3,11.2,0,4.1-.2,8.1-.4,11.1-.1,1.5-.3,2.8-.3,3.7,0,.9-.2,1.4-.2,1.4,0,.1-.1.2-.2.2,0,0-.2,0-.2-.2,0,0,0-.5-.1-1.4,0-.9-.2-2.2-.3-3.7-.2-3-.2-7.1-.2-11.2,0-4.1.3-8.1.5-11.1.1-1.5.3-2.8.4-3.7,0-.9.2-1.4.2-1.4,0,0,0,0,.1,0,0,0,0,0,0,0Z"/>
        <path class="cls-2" d="M301.8,306.7s-.5,0-1.4.1c-.9,0-2.2.2-3.7.2-3,.1-7.1.1-11.1,0-4.1-.1-8.1-.4-11.1-.7-1.5-.1-2.8-.3-3.7-.4-.9-.1-1.4-.2-1.4-.2,0,0-.2-.1-.2-.2,0,0,0-.1.2-.2,0,0,.5,0,1.4-.1.9,0,2.2-.1,3.7-.2,3,0,7.1,0,11.1,0,4.1.2,8.1.5,11.1.8,1.5.2,2.8.3,3.7.5.9.1,1.4.2,1.4.2,0,0,0,0,0,.1,0,0,0,0,0,0Z"/>
      </g>
    </g>
    <g>
      <path class="cls-2" d="M281,445.6c0,2.9-2.3,5.2-5.3,5.2s-5.2-2.3-5.2-5.2,2.3-5.2,5.2-5.2c2.9,0,5.3,2.3,5.3,5.2Z"/>
      <g>
        <path class="cls-2" d="M266.1,434.3s.4.3,1.1.9c.7.6,1.6,1.4,2.7,2.5,2.2,2.1,5.1,4.9,7.9,7.9,2.8,3,5.4,6,7.4,8.4,1,1.2,1.7,2.2,2.3,2.9.5.7.8,1.1.8,1.1,0,0,0,.2,0,.3,0,0-.2,0-.2,0,0,0-.4-.3-1.1-.9-.7-.6-1.6-1.4-2.7-2.5-2.2-2.1-5.1-5-7.9-7.9-2.7-3-5.4-6-7.3-8.4-1-1.2-1.7-2.2-2.3-2.9-.5-.7-.8-1.1-.8-1.1,0,0,0-.1,0-.1,0,0,0,0,.1,0Z"/>
        <path class="cls-2" d="M287.7,433.8s-.3.4-.9,1.1c-.6.7-1.4,1.6-2.5,2.7-2.1,2.2-4.9,5.1-7.9,7.9-3,2.8-6,5.4-8.4,7.4-1.2,1-2.2,1.7-2.9,2.3-.7.5-1.1.8-1.1.8,0,0-.2,0-.3,0,0,0,0-.2,0-.2,0,0,.3-.4.9-1.1.6-.7,1.4-1.6,2.5-2.7,2.1-2.2,5-5.1,7.9-7.8,3-2.8,6-5.4,8.4-7.3,1.2-1,2.2-1.7,2.9-2.3.7-.5,1.1-.8,1.1-.8,0,0,.1,0,.1,0,0,0,0,0,0,.1Z"/>
        <path class="cls-2" d="M276.1,428.6s0,.5.1,1.4c0,.9.2,2.2.3,3.7.2,3,.3,7.1.3,11.2,0,4.1-.2,8.1-.4,11.1-.1,1.5-.3,2.8-.3,3.7,0,.9-.2,1.4-.2,1.4,0,.1-.1.2-.2.2,0,0-.2,0-.2-.2,0,0,0-.5-.1-1.4,0-.9-.2-2.2-.3-3.7-.2-3-.2-7.1-.2-11.2,0-4.1.3-8.1.5-11.1.1-1.5.3-2.8.4-3.7,0-.9.2-1.4.2-1.4,0,0,0,0,.1,0,0,0,0,0,0,0Z"/>
        <path class="cls-2" d="M292,445.4s-.5,0-1.4.1c-.9,0-2.2.2-3.7.2-3,.1-7.1.1-11.1,0-4.1-.1-8.1-.4-11.1-.7-1.5-.1-2.8-.3-3.7-.4-.9-.1-1.4-.2-1.4-.2,0,0-.2-.1-.2-.2,0,0,0-.1.2-.2,0,0,.5,0,1.4-.1.9,0,2.2-.1,3.7-.2,3,0,7.1,0,11.2,0,4,.2,8.1.5,11.1.8,1.5.2,2.8.3,3.7.5.9.1,1.4.2,1.4.2,0,0,0,0,0,.1,0,0,0,0,0,0Z"/>
      </g>
    </g>
    <g>
      <path class="cls-2" d="M281,571.1c0,2.9-2.3,5.2-5.3,5.2s-5.2-2.3-5.2-5.2,2.3-5.2,5.2-5.2,5.3,2.3,5.3,5.2Z"/>
      <g>
        <path class="cls-2" d="M266.1,559.8s.4.3,1.1.9c.7.6,1.6,1.4,2.7,2.5,2.2,2.1,5.1,4.9,7.9,7.9,2.8,3,5.4,6,7.4,8.4,1,1.2,1.7,2.2,2.3,2.9.5.7.8,1.1.8,1.1,0,0,0,.2,0,.3,0,0-.2,0-.2,0,0,0-.4-.3-1.1-.9-.7-.6-1.6-1.4-2.7-2.5-2.2-2.1-5.1-5-7.9-7.9-2.7-3-5.4-6-7.3-8.4-1-1.2-1.7-2.2-2.3-2.9-.5-.7-.8-1.1-.8-1.1,0,0,0-.1,0-.1,0,0,0,0,.1,0Z"/>
        <path class="cls-2" d="M287.7,559.3s-.3.4-.9,1.1c-.6.7-1.4,1.6-2.5,2.7-2.1,2.2-4.9,5.1-7.9,7.9-3,2.8-6,5.4-8.4,7.4-1.2,1-2.2,1.7-2.9,2.3-.7.5-1.1.8-1.1.8,0,0-.2,0-.3,0,0,0,0-.2,0-.2,0,0,.3-.4.9-1.1.6-.7,1.4-1.6,2.5-2.7,2.1-2.2,5-5.1,7.9-7.8,3-2.8,6-5.4,8.4-7.3,1.2-1,2.2-1.7,2.9-2.3.7-.5,1.1-.8,1.1-.8,0,0,.1,0,.1,0,0,0,0,0,0,.1Z"/>
        <path class="cls-2" d="M276.1,554s0,.5.1,1.4c0,.9.2,2.2.3,3.7.2,3,.3,7.1.3,11.2,0,4.1-.2,8.1-.4,11.1-.1,1.5-.3,2.8-.3,3.7,0,.9-.2,1.4-.2,1.4,0,.1-.1.2-.2.2,0,0-.2,0-.2-.2,0,0,0-.5-.1-1.4,0-.9-.2-2.2-.3-3.7-.2-3-.2-7.1-.2-11.2,0-4.1.3-8.1.5-11.1.1-1.5.3-2.8.4-3.7,0-.9.2-1.4.2-1.4,0,0,0,0,.1,0,0,0,0,0,0,0Z"/>
        <path class="cls-2" d="M292,570.9s-.5,0-1.4.1c-.9,0-2.2.2-3.7.2-3,.1-7.1.1-11.1,0-4.1-.1-8.1-.4-11.1-.7-1.5-.1-2.8-.3-3.7-.4-.9-.1-1.4-.2-1.4-.2,0,0-.2-.1-.2-.2,0,0,0-.1.2-.2,0,0,.5,0,1.4-.1.9,0,2.2-.1,3.7-.2,3-.1,7.1,0,11.2,0,4,.2,8.1.5,11.1.8,1.5.1,2.8.3,3.7.5.9.1,1.4.2,1.4.2,0,0,0,0,0,.1,0,0,0,0,0,0Z"/>
      </g>
    </g>
    <g>
      <path class="cls-2" d="M275.8,720.6c0,2.9-2.3,5.2-5.2,5.2s-5.2-2.3-5.2-5.2,2.3-5.2,5.2-5.2c2.9,0,5.2,2.3,5.2,5.2Z"/>
      <g>
        <path class="cls-2" d="M260.9,709.3s.4.3,1.1.9c.7.6,1.6,1.4,2.7,2.5,2.2,2.1,5.1,4.9,7.9,7.9,2.8,3,5.4,6,7.4,8.4,1,1.2,1.7,2.2,2.3,2.9.5.7.8,1.1.8,1.1,0,0,0,.2,0,.3,0,0-.2,0-.2,0,0,0-.4-.3-1.1-.9-.7-.6-1.6-1.4-2.7-2.5-2.2-2.1-5.1-5-7.8-7.9-2.8-3-5.4-6-7.3-8.4-1-1.2-1.7-2.2-2.3-2.9-.5-.7-.8-1.1-.8-1.1,0,0,0-.1,0-.1,0,0,0,0,.1,0Z"/>
        <path class="cls-2" d="M282.5,708.8s-.3.4-.9,1.1c-.6.7-1.4,1.6-2.5,2.7-2.1,2.2-4.9,5.1-7.9,7.9-3,2.8-6,5.4-8.4,7.4-1.2,1-2.2,1.7-2.9,2.3-.7.5-1.1.8-1.1.8,0,0-.2,0-.3,0,0,0,0-.2,0-.2,0,0,.3-.4.9-1.1.6-.7,1.4-1.6,2.5-2.7,2.1-2.2,5-5.1,7.9-7.8,3-2.8,6-5.4,8.4-7.3,1.2-1,2.2-1.7,2.9-2.3.7-.5,1.1-.8,1.1-.8,0,0,.1,0,.1,0,0,0,0,0,0,.1Z"/>
        <path class="cls-2" d="M270.9,703.6s0,.5.2,1.4c0,.9.2,2.2.3,3.7.2,3,.3,7.1.3,11.2,0,4.1-.2,8.1-.5,11.1,0,1.5-.3,2.8-.4,3.7,0,.9-.2,1.4-.2,1.4,0,.1-.1.2-.2.2,0,0-.2,0-.2-.2,0,0,0-.5-.1-1.4s-.2-2.2-.3-3.7c-.2-3-.3-7.1-.2-11.2,0-4.1.3-8.1.5-11.1.1-1.5.3-2.8.4-3.7,0-.9.2-1.4.2-1.4,0,0,0,0,.1,0,0,0,0,0,0,0Z"/>
        <path class="cls-2" d="M286.8,720.4s-.5,0-1.4.1c-.9,0-2.2.2-3.7.2-3,.1-7.1.1-11.2,0-4-.1-8.1-.4-11.1-.7-1.5-.1-2.8-.3-3.7-.4-.9-.1-1.4-.2-1.4-.2-.1,0-.2-.1-.2-.2,0,0,0-.1.2-.2,0,0,.5,0,1.4-.1.9,0,2.2-.1,3.7-.2,3,0,7.1,0,11.2,0,4.1.2,8.1.5,11.1.8,1.5.2,2.8.4,3.7.5.9.1,1.4.2,1.4.2,0,0,0,0,0,.1,0,0,0,0,0,0Z"/>
      </g>
    </g>
    <g>
      <path class="cls-2" d="M282.1,854.7c0,2.9-2.3,5.2-5.2,5.2s-5.2-2.3-5.2-5.2,2.3-5.2,5.2-5.2,5.2,2.3,5.2,5.2Z"/>
      <g>
        <path class="cls-2" d="M267.1,843.4s.4.3,1.1.9c.7.6,1.6,1.4,2.8,2.5,2.2,2.1,5.1,4.9,7.9,7.9,2.8,3,5.4,6,7.4,8.4,1,1.2,1.7,2.2,2.3,2.9.5.7.8,1.1.8,1.1,0,0,0,.2,0,.3,0,0-.2,0-.2,0,0,0-.4-.3-1.1-.9-.7-.6-1.6-1.4-2.7-2.5-2.2-2.1-5.1-5-7.8-7.9-2.7-3-5.4-6-7.3-8.4-1-1.2-1.7-2.2-2.3-2.9-.5-.7-.8-1.1-.8-1.1,0,0,0-.1,0-.1,0,0,0,0,.1,0Z"/>
        <path class="cls-2" d="M288.7,842.9s-.3.4-.9,1.1c-.6.7-1.4,1.6-2.5,2.7-2.1,2.2-4.9,5.1-7.9,7.9-3,2.8-6,5.4-8.4,7.4-1.2,1-2.2,1.7-2.9,2.3-.7.5-1.1.8-1.1.8,0,0-.2,0-.3,0,0,0,0-.2,0-.2,0,0,.3-.4.9-1.1.6-.7,1.4-1.6,2.5-2.7,2.1-2.2,5-5.1,7.9-7.8,3-2.8,6-5.4,8.4-7.3,1.2-1,2.2-1.7,2.9-2.3.7-.5,1.1-.8,1.1-.8,0,0,0,0,.1,0,0,0,0,0,0,.1Z"/>
        <path class="cls-2" d="M277.1,837.7s0,.5.2,1.4c0,.9.2,2.2.3,3.7.2,3,.3,7.1.3,11.2,0,4.1-.2,8.1-.4,11.1-.1,1.5-.3,2.8-.3,3.7,0,.9-.2,1.4-.2,1.4,0,.1-.1.2-.2.2,0,0-.2,0-.2-.2,0,0,0-.5-.1-1.4,0-.9-.2-2.2-.3-3.7-.2-3-.3-7.1-.2-11.2,0-4.1.3-8.1.5-11.1.1-1.5.3-2.8.4-3.7.1-.9.2-1.4.2-1.4,0,0,0,0,.1,0,0,0,0,0,0,0Z"/>
        <path class="cls-2" d="M293,854.6s-.5,0-1.4.1c-.9,0-2.2.2-3.7.2-3,.1-7.1.1-11.1,0-4.1-.1-8.1-.4-11.1-.7-1.5-.1-2.8-.3-3.7-.4-.9-.1-1.4-.2-1.4-.2-.1,0-.2-.1-.2-.2,0,0,0-.2.2-.2,0,0,.5,0,1.4-.1.9,0,2.2-.1,3.7-.2,3.1,0,7.1,0,11.2,0,4.1.2,8.1.5,11.1.8,1.5.1,2.8.3,3.7.5.9.1,1.4.2,1.4.2,0,0,0,0,0,.1,0,0,0,0,0,0Z"/>
      </g>
    </g>
    <g>
      <path class="cls-2" d="M305.8,988.4c0,2.9-2.3,5.2-5.2,5.2s-5.2-2.3-5.2-5.2,2.3-5.2,5.2-5.2,5.2,2.3,5.2,5.2Z"/>
      <g>
        <path class="cls-2" d="M290.9,977.1s.4.3,1.1.9c.7.6,1.6,1.4,2.7,2.5,2.2,2.1,5.1,4.9,7.9,7.9,2.8,3,5.4,6,7.4,8.4,1,1.2,1.7,2.2,2.3,2.9.5.7.8,1.1.8,1.1,0,0,0,.2,0,.3,0,0-.2,0-.2,0,0,0-.4-.3-1.1-.9-.7-.6-1.6-1.4-2.7-2.5-2.2-2.1-5.1-5-7.8-7.9-2.8-3-5.4-6-7.3-8.4-1-1.2-1.7-2.2-2.3-2.9-.5-.7-.8-1.1-.8-1.1,0,0,0-.1,0-.1,0,0,0,0,.1,0Z"/>
        <path class="cls-2" d="M312.5,976.6s-.3.4-.9,1.1c-.6.7-1.4,1.6-2.5,2.7-2.1,2.2-4.9,5.1-7.9,7.9-3,2.8-6,5.4-8.4,7.4-1.2,1-2.2,1.7-2.9,2.3-.7.5-1.1.8-1.1.8,0,0-.2,0-.3,0,0,0,0-.2,0-.2,0,0,.3-.4.9-1.1.6-.7,1.4-1.6,2.5-2.7,2.1-2.2,5-5.1,7.9-7.8,3-2.8,6-5.4,8.4-7.3,1.2-1,2.2-1.7,2.9-2.3.7-.5,1.1-.8,1.1-.8,0,0,.1,0,.1,0,0,0,0,0,0,.1Z"/>
        <path class="cls-2" d="M300.9,971.3s0,.5.2,1.4c0,.9.2,2.2.3,3.7.2,3,.3,7.1.3,11.2,0,4.1-.2,8.1-.5,11.1,0,1.5-.3,2.8-.3,3.7,0,.9-.2,1.4-.2,1.4,0,.1-.1.2-.2.2,0,0-.2,0-.2-.2,0,0,0-.5-.1-1.4,0-.9-.2-2.2-.3-3.7-.2-3-.3-7.1-.2-11.2,0-4,.3-8.1.5-11.1.1-1.5.3-2.8.4-3.7,0-.9.2-1.4.2-1.4,0,0,0,0,.1,0,0,0,0,0,0,0Z"/>
        <path class="cls-2" d="M316.8,988.2s-.5,0-1.4.1c-.9,0-2.2.2-3.7.2-3,.1-7.1.1-11.2,0-4-.1-8.1-.4-11.1-.7-1.5-.1-2.8-.3-3.7-.4-.9-.1-1.4-.2-1.4-.2-.1,0-.2-.1-.2-.2,0,0,0-.1.2-.2,0,0,.5,0,1.4-.1.9,0,2.2-.1,3.7-.2,3-.1,7.1,0,11.2,0,4.1.2,8.1.4,11.1.8,1.5.1,2.8.3,3.7.5.9.1,1.4.2,1.4.2,0,0,0,0,0,.1,0,0,0,0,0,0Z"/>
      </g>
    </g>
  </g>
  <path class="cls-1" d="M64,230.7c-18.7,64.3-30.4,149.3,13.8,206.7,7.8,10.2,27.1,25.6,40.9,20.5,21.6-8,1.6-37.9-3.6-50-12.4-28.5-15.9-60.4-12.1-91.1,4.1-33.2,17.5-65.1,25.2-97.5,4.3-18.4,2.5-61-27.7-53.2-18.4,4.7-27.8,37.6-33,53.5-1.2,3.6-2.3,7.3-3.4,11.1Z"/>
  <path class="cls-1" d="M391.6,169.5c-1.9,46.9-1,93.3-5.9,140.2-4.7,45.4-10.4,90.6-12.9,136.2-6.1,110.3-16.6,219.6-14.4,330.2.6,33.4-.3,66.9,2.3,100.2,1.7,21.1,4.7,44.1,18.2,61.3,8.1,10.3,23,13.1,28.6,1.2,4.4-9.2,4.5-21.1,4-31.1-1.9-38.1-7.1-75.9-9.1-114-4.6-88.7,11-176.5,25.3-263.6,9.3-56.9,10.8-112.5,9.2-170.1-.9-33.2-2-66.4-5.6-99.5-3.4-31.7-13.3-64-10.6-96.1,1.5-18,8.9-40.7-3.6-56.6-14.9-19-21.4,19.2-22.6,27.8-1.6,11.2-2.5,22.4-2.9,33.7Z"/>
  <path class="cls-1" d="M620.4,382.2c2.2,9.5,3,19.5,4.2,28,7.7,57,7.2,123.9-29,171.9-10.5,14-23.9,26.6-37.6,37.4-10.8,8.4-34.7,13.8-46.4,5-20.2-15.1,4.1-42.8,12.4-57.7,11.1-19.9,16.5-42.3,23.6-63.8,8.1-24.6,17.7-48.7,15.4-75-1.6-19-7.3-40.9-2.6-59.8,5.1-20.7,31.5-24.8,46-12.6,7.7,6.5,11.6,16.1,14,26.4Z"/>
  <path class="cls-1" d="M181.5,822.4c2,1.4,4.1,2.8,6.3,4,4.4,2.5,10.8,5.3,15.9,4.2,6.5-1.5,8.8-10.2,7.4-15.8-1.9-7.1-8.5-13-13-18.4-14.4-17.6-30-34.7-33.2-58-1.5-10.7-.3-21.8-3.8-32.2-2.9-8.6-9.8-20-19.5-11-11.1,10.3-4.6,35.6-2.7,48.1,2.5,17.3,7.8,34.4,16.4,49.6,6.5,11.5,15.5,22,26.2,29.6Z"/>
</svg>