<?xml version="1.0" encoding="UTF-8"?>
<svg id="Layer_1" data-name="Layer 1" xmlns="http://www.w3.org/2000/svg" xmlns:xlink="http://www.w3.org/1999/xlink" viewBox="0 0 1924.13 140.94">
  <defs>
    <style>
      .cls-1 {
        fill: #918367;
      }

      .cls-1, .cls-2, .cls-3, .cls-4, .cls-5, .cls-6, .cls-7, .cls-8, .cls-9, .cls-10, .cls-11, .cls-12, .cls-13 {
        stroke-width: 0px;
      }

      .cls-2 {
        fill: none;
      }

      .cls-3 {
        fill: #cec4b2;
      }

      .cls-4 {
        fill: #70604b;
      }

      .cls-5 {
        fill: #b49463;
      }

      .cls-6 {
        fill: #b0a38c;
      }

      .cls-14 {
        clip-path: url(#clippath);
      }

      .cls-7 {
        fill: #b6aa94;
      }

      .cls-8 {
        fill: #6f5f4a;
      }

      .cls-9 {
        fill: #c1b6a2;
      }

      .cls-10 {
        fill: #b39463;
      }

      .cls-11 {
        fill: #988a6f;
      }

      .cls-12 {
        fill: #e7dfd0;
      }

      .cls-13 {
        fill: #71614b;
      }
    </style>
    <clipPath id="clippath">
      <rect class="cls-2" x="2.06" width="1922.07" height="137.87"/>
    </clipPath>
  </defs>
  <g class="cls-14">
    <g>
      <path class="cls-1" d="M1.21,92.77v-24c15.14,0,31.28.03,46.42,0,1.81,0,3.66-.11,5.43-.49,10.02-2.16,20.02-4.43,30.03-6.65.04.75.08,1.49.12,2.24-1.8,5.44-1.53,6.01,3.78,5.87,12.63-.32,25.25-.25,37.89-.69,27.1-.95,54.24-.24,81.37-1.04,12.39-.36,24.47-1.18,36.34-4.83,2.91-.9,5.82-1.71,9.23-.8,12.22,3.26,24.62,5.48,37.39,4.43,3.11-.26,6.79,1.14,7.68-3.84.25-1.38,2.2-1.19,3.53-1.19,17.66-.01,35.33-.02,52.99,0,1.29,0,3.03-.41,3.58,1.09,1.83,4.96,5.94,3.98,9.64,3.85,2.64-.09,5.26-.85,7.89-.86,20.94-.09,41.85-1.38,62.77-1.82,17.62-.37,35.23-1.75,52.87-1.23l-.04-.04c-.75,4.97,1.64,6.12,6.27,6.11,9.95-.04,19.86-.87,29.79-.97,25.74-.26,51.49-.13,77.23-.13,3.45,0,7.28.8,7.73-4.45.08-.9.86-1.34,1.72-1.57,4.76-1.32,9.16-3.94,14.28-3.94l-.03-.04c0,7.04.04,7.53,6.91,6.9,12.24-1.11,24.53-1.01,36.78-1.61,18.73-.92,37.49-1.63,56.25-2.11,13.62-.35,27.21-1.55,40.87-1.35,4.57.07,9.22-.92,13.88-.82,1.11.02,2.76.29,2.97-1.13.54-3.52,3.07-2.82,5.32-2.87,15.64-.33,31.22,1.69,46.87,1.08,1.13-.04,2.28.42,3.43.52,11.59,1,23.26-.31,34.84,1.3.9.13,1.91-.48,2.86-.77,4.92-1.5,9.79-3.21,14.78-4.45,4.96-1.23,9.66-3.86,14.93-3.48,11.72.83,23.55,1.16,35.1,3.12,6.09,1.03,13.69-2.82,18.39,4.41.28.43,1.58.23,2.41.29,19.39,1.36,38.85,1.03,58.26,1.69,13.16.45,26.43-1.57,39.62-2.74,7.39-.66,14.94-.17,22.08-2.92,1-.39,2.81-1.76,3.23.45.56,2.97,2.59,2.62,4.53,2.5,10.75-.67,21.51-1.28,32.25-2.16,14.02-1.15,28.01-2.64,42.03-3.78,11.72-.95,23.44-1.8,35.15-2.79,5.3-.45,10.72-1.45,16.23.16,19.86,5.81,39.46,12.58,60.85,10.84,8.88-.72,17.56-.56,25.2-5.84,2.86-1.98,4.52-1,5.64,1.97.79,2.08,1.81,3.69,4.63,3.65,7.97-.1,15.92.34,23.89.78,15.43.85,30.9.85,46.36,1.21.99.02,1.97.29,2.96.31,9.74.21,19.85,3.51,28.74-3.49,1.91-1.5,3.44-.77,4.28,1.38,1.34,3.44,4.05,3.81,7.3,3.79,15.99-.1,31.99-.15,47.98-.01,22.09.19,44.1.34,65.9-4.7,6.1-1.41,13.84-3.58,18.53,4.24.19.31.91.37,1.39.42,3.62.35,7.25.85,10.88.97,16.95.58,33.91.24,50.88.74,24.26.71,48.57.88,72.85,1.38,3.24.07,5.57-.47,6.15-4.11.48-2.97,1.92-3.09,3.97-1.23,7.03,6.37,15.97,5.75,24.41,6.14,10.97.51,21.99.13,32.98.18,2.37.01,4.51.08,6.08-2.34,1.39-2.15,3.08-2.16,4.64.24,1.44,2.22,3.49,3.4,6.34,3.08,12.01-1.35,24.21-1.49,36.09-3.34,15.76-2.46,30.94.2,46.35,1.9,11.01,1.22,21.89,3.7,33.08,3.48,8.83-.17,18.66-.04,27.49-.04v24c-21.29-.47-43.57.2-64.88-.75-22.39-1-44.82-1.15-67.24-2.09-17.58-.74-35.16-1.32-52.74-2-17.75-.69-35.5-1.18-53.24-2.03-13.44-.64-26.92-.74-40.37-.91-31.91-.41-63.84-.83-95.74,1.61-15.35,1.18-30.75,1.94-46.12,3.05-18.52,1.34-37.07,2.71-55.62,2.96-29.92.41-59.83.45-89.74-1.64-18.51-1.3-37.08-1.96-55.62-3.06-12.08-.72-24.16-1.32-36.25-2.02-18.23-1.05-36.49-1.62-54.74-2.06-20.1-.49-40.13.65-60.12,2.87-14.3,1.59-28.7,2.44-42.97,4.26-15.46,1.97-30.96,3.36-46.51,3.72-18.93.43-37.85-.03-56.75-1.79-13.36-1.24-26.84-1.17-40.22-2.28-5.63-.47-11.29-.39-16.88-.97-19.62-2.05-39.33-2.87-59.01-3.71-16.57-.71-33.2-.6-49.74,1.75-14.4,2.05-28.92,3.29-43.32,5.33-13.46,1.9-26.94,3.46-40.51,3.69-22.6.38-45.17-.51-67.75-1.8-13.9-.79-27.83-1.29-41.75-2.01-21.39-1.1-42.82-1.55-64.24-2.04-5.95-.14-11.91.81-17.87.85-13.78.1-27.51,1.01-41.25,1.92-20.85,1.38-41.73,2.36-62.62,3.06-23.93.8-47.77-1.15-71.61-2.92-10.24-.76-20.53-1.1-30.74-2.17-17.63-1.85-35.33-2.72-53.01-3.81-8.45-.52-16.94-.54-25.38-.73-19.6-.44-39.16-1.53-58.74-2.2-10.28-.35-20.57-.13-30.88.74-13.21,1.11-26.3,2.93-39.41,4.68-14.11,1.89-28.23,4.21-42.43,4.32-34.91.27-70.86,1.12-105.72-1.84ZM598.36,78.78c0,.19,0,.38,0,.57,15.84,1.14,31.68,2.31,47.53,3.4,10.75.74,21.53,1.04,32.24,2.14,21.62,2.22,43.31,3.19,65.02,3.83,6.97.21,13.92-.37,20.88-.79,15.57-.95,30.9-3.41,46.27-5.77,13.4-2.06,26.82-4,40.31-5.43,11.56-1.23,23.18-.73,34.77-1.79,17.19-1.58,34.43-2.96,51.73-2.13,2.21.11,5.38-1.33,6.44,1.02,1.3,2.89-2.85,2.99-3.97,4.89-.57.96-2.14,1.52-1.8,2.79.35,1.32,1.8,1.16,2.97,1.27,12.72,1.25,25.54,1.55,38.26,1.71,22.29.27,44.57,1.38,66.87,1.33,4.77-.01,9.26-.95,13.55-2.79,9.94-4.26,19.98-7.37,30.96-8.59,19.57-2.17,39.18-4.02,58.8-5.46,14.73-1.08,29.54-1.67,44.36-1.29,5.6.14,10.84,1.12,15.97,3.27,5.82,2.44,11.64,5.28,17.97,5.71,18.53,1.26,37.08,2.16,55.63,3.07,11.12.54,22.23,0,33.39.82,16.23,1.19,32.56-.13,48.87,1.04,12.27.88,24.65.08,36.98.27,3.49.05,5.88-.77,6.61-4.41.55-2.73,2.06-3.87,4.93-3.7,7.79.46,15.61.45,23.37,1.16,19.31,1.78,38.6,3.69,58.01,3.87,10.97.11,21.93-.07,32.88-.93,8.43-.66,16.99-.17,25.34-1.29,6.32-.85,12.61-.33,18.88-1.04,13.77-1.57,27.99-2.63,41.3-.12,22.22,4.19,44.53,4.23,66.83,5.2,18.96.82,37.99.21,56.98.13,3.12-.01,6.29-1.01,9.35-.69,15.12,1.6,30.29,1.09,45.38.46,15.71-.65,31.39-2.46,47.14-2.68,1.64-.02,3.3.27,4.91.6,14.45,2.95,28.84,6.92,43.77,5.25,8.8-.99,17.58-.61,26.37-1.03.11,0,.2-.33.34-.57-14.66-1.06-28.91-3.81-43.17-6.8-13.42-2.82-26.77-6.78-40.75-5.46-5.43.51-10.82,1.7-16.25,1.89-17.28.59-34.57-.36-51.88.93-15.74,1.18-31.56.13-47.37.89-20.91,1-41.89,2.03-62.86,1.21-4.94-.19-9.88-.88-14.79-1.59-13.92-2.03-27.71-4.79-41.94-4.45-24.78.59-49.57.12-74.37.87-29.14.88-58.32.22-87.48.21-2.15,0-4.27-.33-6.41-.59-9.39-1.15-18.87-4.9-28.21.33-.54.3-1.3.18-1.96.27-15.86,2.05-31.84.78-47.77,1.75-17.35,1.05-34.82.39-52.24.22-10.13-.1-20.24-.05-30.39-.73-15.85-1.06-31.23-3.54-46.21-8.83-6.75-2.39-13.74-3.45-20.99-3.49-25.93-.15-51.77,1.39-77.64,2.87-19.05,1.09-38.12,2.83-57.24,2.18-4.34-.15-7.69,1.68-9.79,4.88-3.3,5.01-7.89,6.2-13.29,6.17-2.67-.01-5.35-.13-7.99.11-19.47,1.77-38.98,2.94-58.51,3.98-4.33.23-6.81-1.07-8.25-5.17-2.38-6.78-5.59-11.17-14.5-11.68-14.67-.84-29.23-3.91-44.05-3.19-3.49.17-7.09.7-9.27,3.92-2.03,3-5,4.18-8.27,5.08-9.05,2.48-18.41,2.3-27.62,2.8-11.09.6-22.17,1.28-33.25,2.02-19.52,1.31-39.07,2.33-58.63,3.06-21.78.81-43.59-.8-65.38.96-12.08.97-24.25.49-36.38.8-22.11.58-44.22,2.04-66.36,1.33-1.64-.05-3.28,0-4.92,0ZM19.4,84.15c16.03,3.19,33.09,6.36,49.59,5.64,9.45-.41,18.89.07,28.38-.84,15.99-1.55,31.8-4.1,47.64-6.62,17.16-2.73,34.24-5.83,51.77-5.67,16.61.15,33.06,4.26,49.6,2.89,17.68-1.47,35.3-2.41,53.01-1.74,5.46.21,10.94.5,16.36,1.14,12.64,1.48,25.24,3.26,37.87,4.8,14.77,1.8,29.59,3.22,44.33,5.26,14.45,1.99,28.97,3,43.51,3.73,7.97.4,15.91-.33,23.87-.86,11.08-.73,22.04-2.28,33.02-3.71,12.95-1.69,25.88-3.5,38.8-5.41,10.59-1.57,21.25-2.55,31.93-3.62-5.31-.39-10.64.01-15.89-.47-18.84-1.71-37.73-2.79-56.62-2.67-10.32.07-20.79.67-30.41,6.04-4.96,2.77-10.44,4.87-16.3,5.93-4.34.78-5.91-.49-7.04-4.4-.83-2.87-1.85-5.9-6.26-5.84-16.77.22-33.5-1.08-50.25-1.77-16.08-.66-32.16-1.22-48.24-2.03-12.6-.63-25.24-.29-37.87-.96-13.29-.7-26.65-.24-39.98-.15-30.62.19-61.25-.81-91.84,1.03-8.25.5-16.49,1.4-24.71,2.31-13.14,1.46-26.26,3.11-39.4,4.63-8.72,1.01-17.44,1.96-26.23,2.25-12.59.42-25.19,1.78-37.75,1.43-6.6-.19-14.23-.35-20.91-.3Z"/>
      <path class="cls-12" d="M1.21,31.78c31.99.01,64.99-.49,96.97.17,41.96.87,83.91.68,125.86.85,3.23.01,5.95-.19,7.14-3.82.71-2.17,2.65-2.23,4.55-2.18,15.64.45,31.25-.89,46.87-1.22,22.92-.49,45.83-1.65,68.76-1.96,3.92-.05,7.91-.64,11.89-.88,5.33-.32,10.23.51,14.75,3.44,2.34,1.52,4.81,1.36,7.61,1.13,6.95-.58,13.96-.51,20.95-.49,25.96.04,51.91-1.03,77.87-1.35,12.27-.15,24.62.04,36.88-.79,12.37-.83,24.68-2.7,37.04-3.67,16.15-1.27,32.26-3.84,48.54-.44,5.19,1.08,10.75,1.3,16.11-.73,8.19-3.1,16.6-1.77,25.08-1.26,11.12.67,22.33-.06,33.48.28,17.83.55,35.43-1.52,53.02-3.95.66-.09,1.33-.09,1.99-.1,18.13-.35,36.25-.87,54.38-.95,6.17-.03,12.23-1.06,18.39-1.08,20.6-.09,41.08,2.37,61.65,3,3.32.1,6.62.31,9.46-2.09,2.3-1.93,4.8-.05,7.2.06,14.42.66,28.85,1.2,43.26,2.09,18.36,1.13,36.68,2.92,55.05,3.71,9.58.41,19.22-.72,28.83-1.2,1.15-.06,2.28-.49,3.43-.52,13.29-.38,26.6-.5,39.88-1.12,22.58-1.05,45.17-1.47,67.76-2.23,11.13-.37,22.27-.22,33.39-.79,5.63-.29,11.22-1.17,16.89-.92,4.27.19,8.13.68,12.39,2.51,4.26,1.83,10.07,1.37,15.19,1.4,20.11.13,40.15,1.85,60.26,2.31,16.08.37,32.18,1.28,48.26,1.94,16.92.7,33.85,1.23,50.76,2.07,12.26.61,24.53.81,36.78,1.7,10.35.76,20.39-2.23,30.58-3.35,2.57-.28,4.86.06,7.31.26,10.24.85,20.51,1.38,30.75,2.17,15.68,1.22,31.35,2.81,47.04,3.75,7.76.47,15.62.98,23.39-.52.97-.19,1.99-.21,2.98-.21,30.29-.04,60.59-2.33,90.86-.86,27.3,1.33,54.59.67,81.87.59,8.2-.02,16.09.17,23.85,2.88,1.92.67,4.09.83,5.9,0,8.63-3.91,17.24-1.3,25.81-.05,11.33,1.65,22.55,1.91,34.01.73,16.09-1.66,32.21-1.93,48.47.1,13.96,1.74,27.96,4.43,42.4,1.89,8.73-1.54,18.95-.32,27.95-.34v13c-9.75-.59-20.17.82-29.22,4.58-.87.36-1.97.37-2.94.27-13.69-1.51-27.35-3.23-41.05-4.55-7.73-.74-15.4-1.75-23.33-.76-15.8,1.97-31.71,3.06-47.58,4.56-2.43.23-4.71-.1-6.59-1.65-8.68-7.17-19.12-5.62-29.12-6.26,7.57,3.2,16.83,1.56,23.72,8.71-1.67-.12-2.64-.18-3.61-.26-15.39-1.22-30.76-2.54-46.16-3.62-5.01-.35-9.83-1.04-14.39-3.23-4.18-2.01-8.41-3.93-12.62-5.89-.34-.54-1.03-1.08-1.37-.5-.42.71.59.68,1.04.91,1.65,4.13,6.74,5.18,8.95,10.13-44.66-8.49-89.18-4.78-133.59-6.17,10.65-2.87,21.3-5.75,31.95-8.62-2.17-.55-4.28-.78-6.33-.51-13.33,1.77-26.63,3.75-39.96,5.45-17.45,2.23-34.79,5.37-52.56,4.41-22.75-1.22-45.54-2.17-68.33-1.92-3.81.04-5.98-.84-6.41-4.88-.34-3.21-1.91-4-4.57-1.79-7.11,5.91-15.46,7-24.37,6.68-5.79-.21-11.62,0-17.45.54-9.77.9-19.61.66-29.42.95-10.26.31-20.57-1.25-30.86-1.29-4.57-.02-7.27-1.5-8.73-5.53-1.17-3.23-3.37-4-6.6-3.79-7.13.47-14.28.64-21.43.94-3.12-2.09-5.72,1.1-8.67,1.03h8.75c4.83.07,9.63.31,14.66,1.55-4.72,4.11-9.45,6.02-15.39,5.51-6.11-.53-12.31-.11-18.47-.19-9.92-.13-18.59-4.57-29.17-7.55,4.46-2.05,7.37-3.38,10.28-4.71-10.27.05-20.31,1.17-30.39,1.8-18.53,1.16-37.01,3.03-55.51,4.61-21.17,1.81-42.35,3.56-63.51,5.52-2.41.22-3.81.16-4.36-2.45-.59-2.78,1.05-3.51,3.23-3.89,8.17-1.42,16.35-2.83,24.52-4.25,3.54-.1,7-.57,10.21-2.41-3.39,1.13-6.86.02-10.24.72-12.45,1.81-24.61-2.31-37.89-2.17,4.37,2.03,8.59,1.34,12.87,4.02-4.02,0-7.01.07-10.01-.02-2.87-.08-4.76.43-3.01,3.88,1.99,3.91-.1,4.82-3.56,5.09-4.8.38-9.56,1.14-14.36,1.52-16.02,1.27-31.82,5.28-48.02,4.28-15.3-.94-30.61-.6-45.92-.9-.92-.02-2.06.37-2.57-.96.74-2.39,3.63-3.36,4.14-5.89-.73-1.16-1.83-.84-2.77-.88-16.12-.66-32.24-1.51-48.39-1.5-9.25,0-18.11,1.09-26.95,3.9-6.72,2.13-13.36,5.08-20.77,4.44-17.01-1.46-34.05-2.52-51.13-3.08-7.45-.24-14.9-.71-22.34-1.16-10.1-.61-18.27-6.17-26.98-11.19,8.99-1.58,17.97-3.16,26.96-4.75-12.47-.85-24.66.99-36.94,1.6l-.34,1.29c7.94,5.37,15.88,10.74,24.86,16.82-20.23.81-38.82,1.64-57.4,2.29-31.75,1.1-63.5,2.08-95.26,3.11-.35-.31-.69-.62-1.04-.93q-.37-7.27-7.02-4.3c-4.55,2.03-8.95,5.12-13.7,5.84-14.92,2.24-29.95,4.28-45,5.09-16.27.87-32.62.31-48.93.27-2.79,0-5.72.14-9.5-2.12,10.26-1.86,19.22-3.49,28.19-5.12-19.97-2.86-39.9-5.27-60.06-4.76-2.88-1.74-5.9-.67-9.88-.74,3.86,1.6,6.85,2.16,10.01,1.78,10.63,1.08,21.26,2.17,31.89,3.25,0,.47,0,.94,0,1.41-45.86,6.05-92.04,1.92-138.15,2.69,11.47-2.21,22.94-4.41,34.63-6.66-4.3-2.55-9.03-1.17-13.3-2.37-9.33-1.06-18.65-2.15-28.07-1.92,3.51.76,7.07,1.06,10.57,1.72,5.44,1.03,11.18.39,16.34,2.93-1.32.16-2.63.33-3.95.49-11.53,1.37-22.88,4.34-34.53,4.61-17.81.41-35.57-1.63-53.4-1.13-1.43.04-2.87-.62-4.32-.89-5.88-1.11-11.61-3.32-18.69-2.93,5.97,2.5,11.55,3.31,16.89,6.22-12.25,3.37-12.3,3.56-23,.85-12.15-3.07-24.32-5.47-36.93-4.16-1.3.14-3.05-.74-3.96,1.58,5.72.76,11.25,1.79,16.99,1.79-6.84,2.04-13.41,4.8-20.67,4.79-42.13-.08-84.26-.11-126.39-.16-.02-.33,0-.66.1-.98,2.32-.12,4.64-.15,6.95-.38,15.3-1.56,30.59-3.16,45.89-4.75,2.46-.17,5.18.98,8.41-2.26-3.59.91-6.06-.52-8.32,1.26-10.12-.35-20.25-.4-30.37-.52-38.54-.47-78.09-.31-116.63-.39v-14ZM221.19,46.24c-4.79-.95-9.52-.38-14.26.42,4.73,1.43,9.54,1.11,14.34,1.01.51-.21,1.02-.43,1.53-.64-.54-.26-1.07-.53-1.61-.79Z"/>
      <path class="cls-5" d="M1.21,92.77c34.86,2.96,70.81,2.12,105.72,1.84,14.2-.11,28.32-2.43,42.43-4.32,13.1-1.76,26.2-3.58,39.41-4.68,10.31-.86,20.6-1.09,30.88-.74,19.58.67,39.14,1.75,58.74,2.2,8.44.19,16.93.21,25.38.73,17.68,1.09,35.38,1.96,53.01,3.81,10.21,1.07,20.49,1.41,30.74,2.17,23.84,1.76,47.69,3.71,71.61,2.92,20.88-.7,41.77-1.68,62.62-3.06,13.75-.91,27.47-1.83,41.25-1.92,5.96-.04,11.93-.99,17.87-.85,21.42.49,42.85.94,64.24,2.04,13.92.71,27.84,1.22,41.75,2.01,22.57,1.29,45.15,2.18,67.75,1.8,13.57-.23,27.06-1.79,40.51-3.69,14.4-2.04,28.92-3.28,43.32-5.33,16.54-2.35,33.17-2.46,49.74-1.75,19.68.84,39.39,1.66,59.01,3.71,5.59.59,11.24.51,16.88.97,13.38,1.11,26.86,1.04,40.22,2.28,18.9,1.75,37.82,2.21,56.75,1.79,15.55-.35,31.05-1.74,46.51-3.72,14.27-1.82,28.66-2.68,42.97-4.26,19.99-2.22,40.02-3.36,60.12-2.87,18.25.45,36.51,1.01,54.74,2.06,12.08.7,24.17,1.3,36.25,2.02,18.54,1.1,37.11,1.76,55.62,3.06,29.91,2.1,59.83,2.05,89.74,1.64,18.55-.25,37.1-1.62,55.62-2.96,15.37-1.11,30.77-1.88,46.12-3.05,31.9-2.44,63.83-2.02,95.74-1.61,13.45.17,26.93.26,40.37.91,17.75.85,35.5,1.34,53.24,2.03,17.58.68,35.17,1.26,52.74,2,22.41.94,44.85,1.09,67.24,2.09,21.31.95,43.59.28,64.88.75,0,4.67,1.03,42.24,1.19,46.9.06,1.74-2.17,1.3-3.91.98-.81-.15-2.69.2-3.52.2-636.91,0-1277.72-1.27-1914.63-1.17-3.75,0-1.31-31.62-.94-35.41.37-3.8.08-7.66.08-11.49Z"/>
      <path class="cls-11" d="M1690.05,36.67c4.21,1.96,8.44,3.88,12.62,5.89,4.56,2.19,9.39,2.88,14.39,3.23,15.4,1.08,30.77,2.4,46.16,3.62.97.08,1.94.14,3.61.26-6.89-7.16-16.15-5.51-23.72-8.71,10,.64,20.45-.91,29.12,6.26,1.88,1.56,4.16,1.88,6.59,1.65,15.86-1.5,31.77-2.6,47.58-4.56,7.92-.99,15.59.02,23.33.76,13.7,1.32,27.37,3.04,41.05,4.55.96.11,2.07.09,2.94-.27,9.05-3.76,19.47-5.17,29.22-4.58v19c-16.27-.02-33.48,0-49.66-2.82-13.83-2.41-27.71-5.76-41.85-5.09-16.2.77-32.35,2.52-48.44,4.67-3.47.46-6.9.98-9.06-3.1-1.24-2.34-3.17-3.43-5.07-.17-1.32,2.26-3.57,2.59-6.08,2.56-9.5-.13-19.05.57-28.47-.29-10.08-.92-21.22,1.54-29.43-7.39-2.37-2.58-3.07.05-3.38,1.73-.76,4.12-3.1,5.21-7.1,4.96-4.63-.3-9.29-.87-13.89-.88-19.97-.05-39.92-.61-59.88-1.14-19.29-.51-38.59-.75-57.88-1.01-2.66-.04-4.44-.59-5.1-3.5-.41-1.79-1.38-3.52-3.68-3.46-3.65.1-7.28-.32-10.95.36-10.74,1.98-21.28,5.44-32.27,5.53-27.82.21-55.65,0-83.48.12-3.7.01-6.53-.59-7.93-4.41-1.06-2.9-2.68-2.98-4.75-.79-3.16,3.34-7.03,4.33-11.67,4.24-15.95-.3-31.86-1.1-47.78-2.01-13.27-.75-26.58-.89-39.88-1.09-3.05-.05-5.24-.74-6.12-3.8-1.36-4.75-3.99-4.27-7.4-2.1-3.9,2.49-7.71,5.7-12.51,5.78-19.26.33-38.59,1.03-56.73-7.54-2.87-1.36-4.99-1.91-3.68-5.87,1-3.02.17-4.77-4.1-4.05-9.45,1.6-19.04,2.46-28.58,3.51-16.13,1.76-32.28,3.32-48.4,5.16-18.91,2.16-37.79,4.56-56.69,6.78-1.52.18-3.74.71-3.83-1.85-.12-3.49-1.76-2.71-3.85-1.79-1.66.73-3.43,1.54-5.19,1.66-20.77,1.38-41.31,5.11-62.32,4.37-16.94-.6-33.9-1.63-50.87-1.32-1.46.03-3.48.48-4.12-1.05-1.77-4.19-5.32-3.67-8.75-3.94-9.25-.73-18.5-1.49-27.73-2.41-10.2-1.01-20.23-2.72-30.32,1.71-6.29,2.76-12.83,5.83-19.99,5.73-15.96-.22-31.92-.69-47.88-1.06-.66-.02-1.33-.06-1.99-.15-11.88-1.65-23.91-.1-35.79-1.75-1.48-.21-3.25-.14-3.22,2.05.03,3.04-2,2.73-4.06,2.94-11.57,1.17-23.2,1.16-34.79,1.72-22.71,1.11-45.44,2-68.16,3.07-14.59.69-29.2.83-43.76,2.11-2.44.22-5.02.51-7.29-.97,0,0,.03.04.03.04-.49-2.4,1.28-5.6-2.29-6.88-1.77-.64-14.13,4.56-14.15,6.19-.07,4.83-3.46,4.75-6.66,5.21-2.45.36-4.89.91-7.36,1.09-11.82.83-23.26,3.82-35.48,2.74-23.61-2.1-47.38-2.36-71.08-3.38,0,0,.04.04.04.04.02-7.51.02-7.54-7.43-6.94-2.3.19-4.59.83-6.89.85-17.93.12-35.83,1.02-53.73,1.94-15.09.77-30.22.8-45.34,1.16-2.98.07-5.93.27-8.91.68-4.26.58-9.12,1.76-11.15-4.31-.62-1.86-2.83-1.38-4.46-1.38-16.98,0-33.96.04-50.94-.03-2.65-.01-4.73.44-5.05,3.43-.24,2.23-1.53,2.57-3.41,2.62-12.82.34-25.6.4-37.86-4.21-3.83-1.44-7.48-1.78-11.5-.17-12.99,5.21-26.82,6.23-40.53,6.15-34.77-.19-69.51,1.55-104.28,1.23-5.16-.05-10.32.04-15.48.06-.04-.75-.08-1.49-.12-2.24.09-6.34.12-6.22-6.22-4.86-14.15,3.02-27.89,8.09-42.83,7.11-10.57-.7-22.22-.11-32.84-.1,0-6,0-12,0-18,38.54.08,78.09-.07,116.63.39,10.11.12,20.25.17,30.37.52-.03.34-.06.67-.09,1-15.3,1.59-30.59,3.19-45.89,4.75-2.31.24-4.63.26-6.95.38-2.46.07-5.13-.8-7.61,1.91,2.89-.27,5.32.83,7.51-.92,42.13.05,84.26.08,126.39.16,7.26.01,13.83-2.75,20.67-4.79-5.73,0-11.26-1.03-16.99-1.79.91-2.31,2.65-1.44,3.96-1.58,12.61-1.32,24.78,1.09,36.93,4.16,10.7,2.7,10.75,2.52,23-.85-5.34-2.91-10.92-3.72-16.89-6.22,7.08-.39,12.81,1.82,18.69,2.93,1.45.27,2.89.93,4.32.89,17.82-.5,35.59,1.55,53.4,1.13,11.65-.27,22.99-3.24,34.53-4.61,1.32-.16,2.63-.32,3.95-.49,4.03.64.79-1.81,1.16-2.73,4.28,1.2,9.01-.18,13.3,2.37-11.69,2.25-23.16,4.45-34.63,6.66,46.11-.76,92.29,3.37,138.15-2.69,0-.47,0-.94,0-1.41-10.63-1.08-21.26-2.17-31.89-3.25-.04-.35-.09-.7-.13-1.05,20.15-.5,40.09,1.9,60.06,4.76-8.96,1.63-17.92,3.25-28.19,5.12,3.79,2.26,6.72,2.11,9.5,2.12,16.31.03,32.66.6,48.93-.27,15.05-.81,30.08-2.85,45-5.09,4.75-.71,9.15-3.81,13.7-5.84q6.66-2.97,7.02,4.3c.35.31.69.62,1.04.93,31.75-1.03,63.51-2.01,95.26-3.11,18.59-.64,37.17-1.47,57.4-2.29-8.98-6.08-16.92-11.45-24.86-16.82l.34-1.29c12.29-.61,24.48-2.45,36.94-1.6-8.99,1.58-17.97,3.16-26.96,4.75,8.71,5.02,16.88,10.58,26.98,11.19,7.44.45,14.89.92,22.34,1.16,17.07.55,34.11,1.62,51.13,3.08,7.41.64,14.06-2.31,20.77-4.44,8.84-2.81,17.69-3.89,26.95-3.9,16.16,0,32.27.84,48.39,1.5.94.04,2.04-.29,2.77.88-.52,2.53-3.41,3.5-4.14,5.89.51,1.33,1.65.94,2.57.96,15.31.3,30.62-.04,45.92.9,16.19,1,31.99-3,48.02-4.28,4.8-.38,9.56-1.15,14.36-1.52,3.46-.27,5.55-1.18,3.56-5.09-1.75-3.45.14-3.96,3.01-3.88,2.99.09,5.99.02,10.01.02-4.28-2.68-8.5-1.99-12.87-4.02,13.28-.15,25.43,3.98,37.89,2.17.01.57.02,1.13.03,1.7-8.17,1.42-16.35,2.83-24.52,4.25-2.18.38-3.82,1.11-3.23,3.89.55,2.61,1.95,2.67,4.36,2.45,21.16-1.96,42.34-3.71,63.51-5.52,18.5-1.58,36.99-3.45,55.51-4.61,10.08-.63,20.13-1.75,30.39-1.8-2.91,1.33-5.82,2.67-10.28,4.71,10.58,2.98,19.25,7.42,29.17,7.55,6.16.08,12.35-.34,18.47.19,5.93.51,10.67-1.4,15.39-5.51-5.03-1.24-9.84-1.49-14.66-1.55-.03-.34-.06-.68-.08-1.03,7.14-.29,14.3-.46,21.43-.94,3.23-.22,5.43.56,6.6,3.79,1.46,4.02,4.16,5.51,8.73,5.53,10.29.04,20.6,1.6,30.86,1.29,9.8-.29,19.65-.05,29.42-.95,5.83-.53,11.65-.75,17.45-.54,8.91.32,17.26-.77,24.37-6.68,2.66-2.21,4.23-1.42,4.57,1.79.43,4.04,2.59,4.93,6.41,4.88,22.8-.25,45.58.7,68.33,1.92,17.77.95,35.11-2.18,52.56-4.41,13.34-1.71,26.64-3.69,39.96-5.45,2.05-.27,4.17-.04,6.33.51-10.65,2.87-21.3,5.75-31.95,8.62,44.4,1.39,88.92-2.32,133.59,6.17-2.21-4.95-7.3-6-8.95-10.13.11-.14.22-.27.33-.41ZM503.18,50.86c-1.96-.16-3.85-.08-5.49,1.59,1.98.54,3.75.64,5.5-.13.94-.49,1.32-.98,0-1.46Z"/>
      <path class="cls-4" d="M627.11,57.74c2.27,1.49,4.85,1.19,7.29.97,14.56-1.28,29.17-1.42,43.76-2.11,22.72-1.07,45.45-1.97,68.16-3.07,11.59-.56,23.22-.55,34.79-1.72,2.06-.21,4.09.11,4.06-2.94-.02-2.19,1.74-2.26,3.22-2.05,11.88,1.65,23.92.09,35.79,1.75.66.09,1.33.13,1.99.15,15.96.37,31.92.84,47.88,1.06,7.16.1,13.7-2.97,19.99-5.73,10.1-4.43,20.12-2.72,30.32-1.71,9.23.92,18.48,1.68,27.73,2.41,3.42.27,6.98-.25,8.75,3.94.65,1.53,2.66,1.08,4.12,1.05,16.98-.31,33.94.72,50.87,1.32,21.01.74,41.55-2.99,62.32-4.37,1.76-.12,3.54-.92,5.19-1.66,2.09-.92,3.72-1.7,3.85,1.79.09,2.56,2.3,2.03,3.83,1.85,18.9-2.23,37.78-4.62,56.69-6.78,16.12-1.84,32.27-3.4,48.4-5.16,9.54-1.04,19.12-1.91,28.58-3.51,4.27-.72,5.1,1.02,4.1,4.05-1.31,3.96.81,4.52,3.68,5.87,18.14,8.57,37.47,7.87,56.73,7.54,4.81-.08,8.61-3.3,12.51-5.78,3.41-2.17,6.04-2.65,7.4,2.1.88,3.06,3.07,3.75,6.12,3.8,13.3.2,26.61.34,39.88,1.09,15.92.9,31.83,1.71,47.78,2.01,4.65.09,8.51-.9,11.67-4.24,2.07-2.19,3.69-2.11,4.75.79,1.4,3.82,4.23,4.42,7.93,4.41,27.82-.11,55.65.1,83.48-.12,10.99-.08,21.53-3.55,32.27-5.53,3.67-.68,7.3-.26,10.95-.36,2.3-.06,3.28,1.67,3.68,3.46.66,2.91,2.43,3.46,5.1,3.5,19.29.26,38.59.5,57.88,1.01,19.96.53,39.91,1.09,59.88,1.14,4.59.01,9.25.59,13.89.88,3.99.25,6.33-.84,7.1-4.96.31-1.67,1.02-4.3,3.38-1.73,8.21,8.94,19.35,6.47,29.43,7.39,9.42.86,18.98.16,28.47.29,2.51.03,4.76-.3,6.08-2.56,1.91-3.27,3.84-2.17,5.07.17,2.16,4.08,5.58,3.56,9.06,3.1,16.09-2.14,32.24-3.9,48.44-4.67,14.14-.67,28.02,2.68,41.85,5.09,16.18,2.81,33.39,2.8,49.66,2.82v5c-8.83,0-18.66-.13-27.49.04-11.18.22-22.06-2.26-33.08-3.48-15.41-1.71-30.59-4.36-46.35-1.9-11.88,1.85-24.07,1.99-36.09,3.34-2.85.32-4.91-.86-6.34-3.08-1.55-2.4-3.25-2.39-4.64-.24-1.57,2.43-3.71,2.36-6.08,2.34-11-.06-22.01.33-32.98-.18-8.44-.39-17.38.23-24.41-6.14-2.05-1.86-3.5-1.74-3.97,1.23-.59,3.63-2.91,4.17-6.15,4.11-24.28-.49-48.59-.67-72.85-1.38-16.97-.49-33.93-.15-50.88-.74-3.63-.12-7.26-.62-10.88-.97-.49-.05-1.21-.11-1.39-.42-4.69-7.81-12.44-5.64-18.53-4.24-21.79,5.04-43.8,4.9-65.9,4.7-15.99-.14-31.99-.09-47.98.01-3.25.02-5.96-.35-7.3-3.79-.84-2.15-2.38-2.87-4.28-1.38-8.89,6.99-19,3.69-28.74,3.49-.99-.02-1.97-.29-2.96-.31-15.46-.37-30.93-.36-46.36-1.21-7.97-.44-15.92-.88-23.89-.78-2.82.04-3.84-1.56-4.63-3.65-1.13-2.97-2.78-3.95-5.64-1.97-7.64,5.28-16.32,5.12-25.2,5.84-21.4,1.74-40.99-5.04-60.85-10.84-5.51-1.61-10.93-.6-16.23-.16-11.71.98-23.44,1.84-35.15,2.79-14.02,1.14-28.01,2.63-42.03,3.78-10.74.88-21.5,1.49-32.25,2.16-1.94.12-3.97.47-4.53-2.5-.42-2.22-2.23-.84-3.23-.45-7.14,2.75-14.69,2.26-22.08,2.92-13.2,1.17-26.46,3.19-39.62,2.74-19.42-.66-38.87-.33-58.26-1.69-.83-.06-2.12.15-2.41-.29-4.7-7.24-12.31-3.38-18.39-4.41-11.54-1.96-23.37-2.29-35.1-3.12-5.27-.37-9.97,2.25-14.93,3.48-4.99,1.24-9.86,2.95-14.78,4.45-.95.29-1.96.89-2.86.77-11.57-1.61-23.25-.3-34.84-1.3-1.15-.1-2.29-.56-3.43-.52-15.65.61-31.23-1.41-46.87-1.08-2.24.05-4.78-.66-5.32,2.87-.22,1.42-1.86,1.15-2.97,1.13-4.66-.09-9.31.89-13.88.82-13.66-.2-27.25,1-40.87,1.35-18.75.49-37.51,1.19-56.25,2.11-12.25.6-24.54.5-36.78,1.61-6.87.62-6.92.13-6.91-6.9Z"/>
      <path class="cls-8" d="M1.21,63.77c10.62-.01,22.27-.6,32.84.1,14.93.98,28.67-4.08,42.83-7.11,6.34-1.35,6.31-1.48,6.22,4.86-10.01,2.23-20.01,4.49-30.04,6.65-1.76.38-3.61.49-5.43.49-15.14.03-31.28,0-46.42,0,0-1.67,0-3.33,0-5Z"/>
      <path class="cls-10" d="M598.36,78.78c1.64,0,3.28-.05,4.92,0,22.14.71,44.25-.75,66.36-1.33,12.12-.32,24.3.17,36.38-.8,21.79-1.76,43.6-.15,65.38-.96,19.55-.73,39.1-1.75,58.63-3.06,11.08-.74,22.16-1.41,33.25-2.02,9.22-.5,18.57-.32,27.62-2.8,3.27-.9,6.23-2.08,8.27-5.08,2.18-3.22,5.78-3.75,9.27-3.92,14.82-.71,29.38,2.36,44.05,3.19,8.9.51,12.11,4.9,14.5,11.68,1.44,4.1,3.92,5.4,8.25,5.17,19.52-1.04,39.03-2.21,58.51-3.98,2.65-.24,5.33-.12,7.99-.11,5.4.02,9.99-1.16,13.29-6.17,2.11-3.19,5.45-5.03,9.79-4.88,19.12.65,38.19-1.09,57.24-2.18,25.87-1.48,51.71-3.02,77.64-2.87,7.25.04,14.24,1.11,20.99,3.49,14.97,5.3,30.36,7.77,46.21,8.83,10.15.68,20.26.63,30.39.73,17.42.17,34.88.83,52.24-.22,15.93-.97,31.91.3,47.77-1.75.66-.08,1.42.03,1.96-.27,9.34-5.22,18.82-1.48,28.21-.33,2.14.26,4.26.59,6.41.59,29.16,0,58.35.67,87.48-.21,24.8-.75,49.59-.28,74.37-.87,14.23-.34,28.02,2.42,41.94,4.45,4.9.71,9.84,1.4,14.79,1.59,20.97.82,41.94-.21,62.86-1.21,15.82-.76,31.64.29,47.37-.89,17.31-1.29,34.6-.34,51.88-.93,5.43-.19,10.82-1.37,16.25-1.89,13.99-1.32,27.33,2.64,40.75,5.46,14.26,2.99,28.51,5.74,43.17,6.8-.13.24-.23.56-.34.57-8.78.42-17.57.04-26.37,1.03-14.93,1.68-29.32-2.3-43.77-5.25-1.61-.33-3.28-.63-4.91-.6-15.75.22-31.43,2.03-47.14,2.68-15.09.62-30.26,1.14-45.38-.46-3.05-.32-6.23.68-9.35.69-19,.07-38.02.69-56.98-.13-22.3-.96-44.61-1.01-66.83-5.2-13.31-2.51-27.53-1.45-41.3.12-6.27.71-12.56.2-18.88,1.04-8.36,1.12-16.91.63-25.34,1.29-10.95.86-21.91,1.04-32.88.93-19.41-.19-38.7-2.09-58.01-3.87-7.76-.72-15.58-.7-23.37-1.16-2.86-.17-4.37.97-4.93,3.7-.74,3.64-3.13,4.46-6.61,4.41-12.33-.18-24.71.61-36.98-.27-16.31-1.17-32.64.15-48.87-1.04-11.16-.82-22.27-.27-33.39-.82-18.55-.91-37.1-1.81-55.63-3.07-6.33-.43-12.15-3.27-17.97-5.71-5.12-2.15-10.37-3.13-15.97-3.27-14.82-.38-29.63.22-44.36,1.29-19.62,1.44-39.22,3.28-58.8,5.46-10.98,1.22-21.01,4.33-30.96,8.59-4.29,1.84-8.79,2.78-13.55,2.79-22.3.05-44.57-1.06-66.87-1.33-12.72-.15-25.54-.46-38.26-1.71-1.17-.11-2.62.05-2.97-1.27-.33-1.27,1.24-1.82,1.8-2.79,1.12-1.9,5.27-2,3.97-4.89-1.06-2.35-4.23-.91-6.44-1.02-17.3-.83-34.55.55-51.73,2.13-11.59,1.06-23.21.57-34.77,1.79-13.49,1.43-26.9,3.37-40.31,5.43-15.36,2.36-30.7,4.82-46.27,5.77-6.97.43-13.92,1-20.88.79-21.71-.64-43.39-1.61-65.02-3.83-10.71-1.1-21.5-1.4-32.24-2.14-15.84-1.1-31.68-2.27-47.53-3.4,0-.19,0-.38,0-.57Z"/>
      <path class="cls-10" d="M19.4,84.15c6.68-.05,14.3.11,20.91.3,12.56.36,25.16-1.01,37.75-1.43,8.79-.29,17.51-1.24,26.23-2.25,13.13-1.53,26.25-3.17,39.4-4.63,8.22-.91,16.46-1.81,24.71-2.31,30.59-1.84,61.23-.84,91.84-1.03,13.33-.08,26.69-.55,39.98.15,12.63.67,25.27.33,37.87.96,16.08.81,32.16,1.37,48.24,2.03,16.75.69,33.48,1.99,50.25,1.77,4.4-.06,5.43,2.97,6.26,5.84,1.13,3.91,2.7,5.19,7.04,4.4,5.85-1.06,11.33-3.16,16.3-5.93,9.62-5.36,20.09-5.97,30.41-6.04,18.89-.12,37.78.96,56.62,2.67,5.25.48,10.58.07,15.89.47-10.68,1.07-21.33,2.05-31.93,3.62-12.92,1.91-25.85,3.72-38.8,5.41-10.98,1.43-21.94,2.98-33.02,3.71-7.96.53-15.91,1.26-23.87.86-14.54-.73-29.06-1.74-43.51-3.73-14.74-2.03-29.56-3.46-44.33-5.26-12.63-1.54-25.23-3.31-37.87-4.8-5.42-.64-10.9-.93-16.36-1.14-17.71-.67-35.33.27-53.01,1.74-16.54,1.38-32.98-2.74-49.6-2.89-17.52-.16-34.6,2.94-51.77,5.67-15.84,2.52-31.65,5.08-47.64,6.62-9.49.92-18.93.43-28.38.84-16.51.72-33.56-2.45-49.59-5.64Z"/>
      <path class="cls-13" d="M83.21,63.86c5.16-.02,10.32-.11,15.48-.06,34.77.33,69.51-1.42,104.28-1.23,13.71.07,27.54-.94,40.53-6.15,4.02-1.61,7.67-1.27,11.5.17,12.26,4.61,25.04,4.54,37.86,4.21,1.89-.05,3.17-.39,3.41-2.62.32-2.99,2.4-3.44,5.05-3.43,16.98.07,33.96.02,50.94.03,1.63,0,3.84-.48,4.46,1.38,2.03,6.08,6.89,4.89,11.15,4.31,2.98-.41,5.93-.61,8.91-.68,15.11-.36,30.24-.39,45.34-1.16,17.9-.92,35.8-1.82,53.73-1.94,2.3-.01,4.58-.66,6.89-.85,7.45-.61,7.45-.58,7.43,6.94-17.64-.51-35.25.87-52.87,1.23-20.92.44-41.83,1.73-62.77,1.82-2.63.01-5.25.76-7.89.86-3.7.13-7.81,1.11-9.64-3.85-.55-1.5-2.29-1.09-3.58-1.09-17.66-.01-35.33,0-52.99,0-1.33,0-3.28-.19-3.53,1.19-.89,4.99-4.57,3.59-7.68,3.84-12.77,1.05-25.17-1.17-37.39-4.43-3.4-.91-6.32-.09-9.23.8-11.87,3.65-23.95,4.47-36.34,4.83-27.13.8-54.27.09-81.37,1.04-12.64.44-25.26.38-37.89.69-5.31.13-5.58-.43-3.78-5.87Z"/>
      <path class="cls-13" d="M490.13,62.75c23.7,1.02,47.47,1.29,71.08,3.38,12.22,1.09,23.67-1.91,35.48-2.74,2.47-.17,4.9-.73,7.36-1.09,3.2-.46,6.59-.38,6.66-5.21.02-1.63,12.39-6.83,14.15-6.19,3.57,1.28,1.8,4.49,2.29,6.88-5.12,0-9.52,2.63-14.28,3.94-.86.24-1.64.67-1.72,1.57-.45,5.24-4.28,4.45-7.73,4.45-25.74,0-51.49-.13-77.23.13-9.92.1-19.84.93-29.79.97-4.64.02-7.02-1.14-6.27-6.11Z"/>
      <path class="cls-7" d="M388.3,40.04c-.37.92,2.87,3.37-1.16,2.73-5.16-2.54-10.9-1.9-16.34-2.93-3.5-.66-7.07-.97-10.57-1.72,9.42-.23,18.75.86,28.07,1.92Z"/>
      <path class="cls-9" d="M221.26,47.68c-4.79.1-9.6.42-14.34-1.01,4.75-.8,9.48-1.37,14.26-.42.02.48.05.96.07,1.44Z"/>
      <path class="cls-7" d="M1115.98,28.66c0-.57-.02-1.13-.03-1.7,3.38-.69,6.86.42,10.24-.72-3.21,1.84-6.67,2.31-10.21,2.41Z"/>
      <path class="cls-3" d="M473.1,40.67c.04.35.09.7.13,1.05-3.15.38-6.15-.18-10.01-1.78,3.97.06,7-1,9.88.74Z"/>
      <path class="cls-9" d="M148.11,47.69c.03-.33.06-.67.09-1,2.27-1.77,4.73-.34,8.32-1.26-3.24,3.24-5.96,2.09-8.41,2.26Z"/>
      <path class="cls-9" d="M1280,31.68c.03.34.06.68.08,1.03-2.92,0-5.83,0-8.75,0,2.94.08,5.55-3.12,8.67-1.03Z"/>
      <path class="cls-6" d="M95.18,53.82c-2.19,1.75-4.62.65-7.51.92,2.48-2.7,5.15-1.83,7.61-1.91-.09.32-.12.65-.1.99Z"/>
      <path class="cls-11" d="M1689.72,37.08c-.45-.23-1.45-.2-1.04-.91.34-.58,1.02-.04,1.37.5-.11.13-.22.27-.33.41Z"/>
      <path class="cls-11" d="M221.26,47.68c-.02-.48-.05-.96-.07-1.44.54.26,1.07.53,1.61.79-.51.21-1.02.43-1.53.64Z"/>
      <path class="cls-9" d="M630.17,46.7c-.35-.31-.69-.62-1.04-.93.35.31.69.62,1.04.93Z"/>
      <path class="cls-3" d="M503.18,52.32c-1.75.77-3.51.66-5.5.13,1.64-1.67,3.54-1.75,5.49-1.59,0,.49,0,.97,0,1.46Z"/>
      <path class="cls-12" d="M503.18,52.32c0-.49,0-.98,0-1.46,1.32.49.94.97,0,1.46Z"/>
    </g>
    <rect class="cls-2" x="867.02" y="13.78" width=".52" height="95.09"/>
  </g>
</svg>